%TF.GenerationSoftware,KiCad,Pcbnew,(5.1.8-0-10_14)*%
%TF.CreationDate,2021-05-13T19:53:47+02:00*%
%TF.ProjectId,Nauthiluscontroller,4e617574-6869-46c7-9573-636f6e74726f,rev?*%
%TF.SameCoordinates,Original*%
%TF.FileFunction,Paste,Bot*%
%TF.FilePolarity,Positive*%
%FSLAX46Y46*%
G04 Gerber Fmt 4.6, Leading zero omitted, Abs format (unit mm)*
G04 Created by KiCad (PCBNEW (5.1.8-0-10_14)) date 2021-05-13 19:53:47*
%MOMM*%
%LPD*%
G01*
G04 APERTURE LIST*
%ADD10C,0.010000*%
%ADD11R,0.790000X2.520000*%
%ADD12R,0.350000X1.200000*%
%ADD13R,1.100000X1.800000*%
%ADD14R,0.700000X0.600000*%
%ADD15R,1.981200X0.558800*%
G04 APERTURE END LIST*
D10*
%TO.C,U4*%
G36*
X117680000Y-107895000D02*
G01*
X117680000Y-109395000D01*
X119600000Y-109395000D01*
X119600000Y-107895000D01*
X117680000Y-107895000D01*
G37*
X117680000Y-107895000D02*
X117680000Y-109395000D01*
X119600000Y-109395000D01*
X119600000Y-107895000D01*
X117680000Y-107895000D01*
G36*
X117680000Y-109965000D02*
G01*
X117680000Y-111465000D01*
X119600000Y-111465000D01*
X119600000Y-109965000D01*
X117680000Y-109965000D01*
G37*
X117680000Y-109965000D02*
X117680000Y-111465000D01*
X119600000Y-111465000D01*
X119600000Y-109965000D01*
X117680000Y-109965000D01*
G36*
X117680000Y-112035000D02*
G01*
X117680000Y-113535000D01*
X119600000Y-113535000D01*
X119600000Y-112035000D01*
X117680000Y-112035000D01*
G37*
X117680000Y-112035000D02*
X117680000Y-113535000D01*
X119600000Y-113535000D01*
X119600000Y-112035000D01*
X117680000Y-112035000D01*
G36*
X120460000Y-107895000D02*
G01*
X120460000Y-109395000D01*
X122380000Y-109395000D01*
X122380000Y-107895000D01*
X120460000Y-107895000D01*
G37*
X120460000Y-107895000D02*
X120460000Y-109395000D01*
X122380000Y-109395000D01*
X122380000Y-107895000D01*
X120460000Y-107895000D01*
G36*
X120460000Y-109965000D02*
G01*
X120460000Y-111465000D01*
X122380000Y-111465000D01*
X122380000Y-109965000D01*
X120460000Y-109965000D01*
G37*
X120460000Y-109965000D02*
X120460000Y-111465000D01*
X122380000Y-111465000D01*
X122380000Y-109965000D01*
X120460000Y-109965000D01*
G36*
X120460000Y-112035000D02*
G01*
X120460000Y-113535000D01*
X122380000Y-113535000D01*
X122380000Y-112035000D01*
X120460000Y-112035000D01*
G37*
X120460000Y-112035000D02*
X120460000Y-113535000D01*
X122380000Y-113535000D01*
X122380000Y-112035000D01*
X120460000Y-112035000D01*
%TD*%
%TO.C,C39*%
G36*
G01*
X135207500Y-99150000D02*
X134732500Y-99150000D01*
G75*
G02*
X134495000Y-98912500I0J237500D01*
G01*
X134495000Y-98312500D01*
G75*
G02*
X134732500Y-98075000I237500J0D01*
G01*
X135207500Y-98075000D01*
G75*
G02*
X135445000Y-98312500I0J-237500D01*
G01*
X135445000Y-98912500D01*
G75*
G02*
X135207500Y-99150000I-237500J0D01*
G01*
G37*
G36*
G01*
X135207500Y-97425000D02*
X134732500Y-97425000D01*
G75*
G02*
X134495000Y-97187500I0J237500D01*
G01*
X134495000Y-96587500D01*
G75*
G02*
X134732500Y-96350000I237500J0D01*
G01*
X135207500Y-96350000D01*
G75*
G02*
X135445000Y-96587500I0J-237500D01*
G01*
X135445000Y-97187500D01*
G75*
G02*
X135207500Y-97425000I-237500J0D01*
G01*
G37*
%TD*%
%TO.C,C9*%
G36*
G01*
X157142500Y-95360000D02*
X157617500Y-95360000D01*
G75*
G02*
X157855000Y-95597500I0J-237500D01*
G01*
X157855000Y-96197500D01*
G75*
G02*
X157617500Y-96435000I-237500J0D01*
G01*
X157142500Y-96435000D01*
G75*
G02*
X156905000Y-96197500I0J237500D01*
G01*
X156905000Y-95597500D01*
G75*
G02*
X157142500Y-95360000I237500J0D01*
G01*
G37*
G36*
G01*
X157142500Y-97085000D02*
X157617500Y-97085000D01*
G75*
G02*
X157855000Y-97322500I0J-237500D01*
G01*
X157855000Y-97922500D01*
G75*
G02*
X157617500Y-98160000I-237500J0D01*
G01*
X157142500Y-98160000D01*
G75*
G02*
X156905000Y-97922500I0J237500D01*
G01*
X156905000Y-97322500D01*
G75*
G02*
X157142500Y-97085000I237500J0D01*
G01*
G37*
%TD*%
%TO.C,C7*%
G36*
G01*
X160412500Y-108814000D02*
X160887500Y-108814000D01*
G75*
G02*
X161125000Y-109051500I0J-237500D01*
G01*
X161125000Y-109651500D01*
G75*
G02*
X160887500Y-109889000I-237500J0D01*
G01*
X160412500Y-109889000D01*
G75*
G02*
X160175000Y-109651500I0J237500D01*
G01*
X160175000Y-109051500D01*
G75*
G02*
X160412500Y-108814000I237500J0D01*
G01*
G37*
G36*
G01*
X160412500Y-107089000D02*
X160887500Y-107089000D01*
G75*
G02*
X161125000Y-107326500I0J-237500D01*
G01*
X161125000Y-107926500D01*
G75*
G02*
X160887500Y-108164000I-237500J0D01*
G01*
X160412500Y-108164000D01*
G75*
G02*
X160175000Y-107926500I0J237500D01*
G01*
X160175000Y-107326500D01*
G75*
G02*
X160412500Y-107089000I237500J0D01*
G01*
G37*
%TD*%
%TO.C,U14*%
G36*
G01*
X134990000Y-80375000D02*
X134990000Y-80675000D01*
G75*
G02*
X134840000Y-80825000I-150000J0D01*
G01*
X133190000Y-80825000D01*
G75*
G02*
X133040000Y-80675000I0J150000D01*
G01*
X133040000Y-80375000D01*
G75*
G02*
X133190000Y-80225000I150000J0D01*
G01*
X134840000Y-80225000D01*
G75*
G02*
X134990000Y-80375000I0J-150000D01*
G01*
G37*
G36*
G01*
X134990000Y-81645000D02*
X134990000Y-81945000D01*
G75*
G02*
X134840000Y-82095000I-150000J0D01*
G01*
X133190000Y-82095000D01*
G75*
G02*
X133040000Y-81945000I0J150000D01*
G01*
X133040000Y-81645000D01*
G75*
G02*
X133190000Y-81495000I150000J0D01*
G01*
X134840000Y-81495000D01*
G75*
G02*
X134990000Y-81645000I0J-150000D01*
G01*
G37*
G36*
G01*
X134990000Y-82915000D02*
X134990000Y-83215000D01*
G75*
G02*
X134840000Y-83365000I-150000J0D01*
G01*
X133190000Y-83365000D01*
G75*
G02*
X133040000Y-83215000I0J150000D01*
G01*
X133040000Y-82915000D01*
G75*
G02*
X133190000Y-82765000I150000J0D01*
G01*
X134840000Y-82765000D01*
G75*
G02*
X134990000Y-82915000I0J-150000D01*
G01*
G37*
G36*
G01*
X134990000Y-84185000D02*
X134990000Y-84485000D01*
G75*
G02*
X134840000Y-84635000I-150000J0D01*
G01*
X133190000Y-84635000D01*
G75*
G02*
X133040000Y-84485000I0J150000D01*
G01*
X133040000Y-84185000D01*
G75*
G02*
X133190000Y-84035000I150000J0D01*
G01*
X134840000Y-84035000D01*
G75*
G02*
X134990000Y-84185000I0J-150000D01*
G01*
G37*
G36*
G01*
X130040000Y-84185000D02*
X130040000Y-84485000D01*
G75*
G02*
X129890000Y-84635000I-150000J0D01*
G01*
X128240000Y-84635000D01*
G75*
G02*
X128090000Y-84485000I0J150000D01*
G01*
X128090000Y-84185000D01*
G75*
G02*
X128240000Y-84035000I150000J0D01*
G01*
X129890000Y-84035000D01*
G75*
G02*
X130040000Y-84185000I0J-150000D01*
G01*
G37*
G36*
G01*
X130040000Y-82915000D02*
X130040000Y-83215000D01*
G75*
G02*
X129890000Y-83365000I-150000J0D01*
G01*
X128240000Y-83365000D01*
G75*
G02*
X128090000Y-83215000I0J150000D01*
G01*
X128090000Y-82915000D01*
G75*
G02*
X128240000Y-82765000I150000J0D01*
G01*
X129890000Y-82765000D01*
G75*
G02*
X130040000Y-82915000I0J-150000D01*
G01*
G37*
G36*
G01*
X130040000Y-81645000D02*
X130040000Y-81945000D01*
G75*
G02*
X129890000Y-82095000I-150000J0D01*
G01*
X128240000Y-82095000D01*
G75*
G02*
X128090000Y-81945000I0J150000D01*
G01*
X128090000Y-81645000D01*
G75*
G02*
X128240000Y-81495000I150000J0D01*
G01*
X129890000Y-81495000D01*
G75*
G02*
X130040000Y-81645000I0J-150000D01*
G01*
G37*
G36*
G01*
X130040000Y-80375000D02*
X130040000Y-80675000D01*
G75*
G02*
X129890000Y-80825000I-150000J0D01*
G01*
X128240000Y-80825000D01*
G75*
G02*
X128090000Y-80675000I0J150000D01*
G01*
X128090000Y-80375000D01*
G75*
G02*
X128240000Y-80225000I150000J0D01*
G01*
X129890000Y-80225000D01*
G75*
G02*
X130040000Y-80375000I0J-150000D01*
G01*
G37*
%TD*%
%TO.C,C47*%
G36*
G01*
X135902500Y-82527500D02*
X136377500Y-82527500D01*
G75*
G02*
X136615000Y-82765000I0J-237500D01*
G01*
X136615000Y-83365000D01*
G75*
G02*
X136377500Y-83602500I-237500J0D01*
G01*
X135902500Y-83602500D01*
G75*
G02*
X135665000Y-83365000I0J237500D01*
G01*
X135665000Y-82765000D01*
G75*
G02*
X135902500Y-82527500I237500J0D01*
G01*
G37*
G36*
G01*
X135902500Y-80802500D02*
X136377500Y-80802500D01*
G75*
G02*
X136615000Y-81040000I0J-237500D01*
G01*
X136615000Y-81640000D01*
G75*
G02*
X136377500Y-81877500I-237500J0D01*
G01*
X135902500Y-81877500D01*
G75*
G02*
X135665000Y-81640000I0J237500D01*
G01*
X135665000Y-81040000D01*
G75*
G02*
X135902500Y-80802500I237500J0D01*
G01*
G37*
%TD*%
D11*
%TO.C,U4*%
X122310000Y-103895000D03*
X121170000Y-103895000D03*
X118890000Y-103895000D03*
X117750000Y-103895000D03*
%TD*%
D12*
%TO.C,J3*%
X134470000Y-74810000D03*
X135720000Y-74810000D03*
X136970000Y-74810000D03*
D13*
X132070000Y-71910000D03*
X139370000Y-71910000D03*
%TD*%
%TO.C,C30*%
G36*
G01*
X144272500Y-82215000D02*
X144747500Y-82215000D01*
G75*
G02*
X144985000Y-82452500I0J-237500D01*
G01*
X144985000Y-83052500D01*
G75*
G02*
X144747500Y-83290000I-237500J0D01*
G01*
X144272500Y-83290000D01*
G75*
G02*
X144035000Y-83052500I0J237500D01*
G01*
X144035000Y-82452500D01*
G75*
G02*
X144272500Y-82215000I237500J0D01*
G01*
G37*
G36*
G01*
X144272500Y-80490000D02*
X144747500Y-80490000D01*
G75*
G02*
X144985000Y-80727500I0J-237500D01*
G01*
X144985000Y-81327500D01*
G75*
G02*
X144747500Y-81565000I-237500J0D01*
G01*
X144272500Y-81565000D01*
G75*
G02*
X144035000Y-81327500I0J237500D01*
G01*
X144035000Y-80727500D01*
G75*
G02*
X144272500Y-80490000I237500J0D01*
G01*
G37*
%TD*%
D12*
%TO.C,J1*%
X152020000Y-74780000D03*
X153270000Y-74780000D03*
X154520000Y-74780000D03*
D13*
X149620000Y-71910000D03*
X156920000Y-71880000D03*
%TD*%
%TO.C,C15*%
G36*
G01*
X159457500Y-115520000D02*
X158982500Y-115520000D01*
G75*
G02*
X158745000Y-115282500I0J237500D01*
G01*
X158745000Y-114682500D01*
G75*
G02*
X158982500Y-114445000I237500J0D01*
G01*
X159457500Y-114445000D01*
G75*
G02*
X159695000Y-114682500I0J-237500D01*
G01*
X159695000Y-115282500D01*
G75*
G02*
X159457500Y-115520000I-237500J0D01*
G01*
G37*
G36*
G01*
X159457500Y-113795000D02*
X158982500Y-113795000D01*
G75*
G02*
X158745000Y-113557500I0J237500D01*
G01*
X158745000Y-112957500D01*
G75*
G02*
X158982500Y-112720000I237500J0D01*
G01*
X159457500Y-112720000D01*
G75*
G02*
X159695000Y-112957500I0J-237500D01*
G01*
X159695000Y-113557500D01*
G75*
G02*
X159457500Y-113795000I-237500J0D01*
G01*
G37*
%TD*%
%TO.C,R13*%
G36*
G01*
X153395000Y-114025000D02*
X153945000Y-114025000D01*
G75*
G02*
X154145000Y-114225000I0J-200000D01*
G01*
X154145000Y-114625000D01*
G75*
G02*
X153945000Y-114825000I-200000J0D01*
G01*
X153395000Y-114825000D01*
G75*
G02*
X153195000Y-114625000I0J200000D01*
G01*
X153195000Y-114225000D01*
G75*
G02*
X153395000Y-114025000I200000J0D01*
G01*
G37*
G36*
G01*
X153395000Y-112375000D02*
X153945000Y-112375000D01*
G75*
G02*
X154145000Y-112575000I0J-200000D01*
G01*
X154145000Y-112975000D01*
G75*
G02*
X153945000Y-113175000I-200000J0D01*
G01*
X153395000Y-113175000D01*
G75*
G02*
X153195000Y-112975000I0J200000D01*
G01*
X153195000Y-112575000D01*
G75*
G02*
X153395000Y-112375000I200000J0D01*
G01*
G37*
%TD*%
D14*
%TO.C,Q1*%
X118720000Y-99690000D03*
X120720000Y-98740000D03*
X120720000Y-100640000D03*
%TD*%
%TO.C,U1*%
G36*
G01*
X156825000Y-111614000D02*
X156675000Y-111614000D01*
G75*
G02*
X156600000Y-111539000I0J75000D01*
G01*
X156600000Y-110139000D01*
G75*
G02*
X156675000Y-110064000I75000J0D01*
G01*
X156825000Y-110064000D01*
G75*
G02*
X156900000Y-110139000I0J-75000D01*
G01*
X156900000Y-111539000D01*
G75*
G02*
X156825000Y-111614000I-75000J0D01*
G01*
G37*
G36*
G01*
X156325000Y-111614000D02*
X156175000Y-111614000D01*
G75*
G02*
X156100000Y-111539000I0J75000D01*
G01*
X156100000Y-110139000D01*
G75*
G02*
X156175000Y-110064000I75000J0D01*
G01*
X156325000Y-110064000D01*
G75*
G02*
X156400000Y-110139000I0J-75000D01*
G01*
X156400000Y-111539000D01*
G75*
G02*
X156325000Y-111614000I-75000J0D01*
G01*
G37*
G36*
G01*
X155825000Y-111614000D02*
X155675000Y-111614000D01*
G75*
G02*
X155600000Y-111539000I0J75000D01*
G01*
X155600000Y-110139000D01*
G75*
G02*
X155675000Y-110064000I75000J0D01*
G01*
X155825000Y-110064000D01*
G75*
G02*
X155900000Y-110139000I0J-75000D01*
G01*
X155900000Y-111539000D01*
G75*
G02*
X155825000Y-111614000I-75000J0D01*
G01*
G37*
G36*
G01*
X155325000Y-111614000D02*
X155175000Y-111614000D01*
G75*
G02*
X155100000Y-111539000I0J75000D01*
G01*
X155100000Y-110139000D01*
G75*
G02*
X155175000Y-110064000I75000J0D01*
G01*
X155325000Y-110064000D01*
G75*
G02*
X155400000Y-110139000I0J-75000D01*
G01*
X155400000Y-111539000D01*
G75*
G02*
X155325000Y-111614000I-75000J0D01*
G01*
G37*
G36*
G01*
X154825000Y-111614000D02*
X154675000Y-111614000D01*
G75*
G02*
X154600000Y-111539000I0J75000D01*
G01*
X154600000Y-110139000D01*
G75*
G02*
X154675000Y-110064000I75000J0D01*
G01*
X154825000Y-110064000D01*
G75*
G02*
X154900000Y-110139000I0J-75000D01*
G01*
X154900000Y-111539000D01*
G75*
G02*
X154825000Y-111614000I-75000J0D01*
G01*
G37*
G36*
G01*
X154325000Y-111614000D02*
X154175000Y-111614000D01*
G75*
G02*
X154100000Y-111539000I0J75000D01*
G01*
X154100000Y-110139000D01*
G75*
G02*
X154175000Y-110064000I75000J0D01*
G01*
X154325000Y-110064000D01*
G75*
G02*
X154400000Y-110139000I0J-75000D01*
G01*
X154400000Y-111539000D01*
G75*
G02*
X154325000Y-111614000I-75000J0D01*
G01*
G37*
G36*
G01*
X153825000Y-111614000D02*
X153675000Y-111614000D01*
G75*
G02*
X153600000Y-111539000I0J75000D01*
G01*
X153600000Y-110139000D01*
G75*
G02*
X153675000Y-110064000I75000J0D01*
G01*
X153825000Y-110064000D01*
G75*
G02*
X153900000Y-110139000I0J-75000D01*
G01*
X153900000Y-111539000D01*
G75*
G02*
X153825000Y-111614000I-75000J0D01*
G01*
G37*
G36*
G01*
X153325000Y-111614000D02*
X153175000Y-111614000D01*
G75*
G02*
X153100000Y-111539000I0J75000D01*
G01*
X153100000Y-110139000D01*
G75*
G02*
X153175000Y-110064000I75000J0D01*
G01*
X153325000Y-110064000D01*
G75*
G02*
X153400000Y-110139000I0J-75000D01*
G01*
X153400000Y-111539000D01*
G75*
G02*
X153325000Y-111614000I-75000J0D01*
G01*
G37*
G36*
G01*
X152825000Y-111614000D02*
X152675000Y-111614000D01*
G75*
G02*
X152600000Y-111539000I0J75000D01*
G01*
X152600000Y-110139000D01*
G75*
G02*
X152675000Y-110064000I75000J0D01*
G01*
X152825000Y-110064000D01*
G75*
G02*
X152900000Y-110139000I0J-75000D01*
G01*
X152900000Y-111539000D01*
G75*
G02*
X152825000Y-111614000I-75000J0D01*
G01*
G37*
G36*
G01*
X152325000Y-111614000D02*
X152175000Y-111614000D01*
G75*
G02*
X152100000Y-111539000I0J75000D01*
G01*
X152100000Y-110139000D01*
G75*
G02*
X152175000Y-110064000I75000J0D01*
G01*
X152325000Y-110064000D01*
G75*
G02*
X152400000Y-110139000I0J-75000D01*
G01*
X152400000Y-111539000D01*
G75*
G02*
X152325000Y-111614000I-75000J0D01*
G01*
G37*
G36*
G01*
X151825000Y-111614000D02*
X151675000Y-111614000D01*
G75*
G02*
X151600000Y-111539000I0J75000D01*
G01*
X151600000Y-110139000D01*
G75*
G02*
X151675000Y-110064000I75000J0D01*
G01*
X151825000Y-110064000D01*
G75*
G02*
X151900000Y-110139000I0J-75000D01*
G01*
X151900000Y-111539000D01*
G75*
G02*
X151825000Y-111614000I-75000J0D01*
G01*
G37*
G36*
G01*
X151325000Y-111614000D02*
X151175000Y-111614000D01*
G75*
G02*
X151100000Y-111539000I0J75000D01*
G01*
X151100000Y-110139000D01*
G75*
G02*
X151175000Y-110064000I75000J0D01*
G01*
X151325000Y-110064000D01*
G75*
G02*
X151400000Y-110139000I0J-75000D01*
G01*
X151400000Y-111539000D01*
G75*
G02*
X151325000Y-111614000I-75000J0D01*
G01*
G37*
G36*
G01*
X150825000Y-111614000D02*
X150675000Y-111614000D01*
G75*
G02*
X150600000Y-111539000I0J75000D01*
G01*
X150600000Y-110139000D01*
G75*
G02*
X150675000Y-110064000I75000J0D01*
G01*
X150825000Y-110064000D01*
G75*
G02*
X150900000Y-110139000I0J-75000D01*
G01*
X150900000Y-111539000D01*
G75*
G02*
X150825000Y-111614000I-75000J0D01*
G01*
G37*
G36*
G01*
X150325000Y-111614000D02*
X150175000Y-111614000D01*
G75*
G02*
X150100000Y-111539000I0J75000D01*
G01*
X150100000Y-110139000D01*
G75*
G02*
X150175000Y-110064000I75000J0D01*
G01*
X150325000Y-110064000D01*
G75*
G02*
X150400000Y-110139000I0J-75000D01*
G01*
X150400000Y-111539000D01*
G75*
G02*
X150325000Y-111614000I-75000J0D01*
G01*
G37*
G36*
G01*
X149825000Y-111614000D02*
X149675000Y-111614000D01*
G75*
G02*
X149600000Y-111539000I0J75000D01*
G01*
X149600000Y-110139000D01*
G75*
G02*
X149675000Y-110064000I75000J0D01*
G01*
X149825000Y-110064000D01*
G75*
G02*
X149900000Y-110139000I0J-75000D01*
G01*
X149900000Y-111539000D01*
G75*
G02*
X149825000Y-111614000I-75000J0D01*
G01*
G37*
G36*
G01*
X149325000Y-111614000D02*
X149175000Y-111614000D01*
G75*
G02*
X149100000Y-111539000I0J75000D01*
G01*
X149100000Y-110139000D01*
G75*
G02*
X149175000Y-110064000I75000J0D01*
G01*
X149325000Y-110064000D01*
G75*
G02*
X149400000Y-110139000I0J-75000D01*
G01*
X149400000Y-111539000D01*
G75*
G02*
X149325000Y-111614000I-75000J0D01*
G01*
G37*
G36*
G01*
X148025000Y-109064000D02*
X146625000Y-109064000D01*
G75*
G02*
X146550000Y-108989000I0J75000D01*
G01*
X146550000Y-108839000D01*
G75*
G02*
X146625000Y-108764000I75000J0D01*
G01*
X148025000Y-108764000D01*
G75*
G02*
X148100000Y-108839000I0J-75000D01*
G01*
X148100000Y-108989000D01*
G75*
G02*
X148025000Y-109064000I-75000J0D01*
G01*
G37*
G36*
G01*
X148025000Y-108564000D02*
X146625000Y-108564000D01*
G75*
G02*
X146550000Y-108489000I0J75000D01*
G01*
X146550000Y-108339000D01*
G75*
G02*
X146625000Y-108264000I75000J0D01*
G01*
X148025000Y-108264000D01*
G75*
G02*
X148100000Y-108339000I0J-75000D01*
G01*
X148100000Y-108489000D01*
G75*
G02*
X148025000Y-108564000I-75000J0D01*
G01*
G37*
G36*
G01*
X148025000Y-108064000D02*
X146625000Y-108064000D01*
G75*
G02*
X146550000Y-107989000I0J75000D01*
G01*
X146550000Y-107839000D01*
G75*
G02*
X146625000Y-107764000I75000J0D01*
G01*
X148025000Y-107764000D01*
G75*
G02*
X148100000Y-107839000I0J-75000D01*
G01*
X148100000Y-107989000D01*
G75*
G02*
X148025000Y-108064000I-75000J0D01*
G01*
G37*
G36*
G01*
X148025000Y-107564000D02*
X146625000Y-107564000D01*
G75*
G02*
X146550000Y-107489000I0J75000D01*
G01*
X146550000Y-107339000D01*
G75*
G02*
X146625000Y-107264000I75000J0D01*
G01*
X148025000Y-107264000D01*
G75*
G02*
X148100000Y-107339000I0J-75000D01*
G01*
X148100000Y-107489000D01*
G75*
G02*
X148025000Y-107564000I-75000J0D01*
G01*
G37*
G36*
G01*
X148025000Y-107064000D02*
X146625000Y-107064000D01*
G75*
G02*
X146550000Y-106989000I0J75000D01*
G01*
X146550000Y-106839000D01*
G75*
G02*
X146625000Y-106764000I75000J0D01*
G01*
X148025000Y-106764000D01*
G75*
G02*
X148100000Y-106839000I0J-75000D01*
G01*
X148100000Y-106989000D01*
G75*
G02*
X148025000Y-107064000I-75000J0D01*
G01*
G37*
G36*
G01*
X148025000Y-106564000D02*
X146625000Y-106564000D01*
G75*
G02*
X146550000Y-106489000I0J75000D01*
G01*
X146550000Y-106339000D01*
G75*
G02*
X146625000Y-106264000I75000J0D01*
G01*
X148025000Y-106264000D01*
G75*
G02*
X148100000Y-106339000I0J-75000D01*
G01*
X148100000Y-106489000D01*
G75*
G02*
X148025000Y-106564000I-75000J0D01*
G01*
G37*
G36*
G01*
X148025000Y-106064000D02*
X146625000Y-106064000D01*
G75*
G02*
X146550000Y-105989000I0J75000D01*
G01*
X146550000Y-105839000D01*
G75*
G02*
X146625000Y-105764000I75000J0D01*
G01*
X148025000Y-105764000D01*
G75*
G02*
X148100000Y-105839000I0J-75000D01*
G01*
X148100000Y-105989000D01*
G75*
G02*
X148025000Y-106064000I-75000J0D01*
G01*
G37*
G36*
G01*
X148025000Y-105564000D02*
X146625000Y-105564000D01*
G75*
G02*
X146550000Y-105489000I0J75000D01*
G01*
X146550000Y-105339000D01*
G75*
G02*
X146625000Y-105264000I75000J0D01*
G01*
X148025000Y-105264000D01*
G75*
G02*
X148100000Y-105339000I0J-75000D01*
G01*
X148100000Y-105489000D01*
G75*
G02*
X148025000Y-105564000I-75000J0D01*
G01*
G37*
G36*
G01*
X148025000Y-105064000D02*
X146625000Y-105064000D01*
G75*
G02*
X146550000Y-104989000I0J75000D01*
G01*
X146550000Y-104839000D01*
G75*
G02*
X146625000Y-104764000I75000J0D01*
G01*
X148025000Y-104764000D01*
G75*
G02*
X148100000Y-104839000I0J-75000D01*
G01*
X148100000Y-104989000D01*
G75*
G02*
X148025000Y-105064000I-75000J0D01*
G01*
G37*
G36*
G01*
X148025000Y-104564000D02*
X146625000Y-104564000D01*
G75*
G02*
X146550000Y-104489000I0J75000D01*
G01*
X146550000Y-104339000D01*
G75*
G02*
X146625000Y-104264000I75000J0D01*
G01*
X148025000Y-104264000D01*
G75*
G02*
X148100000Y-104339000I0J-75000D01*
G01*
X148100000Y-104489000D01*
G75*
G02*
X148025000Y-104564000I-75000J0D01*
G01*
G37*
G36*
G01*
X148025000Y-104064000D02*
X146625000Y-104064000D01*
G75*
G02*
X146550000Y-103989000I0J75000D01*
G01*
X146550000Y-103839000D01*
G75*
G02*
X146625000Y-103764000I75000J0D01*
G01*
X148025000Y-103764000D01*
G75*
G02*
X148100000Y-103839000I0J-75000D01*
G01*
X148100000Y-103989000D01*
G75*
G02*
X148025000Y-104064000I-75000J0D01*
G01*
G37*
G36*
G01*
X148025000Y-103564000D02*
X146625000Y-103564000D01*
G75*
G02*
X146550000Y-103489000I0J75000D01*
G01*
X146550000Y-103339000D01*
G75*
G02*
X146625000Y-103264000I75000J0D01*
G01*
X148025000Y-103264000D01*
G75*
G02*
X148100000Y-103339000I0J-75000D01*
G01*
X148100000Y-103489000D01*
G75*
G02*
X148025000Y-103564000I-75000J0D01*
G01*
G37*
G36*
G01*
X148025000Y-103064000D02*
X146625000Y-103064000D01*
G75*
G02*
X146550000Y-102989000I0J75000D01*
G01*
X146550000Y-102839000D01*
G75*
G02*
X146625000Y-102764000I75000J0D01*
G01*
X148025000Y-102764000D01*
G75*
G02*
X148100000Y-102839000I0J-75000D01*
G01*
X148100000Y-102989000D01*
G75*
G02*
X148025000Y-103064000I-75000J0D01*
G01*
G37*
G36*
G01*
X148025000Y-102564000D02*
X146625000Y-102564000D01*
G75*
G02*
X146550000Y-102489000I0J75000D01*
G01*
X146550000Y-102339000D01*
G75*
G02*
X146625000Y-102264000I75000J0D01*
G01*
X148025000Y-102264000D01*
G75*
G02*
X148100000Y-102339000I0J-75000D01*
G01*
X148100000Y-102489000D01*
G75*
G02*
X148025000Y-102564000I-75000J0D01*
G01*
G37*
G36*
G01*
X148025000Y-102064000D02*
X146625000Y-102064000D01*
G75*
G02*
X146550000Y-101989000I0J75000D01*
G01*
X146550000Y-101839000D01*
G75*
G02*
X146625000Y-101764000I75000J0D01*
G01*
X148025000Y-101764000D01*
G75*
G02*
X148100000Y-101839000I0J-75000D01*
G01*
X148100000Y-101989000D01*
G75*
G02*
X148025000Y-102064000I-75000J0D01*
G01*
G37*
G36*
G01*
X148025000Y-101564000D02*
X146625000Y-101564000D01*
G75*
G02*
X146550000Y-101489000I0J75000D01*
G01*
X146550000Y-101339000D01*
G75*
G02*
X146625000Y-101264000I75000J0D01*
G01*
X148025000Y-101264000D01*
G75*
G02*
X148100000Y-101339000I0J-75000D01*
G01*
X148100000Y-101489000D01*
G75*
G02*
X148025000Y-101564000I-75000J0D01*
G01*
G37*
G36*
G01*
X149325000Y-100264000D02*
X149175000Y-100264000D01*
G75*
G02*
X149100000Y-100189000I0J75000D01*
G01*
X149100000Y-98789000D01*
G75*
G02*
X149175000Y-98714000I75000J0D01*
G01*
X149325000Y-98714000D01*
G75*
G02*
X149400000Y-98789000I0J-75000D01*
G01*
X149400000Y-100189000D01*
G75*
G02*
X149325000Y-100264000I-75000J0D01*
G01*
G37*
G36*
G01*
X149825000Y-100264000D02*
X149675000Y-100264000D01*
G75*
G02*
X149600000Y-100189000I0J75000D01*
G01*
X149600000Y-98789000D01*
G75*
G02*
X149675000Y-98714000I75000J0D01*
G01*
X149825000Y-98714000D01*
G75*
G02*
X149900000Y-98789000I0J-75000D01*
G01*
X149900000Y-100189000D01*
G75*
G02*
X149825000Y-100264000I-75000J0D01*
G01*
G37*
G36*
G01*
X150325000Y-100264000D02*
X150175000Y-100264000D01*
G75*
G02*
X150100000Y-100189000I0J75000D01*
G01*
X150100000Y-98789000D01*
G75*
G02*
X150175000Y-98714000I75000J0D01*
G01*
X150325000Y-98714000D01*
G75*
G02*
X150400000Y-98789000I0J-75000D01*
G01*
X150400000Y-100189000D01*
G75*
G02*
X150325000Y-100264000I-75000J0D01*
G01*
G37*
G36*
G01*
X150825000Y-100264000D02*
X150675000Y-100264000D01*
G75*
G02*
X150600000Y-100189000I0J75000D01*
G01*
X150600000Y-98789000D01*
G75*
G02*
X150675000Y-98714000I75000J0D01*
G01*
X150825000Y-98714000D01*
G75*
G02*
X150900000Y-98789000I0J-75000D01*
G01*
X150900000Y-100189000D01*
G75*
G02*
X150825000Y-100264000I-75000J0D01*
G01*
G37*
G36*
G01*
X151325000Y-100264000D02*
X151175000Y-100264000D01*
G75*
G02*
X151100000Y-100189000I0J75000D01*
G01*
X151100000Y-98789000D01*
G75*
G02*
X151175000Y-98714000I75000J0D01*
G01*
X151325000Y-98714000D01*
G75*
G02*
X151400000Y-98789000I0J-75000D01*
G01*
X151400000Y-100189000D01*
G75*
G02*
X151325000Y-100264000I-75000J0D01*
G01*
G37*
G36*
G01*
X151825000Y-100264000D02*
X151675000Y-100264000D01*
G75*
G02*
X151600000Y-100189000I0J75000D01*
G01*
X151600000Y-98789000D01*
G75*
G02*
X151675000Y-98714000I75000J0D01*
G01*
X151825000Y-98714000D01*
G75*
G02*
X151900000Y-98789000I0J-75000D01*
G01*
X151900000Y-100189000D01*
G75*
G02*
X151825000Y-100264000I-75000J0D01*
G01*
G37*
G36*
G01*
X152325000Y-100264000D02*
X152175000Y-100264000D01*
G75*
G02*
X152100000Y-100189000I0J75000D01*
G01*
X152100000Y-98789000D01*
G75*
G02*
X152175000Y-98714000I75000J0D01*
G01*
X152325000Y-98714000D01*
G75*
G02*
X152400000Y-98789000I0J-75000D01*
G01*
X152400000Y-100189000D01*
G75*
G02*
X152325000Y-100264000I-75000J0D01*
G01*
G37*
G36*
G01*
X152825000Y-100264000D02*
X152675000Y-100264000D01*
G75*
G02*
X152600000Y-100189000I0J75000D01*
G01*
X152600000Y-98789000D01*
G75*
G02*
X152675000Y-98714000I75000J0D01*
G01*
X152825000Y-98714000D01*
G75*
G02*
X152900000Y-98789000I0J-75000D01*
G01*
X152900000Y-100189000D01*
G75*
G02*
X152825000Y-100264000I-75000J0D01*
G01*
G37*
G36*
G01*
X153325000Y-100264000D02*
X153175000Y-100264000D01*
G75*
G02*
X153100000Y-100189000I0J75000D01*
G01*
X153100000Y-98789000D01*
G75*
G02*
X153175000Y-98714000I75000J0D01*
G01*
X153325000Y-98714000D01*
G75*
G02*
X153400000Y-98789000I0J-75000D01*
G01*
X153400000Y-100189000D01*
G75*
G02*
X153325000Y-100264000I-75000J0D01*
G01*
G37*
G36*
G01*
X153825000Y-100264000D02*
X153675000Y-100264000D01*
G75*
G02*
X153600000Y-100189000I0J75000D01*
G01*
X153600000Y-98789000D01*
G75*
G02*
X153675000Y-98714000I75000J0D01*
G01*
X153825000Y-98714000D01*
G75*
G02*
X153900000Y-98789000I0J-75000D01*
G01*
X153900000Y-100189000D01*
G75*
G02*
X153825000Y-100264000I-75000J0D01*
G01*
G37*
G36*
G01*
X154325000Y-100264000D02*
X154175000Y-100264000D01*
G75*
G02*
X154100000Y-100189000I0J75000D01*
G01*
X154100000Y-98789000D01*
G75*
G02*
X154175000Y-98714000I75000J0D01*
G01*
X154325000Y-98714000D01*
G75*
G02*
X154400000Y-98789000I0J-75000D01*
G01*
X154400000Y-100189000D01*
G75*
G02*
X154325000Y-100264000I-75000J0D01*
G01*
G37*
G36*
G01*
X154825000Y-100264000D02*
X154675000Y-100264000D01*
G75*
G02*
X154600000Y-100189000I0J75000D01*
G01*
X154600000Y-98789000D01*
G75*
G02*
X154675000Y-98714000I75000J0D01*
G01*
X154825000Y-98714000D01*
G75*
G02*
X154900000Y-98789000I0J-75000D01*
G01*
X154900000Y-100189000D01*
G75*
G02*
X154825000Y-100264000I-75000J0D01*
G01*
G37*
G36*
G01*
X155325000Y-100264000D02*
X155175000Y-100264000D01*
G75*
G02*
X155100000Y-100189000I0J75000D01*
G01*
X155100000Y-98789000D01*
G75*
G02*
X155175000Y-98714000I75000J0D01*
G01*
X155325000Y-98714000D01*
G75*
G02*
X155400000Y-98789000I0J-75000D01*
G01*
X155400000Y-100189000D01*
G75*
G02*
X155325000Y-100264000I-75000J0D01*
G01*
G37*
G36*
G01*
X155825000Y-100264000D02*
X155675000Y-100264000D01*
G75*
G02*
X155600000Y-100189000I0J75000D01*
G01*
X155600000Y-98789000D01*
G75*
G02*
X155675000Y-98714000I75000J0D01*
G01*
X155825000Y-98714000D01*
G75*
G02*
X155900000Y-98789000I0J-75000D01*
G01*
X155900000Y-100189000D01*
G75*
G02*
X155825000Y-100264000I-75000J0D01*
G01*
G37*
G36*
G01*
X156325000Y-100264000D02*
X156175000Y-100264000D01*
G75*
G02*
X156100000Y-100189000I0J75000D01*
G01*
X156100000Y-98789000D01*
G75*
G02*
X156175000Y-98714000I75000J0D01*
G01*
X156325000Y-98714000D01*
G75*
G02*
X156400000Y-98789000I0J-75000D01*
G01*
X156400000Y-100189000D01*
G75*
G02*
X156325000Y-100264000I-75000J0D01*
G01*
G37*
G36*
G01*
X156825000Y-100264000D02*
X156675000Y-100264000D01*
G75*
G02*
X156600000Y-100189000I0J75000D01*
G01*
X156600000Y-98789000D01*
G75*
G02*
X156675000Y-98714000I75000J0D01*
G01*
X156825000Y-98714000D01*
G75*
G02*
X156900000Y-98789000I0J-75000D01*
G01*
X156900000Y-100189000D01*
G75*
G02*
X156825000Y-100264000I-75000J0D01*
G01*
G37*
G36*
G01*
X159375000Y-101564000D02*
X157975000Y-101564000D01*
G75*
G02*
X157900000Y-101489000I0J75000D01*
G01*
X157900000Y-101339000D01*
G75*
G02*
X157975000Y-101264000I75000J0D01*
G01*
X159375000Y-101264000D01*
G75*
G02*
X159450000Y-101339000I0J-75000D01*
G01*
X159450000Y-101489000D01*
G75*
G02*
X159375000Y-101564000I-75000J0D01*
G01*
G37*
G36*
G01*
X159375000Y-102064000D02*
X157975000Y-102064000D01*
G75*
G02*
X157900000Y-101989000I0J75000D01*
G01*
X157900000Y-101839000D01*
G75*
G02*
X157975000Y-101764000I75000J0D01*
G01*
X159375000Y-101764000D01*
G75*
G02*
X159450000Y-101839000I0J-75000D01*
G01*
X159450000Y-101989000D01*
G75*
G02*
X159375000Y-102064000I-75000J0D01*
G01*
G37*
G36*
G01*
X159375000Y-102564000D02*
X157975000Y-102564000D01*
G75*
G02*
X157900000Y-102489000I0J75000D01*
G01*
X157900000Y-102339000D01*
G75*
G02*
X157975000Y-102264000I75000J0D01*
G01*
X159375000Y-102264000D01*
G75*
G02*
X159450000Y-102339000I0J-75000D01*
G01*
X159450000Y-102489000D01*
G75*
G02*
X159375000Y-102564000I-75000J0D01*
G01*
G37*
G36*
G01*
X159375000Y-103064000D02*
X157975000Y-103064000D01*
G75*
G02*
X157900000Y-102989000I0J75000D01*
G01*
X157900000Y-102839000D01*
G75*
G02*
X157975000Y-102764000I75000J0D01*
G01*
X159375000Y-102764000D01*
G75*
G02*
X159450000Y-102839000I0J-75000D01*
G01*
X159450000Y-102989000D01*
G75*
G02*
X159375000Y-103064000I-75000J0D01*
G01*
G37*
G36*
G01*
X159375000Y-103564000D02*
X157975000Y-103564000D01*
G75*
G02*
X157900000Y-103489000I0J75000D01*
G01*
X157900000Y-103339000D01*
G75*
G02*
X157975000Y-103264000I75000J0D01*
G01*
X159375000Y-103264000D01*
G75*
G02*
X159450000Y-103339000I0J-75000D01*
G01*
X159450000Y-103489000D01*
G75*
G02*
X159375000Y-103564000I-75000J0D01*
G01*
G37*
G36*
G01*
X159375000Y-104064000D02*
X157975000Y-104064000D01*
G75*
G02*
X157900000Y-103989000I0J75000D01*
G01*
X157900000Y-103839000D01*
G75*
G02*
X157975000Y-103764000I75000J0D01*
G01*
X159375000Y-103764000D01*
G75*
G02*
X159450000Y-103839000I0J-75000D01*
G01*
X159450000Y-103989000D01*
G75*
G02*
X159375000Y-104064000I-75000J0D01*
G01*
G37*
G36*
G01*
X159375000Y-104564000D02*
X157975000Y-104564000D01*
G75*
G02*
X157900000Y-104489000I0J75000D01*
G01*
X157900000Y-104339000D01*
G75*
G02*
X157975000Y-104264000I75000J0D01*
G01*
X159375000Y-104264000D01*
G75*
G02*
X159450000Y-104339000I0J-75000D01*
G01*
X159450000Y-104489000D01*
G75*
G02*
X159375000Y-104564000I-75000J0D01*
G01*
G37*
G36*
G01*
X159375000Y-105064000D02*
X157975000Y-105064000D01*
G75*
G02*
X157900000Y-104989000I0J75000D01*
G01*
X157900000Y-104839000D01*
G75*
G02*
X157975000Y-104764000I75000J0D01*
G01*
X159375000Y-104764000D01*
G75*
G02*
X159450000Y-104839000I0J-75000D01*
G01*
X159450000Y-104989000D01*
G75*
G02*
X159375000Y-105064000I-75000J0D01*
G01*
G37*
G36*
G01*
X159375000Y-105564000D02*
X157975000Y-105564000D01*
G75*
G02*
X157900000Y-105489000I0J75000D01*
G01*
X157900000Y-105339000D01*
G75*
G02*
X157975000Y-105264000I75000J0D01*
G01*
X159375000Y-105264000D01*
G75*
G02*
X159450000Y-105339000I0J-75000D01*
G01*
X159450000Y-105489000D01*
G75*
G02*
X159375000Y-105564000I-75000J0D01*
G01*
G37*
G36*
G01*
X159375000Y-106064000D02*
X157975000Y-106064000D01*
G75*
G02*
X157900000Y-105989000I0J75000D01*
G01*
X157900000Y-105839000D01*
G75*
G02*
X157975000Y-105764000I75000J0D01*
G01*
X159375000Y-105764000D01*
G75*
G02*
X159450000Y-105839000I0J-75000D01*
G01*
X159450000Y-105989000D01*
G75*
G02*
X159375000Y-106064000I-75000J0D01*
G01*
G37*
G36*
G01*
X159375000Y-106564000D02*
X157975000Y-106564000D01*
G75*
G02*
X157900000Y-106489000I0J75000D01*
G01*
X157900000Y-106339000D01*
G75*
G02*
X157975000Y-106264000I75000J0D01*
G01*
X159375000Y-106264000D01*
G75*
G02*
X159450000Y-106339000I0J-75000D01*
G01*
X159450000Y-106489000D01*
G75*
G02*
X159375000Y-106564000I-75000J0D01*
G01*
G37*
G36*
G01*
X159375000Y-107064000D02*
X157975000Y-107064000D01*
G75*
G02*
X157900000Y-106989000I0J75000D01*
G01*
X157900000Y-106839000D01*
G75*
G02*
X157975000Y-106764000I75000J0D01*
G01*
X159375000Y-106764000D01*
G75*
G02*
X159450000Y-106839000I0J-75000D01*
G01*
X159450000Y-106989000D01*
G75*
G02*
X159375000Y-107064000I-75000J0D01*
G01*
G37*
G36*
G01*
X159375000Y-107564000D02*
X157975000Y-107564000D01*
G75*
G02*
X157900000Y-107489000I0J75000D01*
G01*
X157900000Y-107339000D01*
G75*
G02*
X157975000Y-107264000I75000J0D01*
G01*
X159375000Y-107264000D01*
G75*
G02*
X159450000Y-107339000I0J-75000D01*
G01*
X159450000Y-107489000D01*
G75*
G02*
X159375000Y-107564000I-75000J0D01*
G01*
G37*
G36*
G01*
X159375000Y-108064000D02*
X157975000Y-108064000D01*
G75*
G02*
X157900000Y-107989000I0J75000D01*
G01*
X157900000Y-107839000D01*
G75*
G02*
X157975000Y-107764000I75000J0D01*
G01*
X159375000Y-107764000D01*
G75*
G02*
X159450000Y-107839000I0J-75000D01*
G01*
X159450000Y-107989000D01*
G75*
G02*
X159375000Y-108064000I-75000J0D01*
G01*
G37*
G36*
G01*
X159375000Y-108564000D02*
X157975000Y-108564000D01*
G75*
G02*
X157900000Y-108489000I0J75000D01*
G01*
X157900000Y-108339000D01*
G75*
G02*
X157975000Y-108264000I75000J0D01*
G01*
X159375000Y-108264000D01*
G75*
G02*
X159450000Y-108339000I0J-75000D01*
G01*
X159450000Y-108489000D01*
G75*
G02*
X159375000Y-108564000I-75000J0D01*
G01*
G37*
G36*
G01*
X159375000Y-109064000D02*
X157975000Y-109064000D01*
G75*
G02*
X157900000Y-108989000I0J75000D01*
G01*
X157900000Y-108839000D01*
G75*
G02*
X157975000Y-108764000I75000J0D01*
G01*
X159375000Y-108764000D01*
G75*
G02*
X159450000Y-108839000I0J-75000D01*
G01*
X159450000Y-108989000D01*
G75*
G02*
X159375000Y-109064000I-75000J0D01*
G01*
G37*
%TD*%
%TO.C,F1*%
G36*
G01*
X116695000Y-97140000D02*
X116695000Y-95890000D01*
G75*
G02*
X116945000Y-95640000I250000J0D01*
G01*
X117870000Y-95640000D01*
G75*
G02*
X118120000Y-95890000I0J-250000D01*
G01*
X118120000Y-97140000D01*
G75*
G02*
X117870000Y-97390000I-250000J0D01*
G01*
X116945000Y-97390000D01*
G75*
G02*
X116695000Y-97140000I0J250000D01*
G01*
G37*
G36*
G01*
X119670000Y-97140000D02*
X119670000Y-95890000D01*
G75*
G02*
X119920000Y-95640000I250000J0D01*
G01*
X120845000Y-95640000D01*
G75*
G02*
X121095000Y-95890000I0J-250000D01*
G01*
X121095000Y-97140000D01*
G75*
G02*
X120845000Y-97390000I-250000J0D01*
G01*
X119920000Y-97390000D01*
G75*
G02*
X119670000Y-97140000I0J250000D01*
G01*
G37*
%TD*%
%TO.C,C11*%
G36*
G01*
X144782500Y-97660000D02*
X145257500Y-97660000D01*
G75*
G02*
X145495000Y-97897500I0J-237500D01*
G01*
X145495000Y-98497500D01*
G75*
G02*
X145257500Y-98735000I-237500J0D01*
G01*
X144782500Y-98735000D01*
G75*
G02*
X144545000Y-98497500I0J237500D01*
G01*
X144545000Y-97897500D01*
G75*
G02*
X144782500Y-97660000I237500J0D01*
G01*
G37*
G36*
G01*
X144782500Y-99385000D02*
X145257500Y-99385000D01*
G75*
G02*
X145495000Y-99622500I0J-237500D01*
G01*
X145495000Y-100222500D01*
G75*
G02*
X145257500Y-100460000I-237500J0D01*
G01*
X144782500Y-100460000D01*
G75*
G02*
X144545000Y-100222500I0J237500D01*
G01*
X144545000Y-99622500D01*
G75*
G02*
X144782500Y-99385000I237500J0D01*
G01*
G37*
%TD*%
%TO.C,C12*%
G36*
G01*
X155482500Y-96985000D02*
X155957500Y-96985000D01*
G75*
G02*
X156195000Y-97222500I0J-237500D01*
G01*
X156195000Y-97822500D01*
G75*
G02*
X155957500Y-98060000I-237500J0D01*
G01*
X155482500Y-98060000D01*
G75*
G02*
X155245000Y-97822500I0J237500D01*
G01*
X155245000Y-97222500D01*
G75*
G02*
X155482500Y-96985000I237500J0D01*
G01*
G37*
G36*
G01*
X155482500Y-95260000D02*
X155957500Y-95260000D01*
G75*
G02*
X156195000Y-95497500I0J-237500D01*
G01*
X156195000Y-96097500D01*
G75*
G02*
X155957500Y-96335000I-237500J0D01*
G01*
X155482500Y-96335000D01*
G75*
G02*
X155245000Y-96097500I0J237500D01*
G01*
X155245000Y-95497500D01*
G75*
G02*
X155482500Y-95260000I237500J0D01*
G01*
G37*
%TD*%
%TO.C,C13*%
G36*
G01*
X116982500Y-98165000D02*
X117457500Y-98165000D01*
G75*
G02*
X117695000Y-98402500I0J-237500D01*
G01*
X117695000Y-99002500D01*
G75*
G02*
X117457500Y-99240000I-237500J0D01*
G01*
X116982500Y-99240000D01*
G75*
G02*
X116745000Y-99002500I0J237500D01*
G01*
X116745000Y-98402500D01*
G75*
G02*
X116982500Y-98165000I237500J0D01*
G01*
G37*
G36*
G01*
X116982500Y-99890000D02*
X117457500Y-99890000D01*
G75*
G02*
X117695000Y-100127500I0J-237500D01*
G01*
X117695000Y-100727500D01*
G75*
G02*
X117457500Y-100965000I-237500J0D01*
G01*
X116982500Y-100965000D01*
G75*
G02*
X116745000Y-100727500I0J237500D01*
G01*
X116745000Y-100127500D01*
G75*
G02*
X116982500Y-99890000I237500J0D01*
G01*
G37*
%TD*%
%TO.C,C14*%
G36*
G01*
X121957500Y-96715000D02*
X122432500Y-96715000D01*
G75*
G02*
X122670000Y-96952500I0J-237500D01*
G01*
X122670000Y-97552500D01*
G75*
G02*
X122432500Y-97790000I-237500J0D01*
G01*
X121957500Y-97790000D01*
G75*
G02*
X121720000Y-97552500I0J237500D01*
G01*
X121720000Y-96952500D01*
G75*
G02*
X121957500Y-96715000I237500J0D01*
G01*
G37*
G36*
G01*
X121957500Y-94990000D02*
X122432500Y-94990000D01*
G75*
G02*
X122670000Y-95227500I0J-237500D01*
G01*
X122670000Y-95827500D01*
G75*
G02*
X122432500Y-96065000I-237500J0D01*
G01*
X121957500Y-96065000D01*
G75*
G02*
X121720000Y-95827500I0J237500D01*
G01*
X121720000Y-95227500D01*
G75*
G02*
X121957500Y-94990000I237500J0D01*
G01*
G37*
%TD*%
%TO.C,C16*%
G36*
G01*
X153442500Y-117117500D02*
X153917500Y-117117500D01*
G75*
G02*
X154155000Y-117355000I0J-237500D01*
G01*
X154155000Y-117955000D01*
G75*
G02*
X153917500Y-118192500I-237500J0D01*
G01*
X153442500Y-118192500D01*
G75*
G02*
X153205000Y-117955000I0J237500D01*
G01*
X153205000Y-117355000D01*
G75*
G02*
X153442500Y-117117500I237500J0D01*
G01*
G37*
G36*
G01*
X153442500Y-115392500D02*
X153917500Y-115392500D01*
G75*
G02*
X154155000Y-115630000I0J-237500D01*
G01*
X154155000Y-116230000D01*
G75*
G02*
X153917500Y-116467500I-237500J0D01*
G01*
X153442500Y-116467500D01*
G75*
G02*
X153205000Y-116230000I0J237500D01*
G01*
X153205000Y-115630000D01*
G75*
G02*
X153442500Y-115392500I237500J0D01*
G01*
G37*
%TD*%
%TO.C,FB1*%
G36*
G01*
X122420000Y-100865000D02*
X121920000Y-100865000D01*
G75*
G02*
X121695000Y-100640000I0J225000D01*
G01*
X121695000Y-100190000D01*
G75*
G02*
X121920000Y-99965000I225000J0D01*
G01*
X122420000Y-99965000D01*
G75*
G02*
X122645000Y-100190000I0J-225000D01*
G01*
X122645000Y-100640000D01*
G75*
G02*
X122420000Y-100865000I-225000J0D01*
G01*
G37*
G36*
G01*
X122420000Y-99315000D02*
X121920000Y-99315000D01*
G75*
G02*
X121695000Y-99090000I0J225000D01*
G01*
X121695000Y-98640000D01*
G75*
G02*
X121920000Y-98415000I225000J0D01*
G01*
X122420000Y-98415000D01*
G75*
G02*
X122645000Y-98640000I0J-225000D01*
G01*
X122645000Y-99090000D01*
G75*
G02*
X122420000Y-99315000I-225000J0D01*
G01*
G37*
%TD*%
%TO.C,R12*%
G36*
G01*
X161144000Y-106193000D02*
X161144000Y-105643000D01*
G75*
G02*
X161344000Y-105443000I200000J0D01*
G01*
X161744000Y-105443000D01*
G75*
G02*
X161944000Y-105643000I0J-200000D01*
G01*
X161944000Y-106193000D01*
G75*
G02*
X161744000Y-106393000I-200000J0D01*
G01*
X161344000Y-106393000D01*
G75*
G02*
X161144000Y-106193000I0J200000D01*
G01*
G37*
G36*
G01*
X162794000Y-106193000D02*
X162794000Y-105643000D01*
G75*
G02*
X162994000Y-105443000I200000J0D01*
G01*
X163394000Y-105443000D01*
G75*
G02*
X163594000Y-105643000I0J-200000D01*
G01*
X163594000Y-106193000D01*
G75*
G02*
X163394000Y-106393000I-200000J0D01*
G01*
X162994000Y-106393000D01*
G75*
G02*
X162794000Y-106193000I0J200000D01*
G01*
G37*
%TD*%
%TO.C,R14*%
G36*
G01*
X161881000Y-104119000D02*
X161881000Y-104669000D01*
G75*
G02*
X161681000Y-104869000I-200000J0D01*
G01*
X161281000Y-104869000D01*
G75*
G02*
X161081000Y-104669000I0J200000D01*
G01*
X161081000Y-104119000D01*
G75*
G02*
X161281000Y-103919000I200000J0D01*
G01*
X161681000Y-103919000D01*
G75*
G02*
X161881000Y-104119000I0J-200000D01*
G01*
G37*
G36*
G01*
X163531000Y-104119000D02*
X163531000Y-104669000D01*
G75*
G02*
X163331000Y-104869000I-200000J0D01*
G01*
X162931000Y-104869000D01*
G75*
G02*
X162731000Y-104669000I0J200000D01*
G01*
X162731000Y-104119000D01*
G75*
G02*
X162931000Y-103919000I200000J0D01*
G01*
X163331000Y-103919000D01*
G75*
G02*
X163531000Y-104119000I0J-200000D01*
G01*
G37*
%TD*%
%TO.C,R29*%
G36*
G01*
X131765000Y-79340000D02*
X131215000Y-79340000D01*
G75*
G02*
X131015000Y-79140000I0J200000D01*
G01*
X131015000Y-78740000D01*
G75*
G02*
X131215000Y-78540000I200000J0D01*
G01*
X131765000Y-78540000D01*
G75*
G02*
X131965000Y-78740000I0J-200000D01*
G01*
X131965000Y-79140000D01*
G75*
G02*
X131765000Y-79340000I-200000J0D01*
G01*
G37*
G36*
G01*
X131765000Y-77690000D02*
X131215000Y-77690000D01*
G75*
G02*
X131015000Y-77490000I0J200000D01*
G01*
X131015000Y-77090000D01*
G75*
G02*
X131215000Y-76890000I200000J0D01*
G01*
X131765000Y-76890000D01*
G75*
G02*
X131965000Y-77090000I0J-200000D01*
G01*
X131965000Y-77490000D01*
G75*
G02*
X131765000Y-77690000I-200000J0D01*
G01*
G37*
%TD*%
%TO.C,C1*%
G36*
G01*
X144777500Y-110522500D02*
X144302500Y-110522500D01*
G75*
G02*
X144065000Y-110285000I0J237500D01*
G01*
X144065000Y-109685000D01*
G75*
G02*
X144302500Y-109447500I237500J0D01*
G01*
X144777500Y-109447500D01*
G75*
G02*
X145015000Y-109685000I0J-237500D01*
G01*
X145015000Y-110285000D01*
G75*
G02*
X144777500Y-110522500I-237500J0D01*
G01*
G37*
G36*
G01*
X144777500Y-108797500D02*
X144302500Y-108797500D01*
G75*
G02*
X144065000Y-108560000I0J237500D01*
G01*
X144065000Y-107960000D01*
G75*
G02*
X144302500Y-107722500I237500J0D01*
G01*
X144777500Y-107722500D01*
G75*
G02*
X145015000Y-107960000I0J-237500D01*
G01*
X145015000Y-108560000D01*
G75*
G02*
X144777500Y-108797500I-237500J0D01*
G01*
G37*
%TD*%
%TO.C,C3*%
G36*
G01*
X161987500Y-108801500D02*
X162462500Y-108801500D01*
G75*
G02*
X162700000Y-109039000I0J-237500D01*
G01*
X162700000Y-109639000D01*
G75*
G02*
X162462500Y-109876500I-237500J0D01*
G01*
X161987500Y-109876500D01*
G75*
G02*
X161750000Y-109639000I0J237500D01*
G01*
X161750000Y-109039000D01*
G75*
G02*
X161987500Y-108801500I237500J0D01*
G01*
G37*
G36*
G01*
X161987500Y-107076500D02*
X162462500Y-107076500D01*
G75*
G02*
X162700000Y-107314000I0J-237500D01*
G01*
X162700000Y-107914000D01*
G75*
G02*
X162462500Y-108151500I-237500J0D01*
G01*
X161987500Y-108151500D01*
G75*
G02*
X161750000Y-107914000I0J237500D01*
G01*
X161750000Y-107314000D01*
G75*
G02*
X161987500Y-107076500I237500J0D01*
G01*
G37*
%TD*%
%TO.C,C5*%
G36*
G01*
X158837500Y-111126500D02*
X158837500Y-111601500D01*
G75*
G02*
X158600000Y-111839000I-237500J0D01*
G01*
X158000000Y-111839000D01*
G75*
G02*
X157762500Y-111601500I0J237500D01*
G01*
X157762500Y-111126500D01*
G75*
G02*
X158000000Y-110889000I237500J0D01*
G01*
X158600000Y-110889000D01*
G75*
G02*
X158837500Y-111126500I0J-237500D01*
G01*
G37*
G36*
G01*
X160562500Y-111126500D02*
X160562500Y-111601500D01*
G75*
G02*
X160325000Y-111839000I-237500J0D01*
G01*
X159725000Y-111839000D01*
G75*
G02*
X159487500Y-111601500I0J237500D01*
G01*
X159487500Y-111126500D01*
G75*
G02*
X159725000Y-110889000I237500J0D01*
G01*
X160325000Y-110889000D01*
G75*
G02*
X160562500Y-111126500I0J-237500D01*
G01*
G37*
%TD*%
%TO.C,C10*%
G36*
G01*
X146502500Y-97670000D02*
X146977500Y-97670000D01*
G75*
G02*
X147215000Y-97907500I0J-237500D01*
G01*
X147215000Y-98507500D01*
G75*
G02*
X146977500Y-98745000I-237500J0D01*
G01*
X146502500Y-98745000D01*
G75*
G02*
X146265000Y-98507500I0J237500D01*
G01*
X146265000Y-97907500D01*
G75*
G02*
X146502500Y-97670000I237500J0D01*
G01*
G37*
G36*
G01*
X146502500Y-99395000D02*
X146977500Y-99395000D01*
G75*
G02*
X147215000Y-99632500I0J-237500D01*
G01*
X147215000Y-100232500D01*
G75*
G02*
X146977500Y-100470000I-237500J0D01*
G01*
X146502500Y-100470000D01*
G75*
G02*
X146265000Y-100232500I0J237500D01*
G01*
X146265000Y-99632500D01*
G75*
G02*
X146502500Y-99395000I237500J0D01*
G01*
G37*
%TD*%
%TO.C,C37*%
G36*
G01*
X134732500Y-99770000D02*
X135207500Y-99770000D01*
G75*
G02*
X135445000Y-100007500I0J-237500D01*
G01*
X135445000Y-100607500D01*
G75*
G02*
X135207500Y-100845000I-237500J0D01*
G01*
X134732500Y-100845000D01*
G75*
G02*
X134495000Y-100607500I0J237500D01*
G01*
X134495000Y-100007500D01*
G75*
G02*
X134732500Y-99770000I237500J0D01*
G01*
G37*
G36*
G01*
X134732500Y-101495000D02*
X135207500Y-101495000D01*
G75*
G02*
X135445000Y-101732500I0J-237500D01*
G01*
X135445000Y-102332500D01*
G75*
G02*
X135207500Y-102570000I-237500J0D01*
G01*
X134732500Y-102570000D01*
G75*
G02*
X134495000Y-102332500I0J237500D01*
G01*
X134495000Y-101732500D01*
G75*
G02*
X134732500Y-101495000I237500J0D01*
G01*
G37*
%TD*%
%TO.C,R5*%
G36*
G01*
X122725000Y-75340000D02*
X123275000Y-75340000D01*
G75*
G02*
X123475000Y-75540000I0J-200000D01*
G01*
X123475000Y-75940000D01*
G75*
G02*
X123275000Y-76140000I-200000J0D01*
G01*
X122725000Y-76140000D01*
G75*
G02*
X122525000Y-75940000I0J200000D01*
G01*
X122525000Y-75540000D01*
G75*
G02*
X122725000Y-75340000I200000J0D01*
G01*
G37*
G36*
G01*
X122725000Y-76990000D02*
X123275000Y-76990000D01*
G75*
G02*
X123475000Y-77190000I0J-200000D01*
G01*
X123475000Y-77590000D01*
G75*
G02*
X123275000Y-77790000I-200000J0D01*
G01*
X122725000Y-77790000D01*
G75*
G02*
X122525000Y-77590000I0J200000D01*
G01*
X122525000Y-77190000D01*
G75*
G02*
X122725000Y-76990000I200000J0D01*
G01*
G37*
%TD*%
D13*
%TO.C,J2*%
X148160000Y-71910000D03*
X140860000Y-71910000D03*
D12*
X145760000Y-74810000D03*
X144510000Y-74810000D03*
X143260000Y-74810000D03*
%TD*%
D13*
%TO.C,J4*%
X130610000Y-71910000D03*
X123310000Y-71910000D03*
D12*
X128210000Y-74810000D03*
X126960000Y-74810000D03*
X125710000Y-74810000D03*
%TD*%
%TO.C,J9*%
X126150000Y-114730000D03*
X124900000Y-114730000D03*
X123650000Y-114730000D03*
D13*
X128550000Y-117630000D03*
X121250000Y-117630000D03*
%TD*%
%TO.C,HSE1*%
G36*
G01*
X154815000Y-112710000D02*
X155945000Y-112710000D01*
G75*
G02*
X156005000Y-112770000I0J-60000D01*
G01*
X156005000Y-114250000D01*
G75*
G02*
X155945000Y-114310000I-60000J0D01*
G01*
X154815000Y-114310000D01*
G75*
G02*
X154755000Y-114250000I0J60000D01*
G01*
X154755000Y-112770000D01*
G75*
G02*
X154815000Y-112710000I60000J0D01*
G01*
G37*
G36*
G01*
X154815000Y-116410000D02*
X155945000Y-116410000D01*
G75*
G02*
X156005000Y-116470000I0J-60000D01*
G01*
X156005000Y-117950000D01*
G75*
G02*
X155945000Y-118010000I-60000J0D01*
G01*
X154815000Y-118010000D01*
G75*
G02*
X154755000Y-117950000I0J60000D01*
G01*
X154755000Y-116470000D01*
G75*
G02*
X154815000Y-116410000I60000J0D01*
G01*
G37*
G36*
G01*
X157015000Y-112710000D02*
X158145000Y-112710000D01*
G75*
G02*
X158205000Y-112770000I0J-60000D01*
G01*
X158205000Y-114250000D01*
G75*
G02*
X158145000Y-114310000I-60000J0D01*
G01*
X157015000Y-114310000D01*
G75*
G02*
X156955000Y-114250000I0J60000D01*
G01*
X156955000Y-112770000D01*
G75*
G02*
X157015000Y-112710000I60000J0D01*
G01*
G37*
G36*
G01*
X157015000Y-116410000D02*
X158145000Y-116410000D01*
G75*
G02*
X158205000Y-116470000I0J-60000D01*
G01*
X158205000Y-117950000D01*
G75*
G02*
X158145000Y-118010000I-60000J0D01*
G01*
X157015000Y-118010000D01*
G75*
G02*
X156955000Y-117950000I0J60000D01*
G01*
X156955000Y-116470000D01*
G75*
G02*
X157015000Y-116410000I60000J0D01*
G01*
G37*
%TD*%
D15*
%TO.C,U8*%
X146552400Y-80810000D03*
X146552400Y-82080000D03*
X146552400Y-83350000D03*
X146552400Y-84620000D03*
X151480000Y-84620000D03*
X151480000Y-83350000D03*
X151480000Y-82080000D03*
X151480000Y-80810000D03*
%TD*%
%TO.C,U10*%
G36*
G01*
X143648680Y-97640000D02*
X143648680Y-97840000D01*
G75*
G02*
X143548680Y-97940000I-100000J0D01*
G01*
X142273680Y-97940000D01*
G75*
G02*
X142173680Y-97840000I0J100000D01*
G01*
X142173680Y-97640000D01*
G75*
G02*
X142273680Y-97540000I100000J0D01*
G01*
X143548680Y-97540000D01*
G75*
G02*
X143648680Y-97640000I0J-100000D01*
G01*
G37*
G36*
G01*
X143648680Y-98290000D02*
X143648680Y-98490000D01*
G75*
G02*
X143548680Y-98590000I-100000J0D01*
G01*
X142273680Y-98590000D01*
G75*
G02*
X142173680Y-98490000I0J100000D01*
G01*
X142173680Y-98290000D01*
G75*
G02*
X142273680Y-98190000I100000J0D01*
G01*
X143548680Y-98190000D01*
G75*
G02*
X143648680Y-98290000I0J-100000D01*
G01*
G37*
G36*
G01*
X143648680Y-98940000D02*
X143648680Y-99140000D01*
G75*
G02*
X143548680Y-99240000I-100000J0D01*
G01*
X142273680Y-99240000D01*
G75*
G02*
X142173680Y-99140000I0J100000D01*
G01*
X142173680Y-98940000D01*
G75*
G02*
X142273680Y-98840000I100000J0D01*
G01*
X143548680Y-98840000D01*
G75*
G02*
X143648680Y-98940000I0J-100000D01*
G01*
G37*
G36*
G01*
X143648680Y-99590000D02*
X143648680Y-99790000D01*
G75*
G02*
X143548680Y-99890000I-100000J0D01*
G01*
X142273680Y-99890000D01*
G75*
G02*
X142173680Y-99790000I0J100000D01*
G01*
X142173680Y-99590000D01*
G75*
G02*
X142273680Y-99490000I100000J0D01*
G01*
X143548680Y-99490000D01*
G75*
G02*
X143648680Y-99590000I0J-100000D01*
G01*
G37*
G36*
G01*
X143648680Y-100240000D02*
X143648680Y-100440000D01*
G75*
G02*
X143548680Y-100540000I-100000J0D01*
G01*
X142273680Y-100540000D01*
G75*
G02*
X142173680Y-100440000I0J100000D01*
G01*
X142173680Y-100240000D01*
G75*
G02*
X142273680Y-100140000I100000J0D01*
G01*
X143548680Y-100140000D01*
G75*
G02*
X143648680Y-100240000I0J-100000D01*
G01*
G37*
G36*
G01*
X143648680Y-100890000D02*
X143648680Y-101090000D01*
G75*
G02*
X143548680Y-101190000I-100000J0D01*
G01*
X142273680Y-101190000D01*
G75*
G02*
X142173680Y-101090000I0J100000D01*
G01*
X142173680Y-100890000D01*
G75*
G02*
X142273680Y-100790000I100000J0D01*
G01*
X143548680Y-100790000D01*
G75*
G02*
X143648680Y-100890000I0J-100000D01*
G01*
G37*
G36*
G01*
X143648680Y-101540000D02*
X143648680Y-101740000D01*
G75*
G02*
X143548680Y-101840000I-100000J0D01*
G01*
X142273680Y-101840000D01*
G75*
G02*
X142173680Y-101740000I0J100000D01*
G01*
X142173680Y-101540000D01*
G75*
G02*
X142273680Y-101440000I100000J0D01*
G01*
X143548680Y-101440000D01*
G75*
G02*
X143648680Y-101540000I0J-100000D01*
G01*
G37*
G36*
G01*
X137923680Y-101540000D02*
X137923680Y-101740000D01*
G75*
G02*
X137823680Y-101840000I-100000J0D01*
G01*
X136548680Y-101840000D01*
G75*
G02*
X136448680Y-101740000I0J100000D01*
G01*
X136448680Y-101540000D01*
G75*
G02*
X136548680Y-101440000I100000J0D01*
G01*
X137823680Y-101440000D01*
G75*
G02*
X137923680Y-101540000I0J-100000D01*
G01*
G37*
G36*
G01*
X137923680Y-100890000D02*
X137923680Y-101090000D01*
G75*
G02*
X137823680Y-101190000I-100000J0D01*
G01*
X136548680Y-101190000D01*
G75*
G02*
X136448680Y-101090000I0J100000D01*
G01*
X136448680Y-100890000D01*
G75*
G02*
X136548680Y-100790000I100000J0D01*
G01*
X137823680Y-100790000D01*
G75*
G02*
X137923680Y-100890000I0J-100000D01*
G01*
G37*
G36*
G01*
X137923680Y-100240000D02*
X137923680Y-100440000D01*
G75*
G02*
X137823680Y-100540000I-100000J0D01*
G01*
X136548680Y-100540000D01*
G75*
G02*
X136448680Y-100440000I0J100000D01*
G01*
X136448680Y-100240000D01*
G75*
G02*
X136548680Y-100140000I100000J0D01*
G01*
X137823680Y-100140000D01*
G75*
G02*
X137923680Y-100240000I0J-100000D01*
G01*
G37*
G36*
G01*
X137923680Y-99590000D02*
X137923680Y-99790000D01*
G75*
G02*
X137823680Y-99890000I-100000J0D01*
G01*
X136548680Y-99890000D01*
G75*
G02*
X136448680Y-99790000I0J100000D01*
G01*
X136448680Y-99590000D01*
G75*
G02*
X136548680Y-99490000I100000J0D01*
G01*
X137823680Y-99490000D01*
G75*
G02*
X137923680Y-99590000I0J-100000D01*
G01*
G37*
G36*
G01*
X137923680Y-98940000D02*
X137923680Y-99140000D01*
G75*
G02*
X137823680Y-99240000I-100000J0D01*
G01*
X136548680Y-99240000D01*
G75*
G02*
X136448680Y-99140000I0J100000D01*
G01*
X136448680Y-98940000D01*
G75*
G02*
X136548680Y-98840000I100000J0D01*
G01*
X137823680Y-98840000D01*
G75*
G02*
X137923680Y-98940000I0J-100000D01*
G01*
G37*
G36*
G01*
X137923680Y-98290000D02*
X137923680Y-98490000D01*
G75*
G02*
X137823680Y-98590000I-100000J0D01*
G01*
X136548680Y-98590000D01*
G75*
G02*
X136448680Y-98490000I0J100000D01*
G01*
X136448680Y-98290000D01*
G75*
G02*
X136548680Y-98190000I100000J0D01*
G01*
X137823680Y-98190000D01*
G75*
G02*
X137923680Y-98290000I0J-100000D01*
G01*
G37*
G36*
G01*
X137923680Y-97640000D02*
X137923680Y-97840000D01*
G75*
G02*
X137823680Y-97940000I-100000J0D01*
G01*
X136548680Y-97940000D01*
G75*
G02*
X136448680Y-97840000I0J100000D01*
G01*
X136448680Y-97640000D01*
G75*
G02*
X136548680Y-97540000I100000J0D01*
G01*
X137823680Y-97540000D01*
G75*
G02*
X137923680Y-97640000I0J-100000D01*
G01*
G37*
%TD*%
%TO.C,C22*%
G36*
G01*
X150280000Y-115462500D02*
X150280000Y-115937500D01*
G75*
G02*
X150042500Y-116175000I-237500J0D01*
G01*
X149442500Y-116175000D01*
G75*
G02*
X149205000Y-115937500I0J237500D01*
G01*
X149205000Y-115462500D01*
G75*
G02*
X149442500Y-115225000I237500J0D01*
G01*
X150042500Y-115225000D01*
G75*
G02*
X150280000Y-115462500I0J-237500D01*
G01*
G37*
G36*
G01*
X148555000Y-115462500D02*
X148555000Y-115937500D01*
G75*
G02*
X148317500Y-116175000I-237500J0D01*
G01*
X147717500Y-116175000D01*
G75*
G02*
X147480000Y-115937500I0J237500D01*
G01*
X147480000Y-115462500D01*
G75*
G02*
X147717500Y-115225000I237500J0D01*
G01*
X148317500Y-115225000D01*
G75*
G02*
X148555000Y-115462500I0J-237500D01*
G01*
G37*
%TD*%
%TO.C,C23*%
G36*
G01*
X148540001Y-113777499D02*
X148540001Y-114252499D01*
G75*
G02*
X148302501Y-114489999I-237500J0D01*
G01*
X147702501Y-114489999D01*
G75*
G02*
X147465001Y-114252499I0J237500D01*
G01*
X147465001Y-113777499D01*
G75*
G02*
X147702501Y-113539999I237500J0D01*
G01*
X148302501Y-113539999D01*
G75*
G02*
X148540001Y-113777499I0J-237500D01*
G01*
G37*
G36*
G01*
X150265001Y-113777499D02*
X150265001Y-114252499D01*
G75*
G02*
X150027501Y-114489999I-237500J0D01*
G01*
X149427501Y-114489999D01*
G75*
G02*
X149190001Y-114252499I0J237500D01*
G01*
X149190001Y-113777499D01*
G75*
G02*
X149427501Y-113539999I237500J0D01*
G01*
X150027501Y-113539999D01*
G75*
G02*
X150265001Y-113777499I0J-237500D01*
G01*
G37*
%TD*%
M02*
