M48
; DRILL file {KiCad (5.1.8-0-10_14)} date Thursday, May 13, 2021 at 07:53:34 PM
; FORMAT={-:-/ absolute / metric / decimal}
; #@! TF.CreationDate,2021-05-13T19:53:34+02:00
; #@! TF.GenerationSoftware,Kicad,Pcbnew,(5.1.8-0-10_14)
FMAT,2
METRIC
T1C0.200
T2C0.400
T3C0.450
T4C0.500
T5C0.750
T6C1.700
T7C2.200
T8C2.500
T9C0.800
T10C1.000
%
G90
G05
T1
X126.223Y-103.222
X126.223Y-104.422
X126.223Y-105.622
X126.223Y-106.822
X126.223Y-108.022
X127.423Y-103.222
X127.423Y-104.422
X127.423Y-105.622
X127.423Y-106.822
X127.423Y-108.022
X128.623Y-103.222
X128.623Y-104.422
X128.623Y-105.622
X128.623Y-106.822
X128.623Y-108.022
X129.823Y-103.222
X129.823Y-104.422
X129.823Y-105.622
X129.823Y-106.822
X129.823Y-108.022
X131.023Y-103.222
X131.023Y-104.422
X131.023Y-105.622
X131.023Y-106.822
X131.023Y-108.022
T2
X123.992Y-95.821
X146.235Y-117.71
X147.383Y-117.71
T3
X116.74Y-99.36
X117.02Y-101.48
X117.04Y-105.51
X117.146Y-102.237
X117.92Y-107.79
X118.23Y-105.62
X118.82Y-94.85
X118.85Y-110.81
X118.92Y-96.5
X119.44Y-101.042
X119.62Y-85.75
X119.62Y-86.55
X119.62Y-87.35
X119.62Y-88.15
X119.62Y-88.95
X119.62Y-89.75
X119.62Y-90.55
X119.69Y-94.9
X119.69Y-100.27
X119.96Y-114.57
X120.13Y-98.8
X120.42Y-85.75
X120.42Y-86.55
X120.42Y-87.35
X120.42Y-88.15
X120.42Y-88.95
X120.42Y-89.75
X120.42Y-90.55
X120.6Y-94.91
X120.65Y-109.94
X121.22Y-85.75
X121.22Y-86.55
X121.22Y-87.35
X121.22Y-88.15
X121.22Y-88.95
X121.22Y-89.75
X121.22Y-90.55
X122.02Y-85.75
X122.02Y-86.55
X122.02Y-87.35
X122.02Y-88.15
X122.02Y-88.95
X122.02Y-89.75
X122.02Y-90.55
X122.16Y-94.06
X122.46Y-107.64
X122.66Y-92.74
X122.82Y-85.75
X122.82Y-86.55
X122.82Y-87.35
X122.82Y-88.15
X122.82Y-88.95
X122.82Y-89.75
X122.82Y-90.55
X122.96Y-73.84
X123.265Y-110.79
X123.62Y-85.75
X123.62Y-86.55
X123.62Y-87.35
X123.62Y-88.15
X123.62Y-88.95
X123.62Y-89.75
X123.62Y-90.55
X123.68Y-115.74
X124.42Y-85.75
X124.42Y-86.55
X124.42Y-87.35
X124.42Y-88.15
X124.42Y-88.95
X124.42Y-89.75
X124.42Y-90.55
X124.94Y-115.99
X125.1Y-111.835
X125.22Y-85.75
X125.22Y-86.55
X125.22Y-87.35
X125.22Y-88.15
X125.22Y-88.95
X125.22Y-89.75
X125.22Y-90.55
X125.822Y-113.58
X126.81Y-93.88
X126.95Y-73.71
X128.22Y-73.77
X128.37Y-115.81
X128.995Y-95.077
X129.37Y-111.68
X130.22Y-92.12
X130.22Y-92.92
X130.22Y-93.72
X130.22Y-94.52
X130.22Y-95.32
X130.781Y-111.929
X131.02Y-92.12
X131.02Y-92.92
X131.02Y-93.72
X131.02Y-94.52
X131.02Y-95.32
X131.75Y-114.81
X131.82Y-92.12
X131.82Y-92.92
X131.82Y-93.72
X131.82Y-94.52
X131.82Y-95.32
X132.153Y-100.897
X132.62Y-85.53
X132.62Y-92.12
X132.62Y-92.92
X132.62Y-93.72
X132.62Y-94.52
X132.62Y-95.32
X132.65Y-87.29
X132.66Y-81.76
X132.79Y-114.2
X132.91Y-98.375
X133.42Y-92.12
X133.42Y-92.92
X133.42Y-93.72
X133.42Y-94.52
X133.42Y-95.32
X133.458Y-100.775
X133.86Y-98.375
X134.124Y-107.98
X134.571Y-110.201
X135.2Y-112.3
X135.252Y-91.508
X135.51Y-94.01
X135.59Y-96.12
X135.99Y-91.78
X136.11Y-114.89
X136.51Y-94.91
X136.63Y-110.77
X136.665Y-96.363
X136.84Y-113.6
X136.97Y-73.67
X137.62Y-94.025
X137.62Y-105.93
X137.648Y-102.31
X137.665Y-103.43
X137.7Y-110.201
X137.8Y-104.98
X137.817Y-109.195
X137.91Y-106.72
X138.484Y-104.202
X138.71Y-97.74
X138.92Y-116.06
X139.389Y-101.359
X139.41Y-85.16
X139.41Y-85.96
X139.41Y-86.76
X139.41Y-87.56
X139.41Y-88.36
X139.41Y-89.16
X139.41Y-89.96
X139.417Y-95.882
X139.5Y-105.8
X139.51Y-102.512
X139.792Y-100.726
X140.21Y-85.16
X140.21Y-85.96
X140.21Y-86.76
X140.21Y-87.56
X140.21Y-88.36
X140.21Y-89.16
X140.21Y-89.96
X140.74Y-105.42
X141.01Y-85.16
X141.01Y-85.96
X141.01Y-86.76
X141.01Y-87.56
X141.01Y-88.36
X141.01Y-89.16
X141.01Y-89.96
X141.19Y-92.3
X141.19Y-93.1
X141.19Y-93.9
X141.19Y-94.7
X141.19Y-95.5
X141.81Y-85.16
X141.81Y-85.96
X141.81Y-86.76
X141.81Y-87.56
X141.81Y-88.36
X141.81Y-89.16
X141.81Y-89.96
X141.99Y-92.3
X141.99Y-93.1
X141.99Y-93.9
X141.99Y-94.7
X141.99Y-95.5
X142.02Y-105.42
X142.61Y-85.16
X142.61Y-85.96
X142.61Y-86.76
X142.61Y-87.56
X142.61Y-88.36
X142.61Y-89.16
X142.61Y-89.96
X142.79Y-92.3
X142.79Y-93.1
X142.79Y-93.9
X142.79Y-94.7
X142.79Y-95.5
X143.12Y-103.2
X143.41Y-85.16
X143.41Y-85.96
X143.41Y-86.76
X143.41Y-87.56
X143.41Y-88.36
X143.41Y-89.16
X143.41Y-89.96
X143.56Y-108.3
X143.56Y-109.92
X143.59Y-92.3
X143.59Y-93.1
X143.59Y-93.9
X143.59Y-94.7
X143.59Y-95.5
X144.21Y-85.16
X144.21Y-85.96
X144.21Y-86.76
X144.21Y-87.56
X144.21Y-88.36
X144.21Y-89.16
X144.21Y-89.96
X144.39Y-92.3
X144.39Y-93.1
X144.39Y-93.9
X144.39Y-94.7
X144.39Y-95.5
X144.99Y-82.01
X145.01Y-85.16
X145.01Y-85.96
X145.01Y-86.76
X145.01Y-87.56
X145.01Y-88.36
X145.01Y-89.16
X145.01Y-89.96
X145.01Y-105.42
X145.56Y-102.92
X145.694Y-101.164
X145.77Y-73.59
X145.88Y-98.21
X146.04Y-105.42
X146.27Y-114.48
X146.565Y-111.601
X146.78Y-113.91
X147.325Y-111.59
X147.95Y-98.77
X148.075Y-111.59
X148.566Y-101.529
X148.9Y-102.44
X149.133Y-94.87
X149.22Y-106.72
X149.46Y-91.63
X149.68Y-97.74
X149.79Y-80.29
X150.19Y-109.49
X150.52Y-107.575
X150.52Y-113.14
X150.71Y-115.8
X150.86Y-114.58
X151.14Y-106.68
X151.35Y-94.87
X151.42Y-92.82
X151.55Y-109.46
X151.592Y-101.39
X151.94Y-97.85
X152.31Y-104.18
X152.32Y-105.28
X152.34Y-106.98
X152.34Y-107.74
X152.54Y-116.51
X152.69Y-115.25
X153.14Y-101.39
X153.17Y-93.54
X153.18Y-105.53
X153.41Y-109.36
X153.679Y-97.981
X154.33Y-93.905
X154.44Y-113.46
X154.48Y-85.04
X154.48Y-85.84
X154.48Y-86.64
X154.48Y-87.44
X154.48Y-88.24
X154.48Y-89.04
X154.48Y-89.84
X154.53Y-73.64
X154.58Y-105.52
X154.83Y-101.44
X154.85Y-109.37
X155.08Y-92.55
X155.28Y-85.04
X155.28Y-85.84
X155.28Y-86.64
X155.28Y-87.44
X155.28Y-88.24
X155.28Y-89.04
X155.28Y-89.84
X155.38Y-113.51
X155.41Y-114.72
X155.88Y-108.05
X155.89Y-104.12
X155.89Y-106.9
X156.0Y-109.37
X156.08Y-85.04
X156.08Y-85.84
X156.08Y-86.64
X156.08Y-87.44
X156.08Y-88.24
X156.08Y-89.04
X156.08Y-89.84
X156.57Y-115.23
X156.88Y-85.04
X156.88Y-85.84
X156.88Y-86.64
X156.88Y-87.44
X156.88Y-88.24
X156.88Y-89.04
X156.88Y-89.84
X156.94Y-92.3
X156.94Y-93.1
X156.94Y-93.9
X156.94Y-94.7
X156.94Y-95.5
X156.99Y-100.864
X157.01Y-105.32
X157.58Y-116.07
X157.68Y-85.04
X157.68Y-85.84
X157.68Y-86.64
X157.68Y-87.44
X157.68Y-88.24
X157.68Y-89.04
X157.68Y-89.84
X157.74Y-92.3
X157.74Y-93.1
X157.74Y-93.9
X157.74Y-94.7
X157.74Y-95.5
X157.74Y-115.24
X158.48Y-85.04
X158.48Y-85.84
X158.48Y-86.64
X158.48Y-87.44
X158.48Y-88.24
X158.48Y-89.04
X158.48Y-89.84
X158.48Y-114.97
X158.54Y-92.3
X158.54Y-93.1
X158.54Y-93.9
X158.54Y-94.7
X158.54Y-95.5
X158.69Y-98.1
X159.05Y-100.61
X159.28Y-85.04
X159.28Y-85.84
X159.28Y-86.64
X159.28Y-87.44
X159.28Y-88.24
X159.28Y-89.04
X159.28Y-89.84
X159.34Y-92.3
X159.34Y-93.1
X159.34Y-93.9
X159.34Y-94.7
X159.34Y-95.5
X159.43Y-109.57
X159.584Y-97.869
X159.865Y-106.964
X159.95Y-105.37
X160.025Y-111.364
X160.08Y-85.84
X160.08Y-86.64
X160.08Y-87.44
X160.08Y-88.24
X160.08Y-89.04
X160.08Y-89.84
X160.14Y-92.3
X160.14Y-93.1
X160.14Y-93.9
X160.14Y-94.7
X160.14Y-95.5
X160.584Y-101.119
X160.72Y-113.742
X160.96Y-87.59
X161.0Y-97.52
X161.41Y-106.94
X161.65Y-111.45
X162.252Y-91.149
X162.37Y-106.54
X162.56Y-113.82
X162.795Y-110.756
X162.9Y-103.45
X163.02Y-107.1
X163.02Y-111.94
X163.21Y-113.02
X163.278Y-102.525
T4
X116.73Y-89.37
X116.77Y-86.45
X116.88Y-114.14
X121.16Y-114.91
X123.978Y-99.232
X124.3Y-110.13
X126.248Y-96.763
X129.26Y-97.7
X130.71Y-76.42
X132.76Y-109.83
X146.82Y-86.95
X146.83Y-89.8
X147.075Y-91.372
X147.485Y-94.254
X150.253Y-88.173
X162.26Y-85.26
X162.57Y-90.15
T5
X130.06Y-117.82
X156.22Y-76.95
X141.98Y-76.95
X139.34Y-76.69
X136.87Y-76.95
X126.08Y-76.95
T6
X129.0Y-77.62
X134.0Y-77.62
X146.85Y-77.62
X151.85Y-77.62
T7
X123.4Y-80.5
X156.697Y-80.5
X140.049Y-80.5
T8
X118.17Y-82.68
X161.927Y-82.68
X161.927Y-116.68
X118.17Y-116.68
T9
X133.42Y-73.81
X138.02Y-73.81
X122.6Y-115.73
X127.2Y-115.73
X150.97Y-73.78
X155.57Y-73.78
X142.21Y-73.81
X146.81Y-73.81
X124.66Y-73.81
X129.26Y-73.81
T10
X126.0Y-72.62
X137.0Y-72.62
X143.85Y-72.62
X154.85Y-72.62
T0
M30
