%TF.GenerationSoftware,KiCad,Pcbnew,(5.1.8-0-10_14)*%
%TF.CreationDate,2021-05-13T19:53:47+02:00*%
%TF.ProjectId,Nauthiluscontroller,4e617574-6869-46c7-9573-636f6e74726f,rev?*%
%TF.SameCoordinates,Original*%
%TF.FileFunction,Copper,L4,Bot*%
%TF.FilePolarity,Positive*%
%FSLAX46Y46*%
G04 Gerber Fmt 4.6, Leading zero omitted, Abs format (unit mm)*
G04 Created by KiCad (PCBNEW (5.1.8-0-10_14)) date 2021-05-13 19:53:47*
%MOMM*%
%LPD*%
G01*
G04 APERTURE LIST*
%TA.AperFunction,ComponentPad*%
%ADD10C,0.300000*%
%TD*%
%TA.AperFunction,ComponentPad*%
%ADD11C,4.000000*%
%TD*%
%TA.AperFunction,SMDPad,CuDef*%
%ADD12R,5.570000X6.230000*%
%TD*%
%TA.AperFunction,SMDPad,CuDef*%
%ADD13R,0.790000X2.520000*%
%TD*%
%TA.AperFunction,ComponentPad*%
%ADD14C,3.000000*%
%TD*%
%TA.AperFunction,ComponentPad*%
%ADD15C,1.000000*%
%TD*%
%TA.AperFunction,SMDPad,CuDef*%
%ADD16R,0.350000X1.200000*%
%TD*%
%TA.AperFunction,SMDPad,CuDef*%
%ADD17R,1.100000X1.800000*%
%TD*%
%TA.AperFunction,ConnectorPad*%
%ADD18C,3.800000*%
%TD*%
%TA.AperFunction,ComponentPad*%
%ADD19C,2.600000*%
%TD*%
%TA.AperFunction,SMDPad,CuDef*%
%ADD20R,0.700000X0.600000*%
%TD*%
%TA.AperFunction,SMDPad,CuDef*%
%ADD21R,1.981200X0.558800*%
%TD*%
%TA.AperFunction,SMDPad,CuDef*%
%ADD22C,0.500000*%
%TD*%
%TA.AperFunction,ViaPad*%
%ADD23C,0.600000*%
%TD*%
%TA.AperFunction,ViaPad*%
%ADD24C,0.800000*%
%TD*%
%TA.AperFunction,Conductor*%
%ADD25C,0.300000*%
%TD*%
%TA.AperFunction,Conductor*%
%ADD26C,0.250000*%
%TD*%
%TA.AperFunction,Conductor*%
%ADD27C,0.900000*%
%TD*%
%TA.AperFunction,Conductor*%
%ADD28C,1.000000*%
%TD*%
%TA.AperFunction,Conductor*%
%ADD29C,0.200000*%
%TD*%
%TA.AperFunction,Conductor*%
%ADD30C,0.800000*%
%TD*%
%TA.AperFunction,Conductor*%
%ADD31C,0.700000*%
%TD*%
%TA.AperFunction,Conductor*%
%ADD32C,3.000000*%
%TD*%
%TA.AperFunction,Conductor*%
%ADD33C,0.600000*%
%TD*%
%TA.AperFunction,Conductor*%
%ADD34C,0.500000*%
%TD*%
%TA.AperFunction,Conductor*%
%ADD35C,0.350000*%
%TD*%
%TA.AperFunction,Conductor*%
%ADD36C,2.000000*%
%TD*%
%TA.AperFunction,Conductor*%
%ADD37C,1.500000*%
%TD*%
%TA.AperFunction,Conductor*%
%ADD38C,0.254000*%
%TD*%
%TA.AperFunction,Conductor*%
%ADD39C,0.100000*%
%TD*%
G04 APERTURE END LIST*
%TO.P,C39,1*%
%TO.N,+3V3*%
%TA.AperFunction,SMDPad,CuDef*%
G36*
G01*
X135207500Y-99150000D02*
X134732500Y-99150000D01*
G75*
G02*
X134495000Y-98912500I0J237500D01*
G01*
X134495000Y-98312500D01*
G75*
G02*
X134732500Y-98075000I237500J0D01*
G01*
X135207500Y-98075000D01*
G75*
G02*
X135445000Y-98312500I0J-237500D01*
G01*
X135445000Y-98912500D01*
G75*
G02*
X135207500Y-99150000I-237500J0D01*
G01*
G37*
%TD.AperFunction*%
%TO.P,C39,2*%
%TO.N,GND*%
%TA.AperFunction,SMDPad,CuDef*%
G36*
G01*
X135207500Y-97425000D02*
X134732500Y-97425000D01*
G75*
G02*
X134495000Y-97187500I0J237500D01*
G01*
X134495000Y-96587500D01*
G75*
G02*
X134732500Y-96350000I237500J0D01*
G01*
X135207500Y-96350000D01*
G75*
G02*
X135445000Y-96587500I0J-237500D01*
G01*
X135445000Y-97187500D01*
G75*
G02*
X135207500Y-97425000I-237500J0D01*
G01*
G37*
%TD.AperFunction*%
%TD*%
%TO.P,C9,1*%
%TO.N,GND*%
%TA.AperFunction,SMDPad,CuDef*%
G36*
G01*
X157142500Y-95360000D02*
X157617500Y-95360000D01*
G75*
G02*
X157855000Y-95597500I0J-237500D01*
G01*
X157855000Y-96197500D01*
G75*
G02*
X157617500Y-96435000I-237500J0D01*
G01*
X157142500Y-96435000D01*
G75*
G02*
X156905000Y-96197500I0J237500D01*
G01*
X156905000Y-95597500D01*
G75*
G02*
X157142500Y-95360000I237500J0D01*
G01*
G37*
%TD.AperFunction*%
%TO.P,C9,2*%
%TO.N,+3V3*%
%TA.AperFunction,SMDPad,CuDef*%
G36*
G01*
X157142500Y-97085000D02*
X157617500Y-97085000D01*
G75*
G02*
X157855000Y-97322500I0J-237500D01*
G01*
X157855000Y-97922500D01*
G75*
G02*
X157617500Y-98160000I-237500J0D01*
G01*
X157142500Y-98160000D01*
G75*
G02*
X156905000Y-97922500I0J237500D01*
G01*
X156905000Y-97322500D01*
G75*
G02*
X157142500Y-97085000I237500J0D01*
G01*
G37*
%TD.AperFunction*%
%TD*%
D10*
%TO.P,U11,49.25*%
%TO.N,N/C*%
X131023000Y-103222000D03*
%TO.P,U11,49.24*%
X131023000Y-104422000D03*
%TO.P,U11,49.23*%
X131023000Y-105622000D03*
%TO.P,U11,49.22*%
X131023000Y-106822000D03*
%TO.P,U11,49.21*%
X131023000Y-108022000D03*
%TO.P,U11,49.20*%
X129823000Y-103222000D03*
%TO.P,U11,49.19*%
X129823000Y-104422000D03*
%TO.P,U11,49.18*%
X129823000Y-105622000D03*
%TO.P,U11,49.17*%
X129823000Y-106822000D03*
%TO.P,U11,49.16*%
X129823000Y-108022000D03*
%TO.P,U11,49.15*%
X128623000Y-103222000D03*
%TO.P,U11,49.14*%
X128623000Y-104422000D03*
%TO.P,U11,49.13*%
X128623000Y-105622000D03*
%TO.P,U11,49.12*%
X128623000Y-106822000D03*
%TO.P,U11,49.11*%
X128623000Y-108022000D03*
%TO.P,U11,49.10*%
X127423000Y-103222000D03*
%TO.P,U11,49.9*%
X127423000Y-104422000D03*
%TO.P,U11,49.8*%
X127423000Y-105622000D03*
%TO.P,U11,49.7*%
X127423000Y-106822000D03*
%TO.P,U11,49.6*%
X127423000Y-108022000D03*
%TO.P,U11,49.5*%
X126223000Y-103222000D03*
%TO.P,U11,49.4*%
X126223000Y-104422000D03*
%TO.P,U11,49.3*%
X126223000Y-105622000D03*
%TO.P,U11,49.2*%
X126223000Y-106822000D03*
%TO.P,U11,49.1*%
X126223000Y-108022000D03*
%TD*%
%TO.P,C7,2*%
%TO.N,+3V3*%
%TA.AperFunction,SMDPad,CuDef*%
G36*
G01*
X160412500Y-108814000D02*
X160887500Y-108814000D01*
G75*
G02*
X161125000Y-109051500I0J-237500D01*
G01*
X161125000Y-109651500D01*
G75*
G02*
X160887500Y-109889000I-237500J0D01*
G01*
X160412500Y-109889000D01*
G75*
G02*
X160175000Y-109651500I0J237500D01*
G01*
X160175000Y-109051500D01*
G75*
G02*
X160412500Y-108814000I237500J0D01*
G01*
G37*
%TD.AperFunction*%
%TO.P,C7,1*%
%TO.N,GND*%
%TA.AperFunction,SMDPad,CuDef*%
G36*
G01*
X160412500Y-107089000D02*
X160887500Y-107089000D01*
G75*
G02*
X161125000Y-107326500I0J-237500D01*
G01*
X161125000Y-107926500D01*
G75*
G02*
X160887500Y-108164000I-237500J0D01*
G01*
X160412500Y-108164000D01*
G75*
G02*
X160175000Y-107926500I0J237500D01*
G01*
X160175000Y-107326500D01*
G75*
G02*
X160412500Y-107089000I237500J0D01*
G01*
G37*
%TD.AperFunction*%
%TD*%
D11*
%TO.P,H4,1*%
%TO.N,N/C*%
X161927359Y-116680000D03*
%TD*%
%TO.P,U14,1*%
%TO.N,CAN_TX*%
%TA.AperFunction,SMDPad,CuDef*%
G36*
G01*
X134990000Y-80375000D02*
X134990000Y-80675000D01*
G75*
G02*
X134840000Y-80825000I-150000J0D01*
G01*
X133190000Y-80825000D01*
G75*
G02*
X133040000Y-80675000I0J150000D01*
G01*
X133040000Y-80375000D01*
G75*
G02*
X133190000Y-80225000I150000J0D01*
G01*
X134840000Y-80225000D01*
G75*
G02*
X134990000Y-80375000I0J-150000D01*
G01*
G37*
%TD.AperFunction*%
%TO.P,U14,2*%
%TO.N,GND*%
%TA.AperFunction,SMDPad,CuDef*%
G36*
G01*
X134990000Y-81645000D02*
X134990000Y-81945000D01*
G75*
G02*
X134840000Y-82095000I-150000J0D01*
G01*
X133190000Y-82095000D01*
G75*
G02*
X133040000Y-81945000I0J150000D01*
G01*
X133040000Y-81645000D01*
G75*
G02*
X133190000Y-81495000I150000J0D01*
G01*
X134840000Y-81495000D01*
G75*
G02*
X134990000Y-81645000I0J-150000D01*
G01*
G37*
%TD.AperFunction*%
%TO.P,U14,3*%
%TO.N,+3V3*%
%TA.AperFunction,SMDPad,CuDef*%
G36*
G01*
X134990000Y-82915000D02*
X134990000Y-83215000D01*
G75*
G02*
X134840000Y-83365000I-150000J0D01*
G01*
X133190000Y-83365000D01*
G75*
G02*
X133040000Y-83215000I0J150000D01*
G01*
X133040000Y-82915000D01*
G75*
G02*
X133190000Y-82765000I150000J0D01*
G01*
X134840000Y-82765000D01*
G75*
G02*
X134990000Y-82915000I0J-150000D01*
G01*
G37*
%TD.AperFunction*%
%TO.P,U14,4*%
%TO.N,CAN_RX*%
%TA.AperFunction,SMDPad,CuDef*%
G36*
G01*
X134990000Y-84185000D02*
X134990000Y-84485000D01*
G75*
G02*
X134840000Y-84635000I-150000J0D01*
G01*
X133190000Y-84635000D01*
G75*
G02*
X133040000Y-84485000I0J150000D01*
G01*
X133040000Y-84185000D01*
G75*
G02*
X133190000Y-84035000I150000J0D01*
G01*
X134840000Y-84035000D01*
G75*
G02*
X134990000Y-84185000I0J-150000D01*
G01*
G37*
%TD.AperFunction*%
%TO.P,U14,5*%
%TO.N,N/C*%
%TA.AperFunction,SMDPad,CuDef*%
G36*
G01*
X130040000Y-84185000D02*
X130040000Y-84485000D01*
G75*
G02*
X129890000Y-84635000I-150000J0D01*
G01*
X128240000Y-84635000D01*
G75*
G02*
X128090000Y-84485000I0J150000D01*
G01*
X128090000Y-84185000D01*
G75*
G02*
X128240000Y-84035000I150000J0D01*
G01*
X129890000Y-84035000D01*
G75*
G02*
X130040000Y-84185000I0J-150000D01*
G01*
G37*
%TD.AperFunction*%
%TO.P,U14,6*%
%TO.N,CAN_L*%
%TA.AperFunction,SMDPad,CuDef*%
G36*
G01*
X130040000Y-82915000D02*
X130040000Y-83215000D01*
G75*
G02*
X129890000Y-83365000I-150000J0D01*
G01*
X128240000Y-83365000D01*
G75*
G02*
X128090000Y-83215000I0J150000D01*
G01*
X128090000Y-82915000D01*
G75*
G02*
X128240000Y-82765000I150000J0D01*
G01*
X129890000Y-82765000D01*
G75*
G02*
X130040000Y-82915000I0J-150000D01*
G01*
G37*
%TD.AperFunction*%
%TO.P,U14,7*%
%TO.N,CAN_H*%
%TA.AperFunction,SMDPad,CuDef*%
G36*
G01*
X130040000Y-81645000D02*
X130040000Y-81945000D01*
G75*
G02*
X129890000Y-82095000I-150000J0D01*
G01*
X128240000Y-82095000D01*
G75*
G02*
X128090000Y-81945000I0J150000D01*
G01*
X128090000Y-81645000D01*
G75*
G02*
X128240000Y-81495000I150000J0D01*
G01*
X129890000Y-81495000D01*
G75*
G02*
X130040000Y-81645000I0J-150000D01*
G01*
G37*
%TD.AperFunction*%
%TO.P,U14,8*%
%TO.N,Net-(R29-Pad1)*%
%TA.AperFunction,SMDPad,CuDef*%
G36*
G01*
X130040000Y-80375000D02*
X130040000Y-80675000D01*
G75*
G02*
X129890000Y-80825000I-150000J0D01*
G01*
X128240000Y-80825000D01*
G75*
G02*
X128090000Y-80675000I0J150000D01*
G01*
X128090000Y-80375000D01*
G75*
G02*
X128240000Y-80225000I150000J0D01*
G01*
X129890000Y-80225000D01*
G75*
G02*
X130040000Y-80375000I0J-150000D01*
G01*
G37*
%TD.AperFunction*%
%TD*%
%TO.P,C47,2*%
%TO.N,+3V3*%
%TA.AperFunction,SMDPad,CuDef*%
G36*
G01*
X135902500Y-82527500D02*
X136377500Y-82527500D01*
G75*
G02*
X136615000Y-82765000I0J-237500D01*
G01*
X136615000Y-83365000D01*
G75*
G02*
X136377500Y-83602500I-237500J0D01*
G01*
X135902500Y-83602500D01*
G75*
G02*
X135665000Y-83365000I0J237500D01*
G01*
X135665000Y-82765000D01*
G75*
G02*
X135902500Y-82527500I237500J0D01*
G01*
G37*
%TD.AperFunction*%
%TO.P,C47,1*%
%TO.N,GND*%
%TA.AperFunction,SMDPad,CuDef*%
G36*
G01*
X135902500Y-80802500D02*
X136377500Y-80802500D01*
G75*
G02*
X136615000Y-81040000I0J-237500D01*
G01*
X136615000Y-81640000D01*
G75*
G02*
X136377500Y-81877500I-237500J0D01*
G01*
X135902500Y-81877500D01*
G75*
G02*
X135665000Y-81640000I0J237500D01*
G01*
X135665000Y-81040000D01*
G75*
G02*
X135902500Y-80802500I237500J0D01*
G01*
G37*
%TD.AperFunction*%
%TD*%
D12*
%TO.P,U4,3*%
%TO.N,GND*%
X120030000Y-110715000D03*
D13*
%TO.P,U4,5*%
%TO.N,N/C*%
X122310000Y-103895000D03*
%TO.P,U4,4*%
%TO.N,+3V3*%
X121170000Y-103895000D03*
%TO.P,U4,2*%
%TO.N,Net-(C13-Pad2)*%
X118890000Y-103895000D03*
%TO.P,U4,1*%
X117750000Y-103895000D03*
%TD*%
D14*
%TO.P,J7,2*%
%TO.N,+24V*%
X134000000Y-77620000D03*
%TO.P,J7,1*%
%TO.N,GND*%
X129000000Y-77620000D03*
%TD*%
D15*
%TO.P,U7,1*%
%TO.N,+3V3*%
X139340000Y-76690000D03*
%TD*%
%TO.P,U17,1*%
%TO.N,+24V*%
X136870000Y-76950000D03*
%TD*%
D16*
%TO.P,J3,1*%
%TO.N,CAN_H*%
X134470000Y-74810000D03*
%TO.P,J3,2*%
%TO.N,CAN_L*%
X135720000Y-74810000D03*
%TO.P,J3,3*%
%TO.N,GND*%
X136970000Y-74810000D03*
D17*
%TO.P,J3,*%
%TO.N,*%
X132070000Y-71910000D03*
X139370000Y-71910000D03*
%TD*%
D18*
%TO.P,U18,1*%
%TO.N,SHC*%
X156697360Y-80500000D03*
D19*
X156697360Y-80500000D03*
%TD*%
%TO.P,C30,2*%
%TO.N,GND*%
%TA.AperFunction,SMDPad,CuDef*%
G36*
G01*
X144272500Y-82215000D02*
X144747500Y-82215000D01*
G75*
G02*
X144985000Y-82452500I0J-237500D01*
G01*
X144985000Y-83052500D01*
G75*
G02*
X144747500Y-83290000I-237500J0D01*
G01*
X144272500Y-83290000D01*
G75*
G02*
X144035000Y-83052500I0J237500D01*
G01*
X144035000Y-82452500D01*
G75*
G02*
X144272500Y-82215000I237500J0D01*
G01*
G37*
%TD.AperFunction*%
%TO.P,C30,1*%
%TO.N,+3V3*%
%TA.AperFunction,SMDPad,CuDef*%
G36*
G01*
X144272500Y-80490000D02*
X144747500Y-80490000D01*
G75*
G02*
X144985000Y-80727500I0J-237500D01*
G01*
X144985000Y-81327500D01*
G75*
G02*
X144747500Y-81565000I-237500J0D01*
G01*
X144272500Y-81565000D01*
G75*
G02*
X144035000Y-81327500I0J237500D01*
G01*
X144035000Y-80727500D01*
G75*
G02*
X144272500Y-80490000I237500J0D01*
G01*
G37*
%TD.AperFunction*%
%TD*%
D16*
%TO.P,J1,1*%
%TO.N,DIR*%
X152020000Y-74780000D03*
%TO.P,J1,2*%
%TO.N,STEP*%
X153270000Y-74780000D03*
%TO.P,J1,3*%
%TO.N,GND*%
X154520000Y-74780000D03*
D17*
%TO.P,J1,*%
%TO.N,*%
X149620000Y-71910000D03*
X156920000Y-71880000D03*
%TD*%
%TO.P,C15,1*%
%TO.N,GND*%
%TA.AperFunction,SMDPad,CuDef*%
G36*
G01*
X159457500Y-115520000D02*
X158982500Y-115520000D01*
G75*
G02*
X158745000Y-115282500I0J237500D01*
G01*
X158745000Y-114682500D01*
G75*
G02*
X158982500Y-114445000I237500J0D01*
G01*
X159457500Y-114445000D01*
G75*
G02*
X159695000Y-114682500I0J-237500D01*
G01*
X159695000Y-115282500D01*
G75*
G02*
X159457500Y-115520000I-237500J0D01*
G01*
G37*
%TD.AperFunction*%
%TO.P,C15,2*%
%TO.N,HSE_IN*%
%TA.AperFunction,SMDPad,CuDef*%
G36*
G01*
X159457500Y-113795000D02*
X158982500Y-113795000D01*
G75*
G02*
X158745000Y-113557500I0J237500D01*
G01*
X158745000Y-112957500D01*
G75*
G02*
X158982500Y-112720000I237500J0D01*
G01*
X159457500Y-112720000D01*
G75*
G02*
X159695000Y-112957500I0J-237500D01*
G01*
X159695000Y-113557500D01*
G75*
G02*
X159457500Y-113795000I-237500J0D01*
G01*
G37*
%TD.AperFunction*%
%TD*%
%TO.P,R13,2*%
%TO.N,Net-(C16-Pad2)*%
%TA.AperFunction,SMDPad,CuDef*%
G36*
G01*
X153395000Y-114025000D02*
X153945000Y-114025000D01*
G75*
G02*
X154145000Y-114225000I0J-200000D01*
G01*
X154145000Y-114625000D01*
G75*
G02*
X153945000Y-114825000I-200000J0D01*
G01*
X153395000Y-114825000D01*
G75*
G02*
X153195000Y-114625000I0J200000D01*
G01*
X153195000Y-114225000D01*
G75*
G02*
X153395000Y-114025000I200000J0D01*
G01*
G37*
%TD.AperFunction*%
%TO.P,R13,1*%
%TO.N,HSE_OUT*%
%TA.AperFunction,SMDPad,CuDef*%
G36*
G01*
X153395000Y-112375000D02*
X153945000Y-112375000D01*
G75*
G02*
X154145000Y-112575000I0J-200000D01*
G01*
X154145000Y-112975000D01*
G75*
G02*
X153945000Y-113175000I-200000J0D01*
G01*
X153395000Y-113175000D01*
G75*
G02*
X153195000Y-112975000I0J200000D01*
G01*
X153195000Y-112575000D01*
G75*
G02*
X153395000Y-112375000I200000J0D01*
G01*
G37*
%TD.AperFunction*%
%TD*%
D20*
%TO.P,Q1,3*%
%TO.N,Net-(F1-Pad1)*%
X118720000Y-99690000D03*
%TO.P,Q1,1*%
%TO.N,GND*%
X120720000Y-98740000D03*
%TO.P,Q1,2*%
%TO.N,Net-(FB1-Pad2)*%
X120720000Y-100640000D03*
%TD*%
%TO.P,U1,1*%
%TO.N,+3V3*%
%TA.AperFunction,SMDPad,CuDef*%
G36*
G01*
X156825000Y-111614000D02*
X156675000Y-111614000D01*
G75*
G02*
X156600000Y-111539000I0J75000D01*
G01*
X156600000Y-110139000D01*
G75*
G02*
X156675000Y-110064000I75000J0D01*
G01*
X156825000Y-110064000D01*
G75*
G02*
X156900000Y-110139000I0J-75000D01*
G01*
X156900000Y-111539000D01*
G75*
G02*
X156825000Y-111614000I-75000J0D01*
G01*
G37*
%TD.AperFunction*%
%TO.P,U1,2*%
%TO.N,N/C*%
%TA.AperFunction,SMDPad,CuDef*%
G36*
G01*
X156325000Y-111614000D02*
X156175000Y-111614000D01*
G75*
G02*
X156100000Y-111539000I0J75000D01*
G01*
X156100000Y-110139000D01*
G75*
G02*
X156175000Y-110064000I75000J0D01*
G01*
X156325000Y-110064000D01*
G75*
G02*
X156400000Y-110139000I0J-75000D01*
G01*
X156400000Y-111539000D01*
G75*
G02*
X156325000Y-111614000I-75000J0D01*
G01*
G37*
%TD.AperFunction*%
%TO.P,U1,3*%
%TA.AperFunction,SMDPad,CuDef*%
G36*
G01*
X155825000Y-111614000D02*
X155675000Y-111614000D01*
G75*
G02*
X155600000Y-111539000I0J75000D01*
G01*
X155600000Y-110139000D01*
G75*
G02*
X155675000Y-110064000I75000J0D01*
G01*
X155825000Y-110064000D01*
G75*
G02*
X155900000Y-110139000I0J-75000D01*
G01*
X155900000Y-111539000D01*
G75*
G02*
X155825000Y-111614000I-75000J0D01*
G01*
G37*
%TD.AperFunction*%
%TO.P,U1,4*%
%TA.AperFunction,SMDPad,CuDef*%
G36*
G01*
X155325000Y-111614000D02*
X155175000Y-111614000D01*
G75*
G02*
X155100000Y-111539000I0J75000D01*
G01*
X155100000Y-110139000D01*
G75*
G02*
X155175000Y-110064000I75000J0D01*
G01*
X155325000Y-110064000D01*
G75*
G02*
X155400000Y-110139000I0J-75000D01*
G01*
X155400000Y-111539000D01*
G75*
G02*
X155325000Y-111614000I-75000J0D01*
G01*
G37*
%TD.AperFunction*%
%TO.P,U1,5*%
%TO.N,HSE_IN*%
%TA.AperFunction,SMDPad,CuDef*%
G36*
G01*
X154825000Y-111614000D02*
X154675000Y-111614000D01*
G75*
G02*
X154600000Y-111539000I0J75000D01*
G01*
X154600000Y-110139000D01*
G75*
G02*
X154675000Y-110064000I75000J0D01*
G01*
X154825000Y-110064000D01*
G75*
G02*
X154900000Y-110139000I0J-75000D01*
G01*
X154900000Y-111539000D01*
G75*
G02*
X154825000Y-111614000I-75000J0D01*
G01*
G37*
%TD.AperFunction*%
%TO.P,U1,6*%
%TO.N,HSE_OUT*%
%TA.AperFunction,SMDPad,CuDef*%
G36*
G01*
X154325000Y-111614000D02*
X154175000Y-111614000D01*
G75*
G02*
X154100000Y-111539000I0J75000D01*
G01*
X154100000Y-110139000D01*
G75*
G02*
X154175000Y-110064000I75000J0D01*
G01*
X154325000Y-110064000D01*
G75*
G02*
X154400000Y-110139000I0J-75000D01*
G01*
X154400000Y-111539000D01*
G75*
G02*
X154325000Y-111614000I-75000J0D01*
G01*
G37*
%TD.AperFunction*%
%TO.P,U1,7*%
%TO.N,RESET*%
%TA.AperFunction,SMDPad,CuDef*%
G36*
G01*
X153825000Y-111614000D02*
X153675000Y-111614000D01*
G75*
G02*
X153600000Y-111539000I0J75000D01*
G01*
X153600000Y-110139000D01*
G75*
G02*
X153675000Y-110064000I75000J0D01*
G01*
X153825000Y-110064000D01*
G75*
G02*
X153900000Y-110139000I0J-75000D01*
G01*
X153900000Y-111539000D01*
G75*
G02*
X153825000Y-111614000I-75000J0D01*
G01*
G37*
%TD.AperFunction*%
%TO.P,U1,8*%
%TO.N,N/C*%
%TA.AperFunction,SMDPad,CuDef*%
G36*
G01*
X153325000Y-111614000D02*
X153175000Y-111614000D01*
G75*
G02*
X153100000Y-111539000I0J75000D01*
G01*
X153100000Y-110139000D01*
G75*
G02*
X153175000Y-110064000I75000J0D01*
G01*
X153325000Y-110064000D01*
G75*
G02*
X153400000Y-110139000I0J-75000D01*
G01*
X153400000Y-111539000D01*
G75*
G02*
X153325000Y-111614000I-75000J0D01*
G01*
G37*
%TD.AperFunction*%
%TO.P,U1,9*%
%TO.N,ENA_GATE*%
%TA.AperFunction,SMDPad,CuDef*%
G36*
G01*
X152825000Y-111614000D02*
X152675000Y-111614000D01*
G75*
G02*
X152600000Y-111539000I0J75000D01*
G01*
X152600000Y-110139000D01*
G75*
G02*
X152675000Y-110064000I75000J0D01*
G01*
X152825000Y-110064000D01*
G75*
G02*
X152900000Y-110139000I0J-75000D01*
G01*
X152900000Y-111539000D01*
G75*
G02*
X152825000Y-111614000I-75000J0D01*
G01*
G37*
%TD.AperFunction*%
%TO.P,U1,10*%
%TO.N,N/C*%
%TA.AperFunction,SMDPad,CuDef*%
G36*
G01*
X152325000Y-111614000D02*
X152175000Y-111614000D01*
G75*
G02*
X152100000Y-111539000I0J75000D01*
G01*
X152100000Y-110139000D01*
G75*
G02*
X152175000Y-110064000I75000J0D01*
G01*
X152325000Y-110064000D01*
G75*
G02*
X152400000Y-110139000I0J-75000D01*
G01*
X152400000Y-111539000D01*
G75*
G02*
X152325000Y-111614000I-75000J0D01*
G01*
G37*
%TD.AperFunction*%
%TO.P,U1,11*%
%TO.N,nMFAULT*%
%TA.AperFunction,SMDPad,CuDef*%
G36*
G01*
X151825000Y-111614000D02*
X151675000Y-111614000D01*
G75*
G02*
X151600000Y-111539000I0J75000D01*
G01*
X151600000Y-110139000D01*
G75*
G02*
X151675000Y-110064000I75000J0D01*
G01*
X151825000Y-110064000D01*
G75*
G02*
X151900000Y-110139000I0J-75000D01*
G01*
X151900000Y-111539000D01*
G75*
G02*
X151825000Y-111614000I-75000J0D01*
G01*
G37*
%TD.AperFunction*%
%TO.P,U1,12*%
%TO.N,GND*%
%TA.AperFunction,SMDPad,CuDef*%
G36*
G01*
X151325000Y-111614000D02*
X151175000Y-111614000D01*
G75*
G02*
X151100000Y-111539000I0J75000D01*
G01*
X151100000Y-110139000D01*
G75*
G02*
X151175000Y-110064000I75000J0D01*
G01*
X151325000Y-110064000D01*
G75*
G02*
X151400000Y-110139000I0J-75000D01*
G01*
X151400000Y-111539000D01*
G75*
G02*
X151325000Y-111614000I-75000J0D01*
G01*
G37*
%TD.AperFunction*%
%TO.P,U1,13*%
%TO.N,+3V3*%
%TA.AperFunction,SMDPad,CuDef*%
G36*
G01*
X150825000Y-111614000D02*
X150675000Y-111614000D01*
G75*
G02*
X150600000Y-111539000I0J75000D01*
G01*
X150600000Y-110139000D01*
G75*
G02*
X150675000Y-110064000I75000J0D01*
G01*
X150825000Y-110064000D01*
G75*
G02*
X150900000Y-110139000I0J-75000D01*
G01*
X150900000Y-111539000D01*
G75*
G02*
X150825000Y-111614000I-75000J0D01*
G01*
G37*
%TD.AperFunction*%
%TO.P,U1,14*%
%TO.N,INL_B*%
%TA.AperFunction,SMDPad,CuDef*%
G36*
G01*
X150325000Y-111614000D02*
X150175000Y-111614000D01*
G75*
G02*
X150100000Y-111539000I0J75000D01*
G01*
X150100000Y-110139000D01*
G75*
G02*
X150175000Y-110064000I75000J0D01*
G01*
X150325000Y-110064000D01*
G75*
G02*
X150400000Y-110139000I0J-75000D01*
G01*
X150400000Y-111539000D01*
G75*
G02*
X150325000Y-111614000I-75000J0D01*
G01*
G37*
%TD.AperFunction*%
%TO.P,U1,15*%
%TO.N,INH_B*%
%TA.AperFunction,SMDPad,CuDef*%
G36*
G01*
X149825000Y-111614000D02*
X149675000Y-111614000D01*
G75*
G02*
X149600000Y-111539000I0J75000D01*
G01*
X149600000Y-110139000D01*
G75*
G02*
X149675000Y-110064000I75000J0D01*
G01*
X149825000Y-110064000D01*
G75*
G02*
X149900000Y-110139000I0J-75000D01*
G01*
X149900000Y-111539000D01*
G75*
G02*
X149825000Y-111614000I-75000J0D01*
G01*
G37*
%TD.AperFunction*%
%TO.P,U1,16*%
%TO.N,INL_C*%
%TA.AperFunction,SMDPad,CuDef*%
G36*
G01*
X149325000Y-111614000D02*
X149175000Y-111614000D01*
G75*
G02*
X149100000Y-111539000I0J75000D01*
G01*
X149100000Y-110139000D01*
G75*
G02*
X149175000Y-110064000I75000J0D01*
G01*
X149325000Y-110064000D01*
G75*
G02*
X149400000Y-110139000I0J-75000D01*
G01*
X149400000Y-111539000D01*
G75*
G02*
X149325000Y-111614000I-75000J0D01*
G01*
G37*
%TD.AperFunction*%
%TO.P,U1,17*%
%TO.N,INH_C*%
%TA.AperFunction,SMDPad,CuDef*%
G36*
G01*
X148025000Y-109064000D02*
X146625000Y-109064000D01*
G75*
G02*
X146550000Y-108989000I0J75000D01*
G01*
X146550000Y-108839000D01*
G75*
G02*
X146625000Y-108764000I75000J0D01*
G01*
X148025000Y-108764000D01*
G75*
G02*
X148100000Y-108839000I0J-75000D01*
G01*
X148100000Y-108989000D01*
G75*
G02*
X148025000Y-109064000I-75000J0D01*
G01*
G37*
%TD.AperFunction*%
%TO.P,U1,18*%
%TO.N,GND*%
%TA.AperFunction,SMDPad,CuDef*%
G36*
G01*
X148025000Y-108564000D02*
X146625000Y-108564000D01*
G75*
G02*
X146550000Y-108489000I0J75000D01*
G01*
X146550000Y-108339000D01*
G75*
G02*
X146625000Y-108264000I75000J0D01*
G01*
X148025000Y-108264000D01*
G75*
G02*
X148100000Y-108339000I0J-75000D01*
G01*
X148100000Y-108489000D01*
G75*
G02*
X148025000Y-108564000I-75000J0D01*
G01*
G37*
%TD.AperFunction*%
%TO.P,U1,19*%
%TO.N,+3V3*%
%TA.AperFunction,SMDPad,CuDef*%
G36*
G01*
X148025000Y-108064000D02*
X146625000Y-108064000D01*
G75*
G02*
X146550000Y-107989000I0J75000D01*
G01*
X146550000Y-107839000D01*
G75*
G02*
X146625000Y-107764000I75000J0D01*
G01*
X148025000Y-107764000D01*
G75*
G02*
X148100000Y-107839000I0J-75000D01*
G01*
X148100000Y-107989000D01*
G75*
G02*
X148025000Y-108064000I-75000J0D01*
G01*
G37*
%TD.AperFunction*%
%TO.P,U1,20*%
%TO.N,CS1_DRV*%
%TA.AperFunction,SMDPad,CuDef*%
G36*
G01*
X148025000Y-107564000D02*
X146625000Y-107564000D01*
G75*
G02*
X146550000Y-107489000I0J75000D01*
G01*
X146550000Y-107339000D01*
G75*
G02*
X146625000Y-107264000I75000J0D01*
G01*
X148025000Y-107264000D01*
G75*
G02*
X148100000Y-107339000I0J-75000D01*
G01*
X148100000Y-107489000D01*
G75*
G02*
X148025000Y-107564000I-75000J0D01*
G01*
G37*
%TD.AperFunction*%
%TO.P,U1,21*%
%TO.N,CLK1_DRV*%
%TA.AperFunction,SMDPad,CuDef*%
G36*
G01*
X148025000Y-107064000D02*
X146625000Y-107064000D01*
G75*
G02*
X146550000Y-106989000I0J75000D01*
G01*
X146550000Y-106839000D01*
G75*
G02*
X146625000Y-106764000I75000J0D01*
G01*
X148025000Y-106764000D01*
G75*
G02*
X148100000Y-106839000I0J-75000D01*
G01*
X148100000Y-106989000D01*
G75*
G02*
X148025000Y-107064000I-75000J0D01*
G01*
G37*
%TD.AperFunction*%
%TO.P,U1,22*%
%TO.N,MISO1_DRV*%
%TA.AperFunction,SMDPad,CuDef*%
G36*
G01*
X148025000Y-106564000D02*
X146625000Y-106564000D01*
G75*
G02*
X146550000Y-106489000I0J75000D01*
G01*
X146550000Y-106339000D01*
G75*
G02*
X146625000Y-106264000I75000J0D01*
G01*
X148025000Y-106264000D01*
G75*
G02*
X148100000Y-106339000I0J-75000D01*
G01*
X148100000Y-106489000D01*
G75*
G02*
X148025000Y-106564000I-75000J0D01*
G01*
G37*
%TD.AperFunction*%
%TO.P,U1,23*%
%TO.N,MOSI1_DRV*%
%TA.AperFunction,SMDPad,CuDef*%
G36*
G01*
X148025000Y-106064000D02*
X146625000Y-106064000D01*
G75*
G02*
X146550000Y-105989000I0J75000D01*
G01*
X146550000Y-105839000D01*
G75*
G02*
X146625000Y-105764000I75000J0D01*
G01*
X148025000Y-105764000D01*
G75*
G02*
X148100000Y-105839000I0J-75000D01*
G01*
X148100000Y-105989000D01*
G75*
G02*
X148025000Y-106064000I-75000J0D01*
G01*
G37*
%TD.AperFunction*%
%TO.P,U1,24*%
%TO.N,CONFIG_SW*%
%TA.AperFunction,SMDPad,CuDef*%
G36*
G01*
X148025000Y-105564000D02*
X146625000Y-105564000D01*
G75*
G02*
X146550000Y-105489000I0J75000D01*
G01*
X146550000Y-105339000D01*
G75*
G02*
X146625000Y-105264000I75000J0D01*
G01*
X148025000Y-105264000D01*
G75*
G02*
X148100000Y-105339000I0J-75000D01*
G01*
X148100000Y-105489000D01*
G75*
G02*
X148025000Y-105564000I-75000J0D01*
G01*
G37*
%TD.AperFunction*%
%TO.P,U1,25*%
%TO.N,SENSE_A*%
%TA.AperFunction,SMDPad,CuDef*%
G36*
G01*
X148025000Y-105064000D02*
X146625000Y-105064000D01*
G75*
G02*
X146550000Y-104989000I0J75000D01*
G01*
X146550000Y-104839000D01*
G75*
G02*
X146625000Y-104764000I75000J0D01*
G01*
X148025000Y-104764000D01*
G75*
G02*
X148100000Y-104839000I0J-75000D01*
G01*
X148100000Y-104989000D01*
G75*
G02*
X148025000Y-105064000I-75000J0D01*
G01*
G37*
%TD.AperFunction*%
%TO.P,U1,26*%
%TO.N,SENSE_B*%
%TA.AperFunction,SMDPad,CuDef*%
G36*
G01*
X148025000Y-104564000D02*
X146625000Y-104564000D01*
G75*
G02*
X146550000Y-104489000I0J75000D01*
G01*
X146550000Y-104339000D01*
G75*
G02*
X146625000Y-104264000I75000J0D01*
G01*
X148025000Y-104264000D01*
G75*
G02*
X148100000Y-104339000I0J-75000D01*
G01*
X148100000Y-104489000D01*
G75*
G02*
X148025000Y-104564000I-75000J0D01*
G01*
G37*
%TD.AperFunction*%
%TO.P,U1,27*%
%TO.N,SENSE_C*%
%TA.AperFunction,SMDPad,CuDef*%
G36*
G01*
X148025000Y-104064000D02*
X146625000Y-104064000D01*
G75*
G02*
X146550000Y-103989000I0J75000D01*
G01*
X146550000Y-103839000D01*
G75*
G02*
X146625000Y-103764000I75000J0D01*
G01*
X148025000Y-103764000D01*
G75*
G02*
X148100000Y-103839000I0J-75000D01*
G01*
X148100000Y-103989000D01*
G75*
G02*
X148025000Y-104064000I-75000J0D01*
G01*
G37*
%TD.AperFunction*%
%TO.P,U1,28*%
%TO.N,N/C*%
%TA.AperFunction,SMDPad,CuDef*%
G36*
G01*
X148025000Y-103564000D02*
X146625000Y-103564000D01*
G75*
G02*
X146550000Y-103489000I0J75000D01*
G01*
X146550000Y-103339000D01*
G75*
G02*
X146625000Y-103264000I75000J0D01*
G01*
X148025000Y-103264000D01*
G75*
G02*
X148100000Y-103339000I0J-75000D01*
G01*
X148100000Y-103489000D01*
G75*
G02*
X148025000Y-103564000I-75000J0D01*
G01*
G37*
%TD.AperFunction*%
%TO.P,U1,29*%
%TO.N,LOOP_PIN*%
%TA.AperFunction,SMDPad,CuDef*%
G36*
G01*
X148025000Y-103064000D02*
X146625000Y-103064000D01*
G75*
G02*
X146550000Y-102989000I0J75000D01*
G01*
X146550000Y-102839000D01*
G75*
G02*
X146625000Y-102764000I75000J0D01*
G01*
X148025000Y-102764000D01*
G75*
G02*
X148100000Y-102839000I0J-75000D01*
G01*
X148100000Y-102989000D01*
G75*
G02*
X148025000Y-103064000I-75000J0D01*
G01*
G37*
%TD.AperFunction*%
%TO.P,U1,30*%
%TO.N,N/C*%
%TA.AperFunction,SMDPad,CuDef*%
G36*
G01*
X148025000Y-102564000D02*
X146625000Y-102564000D01*
G75*
G02*
X146550000Y-102489000I0J75000D01*
G01*
X146550000Y-102339000D01*
G75*
G02*
X146625000Y-102264000I75000J0D01*
G01*
X148025000Y-102264000D01*
G75*
G02*
X148100000Y-102339000I0J-75000D01*
G01*
X148100000Y-102489000D01*
G75*
G02*
X148025000Y-102564000I-75000J0D01*
G01*
G37*
%TD.AperFunction*%
%TO.P,U1,31*%
%TO.N,Net-(C11-Pad2)*%
%TA.AperFunction,SMDPad,CuDef*%
G36*
G01*
X148025000Y-102064000D02*
X146625000Y-102064000D01*
G75*
G02*
X146550000Y-101989000I0J75000D01*
G01*
X146550000Y-101839000D01*
G75*
G02*
X146625000Y-101764000I75000J0D01*
G01*
X148025000Y-101764000D01*
G75*
G02*
X148100000Y-101839000I0J-75000D01*
G01*
X148100000Y-101989000D01*
G75*
G02*
X148025000Y-102064000I-75000J0D01*
G01*
G37*
%TD.AperFunction*%
%TO.P,U1,32*%
%TO.N,+3V3*%
%TA.AperFunction,SMDPad,CuDef*%
G36*
G01*
X148025000Y-101564000D02*
X146625000Y-101564000D01*
G75*
G02*
X146550000Y-101489000I0J75000D01*
G01*
X146550000Y-101339000D01*
G75*
G02*
X146625000Y-101264000I75000J0D01*
G01*
X148025000Y-101264000D01*
G75*
G02*
X148100000Y-101339000I0J-75000D01*
G01*
X148100000Y-101489000D01*
G75*
G02*
X148025000Y-101564000I-75000J0D01*
G01*
G37*
%TD.AperFunction*%
%TO.P,U1,33*%
%TO.N,CS2_ENC*%
%TA.AperFunction,SMDPad,CuDef*%
G36*
G01*
X149325000Y-100264000D02*
X149175000Y-100264000D01*
G75*
G02*
X149100000Y-100189000I0J75000D01*
G01*
X149100000Y-98789000D01*
G75*
G02*
X149175000Y-98714000I75000J0D01*
G01*
X149325000Y-98714000D01*
G75*
G02*
X149400000Y-98789000I0J-75000D01*
G01*
X149400000Y-100189000D01*
G75*
G02*
X149325000Y-100264000I-75000J0D01*
G01*
G37*
%TD.AperFunction*%
%TO.P,U1,34*%
%TO.N,CLK2_ENC*%
%TA.AperFunction,SMDPad,CuDef*%
G36*
G01*
X149825000Y-100264000D02*
X149675000Y-100264000D01*
G75*
G02*
X149600000Y-100189000I0J75000D01*
G01*
X149600000Y-98789000D01*
G75*
G02*
X149675000Y-98714000I75000J0D01*
G01*
X149825000Y-98714000D01*
G75*
G02*
X149900000Y-98789000I0J-75000D01*
G01*
X149900000Y-100189000D01*
G75*
G02*
X149825000Y-100264000I-75000J0D01*
G01*
G37*
%TD.AperFunction*%
%TO.P,U1,35*%
%TO.N,MISO2_ENC*%
%TA.AperFunction,SMDPad,CuDef*%
G36*
G01*
X150325000Y-100264000D02*
X150175000Y-100264000D01*
G75*
G02*
X150100000Y-100189000I0J75000D01*
G01*
X150100000Y-98789000D01*
G75*
G02*
X150175000Y-98714000I75000J0D01*
G01*
X150325000Y-98714000D01*
G75*
G02*
X150400000Y-98789000I0J-75000D01*
G01*
X150400000Y-100189000D01*
G75*
G02*
X150325000Y-100264000I-75000J0D01*
G01*
G37*
%TD.AperFunction*%
%TO.P,U1,36*%
%TO.N,MOSI2_ENC*%
%TA.AperFunction,SMDPad,CuDef*%
G36*
G01*
X150825000Y-100264000D02*
X150675000Y-100264000D01*
G75*
G02*
X150600000Y-100189000I0J75000D01*
G01*
X150600000Y-98789000D01*
G75*
G02*
X150675000Y-98714000I75000J0D01*
G01*
X150825000Y-98714000D01*
G75*
G02*
X150900000Y-98789000I0J-75000D01*
G01*
X150900000Y-100189000D01*
G75*
G02*
X150825000Y-100264000I-75000J0D01*
G01*
G37*
%TD.AperFunction*%
%TO.P,U1,37*%
%TO.N,INL_A*%
%TA.AperFunction,SMDPad,CuDef*%
G36*
G01*
X151325000Y-100264000D02*
X151175000Y-100264000D01*
G75*
G02*
X151100000Y-100189000I0J75000D01*
G01*
X151100000Y-98789000D01*
G75*
G02*
X151175000Y-98714000I75000J0D01*
G01*
X151325000Y-98714000D01*
G75*
G02*
X151400000Y-98789000I0J-75000D01*
G01*
X151400000Y-100189000D01*
G75*
G02*
X151325000Y-100264000I-75000J0D01*
G01*
G37*
%TD.AperFunction*%
%TO.P,U1,38*%
%TO.N,INH_A*%
%TA.AperFunction,SMDPad,CuDef*%
G36*
G01*
X151825000Y-100264000D02*
X151675000Y-100264000D01*
G75*
G02*
X151600000Y-100189000I0J75000D01*
G01*
X151600000Y-98789000D01*
G75*
G02*
X151675000Y-98714000I75000J0D01*
G01*
X151825000Y-98714000D01*
G75*
G02*
X151900000Y-98789000I0J-75000D01*
G01*
X151900000Y-100189000D01*
G75*
G02*
X151825000Y-100264000I-75000J0D01*
G01*
G37*
%TD.AperFunction*%
%TO.P,U1,39*%
%TO.N,N/C*%
%TA.AperFunction,SMDPad,CuDef*%
G36*
G01*
X152325000Y-100264000D02*
X152175000Y-100264000D01*
G75*
G02*
X152100000Y-100189000I0J75000D01*
G01*
X152100000Y-98789000D01*
G75*
G02*
X152175000Y-98714000I75000J0D01*
G01*
X152325000Y-98714000D01*
G75*
G02*
X152400000Y-98789000I0J-75000D01*
G01*
X152400000Y-100189000D01*
G75*
G02*
X152325000Y-100264000I-75000J0D01*
G01*
G37*
%TD.AperFunction*%
%TO.P,U1,40*%
%TA.AperFunction,SMDPad,CuDef*%
G36*
G01*
X152825000Y-100264000D02*
X152675000Y-100264000D01*
G75*
G02*
X152600000Y-100189000I0J75000D01*
G01*
X152600000Y-98789000D01*
G75*
G02*
X152675000Y-98714000I75000J0D01*
G01*
X152825000Y-98714000D01*
G75*
G02*
X152900000Y-98789000I0J-75000D01*
G01*
X152900000Y-100189000D01*
G75*
G02*
X152825000Y-100264000I-75000J0D01*
G01*
G37*
%TD.AperFunction*%
%TO.P,U1,41*%
%TA.AperFunction,SMDPad,CuDef*%
G36*
G01*
X153325000Y-100264000D02*
X153175000Y-100264000D01*
G75*
G02*
X153100000Y-100189000I0J75000D01*
G01*
X153100000Y-98789000D01*
G75*
G02*
X153175000Y-98714000I75000J0D01*
G01*
X153325000Y-98714000D01*
G75*
G02*
X153400000Y-98789000I0J-75000D01*
G01*
X153400000Y-100189000D01*
G75*
G02*
X153325000Y-100264000I-75000J0D01*
G01*
G37*
%TD.AperFunction*%
%TO.P,U1,42*%
%TA.AperFunction,SMDPad,CuDef*%
G36*
G01*
X153825000Y-100264000D02*
X153675000Y-100264000D01*
G75*
G02*
X153600000Y-100189000I0J75000D01*
G01*
X153600000Y-98789000D01*
G75*
G02*
X153675000Y-98714000I75000J0D01*
G01*
X153825000Y-98714000D01*
G75*
G02*
X153900000Y-98789000I0J-75000D01*
G01*
X153900000Y-100189000D01*
G75*
G02*
X153825000Y-100264000I-75000J0D01*
G01*
G37*
%TD.AperFunction*%
%TO.P,U1,43*%
%TA.AperFunction,SMDPad,CuDef*%
G36*
G01*
X154325000Y-100264000D02*
X154175000Y-100264000D01*
G75*
G02*
X154100000Y-100189000I0J75000D01*
G01*
X154100000Y-98789000D01*
G75*
G02*
X154175000Y-98714000I75000J0D01*
G01*
X154325000Y-98714000D01*
G75*
G02*
X154400000Y-98789000I0J-75000D01*
G01*
X154400000Y-100189000D01*
G75*
G02*
X154325000Y-100264000I-75000J0D01*
G01*
G37*
%TD.AperFunction*%
%TO.P,U1,44*%
%TO.N,CAN_RX*%
%TA.AperFunction,SMDPad,CuDef*%
G36*
G01*
X154825000Y-100264000D02*
X154675000Y-100264000D01*
G75*
G02*
X154600000Y-100189000I0J75000D01*
G01*
X154600000Y-98789000D01*
G75*
G02*
X154675000Y-98714000I75000J0D01*
G01*
X154825000Y-98714000D01*
G75*
G02*
X154900000Y-98789000I0J-75000D01*
G01*
X154900000Y-100189000D01*
G75*
G02*
X154825000Y-100264000I-75000J0D01*
G01*
G37*
%TD.AperFunction*%
%TO.P,U1,45*%
%TO.N,CAN_TX*%
%TA.AperFunction,SMDPad,CuDef*%
G36*
G01*
X155325000Y-100264000D02*
X155175000Y-100264000D01*
G75*
G02*
X155100000Y-100189000I0J75000D01*
G01*
X155100000Y-98789000D01*
G75*
G02*
X155175000Y-98714000I75000J0D01*
G01*
X155325000Y-98714000D01*
G75*
G02*
X155400000Y-98789000I0J-75000D01*
G01*
X155400000Y-100189000D01*
G75*
G02*
X155325000Y-100264000I-75000J0D01*
G01*
G37*
%TD.AperFunction*%
%TO.P,U1,46*%
%TO.N,SWDIO*%
%TA.AperFunction,SMDPad,CuDef*%
G36*
G01*
X155825000Y-100264000D02*
X155675000Y-100264000D01*
G75*
G02*
X155600000Y-100189000I0J75000D01*
G01*
X155600000Y-98789000D01*
G75*
G02*
X155675000Y-98714000I75000J0D01*
G01*
X155825000Y-98714000D01*
G75*
G02*
X155900000Y-98789000I0J-75000D01*
G01*
X155900000Y-100189000D01*
G75*
G02*
X155825000Y-100264000I-75000J0D01*
G01*
G37*
%TD.AperFunction*%
%TO.P,U1,47*%
%TO.N,Net-(C12-Pad2)*%
%TA.AperFunction,SMDPad,CuDef*%
G36*
G01*
X156325000Y-100264000D02*
X156175000Y-100264000D01*
G75*
G02*
X156100000Y-100189000I0J75000D01*
G01*
X156100000Y-98789000D01*
G75*
G02*
X156175000Y-98714000I75000J0D01*
G01*
X156325000Y-98714000D01*
G75*
G02*
X156400000Y-98789000I0J-75000D01*
G01*
X156400000Y-100189000D01*
G75*
G02*
X156325000Y-100264000I-75000J0D01*
G01*
G37*
%TD.AperFunction*%
%TO.P,U1,48*%
%TO.N,+3V3*%
%TA.AperFunction,SMDPad,CuDef*%
G36*
G01*
X156825000Y-100264000D02*
X156675000Y-100264000D01*
G75*
G02*
X156600000Y-100189000I0J75000D01*
G01*
X156600000Y-98789000D01*
G75*
G02*
X156675000Y-98714000I75000J0D01*
G01*
X156825000Y-98714000D01*
G75*
G02*
X156900000Y-98789000I0J-75000D01*
G01*
X156900000Y-100189000D01*
G75*
G02*
X156825000Y-100264000I-75000J0D01*
G01*
G37*
%TD.AperFunction*%
%TO.P,U1,49*%
%TO.N,SWCLK*%
%TA.AperFunction,SMDPad,CuDef*%
G36*
G01*
X159375000Y-101564000D02*
X157975000Y-101564000D01*
G75*
G02*
X157900000Y-101489000I0J75000D01*
G01*
X157900000Y-101339000D01*
G75*
G02*
X157975000Y-101264000I75000J0D01*
G01*
X159375000Y-101264000D01*
G75*
G02*
X159450000Y-101339000I0J-75000D01*
G01*
X159450000Y-101489000D01*
G75*
G02*
X159375000Y-101564000I-75000J0D01*
G01*
G37*
%TD.AperFunction*%
%TO.P,U1,50*%
%TO.N,BLUE_LED*%
%TA.AperFunction,SMDPad,CuDef*%
G36*
G01*
X159375000Y-102064000D02*
X157975000Y-102064000D01*
G75*
G02*
X157900000Y-101989000I0J75000D01*
G01*
X157900000Y-101839000D01*
G75*
G02*
X157975000Y-101764000I75000J0D01*
G01*
X159375000Y-101764000D01*
G75*
G02*
X159450000Y-101839000I0J-75000D01*
G01*
X159450000Y-101989000D01*
G75*
G02*
X159375000Y-102064000I-75000J0D01*
G01*
G37*
%TD.AperFunction*%
%TO.P,U1,51*%
%TO.N,USART4_TX*%
%TA.AperFunction,SMDPad,CuDef*%
G36*
G01*
X159375000Y-102564000D02*
X157975000Y-102564000D01*
G75*
G02*
X157900000Y-102489000I0J75000D01*
G01*
X157900000Y-102339000D01*
G75*
G02*
X157975000Y-102264000I75000J0D01*
G01*
X159375000Y-102264000D01*
G75*
G02*
X159450000Y-102339000I0J-75000D01*
G01*
X159450000Y-102489000D01*
G75*
G02*
X159375000Y-102564000I-75000J0D01*
G01*
G37*
%TD.AperFunction*%
%TO.P,U1,52*%
%TO.N,USART4_RX*%
%TA.AperFunction,SMDPad,CuDef*%
G36*
G01*
X159375000Y-103064000D02*
X157975000Y-103064000D01*
G75*
G02*
X157900000Y-102989000I0J75000D01*
G01*
X157900000Y-102839000D01*
G75*
G02*
X157975000Y-102764000I75000J0D01*
G01*
X159375000Y-102764000D01*
G75*
G02*
X159450000Y-102839000I0J-75000D01*
G01*
X159450000Y-102989000D01*
G75*
G02*
X159375000Y-103064000I-75000J0D01*
G01*
G37*
%TD.AperFunction*%
%TO.P,U1,53*%
%TO.N,N/C*%
%TA.AperFunction,SMDPad,CuDef*%
G36*
G01*
X159375000Y-103564000D02*
X157975000Y-103564000D01*
G75*
G02*
X157900000Y-103489000I0J75000D01*
G01*
X157900000Y-103339000D01*
G75*
G02*
X157975000Y-103264000I75000J0D01*
G01*
X159375000Y-103264000D01*
G75*
G02*
X159450000Y-103339000I0J-75000D01*
G01*
X159450000Y-103489000D01*
G75*
G02*
X159375000Y-103564000I-75000J0D01*
G01*
G37*
%TD.AperFunction*%
%TO.P,U1,54*%
%TO.N,DIR*%
%TA.AperFunction,SMDPad,CuDef*%
G36*
G01*
X159375000Y-104064000D02*
X157975000Y-104064000D01*
G75*
G02*
X157900000Y-103989000I0J75000D01*
G01*
X157900000Y-103839000D01*
G75*
G02*
X157975000Y-103764000I75000J0D01*
G01*
X159375000Y-103764000D01*
G75*
G02*
X159450000Y-103839000I0J-75000D01*
G01*
X159450000Y-103989000D01*
G75*
G02*
X159375000Y-104064000I-75000J0D01*
G01*
G37*
%TD.AperFunction*%
%TO.P,U1,55*%
%TO.N,N/C*%
%TA.AperFunction,SMDPad,CuDef*%
G36*
G01*
X159375000Y-104564000D02*
X157975000Y-104564000D01*
G75*
G02*
X157900000Y-104489000I0J75000D01*
G01*
X157900000Y-104339000D01*
G75*
G02*
X157975000Y-104264000I75000J0D01*
G01*
X159375000Y-104264000D01*
G75*
G02*
X159450000Y-104339000I0J-75000D01*
G01*
X159450000Y-104489000D01*
G75*
G02*
X159375000Y-104564000I-75000J0D01*
G01*
G37*
%TD.AperFunction*%
%TO.P,U1,56*%
%TO.N,STEP*%
%TA.AperFunction,SMDPad,CuDef*%
G36*
G01*
X159375000Y-105064000D02*
X157975000Y-105064000D01*
G75*
G02*
X157900000Y-104989000I0J75000D01*
G01*
X157900000Y-104839000D01*
G75*
G02*
X157975000Y-104764000I75000J0D01*
G01*
X159375000Y-104764000D01*
G75*
G02*
X159450000Y-104839000I0J-75000D01*
G01*
X159450000Y-104989000D01*
G75*
G02*
X159375000Y-105064000I-75000J0D01*
G01*
G37*
%TD.AperFunction*%
%TO.P,U1,57*%
%TO.N,N/C*%
%TA.AperFunction,SMDPad,CuDef*%
G36*
G01*
X159375000Y-105564000D02*
X157975000Y-105564000D01*
G75*
G02*
X157900000Y-105489000I0J75000D01*
G01*
X157900000Y-105339000D01*
G75*
G02*
X157975000Y-105264000I75000J0D01*
G01*
X159375000Y-105264000D01*
G75*
G02*
X159450000Y-105339000I0J-75000D01*
G01*
X159450000Y-105489000D01*
G75*
G02*
X159375000Y-105564000I-75000J0D01*
G01*
G37*
%TD.AperFunction*%
%TO.P,U1,58*%
%TO.N,I2C1_SCL*%
%TA.AperFunction,SMDPad,CuDef*%
G36*
G01*
X159375000Y-106064000D02*
X157975000Y-106064000D01*
G75*
G02*
X157900000Y-105989000I0J75000D01*
G01*
X157900000Y-105839000D01*
G75*
G02*
X157975000Y-105764000I75000J0D01*
G01*
X159375000Y-105764000D01*
G75*
G02*
X159450000Y-105839000I0J-75000D01*
G01*
X159450000Y-105989000D01*
G75*
G02*
X159375000Y-106064000I-75000J0D01*
G01*
G37*
%TD.AperFunction*%
%TO.P,U1,59*%
%TO.N,I2C1_SDA*%
%TA.AperFunction,SMDPad,CuDef*%
G36*
G01*
X159375000Y-106564000D02*
X157975000Y-106564000D01*
G75*
G02*
X157900000Y-106489000I0J75000D01*
G01*
X157900000Y-106339000D01*
G75*
G02*
X157975000Y-106264000I75000J0D01*
G01*
X159375000Y-106264000D01*
G75*
G02*
X159450000Y-106339000I0J-75000D01*
G01*
X159450000Y-106489000D01*
G75*
G02*
X159375000Y-106564000I-75000J0D01*
G01*
G37*
%TD.AperFunction*%
%TO.P,U1,60*%
%TO.N,GND*%
%TA.AperFunction,SMDPad,CuDef*%
G36*
G01*
X159375000Y-107064000D02*
X157975000Y-107064000D01*
G75*
G02*
X157900000Y-106989000I0J75000D01*
G01*
X157900000Y-106839000D01*
G75*
G02*
X157975000Y-106764000I75000J0D01*
G01*
X159375000Y-106764000D01*
G75*
G02*
X159450000Y-106839000I0J-75000D01*
G01*
X159450000Y-106989000D01*
G75*
G02*
X159375000Y-107064000I-75000J0D01*
G01*
G37*
%TD.AperFunction*%
%TO.P,U1,61*%
%TO.N,N/C*%
%TA.AperFunction,SMDPad,CuDef*%
G36*
G01*
X159375000Y-107564000D02*
X157975000Y-107564000D01*
G75*
G02*
X157900000Y-107489000I0J75000D01*
G01*
X157900000Y-107339000D01*
G75*
G02*
X157975000Y-107264000I75000J0D01*
G01*
X159375000Y-107264000D01*
G75*
G02*
X159450000Y-107339000I0J-75000D01*
G01*
X159450000Y-107489000D01*
G75*
G02*
X159375000Y-107564000I-75000J0D01*
G01*
G37*
%TD.AperFunction*%
%TO.P,U1,62*%
%TA.AperFunction,SMDPad,CuDef*%
G36*
G01*
X159375000Y-108064000D02*
X157975000Y-108064000D01*
G75*
G02*
X157900000Y-107989000I0J75000D01*
G01*
X157900000Y-107839000D01*
G75*
G02*
X157975000Y-107764000I75000J0D01*
G01*
X159375000Y-107764000D01*
G75*
G02*
X159450000Y-107839000I0J-75000D01*
G01*
X159450000Y-107989000D01*
G75*
G02*
X159375000Y-108064000I-75000J0D01*
G01*
G37*
%TD.AperFunction*%
%TO.P,U1,63*%
%TO.N,GND*%
%TA.AperFunction,SMDPad,CuDef*%
G36*
G01*
X159375000Y-108564000D02*
X157975000Y-108564000D01*
G75*
G02*
X157900000Y-108489000I0J75000D01*
G01*
X157900000Y-108339000D01*
G75*
G02*
X157975000Y-108264000I75000J0D01*
G01*
X159375000Y-108264000D01*
G75*
G02*
X159450000Y-108339000I0J-75000D01*
G01*
X159450000Y-108489000D01*
G75*
G02*
X159375000Y-108564000I-75000J0D01*
G01*
G37*
%TD.AperFunction*%
%TO.P,U1,64*%
%TO.N,+3V3*%
%TA.AperFunction,SMDPad,CuDef*%
G36*
G01*
X159375000Y-109064000D02*
X157975000Y-109064000D01*
G75*
G02*
X157900000Y-108989000I0J75000D01*
G01*
X157900000Y-108839000D01*
G75*
G02*
X157975000Y-108764000I75000J0D01*
G01*
X159375000Y-108764000D01*
G75*
G02*
X159450000Y-108839000I0J-75000D01*
G01*
X159450000Y-108989000D01*
G75*
G02*
X159375000Y-109064000I-75000J0D01*
G01*
G37*
%TD.AperFunction*%
%TD*%
%TO.P,F1,1*%
%TO.N,Net-(F1-Pad1)*%
%TA.AperFunction,SMDPad,CuDef*%
G36*
G01*
X116695000Y-97140000D02*
X116695000Y-95890000D01*
G75*
G02*
X116945000Y-95640000I250000J0D01*
G01*
X117870000Y-95640000D01*
G75*
G02*
X118120000Y-95890000I0J-250000D01*
G01*
X118120000Y-97140000D01*
G75*
G02*
X117870000Y-97390000I-250000J0D01*
G01*
X116945000Y-97390000D01*
G75*
G02*
X116695000Y-97140000I0J250000D01*
G01*
G37*
%TD.AperFunction*%
%TO.P,F1,2*%
%TO.N,+24V*%
%TA.AperFunction,SMDPad,CuDef*%
G36*
G01*
X119670000Y-97140000D02*
X119670000Y-95890000D01*
G75*
G02*
X119920000Y-95640000I250000J0D01*
G01*
X120845000Y-95640000D01*
G75*
G02*
X121095000Y-95890000I0J-250000D01*
G01*
X121095000Y-97140000D01*
G75*
G02*
X120845000Y-97390000I-250000J0D01*
G01*
X119920000Y-97390000D01*
G75*
G02*
X119670000Y-97140000I0J250000D01*
G01*
G37*
%TD.AperFunction*%
%TD*%
D18*
%TO.P,U16,1*%
%TO.N,SHB*%
X140048680Y-80500000D03*
D19*
X140048680Y-80500000D03*
%TD*%
D14*
%TO.P,J6,1*%
%TO.N,GND*%
X146850000Y-77620000D03*
%TO.P,J6,2*%
%TO.N,+24V*%
X151850000Y-77620000D03*
%TD*%
%TO.P,C11,1*%
%TO.N,GND*%
%TA.AperFunction,SMDPad,CuDef*%
G36*
G01*
X144782500Y-97660000D02*
X145257500Y-97660000D01*
G75*
G02*
X145495000Y-97897500I0J-237500D01*
G01*
X145495000Y-98497500D01*
G75*
G02*
X145257500Y-98735000I-237500J0D01*
G01*
X144782500Y-98735000D01*
G75*
G02*
X144545000Y-98497500I0J237500D01*
G01*
X144545000Y-97897500D01*
G75*
G02*
X144782500Y-97660000I237500J0D01*
G01*
G37*
%TD.AperFunction*%
%TO.P,C11,2*%
%TO.N,Net-(C11-Pad2)*%
%TA.AperFunction,SMDPad,CuDef*%
G36*
G01*
X144782500Y-99385000D02*
X145257500Y-99385000D01*
G75*
G02*
X145495000Y-99622500I0J-237500D01*
G01*
X145495000Y-100222500D01*
G75*
G02*
X145257500Y-100460000I-237500J0D01*
G01*
X144782500Y-100460000D01*
G75*
G02*
X144545000Y-100222500I0J237500D01*
G01*
X144545000Y-99622500D01*
G75*
G02*
X144782500Y-99385000I237500J0D01*
G01*
G37*
%TD.AperFunction*%
%TD*%
%TO.P,C12,2*%
%TO.N,Net-(C12-Pad2)*%
%TA.AperFunction,SMDPad,CuDef*%
G36*
G01*
X155482500Y-96985000D02*
X155957500Y-96985000D01*
G75*
G02*
X156195000Y-97222500I0J-237500D01*
G01*
X156195000Y-97822500D01*
G75*
G02*
X155957500Y-98060000I-237500J0D01*
G01*
X155482500Y-98060000D01*
G75*
G02*
X155245000Y-97822500I0J237500D01*
G01*
X155245000Y-97222500D01*
G75*
G02*
X155482500Y-96985000I237500J0D01*
G01*
G37*
%TD.AperFunction*%
%TO.P,C12,1*%
%TO.N,GND*%
%TA.AperFunction,SMDPad,CuDef*%
G36*
G01*
X155482500Y-95260000D02*
X155957500Y-95260000D01*
G75*
G02*
X156195000Y-95497500I0J-237500D01*
G01*
X156195000Y-96097500D01*
G75*
G02*
X155957500Y-96335000I-237500J0D01*
G01*
X155482500Y-96335000D01*
G75*
G02*
X155245000Y-96097500I0J237500D01*
G01*
X155245000Y-95497500D01*
G75*
G02*
X155482500Y-95260000I237500J0D01*
G01*
G37*
%TD.AperFunction*%
%TD*%
%TO.P,C13,1*%
%TO.N,GND*%
%TA.AperFunction,SMDPad,CuDef*%
G36*
G01*
X116982500Y-98165000D02*
X117457500Y-98165000D01*
G75*
G02*
X117695000Y-98402500I0J-237500D01*
G01*
X117695000Y-99002500D01*
G75*
G02*
X117457500Y-99240000I-237500J0D01*
G01*
X116982500Y-99240000D01*
G75*
G02*
X116745000Y-99002500I0J237500D01*
G01*
X116745000Y-98402500D01*
G75*
G02*
X116982500Y-98165000I237500J0D01*
G01*
G37*
%TD.AperFunction*%
%TO.P,C13,2*%
%TO.N,Net-(C13-Pad2)*%
%TA.AperFunction,SMDPad,CuDef*%
G36*
G01*
X116982500Y-99890000D02*
X117457500Y-99890000D01*
G75*
G02*
X117695000Y-100127500I0J-237500D01*
G01*
X117695000Y-100727500D01*
G75*
G02*
X117457500Y-100965000I-237500J0D01*
G01*
X116982500Y-100965000D01*
G75*
G02*
X116745000Y-100727500I0J237500D01*
G01*
X116745000Y-100127500D01*
G75*
G02*
X116982500Y-99890000I237500J0D01*
G01*
G37*
%TD.AperFunction*%
%TD*%
%TO.P,C14,2*%
%TO.N,+3V3*%
%TA.AperFunction,SMDPad,CuDef*%
G36*
G01*
X121957500Y-96715000D02*
X122432500Y-96715000D01*
G75*
G02*
X122670000Y-96952500I0J-237500D01*
G01*
X122670000Y-97552500D01*
G75*
G02*
X122432500Y-97790000I-237500J0D01*
G01*
X121957500Y-97790000D01*
G75*
G02*
X121720000Y-97552500I0J237500D01*
G01*
X121720000Y-96952500D01*
G75*
G02*
X121957500Y-96715000I237500J0D01*
G01*
G37*
%TD.AperFunction*%
%TO.P,C14,1*%
%TO.N,GND*%
%TA.AperFunction,SMDPad,CuDef*%
G36*
G01*
X121957500Y-94990000D02*
X122432500Y-94990000D01*
G75*
G02*
X122670000Y-95227500I0J-237500D01*
G01*
X122670000Y-95827500D01*
G75*
G02*
X122432500Y-96065000I-237500J0D01*
G01*
X121957500Y-96065000D01*
G75*
G02*
X121720000Y-95827500I0J237500D01*
G01*
X121720000Y-95227500D01*
G75*
G02*
X121957500Y-94990000I237500J0D01*
G01*
G37*
%TD.AperFunction*%
%TD*%
%TO.P,C16,2*%
%TO.N,Net-(C16-Pad2)*%
%TA.AperFunction,SMDPad,CuDef*%
G36*
G01*
X153442500Y-117117500D02*
X153917500Y-117117500D01*
G75*
G02*
X154155000Y-117355000I0J-237500D01*
G01*
X154155000Y-117955000D01*
G75*
G02*
X153917500Y-118192500I-237500J0D01*
G01*
X153442500Y-118192500D01*
G75*
G02*
X153205000Y-117955000I0J237500D01*
G01*
X153205000Y-117355000D01*
G75*
G02*
X153442500Y-117117500I237500J0D01*
G01*
G37*
%TD.AperFunction*%
%TO.P,C16,1*%
%TO.N,GND*%
%TA.AperFunction,SMDPad,CuDef*%
G36*
G01*
X153442500Y-115392500D02*
X153917500Y-115392500D01*
G75*
G02*
X154155000Y-115630000I0J-237500D01*
G01*
X154155000Y-116230000D01*
G75*
G02*
X153917500Y-116467500I-237500J0D01*
G01*
X153442500Y-116467500D01*
G75*
G02*
X153205000Y-116230000I0J237500D01*
G01*
X153205000Y-115630000D01*
G75*
G02*
X153442500Y-115392500I237500J0D01*
G01*
G37*
%TD.AperFunction*%
%TD*%
%TO.P,FB1,1*%
%TO.N,Net-(C13-Pad2)*%
%TA.AperFunction,SMDPad,CuDef*%
G36*
G01*
X122420000Y-100865000D02*
X121920000Y-100865000D01*
G75*
G02*
X121695000Y-100640000I0J225000D01*
G01*
X121695000Y-100190000D01*
G75*
G02*
X121920000Y-99965000I225000J0D01*
G01*
X122420000Y-99965000D01*
G75*
G02*
X122645000Y-100190000I0J-225000D01*
G01*
X122645000Y-100640000D01*
G75*
G02*
X122420000Y-100865000I-225000J0D01*
G01*
G37*
%TD.AperFunction*%
%TO.P,FB1,2*%
%TO.N,Net-(FB1-Pad2)*%
%TA.AperFunction,SMDPad,CuDef*%
G36*
G01*
X122420000Y-99315000D02*
X121920000Y-99315000D01*
G75*
G02*
X121695000Y-99090000I0J225000D01*
G01*
X121695000Y-98640000D01*
G75*
G02*
X121920000Y-98415000I225000J0D01*
G01*
X122420000Y-98415000D01*
G75*
G02*
X122645000Y-98640000I0J-225000D01*
G01*
X122645000Y-99090000D01*
G75*
G02*
X122420000Y-99315000I-225000J0D01*
G01*
G37*
%TD.AperFunction*%
%TD*%
%TO.P,R12,1*%
%TO.N,I2C1_SDA*%
%TA.AperFunction,SMDPad,CuDef*%
G36*
G01*
X161144000Y-106193000D02*
X161144000Y-105643000D01*
G75*
G02*
X161344000Y-105443000I200000J0D01*
G01*
X161744000Y-105443000D01*
G75*
G02*
X161944000Y-105643000I0J-200000D01*
G01*
X161944000Y-106193000D01*
G75*
G02*
X161744000Y-106393000I-200000J0D01*
G01*
X161344000Y-106393000D01*
G75*
G02*
X161144000Y-106193000I0J200000D01*
G01*
G37*
%TD.AperFunction*%
%TO.P,R12,2*%
%TO.N,+3V3*%
%TA.AperFunction,SMDPad,CuDef*%
G36*
G01*
X162794000Y-106193000D02*
X162794000Y-105643000D01*
G75*
G02*
X162994000Y-105443000I200000J0D01*
G01*
X163394000Y-105443000D01*
G75*
G02*
X163594000Y-105643000I0J-200000D01*
G01*
X163594000Y-106193000D01*
G75*
G02*
X163394000Y-106393000I-200000J0D01*
G01*
X162994000Y-106393000D01*
G75*
G02*
X162794000Y-106193000I0J200000D01*
G01*
G37*
%TD.AperFunction*%
%TD*%
%TO.P,R14,2*%
%TO.N,I2C1_SCL*%
%TA.AperFunction,SMDPad,CuDef*%
G36*
G01*
X161881000Y-104119000D02*
X161881000Y-104669000D01*
G75*
G02*
X161681000Y-104869000I-200000J0D01*
G01*
X161281000Y-104869000D01*
G75*
G02*
X161081000Y-104669000I0J200000D01*
G01*
X161081000Y-104119000D01*
G75*
G02*
X161281000Y-103919000I200000J0D01*
G01*
X161681000Y-103919000D01*
G75*
G02*
X161881000Y-104119000I0J-200000D01*
G01*
G37*
%TD.AperFunction*%
%TO.P,R14,1*%
%TO.N,+3V3*%
%TA.AperFunction,SMDPad,CuDef*%
G36*
G01*
X163531000Y-104119000D02*
X163531000Y-104669000D01*
G75*
G02*
X163331000Y-104869000I-200000J0D01*
G01*
X162931000Y-104869000D01*
G75*
G02*
X162731000Y-104669000I0J200000D01*
G01*
X162731000Y-104119000D01*
G75*
G02*
X162931000Y-103919000I200000J0D01*
G01*
X163331000Y-103919000D01*
G75*
G02*
X163531000Y-104119000I0J-200000D01*
G01*
G37*
%TD.AperFunction*%
%TD*%
%TO.P,R29,1*%
%TO.N,Net-(R29-Pad1)*%
%TA.AperFunction,SMDPad,CuDef*%
G36*
G01*
X131765000Y-79340000D02*
X131215000Y-79340000D01*
G75*
G02*
X131015000Y-79140000I0J200000D01*
G01*
X131015000Y-78740000D01*
G75*
G02*
X131215000Y-78540000I200000J0D01*
G01*
X131765000Y-78540000D01*
G75*
G02*
X131965000Y-78740000I0J-200000D01*
G01*
X131965000Y-79140000D01*
G75*
G02*
X131765000Y-79340000I-200000J0D01*
G01*
G37*
%TD.AperFunction*%
%TO.P,R29,2*%
%TO.N,GND*%
%TA.AperFunction,SMDPad,CuDef*%
G36*
G01*
X131765000Y-77690000D02*
X131215000Y-77690000D01*
G75*
G02*
X131015000Y-77490000I0J200000D01*
G01*
X131015000Y-77090000D01*
G75*
G02*
X131215000Y-76890000I200000J0D01*
G01*
X131765000Y-76890000D01*
G75*
G02*
X131965000Y-77090000I0J-200000D01*
G01*
X131965000Y-77490000D01*
G75*
G02*
X131765000Y-77690000I-200000J0D01*
G01*
G37*
%TD.AperFunction*%
%TD*%
%TO.P,C1,1*%
%TO.N,GND*%
%TA.AperFunction,SMDPad,CuDef*%
G36*
G01*
X144777500Y-110522500D02*
X144302500Y-110522500D01*
G75*
G02*
X144065000Y-110285000I0J237500D01*
G01*
X144065000Y-109685000D01*
G75*
G02*
X144302500Y-109447500I237500J0D01*
G01*
X144777500Y-109447500D01*
G75*
G02*
X145015000Y-109685000I0J-237500D01*
G01*
X145015000Y-110285000D01*
G75*
G02*
X144777500Y-110522500I-237500J0D01*
G01*
G37*
%TD.AperFunction*%
%TO.P,C1,2*%
%TO.N,+3V3*%
%TA.AperFunction,SMDPad,CuDef*%
G36*
G01*
X144777500Y-108797500D02*
X144302500Y-108797500D01*
G75*
G02*
X144065000Y-108560000I0J237500D01*
G01*
X144065000Y-107960000D01*
G75*
G02*
X144302500Y-107722500I237500J0D01*
G01*
X144777500Y-107722500D01*
G75*
G02*
X145015000Y-107960000I0J-237500D01*
G01*
X145015000Y-108560000D01*
G75*
G02*
X144777500Y-108797500I-237500J0D01*
G01*
G37*
%TD.AperFunction*%
%TD*%
%TO.P,C3,2*%
%TO.N,+3V3*%
%TA.AperFunction,SMDPad,CuDef*%
G36*
G01*
X161987500Y-108801500D02*
X162462500Y-108801500D01*
G75*
G02*
X162700000Y-109039000I0J-237500D01*
G01*
X162700000Y-109639000D01*
G75*
G02*
X162462500Y-109876500I-237500J0D01*
G01*
X161987500Y-109876500D01*
G75*
G02*
X161750000Y-109639000I0J237500D01*
G01*
X161750000Y-109039000D01*
G75*
G02*
X161987500Y-108801500I237500J0D01*
G01*
G37*
%TD.AperFunction*%
%TO.P,C3,1*%
%TO.N,GND*%
%TA.AperFunction,SMDPad,CuDef*%
G36*
G01*
X161987500Y-107076500D02*
X162462500Y-107076500D01*
G75*
G02*
X162700000Y-107314000I0J-237500D01*
G01*
X162700000Y-107914000D01*
G75*
G02*
X162462500Y-108151500I-237500J0D01*
G01*
X161987500Y-108151500D01*
G75*
G02*
X161750000Y-107914000I0J237500D01*
G01*
X161750000Y-107314000D01*
G75*
G02*
X161987500Y-107076500I237500J0D01*
G01*
G37*
%TD.AperFunction*%
%TD*%
%TO.P,C5,2*%
%TO.N,+3V3*%
%TA.AperFunction,SMDPad,CuDef*%
G36*
G01*
X158837500Y-111126500D02*
X158837500Y-111601500D01*
G75*
G02*
X158600000Y-111839000I-237500J0D01*
G01*
X158000000Y-111839000D01*
G75*
G02*
X157762500Y-111601500I0J237500D01*
G01*
X157762500Y-111126500D01*
G75*
G02*
X158000000Y-110889000I237500J0D01*
G01*
X158600000Y-110889000D01*
G75*
G02*
X158837500Y-111126500I0J-237500D01*
G01*
G37*
%TD.AperFunction*%
%TO.P,C5,1*%
%TO.N,GND*%
%TA.AperFunction,SMDPad,CuDef*%
G36*
G01*
X160562500Y-111126500D02*
X160562500Y-111601500D01*
G75*
G02*
X160325000Y-111839000I-237500J0D01*
G01*
X159725000Y-111839000D01*
G75*
G02*
X159487500Y-111601500I0J237500D01*
G01*
X159487500Y-111126500D01*
G75*
G02*
X159725000Y-110889000I237500J0D01*
G01*
X160325000Y-110889000D01*
G75*
G02*
X160562500Y-111126500I0J-237500D01*
G01*
G37*
%TD.AperFunction*%
%TD*%
%TO.P,C10,1*%
%TO.N,GND*%
%TA.AperFunction,SMDPad,CuDef*%
G36*
G01*
X146502500Y-97670000D02*
X146977500Y-97670000D01*
G75*
G02*
X147215000Y-97907500I0J-237500D01*
G01*
X147215000Y-98507500D01*
G75*
G02*
X146977500Y-98745000I-237500J0D01*
G01*
X146502500Y-98745000D01*
G75*
G02*
X146265000Y-98507500I0J237500D01*
G01*
X146265000Y-97907500D01*
G75*
G02*
X146502500Y-97670000I237500J0D01*
G01*
G37*
%TD.AperFunction*%
%TO.P,C10,2*%
%TO.N,+3V3*%
%TA.AperFunction,SMDPad,CuDef*%
G36*
G01*
X146502500Y-99395000D02*
X146977500Y-99395000D01*
G75*
G02*
X147215000Y-99632500I0J-237500D01*
G01*
X147215000Y-100232500D01*
G75*
G02*
X146977500Y-100470000I-237500J0D01*
G01*
X146502500Y-100470000D01*
G75*
G02*
X146265000Y-100232500I0J237500D01*
G01*
X146265000Y-99632500D01*
G75*
G02*
X146502500Y-99395000I237500J0D01*
G01*
G37*
%TD.AperFunction*%
%TD*%
%TO.P,C37,1*%
%TO.N,+3V3*%
%TA.AperFunction,SMDPad,CuDef*%
G36*
G01*
X134732500Y-99770000D02*
X135207500Y-99770000D01*
G75*
G02*
X135445000Y-100007500I0J-237500D01*
G01*
X135445000Y-100607500D01*
G75*
G02*
X135207500Y-100845000I-237500J0D01*
G01*
X134732500Y-100845000D01*
G75*
G02*
X134495000Y-100607500I0J237500D01*
G01*
X134495000Y-100007500D01*
G75*
G02*
X134732500Y-99770000I237500J0D01*
G01*
G37*
%TD.AperFunction*%
%TO.P,C37,2*%
%TO.N,GND*%
%TA.AperFunction,SMDPad,CuDef*%
G36*
G01*
X134732500Y-101495000D02*
X135207500Y-101495000D01*
G75*
G02*
X135445000Y-101732500I0J-237500D01*
G01*
X135445000Y-102332500D01*
G75*
G02*
X135207500Y-102570000I-237500J0D01*
G01*
X134732500Y-102570000D01*
G75*
G02*
X134495000Y-102332500I0J237500D01*
G01*
X134495000Y-101732500D01*
G75*
G02*
X134732500Y-101495000I237500J0D01*
G01*
G37*
%TD.AperFunction*%
%TD*%
D19*
%TO.P,U12,1*%
%TO.N,SHA*%
X123400000Y-80500000D03*
D18*
X123400000Y-80500000D03*
%TD*%
%TO.P,R5,1*%
%TO.N,CAN_H*%
%TA.AperFunction,SMDPad,CuDef*%
G36*
G01*
X122725000Y-75340000D02*
X123275000Y-75340000D01*
G75*
G02*
X123475000Y-75540000I0J-200000D01*
G01*
X123475000Y-75940000D01*
G75*
G02*
X123275000Y-76140000I-200000J0D01*
G01*
X122725000Y-76140000D01*
G75*
G02*
X122525000Y-75940000I0J200000D01*
G01*
X122525000Y-75540000D01*
G75*
G02*
X122725000Y-75340000I200000J0D01*
G01*
G37*
%TD.AperFunction*%
%TO.P,R5,2*%
%TO.N,CAN_L*%
%TA.AperFunction,SMDPad,CuDef*%
G36*
G01*
X122725000Y-76990000D02*
X123275000Y-76990000D01*
G75*
G02*
X123475000Y-77190000I0J-200000D01*
G01*
X123475000Y-77590000D01*
G75*
G02*
X123275000Y-77790000I-200000J0D01*
G01*
X122725000Y-77790000D01*
G75*
G02*
X122525000Y-77590000I0J200000D01*
G01*
X122525000Y-77190000D01*
G75*
G02*
X122725000Y-76990000I200000J0D01*
G01*
G37*
%TD.AperFunction*%
%TD*%
D17*
%TO.P,J2,*%
%TO.N,*%
X148160000Y-71910000D03*
X140860000Y-71910000D03*
D16*
%TO.P,J2,3*%
%TO.N,GND*%
X145760000Y-74810000D03*
%TO.P,J2,2*%
%TO.N,USART4_RX*%
X144510000Y-74810000D03*
%TO.P,J2,1*%
%TO.N,USART4_TX*%
X143260000Y-74810000D03*
%TD*%
D17*
%TO.P,J4,*%
%TO.N,*%
X130610000Y-71910000D03*
X123310000Y-71910000D03*
D16*
%TO.P,J4,3*%
%TO.N,GND*%
X128210000Y-74810000D03*
%TO.P,J4,2*%
%TO.N,CAN_L*%
X126960000Y-74810000D03*
%TO.P,J4,1*%
%TO.N,CAN_H*%
X125710000Y-74810000D03*
%TD*%
%TO.P,J9,1*%
%TO.N,I2C1_SDA*%
X126150000Y-114730000D03*
%TO.P,J9,2*%
%TO.N,I2C1_SCL*%
X124900000Y-114730000D03*
%TO.P,J9,3*%
%TO.N,GND*%
X123650000Y-114730000D03*
D17*
%TO.P,J9,*%
%TO.N,*%
X128550000Y-117630000D03*
X121250000Y-117630000D03*
%TD*%
D15*
%TO.P,U15,1*%
%TO.N,GND*%
X126080000Y-76950000D03*
%TD*%
%TO.P,U19,1*%
%TO.N,GND*%
X141980000Y-76950000D03*
%TD*%
%TO.P,U20,1*%
%TO.N,+3V3*%
X130060000Y-117820000D03*
%TD*%
%TO.P,HSE1,4*%
%TO.N,GND*%
%TA.AperFunction,SMDPad,CuDef*%
G36*
G01*
X154815000Y-112710000D02*
X155945000Y-112710000D01*
G75*
G02*
X156005000Y-112770000I0J-60000D01*
G01*
X156005000Y-114250000D01*
G75*
G02*
X155945000Y-114310000I-60000J0D01*
G01*
X154815000Y-114310000D01*
G75*
G02*
X154755000Y-114250000I0J60000D01*
G01*
X154755000Y-112770000D01*
G75*
G02*
X154815000Y-112710000I60000J0D01*
G01*
G37*
%TD.AperFunction*%
%TO.P,HSE1,3*%
%TO.N,Net-(C16-Pad2)*%
%TA.AperFunction,SMDPad,CuDef*%
G36*
G01*
X154815000Y-116410000D02*
X155945000Y-116410000D01*
G75*
G02*
X156005000Y-116470000I0J-60000D01*
G01*
X156005000Y-117950000D01*
G75*
G02*
X155945000Y-118010000I-60000J0D01*
G01*
X154815000Y-118010000D01*
G75*
G02*
X154755000Y-117950000I0J60000D01*
G01*
X154755000Y-116470000D01*
G75*
G02*
X154815000Y-116410000I60000J0D01*
G01*
G37*
%TD.AperFunction*%
%TO.P,HSE1,1*%
%TO.N,HSE_IN*%
%TA.AperFunction,SMDPad,CuDef*%
G36*
G01*
X157015000Y-112710000D02*
X158145000Y-112710000D01*
G75*
G02*
X158205000Y-112770000I0J-60000D01*
G01*
X158205000Y-114250000D01*
G75*
G02*
X158145000Y-114310000I-60000J0D01*
G01*
X157015000Y-114310000D01*
G75*
G02*
X156955000Y-114250000I0J60000D01*
G01*
X156955000Y-112770000D01*
G75*
G02*
X157015000Y-112710000I60000J0D01*
G01*
G37*
%TD.AperFunction*%
%TO.P,HSE1,2*%
%TO.N,GND*%
%TA.AperFunction,SMDPad,CuDef*%
G36*
G01*
X157015000Y-116410000D02*
X158145000Y-116410000D01*
G75*
G02*
X158205000Y-116470000I0J-60000D01*
G01*
X158205000Y-117950000D01*
G75*
G02*
X158145000Y-118010000I-60000J0D01*
G01*
X157015000Y-118010000D01*
G75*
G02*
X156955000Y-117950000I0J60000D01*
G01*
X156955000Y-116470000D01*
G75*
G02*
X157015000Y-116410000I60000J0D01*
G01*
G37*
%TD.AperFunction*%
%TD*%
D21*
%TO.P,U8,8*%
%TO.N,+3V3*%
X146552400Y-80810000D03*
%TO.P,U8,7*%
%TO.N,N/C*%
X146552400Y-82080000D03*
%TO.P,U8,6*%
X146552400Y-83350000D03*
%TO.P,U8,5*%
X146552400Y-84620000D03*
%TO.P,U8,4*%
%TO.N,GND*%
X151480000Y-84620000D03*
%TO.P,U8,3*%
%TO.N,N/C*%
X151480000Y-83350000D03*
%TO.P,U8,2*%
%TO.N,I2C1_SCL*%
X151480000Y-82080000D03*
%TO.P,U8,1*%
%TO.N,I2C1_SDA*%
X151480000Y-80810000D03*
%TD*%
D15*
%TO.P,U9,1*%
%TO.N,+24V*%
X156220000Y-76950000D03*
%TD*%
D11*
%TO.P,H1,1*%
%TO.N,N/C*%
X118170000Y-82680001D03*
%TD*%
%TO.P,H2,1*%
%TO.N,N/C*%
X161927359Y-82680001D03*
%TD*%
%TO.P,H3,1*%
%TO.N,N/C*%
X118170000Y-116680000D03*
%TD*%
D22*
%TO.P,TP9,1*%
%TO.N,MOSI2_ENC*%
X149610000Y-96900000D03*
%TD*%
%TO.P,TP10,1*%
%TO.N,MISO2_ENC*%
X147860000Y-99660000D03*
%TD*%
%TO.P,TP11,1*%
%TO.N,CLK2_ENC*%
X148510000Y-98220000D03*
%TD*%
%TO.P,TP13,1*%
%TO.N,CS2_ENC*%
X148270000Y-97180000D03*
%TD*%
%TO.P,U10,1*%
%TO.N,CS2_ENC*%
%TA.AperFunction,SMDPad,CuDef*%
G36*
G01*
X143648680Y-97640000D02*
X143648680Y-97840000D01*
G75*
G02*
X143548680Y-97940000I-100000J0D01*
G01*
X142273680Y-97940000D01*
G75*
G02*
X142173680Y-97840000I0J100000D01*
G01*
X142173680Y-97640000D01*
G75*
G02*
X142273680Y-97540000I100000J0D01*
G01*
X143548680Y-97540000D01*
G75*
G02*
X143648680Y-97640000I0J-100000D01*
G01*
G37*
%TD.AperFunction*%
%TO.P,U10,2*%
%TO.N,CLK2_ENC*%
%TA.AperFunction,SMDPad,CuDef*%
G36*
G01*
X143648680Y-98290000D02*
X143648680Y-98490000D01*
G75*
G02*
X143548680Y-98590000I-100000J0D01*
G01*
X142273680Y-98590000D01*
G75*
G02*
X142173680Y-98490000I0J100000D01*
G01*
X142173680Y-98290000D01*
G75*
G02*
X142273680Y-98190000I100000J0D01*
G01*
X143548680Y-98190000D01*
G75*
G02*
X143648680Y-98290000I0J-100000D01*
G01*
G37*
%TD.AperFunction*%
%TO.P,U10,3*%
%TO.N,MISO2_ENC*%
%TA.AperFunction,SMDPad,CuDef*%
G36*
G01*
X143648680Y-98940000D02*
X143648680Y-99140000D01*
G75*
G02*
X143548680Y-99240000I-100000J0D01*
G01*
X142273680Y-99240000D01*
G75*
G02*
X142173680Y-99140000I0J100000D01*
G01*
X142173680Y-98940000D01*
G75*
G02*
X142273680Y-98840000I100000J0D01*
G01*
X143548680Y-98840000D01*
G75*
G02*
X143648680Y-98940000I0J-100000D01*
G01*
G37*
%TD.AperFunction*%
%TO.P,U10,4*%
%TO.N,MOSI2_ENC*%
%TA.AperFunction,SMDPad,CuDef*%
G36*
G01*
X143648680Y-99590000D02*
X143648680Y-99790000D01*
G75*
G02*
X143548680Y-99890000I-100000J0D01*
G01*
X142273680Y-99890000D01*
G75*
G02*
X142173680Y-99790000I0J100000D01*
G01*
X142173680Y-99590000D01*
G75*
G02*
X142273680Y-99490000I100000J0D01*
G01*
X143548680Y-99490000D01*
G75*
G02*
X143648680Y-99590000I0J-100000D01*
G01*
G37*
%TD.AperFunction*%
%TO.P,U10,5*%
%TO.N,N/C*%
%TA.AperFunction,SMDPad,CuDef*%
G36*
G01*
X143648680Y-100240000D02*
X143648680Y-100440000D01*
G75*
G02*
X143548680Y-100540000I-100000J0D01*
G01*
X142273680Y-100540000D01*
G75*
G02*
X142173680Y-100440000I0J100000D01*
G01*
X142173680Y-100240000D01*
G75*
G02*
X142273680Y-100140000I100000J0D01*
G01*
X143548680Y-100140000D01*
G75*
G02*
X143648680Y-100240000I0J-100000D01*
G01*
G37*
%TD.AperFunction*%
%TO.P,U10,6*%
%TA.AperFunction,SMDPad,CuDef*%
G36*
G01*
X143648680Y-100890000D02*
X143648680Y-101090000D01*
G75*
G02*
X143548680Y-101190000I-100000J0D01*
G01*
X142273680Y-101190000D01*
G75*
G02*
X142173680Y-101090000I0J100000D01*
G01*
X142173680Y-100890000D01*
G75*
G02*
X142273680Y-100790000I100000J0D01*
G01*
X143548680Y-100790000D01*
G75*
G02*
X143648680Y-100890000I0J-100000D01*
G01*
G37*
%TD.AperFunction*%
%TO.P,U10,7*%
%TA.AperFunction,SMDPad,CuDef*%
G36*
G01*
X143648680Y-101540000D02*
X143648680Y-101740000D01*
G75*
G02*
X143548680Y-101840000I-100000J0D01*
G01*
X142273680Y-101840000D01*
G75*
G02*
X142173680Y-101740000I0J100000D01*
G01*
X142173680Y-101540000D01*
G75*
G02*
X142273680Y-101440000I100000J0D01*
G01*
X143548680Y-101440000D01*
G75*
G02*
X143648680Y-101540000I0J-100000D01*
G01*
G37*
%TD.AperFunction*%
%TO.P,U10,8*%
%TA.AperFunction,SMDPad,CuDef*%
G36*
G01*
X137923680Y-101540000D02*
X137923680Y-101740000D01*
G75*
G02*
X137823680Y-101840000I-100000J0D01*
G01*
X136548680Y-101840000D01*
G75*
G02*
X136448680Y-101740000I0J100000D01*
G01*
X136448680Y-101540000D01*
G75*
G02*
X136548680Y-101440000I100000J0D01*
G01*
X137823680Y-101440000D01*
G75*
G02*
X137923680Y-101540000I0J-100000D01*
G01*
G37*
%TD.AperFunction*%
%TO.P,U10,9*%
%TA.AperFunction,SMDPad,CuDef*%
G36*
G01*
X137923680Y-100890000D02*
X137923680Y-101090000D01*
G75*
G02*
X137823680Y-101190000I-100000J0D01*
G01*
X136548680Y-101190000D01*
G75*
G02*
X136448680Y-101090000I0J100000D01*
G01*
X136448680Y-100890000D01*
G75*
G02*
X136548680Y-100790000I100000J0D01*
G01*
X137823680Y-100790000D01*
G75*
G02*
X137923680Y-100890000I0J-100000D01*
G01*
G37*
%TD.AperFunction*%
%TO.P,U10,10*%
%TA.AperFunction,SMDPad,CuDef*%
G36*
G01*
X137923680Y-100240000D02*
X137923680Y-100440000D01*
G75*
G02*
X137823680Y-100540000I-100000J0D01*
G01*
X136548680Y-100540000D01*
G75*
G02*
X136448680Y-100440000I0J100000D01*
G01*
X136448680Y-100240000D01*
G75*
G02*
X136548680Y-100140000I100000J0D01*
G01*
X137823680Y-100140000D01*
G75*
G02*
X137923680Y-100240000I0J-100000D01*
G01*
G37*
%TD.AperFunction*%
%TO.P,U10,11*%
%TO.N,+3V3*%
%TA.AperFunction,SMDPad,CuDef*%
G36*
G01*
X137923680Y-99590000D02*
X137923680Y-99790000D01*
G75*
G02*
X137823680Y-99890000I-100000J0D01*
G01*
X136548680Y-99890000D01*
G75*
G02*
X136448680Y-99790000I0J100000D01*
G01*
X136448680Y-99590000D01*
G75*
G02*
X136548680Y-99490000I100000J0D01*
G01*
X137823680Y-99490000D01*
G75*
G02*
X137923680Y-99590000I0J-100000D01*
G01*
G37*
%TD.AperFunction*%
%TO.P,U10,12*%
%TA.AperFunction,SMDPad,CuDef*%
G36*
G01*
X137923680Y-98940000D02*
X137923680Y-99140000D01*
G75*
G02*
X137823680Y-99240000I-100000J0D01*
G01*
X136548680Y-99240000D01*
G75*
G02*
X136448680Y-99140000I0J100000D01*
G01*
X136448680Y-98940000D01*
G75*
G02*
X136548680Y-98840000I100000J0D01*
G01*
X137823680Y-98840000D01*
G75*
G02*
X137923680Y-98940000I0J-100000D01*
G01*
G37*
%TD.AperFunction*%
%TO.P,U10,13*%
%TO.N,GND*%
%TA.AperFunction,SMDPad,CuDef*%
G36*
G01*
X137923680Y-98290000D02*
X137923680Y-98490000D01*
G75*
G02*
X137823680Y-98590000I-100000J0D01*
G01*
X136548680Y-98590000D01*
G75*
G02*
X136448680Y-98490000I0J100000D01*
G01*
X136448680Y-98290000D01*
G75*
G02*
X136548680Y-98190000I100000J0D01*
G01*
X137823680Y-98190000D01*
G75*
G02*
X137923680Y-98290000I0J-100000D01*
G01*
G37*
%TD.AperFunction*%
%TO.P,U10,14*%
%TO.N,PWM_ENC*%
%TA.AperFunction,SMDPad,CuDef*%
G36*
G01*
X137923680Y-97640000D02*
X137923680Y-97840000D01*
G75*
G02*
X137823680Y-97940000I-100000J0D01*
G01*
X136548680Y-97940000D01*
G75*
G02*
X136448680Y-97840000I0J100000D01*
G01*
X136448680Y-97640000D01*
G75*
G02*
X136548680Y-97540000I100000J0D01*
G01*
X137823680Y-97540000D01*
G75*
G02*
X137923680Y-97640000I0J-100000D01*
G01*
G37*
%TD.AperFunction*%
%TD*%
%TO.P,C22,1*%
%TO.N,GND*%
%TA.AperFunction,SMDPad,CuDef*%
G36*
G01*
X150280000Y-115462500D02*
X150280000Y-115937500D01*
G75*
G02*
X150042500Y-116175000I-237500J0D01*
G01*
X149442500Y-116175000D01*
G75*
G02*
X149205000Y-115937500I0J237500D01*
G01*
X149205000Y-115462500D01*
G75*
G02*
X149442500Y-115225000I237500J0D01*
G01*
X150042500Y-115225000D01*
G75*
G02*
X150280000Y-115462500I0J-237500D01*
G01*
G37*
%TD.AperFunction*%
%TO.P,C22,2*%
%TO.N,+3V3*%
%TA.AperFunction,SMDPad,CuDef*%
G36*
G01*
X148555000Y-115462500D02*
X148555000Y-115937500D01*
G75*
G02*
X148317500Y-116175000I-237500J0D01*
G01*
X147717500Y-116175000D01*
G75*
G02*
X147480000Y-115937500I0J237500D01*
G01*
X147480000Y-115462500D01*
G75*
G02*
X147717500Y-115225000I237500J0D01*
G01*
X148317500Y-115225000D01*
G75*
G02*
X148555000Y-115462500I0J-237500D01*
G01*
G37*
%TD.AperFunction*%
%TD*%
%TO.P,C23,2*%
%TO.N,+3V3*%
%TA.AperFunction,SMDPad,CuDef*%
G36*
G01*
X148540001Y-113777499D02*
X148540001Y-114252499D01*
G75*
G02*
X148302501Y-114489999I-237500J0D01*
G01*
X147702501Y-114489999D01*
G75*
G02*
X147465001Y-114252499I0J237500D01*
G01*
X147465001Y-113777499D01*
G75*
G02*
X147702501Y-113539999I237500J0D01*
G01*
X148302501Y-113539999D01*
G75*
G02*
X148540001Y-113777499I0J-237500D01*
G01*
G37*
%TD.AperFunction*%
%TO.P,C23,1*%
%TO.N,GND*%
%TA.AperFunction,SMDPad,CuDef*%
G36*
G01*
X150265001Y-113777499D02*
X150265001Y-114252499D01*
G75*
G02*
X150027501Y-114489999I-237500J0D01*
G01*
X149427501Y-114489999D01*
G75*
G02*
X149190001Y-114252499I0J237500D01*
G01*
X149190001Y-113777499D01*
G75*
G02*
X149427501Y-113539999I237500J0D01*
G01*
X150027501Y-113539999D01*
G75*
G02*
X150265001Y-113777499I0J-237500D01*
G01*
G37*
%TD.AperFunction*%
%TD*%
D23*
%TO.N,+24V*%
X154480000Y-87440000D03*
X158480000Y-86640000D03*
X159280000Y-85040000D03*
X156880000Y-85840000D03*
X156880000Y-86640000D03*
X160080000Y-85840000D03*
X154480000Y-86640000D03*
X154480000Y-85840000D03*
X157680000Y-85840000D03*
X156080000Y-85040000D03*
X155280000Y-85840000D03*
X160960000Y-87590000D03*
X157680000Y-85040000D03*
X159280000Y-85840000D03*
X158480000Y-85040000D03*
X157680000Y-87440000D03*
X159280000Y-87440000D03*
X156880000Y-87440000D03*
X158480000Y-87440000D03*
X154480000Y-85040000D03*
X155280000Y-85040000D03*
X156880000Y-85040000D03*
X159280000Y-88240000D03*
X158480000Y-89840000D03*
X159280000Y-89040000D03*
X157680000Y-88240000D03*
X156080000Y-88240000D03*
X154480000Y-89840000D03*
X157680000Y-89040000D03*
X155280000Y-89040000D03*
X156880000Y-89040000D03*
X156880000Y-89840000D03*
X158480000Y-88240000D03*
X154480000Y-89040000D03*
X160080000Y-88240000D03*
X160080000Y-89040000D03*
X154480000Y-88240000D03*
X155280000Y-88240000D03*
X156880000Y-88240000D03*
X158480000Y-89040000D03*
X156080000Y-89840000D03*
X160080000Y-89840000D03*
X157680000Y-89840000D03*
X155280000Y-89840000D03*
X159280000Y-89840000D03*
X156080000Y-89040000D03*
X158480000Y-85840000D03*
X155280000Y-87440000D03*
X156080000Y-86640000D03*
X160080000Y-86640000D03*
X157680000Y-86640000D03*
X155280000Y-86640000D03*
X156080000Y-87440000D03*
X159280000Y-86640000D03*
X156080000Y-85840000D03*
X160080000Y-87440000D03*
X139410000Y-87560000D03*
X143410000Y-86760000D03*
X144210000Y-85160000D03*
X141810000Y-85960000D03*
X141810000Y-86760000D03*
X145010000Y-85960000D03*
X139410000Y-86760000D03*
X139410000Y-85960000D03*
X142610000Y-85960000D03*
X141010000Y-85160000D03*
X140210000Y-85960000D03*
X145010000Y-85160000D03*
X142610000Y-85160000D03*
X144210000Y-85960000D03*
X143410000Y-85160000D03*
X142610000Y-87560000D03*
X144210000Y-87560000D03*
X141810000Y-87560000D03*
X143410000Y-87560000D03*
X139410000Y-85160000D03*
X140210000Y-85160000D03*
X141810000Y-85160000D03*
X144210000Y-88360000D03*
X143410000Y-89960000D03*
X144210000Y-89160000D03*
X142610000Y-88360000D03*
X141010000Y-88360000D03*
X139410000Y-89960000D03*
X142610000Y-89160000D03*
X140210000Y-89160000D03*
X141810000Y-89160000D03*
X141810000Y-89960000D03*
X143410000Y-88360000D03*
X139410000Y-89160000D03*
X145010000Y-88360000D03*
X145010000Y-89160000D03*
X139410000Y-88360000D03*
X140210000Y-88360000D03*
X141810000Y-88360000D03*
X143410000Y-89160000D03*
X141010000Y-89960000D03*
X145010000Y-89960000D03*
X142610000Y-89960000D03*
X140210000Y-89960000D03*
X144210000Y-89960000D03*
X141010000Y-89160000D03*
X143410000Y-85960000D03*
X140210000Y-87560000D03*
X141010000Y-86760000D03*
X145010000Y-86760000D03*
X142610000Y-86760000D03*
X140210000Y-86760000D03*
X141010000Y-87560000D03*
X144210000Y-86760000D03*
X141010000Y-85960000D03*
X145010000Y-87560000D03*
X119620000Y-85750000D03*
X120420000Y-85750000D03*
X121220000Y-85750000D03*
X122020000Y-85750000D03*
X122820000Y-85750000D03*
X123620000Y-85750000D03*
X124420000Y-85750000D03*
X125220000Y-85750000D03*
X119620000Y-86550000D03*
X120420000Y-86550000D03*
X121220000Y-86550000D03*
X122020000Y-86550000D03*
X122820000Y-86550000D03*
X123620000Y-86550000D03*
X124420000Y-86550000D03*
X125220000Y-86550000D03*
X119620000Y-87350000D03*
X120420000Y-87350000D03*
X121220000Y-87350000D03*
X122020000Y-87350000D03*
X122820000Y-87350000D03*
X123620000Y-87350000D03*
X124420000Y-87350000D03*
X125220000Y-87350000D03*
X119620000Y-88150000D03*
X120420000Y-88150000D03*
X121220000Y-88150000D03*
X122020000Y-88150000D03*
X122820000Y-88150000D03*
X123620000Y-88150000D03*
X124420000Y-88150000D03*
X125220000Y-88150000D03*
X123620000Y-90550000D03*
X124420000Y-88950000D03*
X122020000Y-89750000D03*
X122020000Y-90550000D03*
X125220000Y-89750000D03*
X119620000Y-90550000D03*
X119620000Y-89750000D03*
X122820000Y-89750000D03*
X121220000Y-88950000D03*
X120420000Y-89750000D03*
X125220000Y-88950000D03*
X122820000Y-88950000D03*
X124420000Y-89750000D03*
X123620000Y-88950000D03*
X119620000Y-88950000D03*
X120420000Y-88950000D03*
X122020000Y-88950000D03*
X123620000Y-89750000D03*
X121220000Y-90550000D03*
X125220000Y-90550000D03*
X122820000Y-90550000D03*
X120420000Y-90550000D03*
X124420000Y-90550000D03*
X121220000Y-89750000D03*
X122660000Y-92740000D03*
X152320000Y-105280000D03*
X157010000Y-105320000D03*
X155890000Y-104120000D03*
X159430000Y-109570000D03*
X156000000Y-109370000D03*
X154850000Y-109370000D03*
X153410000Y-109360000D03*
X151550000Y-109460000D03*
X158690000Y-98100000D03*
X150190000Y-109490000D03*
X151940000Y-97850000D03*
X149680000Y-97740002D03*
X120600000Y-94910000D03*
X118820000Y-94850000D03*
X159583947Y-97868870D03*
X149460000Y-91630000D03*
X151420000Y-92820000D03*
X119690000Y-94900000D03*
X153678867Y-97981133D03*
X135990000Y-91780000D03*
X135251594Y-91508406D03*
X153180000Y-105530000D03*
X154579999Y-105519999D03*
X162900000Y-103450000D03*
X162794544Y-110756476D03*
X117040000Y-105510000D03*
X159950000Y-105370000D03*
X118230000Y-105620000D03*
X119440200Y-101041681D03*
X117020000Y-101480000D03*
X117145600Y-102236676D03*
X152310000Y-104180000D03*
%TO.N,SLA*%
X139791618Y-100726386D03*
X126810010Y-93880000D03*
%TO.N,SLB*%
X137620000Y-94024990D03*
X139389471Y-101359471D03*
%TO.N,SLC*%
X153169994Y-93540000D03*
X154330011Y-93904618D03*
%TO.N,CAN_L*%
X122960000Y-73840000D03*
X126950000Y-73710000D03*
%TO.N,SWDIO*%
X146564954Y-111601286D03*
%TO.N,SWCLK*%
X147324943Y-111589948D03*
D24*
%TO.N,GHC*%
X147074990Y-91372286D03*
X150252709Y-88173057D03*
D23*
%TO.N,CONFIG_SW*%
X146040000Y-105419990D03*
%TO.N,BLUE_LED*%
X161000004Y-97520000D03*
%TO.N,nMFAULT*%
X125100000Y-111835050D03*
X129370000Y-111680000D03*
%TO.N,CAN_RX*%
X132620000Y-85530000D03*
X132650000Y-87290000D03*
%TO.N,LOOP_PIN*%
X145560000Y-102920000D03*
%TO.N,INH_A*%
X148566233Y-101528777D03*
%TO.N,INL_A*%
X138484298Y-104202139D03*
%TO.N,INH_B*%
X136110000Y-114889990D03*
%TO.N,INL_B*%
X131750000Y-114810000D03*
%TO.N,INH_C*%
X132790000Y-114200000D03*
%TO.N,INL_C*%
X136840000Y-113600000D03*
%TO.N,PWM_ENC*%
X138709998Y-97740000D03*
%TO.N,ENA_GATE*%
X128369990Y-115809998D03*
%TO.N,SENSE_A*%
X137910000Y-106720000D03*
%TO.N,SENSE_B*%
X137620006Y-105930008D03*
%TO.N,SENSE_C*%
X137800000Y-104980000D03*
D24*
%TO.N,+3V3*%
X124300000Y-110130000D03*
X132760000Y-109830000D03*
X129260000Y-97700000D03*
X126247839Y-96763230D03*
D23*
X134571436Y-110201442D03*
X163210000Y-113020000D03*
X163020000Y-111940000D03*
D24*
X147485021Y-94253736D03*
D23*
X145693561Y-101163560D03*
D24*
X123977695Y-99232305D03*
D23*
X119960000Y-114570000D03*
X146270000Y-114480000D03*
X146780000Y-113910000D03*
X143559990Y-108300000D03*
X161650000Y-111450000D03*
X123265002Y-110790000D03*
X146234998Y-117710010D03*
X125822187Y-113580020D03*
X139500000Y-105800000D03*
X140740000Y-105419990D03*
X142020000Y-105419990D03*
X145010000Y-105419990D03*
X133860000Y-98374990D03*
X132910000Y-98374990D03*
%TO.N,I2C1_SCL*%
X124940000Y-115990000D03*
X148074956Y-111589948D03*
%TO.N,CS1_DRV*%
X135200000Y-112300014D03*
%TO.N,CLK1_DRV*%
X136629981Y-110769981D03*
%TO.N,MISO1_DRV*%
X137700000Y-110201074D03*
%TO.N,MOSI1_DRV*%
X130781439Y-111928561D03*
%TO.N,GND*%
X156940000Y-94700000D03*
X159340000Y-93100000D03*
X159340000Y-93900000D03*
X156940000Y-93900000D03*
X156940000Y-93100000D03*
X160140000Y-93100000D03*
X158540000Y-92300000D03*
X157740000Y-93100000D03*
X160140000Y-92300000D03*
X160140000Y-94700000D03*
X158540000Y-93900000D03*
X160140000Y-95500000D03*
X156940000Y-92300000D03*
X156940000Y-95500000D03*
X157740000Y-92300000D03*
X159340000Y-92300000D03*
X159340000Y-94700000D03*
X157740000Y-93900000D03*
X157740000Y-95500000D03*
X158540000Y-95500000D03*
X157740000Y-94700000D03*
X159340000Y-95500000D03*
X158540000Y-94700000D03*
X160140000Y-93900000D03*
X158540000Y-93100000D03*
X141190000Y-94700000D03*
X143590000Y-93100000D03*
X143590000Y-93900000D03*
X141190000Y-93900000D03*
X141190000Y-93100000D03*
X144390000Y-93100000D03*
X142790000Y-92300000D03*
X141990000Y-93100000D03*
X144390000Y-92300000D03*
X144390000Y-94700000D03*
X143590000Y-94700000D03*
X141190000Y-92300000D03*
X141990000Y-92300000D03*
X143590000Y-92300000D03*
X144390000Y-95500000D03*
X142790000Y-95500000D03*
X141190000Y-95500000D03*
X141990000Y-95500000D03*
X143590000Y-95500000D03*
X141990000Y-94700000D03*
X142790000Y-93900000D03*
X144390000Y-93900000D03*
X141990000Y-93900000D03*
X142790000Y-94700000D03*
X142790000Y-93100000D03*
X132620000Y-92920000D03*
X130220000Y-92920000D03*
X130220000Y-93720000D03*
X130220000Y-92120000D03*
X130220000Y-94520000D03*
X132620000Y-92120000D03*
X131020000Y-92120000D03*
X133420000Y-92920000D03*
X133420000Y-94520000D03*
X131820000Y-92120000D03*
X133420000Y-95320000D03*
X132620000Y-94520000D03*
X131020000Y-92920000D03*
X133420000Y-92120000D03*
X132620000Y-93720000D03*
X131820000Y-95320000D03*
X130220000Y-95320000D03*
X131020000Y-95320000D03*
X132620000Y-95320000D03*
X131020000Y-94520000D03*
X131820000Y-93720000D03*
X133420000Y-93720000D03*
X131020000Y-93720000D03*
X131820000Y-94520000D03*
X131820000Y-92920000D03*
X149220000Y-106720000D03*
X151140000Y-106680000D03*
X152340000Y-107740000D03*
X155890000Y-106900000D03*
X145770000Y-73590000D03*
X136970000Y-73670000D03*
X128220000Y-73770000D03*
X154530000Y-73640000D03*
X162560000Y-113820000D03*
X160025000Y-111364000D03*
X156570000Y-115230000D03*
X132660000Y-81760000D03*
X155410000Y-114720000D03*
X118920000Y-96500000D03*
X120650000Y-109940000D03*
X118850000Y-110810000D03*
X117920000Y-107790000D03*
D24*
X121160000Y-114910000D03*
D23*
X161410000Y-106940000D03*
X153140000Y-101390010D03*
X158480000Y-114970000D03*
X157579998Y-116070000D03*
X148900000Y-102440000D03*
X151591994Y-101390000D03*
X123680000Y-115740000D03*
X160583958Y-101118941D03*
D24*
X162260000Y-85260002D03*
D23*
X162370000Y-106540000D03*
D24*
X146820000Y-86950000D03*
X146830000Y-89800000D03*
X116880000Y-114140000D03*
D23*
X136664985Y-96362537D03*
X136510000Y-94910000D03*
D24*
X116770000Y-86450000D03*
X116730000Y-89370000D03*
D23*
X135510000Y-94010000D03*
X123991863Y-95821155D03*
X122159503Y-94059505D03*
X163020000Y-107100000D03*
X135590000Y-96120000D03*
X128995019Y-95076696D03*
X132153180Y-100896820D03*
X143120000Y-103200000D03*
X150859990Y-114580000D03*
X150520000Y-113140000D03*
X152540000Y-116510000D03*
D24*
X162570000Y-90150000D03*
X130710000Y-76420010D03*
D23*
X145879998Y-98210000D03*
X150710000Y-115800010D03*
X137816770Y-109195398D03*
X162252198Y-91149396D03*
X149790010Y-80290000D03*
X150520000Y-107574509D03*
X154830000Y-101440010D03*
X156990000Y-100863990D03*
X139417323Y-95882026D03*
X147950000Y-98770000D03*
X151350000Y-94869991D03*
X149133229Y-94869991D03*
X160720389Y-113741779D03*
X159865384Y-106964010D03*
X163277698Y-102525085D03*
X143559990Y-109920000D03*
X139510078Y-102511686D03*
X137664591Y-103430010D03*
X137648200Y-102310369D03*
X133458446Y-100775010D03*
X159050000Y-100610000D03*
X155880000Y-108050000D03*
X157740000Y-115240000D03*
X155380000Y-113510000D03*
X154440000Y-113460000D03*
X155080000Y-92550000D03*
X144990000Y-82010000D03*
X116740000Y-99360000D03*
X120130000Y-98800000D03*
X119690000Y-100270000D03*
X138920000Y-116060010D03*
X147382647Y-117710010D03*
X134123816Y-107980010D03*
X122460000Y-107640000D03*
X152340000Y-106980000D03*
%TO.N,RESET*%
X152690010Y-115250009D03*
%TD*%
D25*
%TO.N,Net-(C11-Pad2)*%
X145020000Y-101570000D02*
X145020000Y-99922500D01*
X145364000Y-101914000D02*
X145020000Y-101570000D01*
X147325000Y-101914000D02*
X145364000Y-101914000D01*
D26*
%TO.N,Net-(C12-Pad2)*%
X156250000Y-98714000D02*
X155936000Y-98400000D01*
D25*
X156250000Y-99489000D02*
X156250000Y-98714000D01*
X156250000Y-98683654D02*
X155720000Y-98153654D01*
X156250000Y-99489000D02*
X156250000Y-98683654D01*
X155720000Y-97522500D02*
X155720000Y-98153654D01*
D27*
%TO.N,Net-(C13-Pad2)*%
X118510000Y-104710000D02*
X118110000Y-104710000D01*
D26*
X118890000Y-104730000D02*
X118630000Y-104990000D01*
X118890000Y-103895000D02*
X118890000Y-104730000D01*
D28*
X117333502Y-100427500D02*
X117220000Y-100427500D01*
X118890000Y-101983998D02*
X117333502Y-100427500D01*
X118890000Y-103895000D02*
X118890000Y-101983998D01*
X118890000Y-103150000D02*
X120260000Y-101780000D01*
X118890000Y-103895000D02*
X118890000Y-103150000D01*
X120260000Y-101780000D02*
X121255000Y-101780000D01*
X121255000Y-101780000D02*
X122170000Y-100865000D01*
X122170000Y-100415000D02*
X122170000Y-100865000D01*
D29*
%TO.N,HSE_IN*%
X157580000Y-113134000D02*
X157580000Y-113510000D01*
X157580000Y-113510000D02*
X157580000Y-113260000D01*
X154750000Y-110839000D02*
X154750000Y-111920000D01*
X154750000Y-111920000D02*
X155060000Y-112230000D01*
X155060000Y-112230000D02*
X157110000Y-112230000D01*
X157580000Y-112700000D02*
X157580000Y-113510000D01*
X157110000Y-112230000D02*
X157580000Y-112700000D01*
X159137500Y-113340000D02*
X157750000Y-113340000D01*
X157750000Y-113340000D02*
X157580000Y-113510000D01*
X159220000Y-113257500D02*
X159137500Y-113340000D01*
%TO.N,Net-(C16-Pad2)*%
X155380000Y-115500000D02*
X155380000Y-117210000D01*
X154320000Y-114440000D02*
X155380000Y-115500000D01*
X153680000Y-114440000D02*
X154320000Y-114440000D01*
X154830000Y-117210000D02*
X155380000Y-117210000D01*
X153725000Y-117610000D02*
X153680000Y-117655000D01*
X154660000Y-117210000D02*
X154260000Y-117610000D01*
X154260000Y-117610000D02*
X153725000Y-117610000D01*
X155380000Y-117210000D02*
X154660000Y-117210000D01*
D30*
%TO.N,+24V*%
X120382500Y-95422500D02*
X119870000Y-94910000D01*
X120382500Y-96515000D02*
X120382500Y-95422500D01*
D29*
%TO.N,SLA*%
X140091617Y-100426387D02*
X139791618Y-100726386D01*
X140091617Y-95771617D02*
X140091617Y-100426387D01*
X136915000Y-94195000D02*
X137460000Y-94740000D01*
X139060000Y-94740000D02*
X140091617Y-95771617D01*
X139744432Y-100790000D02*
X139791618Y-100742814D01*
X139791618Y-100742814D02*
X139791618Y-100726386D01*
X137460000Y-94740000D02*
X139060000Y-94740000D01*
D26*
X136915000Y-91555000D02*
X135599958Y-90239958D01*
X136915000Y-94195000D02*
X136915000Y-91555000D01*
X135599958Y-90239958D02*
X130450052Y-90239958D01*
X130450052Y-90239958D02*
X126810010Y-93880000D01*
D29*
%TO.N,SLB*%
X140540000Y-95710000D02*
X140540000Y-100908555D01*
X140540000Y-100908555D02*
X140171573Y-101276982D01*
X138854990Y-94024990D02*
X140540000Y-95710000D01*
X137620000Y-94024990D02*
X138854990Y-94024990D01*
X139471960Y-101276982D02*
X139389471Y-101359471D01*
X140171573Y-101276982D02*
X139471960Y-101276982D01*
%TO.N,SLC*%
X153860000Y-93540000D02*
X153169994Y-93540000D01*
X154140000Y-93820000D02*
X153860000Y-93540000D01*
D28*
%TO.N,Net-(F1-Pad1)*%
X118720000Y-97827500D02*
X118720000Y-99690000D01*
X117407500Y-96515000D02*
X118720000Y-97827500D01*
D29*
%TO.N,CAN_H*%
X131470000Y-74810000D02*
X129530000Y-72870000D01*
X134470000Y-74810000D02*
X131470000Y-74810000D01*
X126850000Y-72870000D02*
X125710000Y-74010000D01*
X129530000Y-72870000D02*
X126850000Y-72870000D01*
X125710000Y-74010000D02*
X125710000Y-74810000D01*
X126313496Y-80693496D02*
X126313496Y-79736504D01*
X127415000Y-81795000D02*
X126313496Y-80693496D01*
X129065000Y-81795000D02*
X127415000Y-81795000D01*
X125720000Y-74820000D02*
X125710000Y-74810000D01*
X125250000Y-76840000D02*
X125250000Y-76330000D01*
X125720000Y-75860000D02*
X125720000Y-74820000D01*
X124930000Y-77160000D02*
X125250000Y-76840000D01*
X125250000Y-76330000D02*
X125720000Y-75860000D01*
X124930000Y-77160000D02*
X124930000Y-78353008D01*
X124930000Y-78353008D02*
X126313496Y-79736504D01*
X125250000Y-76330000D02*
X124480000Y-76330000D01*
X123910000Y-75740000D02*
X123000000Y-75740000D01*
X124500000Y-76330000D02*
X123910000Y-75740000D01*
%TO.N,CAN_L*%
X120770000Y-78900000D02*
X122280000Y-77390000D01*
X120770000Y-81490000D02*
X120770000Y-78900000D01*
X122345000Y-83065000D02*
X120770000Y-81490000D01*
X122280000Y-77390000D02*
X123000000Y-77390000D01*
X129065000Y-83065000D02*
X122345000Y-83065000D01*
X122230000Y-75310000D02*
X122960000Y-74580000D01*
X122960000Y-74580000D02*
X122960000Y-73840000D01*
X123000000Y-77390000D02*
X123000000Y-76800000D01*
X123000000Y-76800000D02*
X122790000Y-76590000D01*
X122460000Y-76590000D02*
X122230000Y-76360000D01*
X122790000Y-76590000D02*
X122460000Y-76590000D01*
X122230000Y-76360000D02*
X122230000Y-75310000D01*
X134760000Y-75770000D02*
X135720000Y-74810000D01*
X127120000Y-75770000D02*
X134760000Y-75770000D01*
X126960000Y-75610000D02*
X127120000Y-75770000D01*
X126960000Y-74810000D02*
X126960000Y-75610000D01*
D26*
X126960000Y-74810000D02*
X126960000Y-73720000D01*
X126960000Y-73720000D02*
X126950000Y-73710000D01*
D30*
%TO.N,Net-(FB1-Pad2)*%
X120720000Y-100640000D02*
X120720000Y-100293968D01*
D31*
X120741032Y-100293968D02*
X122170000Y-98865000D01*
X120720000Y-100293968D02*
X120741032Y-100293968D01*
D29*
%TO.N,SWDIO*%
X152900000Y-102520000D02*
X152240000Y-102520000D01*
X146564954Y-111177022D02*
X146564954Y-111601286D01*
X152240000Y-102520000D02*
X148479989Y-106280011D01*
X155750000Y-99489000D02*
X155750000Y-100264000D01*
X155750000Y-100264000D02*
X155124000Y-100890000D01*
X155124000Y-100890000D02*
X154530000Y-100890000D01*
X154530000Y-100890000D02*
X152900000Y-102520000D01*
X148479989Y-106280011D02*
X148479989Y-109261987D01*
X148479989Y-109261987D02*
X146564954Y-111177022D01*
%TO.N,SWCLK*%
X147324943Y-111034431D02*
X147324943Y-111589948D01*
X148830000Y-109529374D02*
X147324943Y-111034431D01*
X148830000Y-108474498D02*
X148830000Y-109529374D01*
X150529999Y-106774499D02*
X148830000Y-108474498D01*
X152570000Y-104730000D02*
X151270000Y-104730000D01*
X150529999Y-105470001D02*
X150529999Y-106774499D01*
X151270000Y-104730000D02*
X150529999Y-105470001D01*
X155886000Y-101414000D02*
X152570000Y-104730000D01*
X158675000Y-101414000D02*
X155886000Y-101414000D01*
%TO.N,GHC*%
X147074990Y-91350776D02*
X147074990Y-91372286D01*
X150252709Y-88173057D02*
X147074990Y-91350776D01*
%TO.N,CONFIG_SW*%
X146045990Y-105414000D02*
X146040000Y-105419990D01*
X147325000Y-105414000D02*
X146045990Y-105414000D01*
%TO.N,BLUE_LED*%
X158675000Y-101914000D02*
X159450000Y-101914000D01*
X158675000Y-101914000D02*
X159726000Y-101914000D01*
X159726000Y-101914000D02*
X160010000Y-101630000D01*
X160010000Y-101630000D02*
X160010000Y-98380000D01*
X160870000Y-97520000D02*
X161000004Y-97520000D01*
X160010000Y-98380000D02*
X160870000Y-97520000D01*
D26*
%TO.N,HSE_OUT*%
X154250000Y-112195000D02*
X153670000Y-112775000D01*
X154250000Y-110839000D02*
X154250000Y-112195000D01*
D29*
%TO.N,nMFAULT*%
X129214950Y-111835050D02*
X129370000Y-111680000D01*
X125100000Y-111835050D02*
X129214950Y-111835050D01*
X132550011Y-116610011D02*
X129370000Y-113430000D01*
X129370000Y-113430000D02*
X129370000Y-111780011D01*
X150704003Y-116610011D02*
X132550011Y-116610011D01*
X151750000Y-115564014D02*
X150704003Y-116610011D01*
X151750000Y-110839000D02*
X151750000Y-115564014D01*
%TO.N,CAN_RX*%
X132620000Y-85530000D02*
X132620000Y-84610000D01*
X132895000Y-84335000D02*
X134015000Y-84335000D01*
X132620000Y-84610000D02*
X132895000Y-84335000D01*
X154750000Y-98274434D02*
X152335566Y-95860000D01*
X145920000Y-94720000D02*
X145920000Y-92000000D01*
X137310345Y-91420000D02*
X133180345Y-87290000D01*
X152335566Y-95860000D02*
X147060000Y-95860000D01*
X147060000Y-95860000D02*
X145920000Y-94720000D01*
X154750000Y-99489000D02*
X154750000Y-98274434D01*
X145920000Y-92000000D02*
X145340000Y-91420000D01*
X145340000Y-91420000D02*
X137310345Y-91420000D01*
X133180345Y-87290000D02*
X132650000Y-87290000D01*
%TO.N,CAN_TX*%
X155250000Y-98279444D02*
X155250000Y-99489000D01*
X146559967Y-94509967D02*
X147470001Y-95420001D01*
X146559967Y-92009967D02*
X146559967Y-94509967D01*
X147470001Y-95420001D02*
X152390557Y-95420001D01*
X145460000Y-90910000D02*
X146559967Y-92009967D01*
X139390000Y-90910000D02*
X145460000Y-90910000D01*
X152390557Y-95420001D02*
X155250000Y-98279444D01*
X138090000Y-90910000D02*
X139510000Y-90910000D01*
X134090000Y-80450000D02*
X136650000Y-80450000D01*
X137080000Y-89900000D02*
X138090000Y-90910000D01*
X137080000Y-80880000D02*
X137080000Y-89900000D01*
X136650000Y-80450000D02*
X137080000Y-80880000D01*
X134015000Y-80525000D02*
X134090000Y-80450000D01*
%TO.N,Net-(R29-Pad1)*%
X130650000Y-78940000D02*
X131490000Y-78940000D01*
X129065000Y-80525000D02*
X129065000Y-79995000D01*
X129065000Y-79995000D02*
X129620000Y-79440000D01*
X129620000Y-79440000D02*
X130150000Y-79440000D01*
X130150000Y-79440000D02*
X130650000Y-78940000D01*
D25*
%TO.N,LOOP_PIN*%
X145686002Y-102884000D02*
X145550000Y-103020002D01*
D29*
X145566000Y-102914000D02*
X145560000Y-102920000D01*
X147325000Y-102914000D02*
X145566000Y-102914000D01*
%TO.N,INH_A*%
X150440000Y-101560000D02*
X148597456Y-101560000D01*
X148597456Y-101560000D02*
X148566233Y-101528777D01*
X151750000Y-100250000D02*
X150440000Y-101560000D01*
X151750000Y-99489000D02*
X151750000Y-100250000D01*
%TO.N,INL_A*%
X140950000Y-97570000D02*
X140950000Y-102230004D01*
X140950000Y-102230004D02*
X139622320Y-103557684D01*
X142240031Y-96279969D02*
X140950000Y-97570000D01*
X139622320Y-103557684D02*
X139128753Y-103557684D01*
X151250000Y-99489000D02*
X151250000Y-97830000D01*
X151250000Y-97830000D02*
X149699969Y-96279969D01*
X149699969Y-96279969D02*
X142240031Y-96279969D01*
X139128753Y-103557684D02*
X138484298Y-104202139D01*
%TO.N,INH_B*%
X141750010Y-114889990D02*
X136110000Y-114889990D01*
X142470000Y-114170000D02*
X141750010Y-114889990D01*
X144270000Y-114170000D02*
X142470000Y-114170000D01*
X145141006Y-114170000D02*
X144260000Y-114170000D01*
X149750000Y-111614000D02*
X148874033Y-112489967D01*
X149750000Y-110839000D02*
X149750000Y-111614000D01*
X146821038Y-112489968D02*
X145141006Y-114170000D01*
X148874033Y-112489967D02*
X146821038Y-112489968D01*
%TO.N,INL_B*%
X131999999Y-115059999D02*
X131750000Y-114810000D01*
X144295996Y-115510000D02*
X132450000Y-115510000D01*
X149050022Y-112839978D02*
X146966018Y-112839978D01*
X150250000Y-111640000D02*
X149050022Y-112839978D01*
X132450000Y-115510000D02*
X131999999Y-115059999D01*
X150250000Y-110839000D02*
X150250000Y-111640000D01*
X146966018Y-112839978D02*
X144295996Y-115510000D01*
%TO.N,INH_C*%
X135210000Y-114200000D02*
X132790000Y-114200000D01*
X136860000Y-112550000D02*
X135210000Y-114200000D01*
X140030000Y-112550000D02*
X136860000Y-112550000D01*
X141225000Y-111355000D02*
X140030000Y-112550000D01*
X147325000Y-109415000D02*
X145385000Y-111355000D01*
X145385000Y-111355000D02*
X141225000Y-111355000D01*
X147325000Y-108914000D02*
X147325000Y-109415000D01*
%TO.N,INL_C*%
X149250000Y-110839000D02*
X149250000Y-111614000D01*
X148724042Y-112139958D02*
X146676058Y-112139958D01*
X149250000Y-111614000D02*
X148724042Y-112139958D01*
X146676058Y-112139958D02*
X145216016Y-113600000D01*
X145216016Y-113600000D02*
X137193553Y-113600000D01*
X137193553Y-113600000D02*
X136840000Y-113600000D01*
%TO.N,PWM_ENC*%
X137186180Y-97740000D02*
X138709998Y-97740000D01*
%TO.N,ENA_GATE*%
X131920000Y-117160000D02*
X130569998Y-115809998D01*
X130569998Y-115809998D02*
X128369990Y-115809998D01*
X151100000Y-117160000D02*
X131920000Y-117160000D01*
X152130000Y-116130000D02*
X151100000Y-117160000D01*
X152140000Y-112627890D02*
X152140000Y-116120000D01*
X152750000Y-112017890D02*
X152140000Y-112627890D01*
X152750000Y-110839000D02*
X152750000Y-112017890D01*
%TO.N,SENSE_A*%
X147280988Y-104869988D02*
X147325000Y-104914000D01*
X139616010Y-104869988D02*
X147280988Y-104869988D01*
X137910000Y-106720000D02*
X137910000Y-106575998D01*
X137910000Y-106575998D02*
X139616010Y-104869988D01*
%TO.N,SENSE_B*%
X139577008Y-104414000D02*
X138061000Y-105930008D01*
X147325000Y-104414000D02*
X139577008Y-104414000D01*
X138061000Y-105930008D02*
X137620006Y-105930008D01*
%TO.N,SENSE_C*%
X147325000Y-103914000D02*
X139582018Y-103914000D01*
X139582018Y-103914000D02*
X138516018Y-104980000D01*
X138516018Y-104980000D02*
X137800000Y-104980000D01*
D32*
%TO.N,+3V3*%
X139350000Y-76735000D02*
X139350000Y-76705000D01*
D29*
X158675000Y-108914000D02*
X159450000Y-108914000D01*
X160662500Y-109339000D02*
X160650000Y-109351500D01*
X157432000Y-97720500D02*
X157432000Y-97532000D01*
X157432000Y-97720500D02*
X157432000Y-97678000D01*
D33*
X139340000Y-76690000D02*
X140270000Y-76690000D01*
X140270000Y-76690000D02*
X142950000Y-79370000D01*
X142950000Y-79370000D02*
X142950000Y-80640000D01*
X143410000Y-81100000D02*
X144570000Y-81100000D01*
X142950000Y-80640000D02*
X143410000Y-81100000D01*
D34*
X134015000Y-83065000D02*
X136140000Y-83065000D01*
D26*
X163131000Y-105855000D02*
X163194000Y-105918000D01*
X163131000Y-104394000D02*
X163131000Y-105855000D01*
D25*
X160212500Y-108914000D02*
X160650000Y-109351500D01*
X158675000Y-108914000D02*
X160212500Y-108914000D01*
D34*
X162212500Y-109351500D02*
X162225000Y-109339000D01*
X160650000Y-109351500D02*
X162212500Y-109351500D01*
D25*
X144886000Y-107914000D02*
X144540000Y-108260000D01*
X147325000Y-107914000D02*
X144886000Y-107914000D01*
X158300000Y-111364000D02*
X158494000Y-111364000D01*
D29*
X146740000Y-99932500D02*
X146740000Y-100110000D01*
D25*
X157380000Y-98859000D02*
X156750000Y-99489000D01*
X157380000Y-97622500D02*
X157380000Y-98859000D01*
D34*
X157380000Y-97622500D02*
X157380000Y-97600000D01*
X146740000Y-99932500D02*
X146982500Y-99932500D01*
X147325000Y-100275000D02*
X147325000Y-101363990D01*
X146982500Y-99932500D02*
X147325000Y-100275000D01*
X130570000Y-86890000D02*
X130570000Y-86480000D01*
D25*
X163194000Y-105918000D02*
X163238000Y-105918000D01*
X163238000Y-105918000D02*
X163360010Y-106040010D01*
D34*
X163360010Y-111599990D02*
X163020000Y-111940000D01*
X162849998Y-112659998D02*
X162849998Y-112110002D01*
X162849998Y-112110002D02*
X163020000Y-111940000D01*
D25*
X135397500Y-99040000D02*
X134970000Y-98612500D01*
X137186180Y-99040000D02*
X135397500Y-99040000D01*
X135587500Y-99690000D02*
X134970000Y-100307500D01*
X137186180Y-99690000D02*
X135587500Y-99690000D01*
D34*
X137186180Y-99690000D02*
X137186180Y-99040000D01*
D25*
X157380000Y-97622500D02*
X157380000Y-97590000D01*
D34*
X162225000Y-109339000D02*
X163270000Y-109339000D01*
X163520000Y-111440000D02*
X163020000Y-111940000D01*
X163520000Y-109430000D02*
X163520000Y-111440000D01*
X163361000Y-109430000D02*
X163270000Y-109339000D01*
X163520000Y-109430000D02*
X163361000Y-109430000D01*
D25*
X163639991Y-106719991D02*
X163639991Y-111320009D01*
X163194000Y-106274000D02*
X163639991Y-106719991D01*
X163639991Y-111320009D02*
X163020000Y-111940000D01*
X163194000Y-105918000D02*
X163194000Y-106274000D01*
D33*
X134470002Y-86379998D02*
X136140000Y-84710000D01*
X136140000Y-84710000D02*
X136140000Y-83065000D01*
X132200002Y-86379998D02*
X134470002Y-86379998D01*
X130560000Y-88020000D02*
X132200002Y-86379998D01*
X139070000Y-76690000D02*
X139340000Y-76690000D01*
X136110000Y-79650000D02*
X139070000Y-76690000D01*
X132840000Y-79650000D02*
X136110000Y-79650000D01*
X131390000Y-81100000D02*
X132840000Y-79650000D01*
X131390000Y-84100000D02*
X131390000Y-81100000D01*
X130570000Y-84920000D02*
X131390000Y-84100000D01*
D34*
X145110000Y-81000000D02*
X144650000Y-81000000D01*
X145300000Y-80810000D02*
X145110000Y-81000000D01*
X146552400Y-80810000D02*
X145300000Y-80810000D01*
D25*
X150750000Y-111930000D02*
X150680000Y-112000000D01*
X150750000Y-110839000D02*
X150750000Y-111930000D01*
D29*
X150680000Y-112000000D02*
X149390011Y-113289989D01*
D25*
X150680000Y-112000000D02*
X149440011Y-113239989D01*
X148002501Y-115685001D02*
X148017500Y-115700000D01*
X148002501Y-114014999D02*
X148002501Y-115685001D01*
X156750000Y-110839000D02*
X157775000Y-110839000D01*
X157775000Y-110839000D02*
X158300000Y-111364000D01*
D34*
X146487500Y-99932500D02*
X145693561Y-100726439D01*
X145693561Y-100726439D02*
X145693561Y-101163560D01*
X146740000Y-99932500D02*
X146487500Y-99932500D01*
D25*
X147490000Y-115700000D02*
X146270000Y-114480000D01*
X148017500Y-115700000D02*
X147490000Y-115700000D01*
X146884999Y-114014999D02*
X146780000Y-113910000D01*
X148002501Y-114014999D02*
X146884999Y-114014999D01*
D35*
X147885020Y-93853737D02*
X147485021Y-94253736D01*
X156450000Y-96660000D02*
X154810000Y-96660000D01*
X157380000Y-97590000D02*
X156450000Y-96660000D01*
X152003737Y-93853737D02*
X147885020Y-93853737D01*
X154810000Y-96660000D02*
X152003737Y-93853737D01*
D34*
X143599990Y-108260000D02*
X143559990Y-108300000D01*
X144540000Y-108260000D02*
X143599990Y-108260000D01*
D25*
X160788990Y-110588990D02*
X161650000Y-111450000D01*
X159075010Y-110588990D02*
X160788990Y-110588990D01*
X158300000Y-111364000D02*
X159075010Y-110588990D01*
X148002501Y-114014999D02*
X148777511Y-113239989D01*
X149215711Y-113239989D02*
X149390011Y-113239989D01*
X148777511Y-113239989D02*
X149215711Y-113239989D01*
D36*
X126280000Y-96920000D02*
X126270000Y-96920000D01*
D33*
X125370000Y-95885391D02*
X126247839Y-96763230D01*
X125370000Y-93240000D02*
X125370000Y-95885391D01*
X130570000Y-88040000D02*
X125370000Y-93240000D01*
X130570000Y-86890000D02*
X130570000Y-88040000D01*
D26*
X134970000Y-98612500D02*
X134097510Y-98612500D01*
X134097510Y-98612500D02*
X133860000Y-98374990D01*
X134970000Y-100307500D02*
X133037490Y-98374990D01*
X133037490Y-98374990D02*
X132910000Y-98374990D01*
D33*
X130570000Y-84880000D02*
X130570000Y-86890000D01*
X130570000Y-86480000D02*
X130570000Y-84880000D01*
D28*
X120320000Y-103540000D02*
X120470000Y-103390000D01*
X120320000Y-103690000D02*
X120320000Y-103540000D01*
X120800000Y-103210000D02*
X120320000Y-103690000D01*
X120800000Y-103030000D02*
X120800000Y-103210000D01*
D29*
%TO.N,I2C1_SDA*%
X161048000Y-106414000D02*
X161544000Y-105918000D01*
X158675000Y-106414000D02*
X161048000Y-106414000D01*
X126150000Y-115830000D02*
X126150000Y-114730000D01*
X131982510Y-118442510D02*
X130009127Y-116469127D01*
X126789127Y-116469127D02*
X126150000Y-115830000D01*
X130009127Y-116469127D02*
X126789127Y-116469127D01*
X158247490Y-118442510D02*
X131982510Y-118442510D01*
X159945010Y-115294990D02*
X159945010Y-115534990D01*
X158675000Y-106414000D02*
X157646000Y-106414000D01*
X158278979Y-110188979D02*
X161562983Y-110188979D01*
X162260002Y-112979998D02*
X159945010Y-115294990D01*
X162260002Y-110885998D02*
X162260002Y-112979998D01*
X157060000Y-107000000D02*
X157060000Y-108970000D01*
X159000000Y-116480000D02*
X159000000Y-117690000D01*
X161562983Y-110188979D02*
X162260002Y-110885998D01*
X157060000Y-108970000D02*
X158278979Y-110188979D01*
X159000000Y-117690000D02*
X158247490Y-118442510D01*
X159945010Y-115534990D02*
X159000000Y-116480000D01*
X157646000Y-106414000D02*
X157060000Y-107000000D01*
X162349999Y-105112001D02*
X161544000Y-105918000D01*
X163610000Y-101414950D02*
X162349999Y-102674951D01*
X163610000Y-87620000D02*
X163610000Y-101414950D01*
X153180000Y-80810000D02*
X155149989Y-82779989D01*
X151480000Y-80810000D02*
X153180000Y-80810000D01*
X158769989Y-82779989D02*
X163610000Y-87620000D01*
X162349999Y-102674951D02*
X162349999Y-105112001D01*
X155149989Y-82779989D02*
X158769989Y-82779989D01*
%TO.N,I2C1_SCL*%
X151530000Y-82030000D02*
X151480000Y-82080000D01*
X124940000Y-114770000D02*
X124900000Y-114730000D01*
X124940000Y-115990000D02*
X124940000Y-114770000D01*
X163220021Y-87730021D02*
X162990000Y-87500000D01*
X161512496Y-103017464D02*
X163220021Y-101309939D01*
X161481000Y-104394000D02*
X161512496Y-104362504D01*
X161512496Y-104362504D02*
X161512496Y-103017464D01*
X163220021Y-101309939D02*
X163220021Y-87730021D01*
X161481000Y-104394000D02*
X161481000Y-104869000D01*
X159450000Y-105914000D02*
X158675000Y-105914000D01*
X160429999Y-105920001D02*
X160525000Y-105825000D01*
X159685999Y-105920001D02*
X160429999Y-105920001D01*
X158675000Y-105914000D02*
X159679998Y-105914000D01*
X159679998Y-105914000D02*
X159685999Y-105920001D01*
X161481000Y-104869000D02*
X160525000Y-105825000D01*
X158620000Y-83130000D02*
X163030000Y-87540000D01*
X152840000Y-82080000D02*
X153890000Y-83130000D01*
X153890000Y-83130000D02*
X158620000Y-83130000D01*
X151480000Y-82080000D02*
X152840000Y-82080000D01*
X158675000Y-105914000D02*
X157426000Y-105914000D01*
X150494375Y-108359989D02*
X148074956Y-110779408D01*
X148074956Y-110779408D02*
X148074956Y-111589948D01*
X157426000Y-105914000D02*
X155586000Y-105914000D01*
X153140011Y-108359989D02*
X152270011Y-108359989D01*
X155586000Y-105914000D02*
X153140011Y-108359989D01*
X152270011Y-108359989D02*
X150494375Y-108359989D01*
%TO.N,CS1_DRV*%
X143595000Y-107414000D02*
X147325000Y-107414000D01*
X139289000Y-111720000D02*
X143595000Y-107414000D01*
X136610000Y-111720000D02*
X139289000Y-111720000D01*
X136070000Y-112260000D02*
X136610000Y-111720000D01*
X135950000Y-112260000D02*
X136070000Y-112260000D01*
X135240014Y-112260000D02*
X135200000Y-112300014D01*
X136020000Y-112260000D02*
X135240014Y-112260000D01*
%TO.N,CLK1_DRV*%
X138720019Y-110769981D02*
X136629981Y-110769981D01*
X142576000Y-106914000D02*
X138720019Y-110769981D01*
X147325000Y-106914000D02*
X142576000Y-106914000D01*
%TO.N,MISO1_DRV*%
X141487074Y-106414000D02*
X137700000Y-110201074D01*
X147325000Y-106414000D02*
X141487074Y-106414000D01*
%TO.N,MOSI1_DRV*%
X146550000Y-105914000D02*
X147325000Y-105914000D01*
X134173695Y-111908561D02*
X140112256Y-105970000D01*
X130771439Y-111908561D02*
X134173695Y-111908561D01*
X146494000Y-105970000D02*
X146550000Y-105914000D01*
X140112256Y-105970000D02*
X146494000Y-105970000D01*
%TO.N,CS2_ENC*%
X148039989Y-96979989D02*
X143718691Y-96979989D01*
X149250000Y-99489000D02*
X149250000Y-98190000D01*
X149250000Y-98190000D02*
X148039989Y-96979989D01*
X143718691Y-96979989D02*
X142911180Y-97787500D01*
%TO.N,CLK2_ENC*%
X149750000Y-100490000D02*
X149750000Y-99489000D01*
X149560000Y-100680000D02*
X149750000Y-100490000D01*
X149080000Y-100680000D02*
X149560000Y-100680000D01*
X148590000Y-100190000D02*
X149080000Y-100680000D01*
X144100000Y-97720000D02*
X144490000Y-97330000D01*
X144100000Y-98310000D02*
X144100000Y-97720000D01*
X143972500Y-98437500D02*
X144100000Y-98310000D01*
X142911180Y-98437500D02*
X143972500Y-98437500D01*
X148590000Y-98280000D02*
X148590000Y-100190000D01*
X147640000Y-97330000D02*
X148590000Y-98280000D01*
X144490000Y-97330000D02*
X147640000Y-97330000D01*
%TO.N,MISO2_ENC*%
X147297500Y-99087500D02*
X142911180Y-99087500D01*
X150250000Y-100484990D02*
X149704979Y-101030011D01*
X148935021Y-101030011D02*
X148239989Y-100334979D01*
X149704979Y-101030011D02*
X148935021Y-101030011D01*
X150250000Y-99489000D02*
X150250000Y-100484990D01*
X148239989Y-100029989D02*
X147297500Y-99087500D01*
X148239989Y-100334979D02*
X148239989Y-100029989D01*
%TO.N,MOSI2_ENC*%
X141330000Y-97910000D02*
X141330000Y-98893820D01*
X141330000Y-98893820D02*
X142173680Y-99737500D01*
X142610021Y-96629979D02*
X141330000Y-97910000D01*
X150750000Y-99489000D02*
X150750000Y-97929998D01*
X142173680Y-99737500D02*
X142911180Y-99737500D01*
X150750000Y-97929998D02*
X149449981Y-96629979D01*
X149449981Y-96629979D02*
X142610021Y-96629979D01*
%TO.N,USART4_TX*%
X145730000Y-79660000D02*
X143260000Y-77190000D01*
X161690001Y-100826900D02*
X161690001Y-92850001D01*
X148093012Y-82754380D02*
X148093012Y-80383012D01*
X148089968Y-84969968D02*
X148089968Y-82757424D01*
X158675000Y-102414000D02*
X160102901Y-102414000D01*
X160102901Y-102414000D02*
X161690001Y-100826900D01*
X160360000Y-91520000D02*
X152565010Y-91520000D01*
X151099967Y-87979967D02*
X148089968Y-84969968D01*
X152565010Y-91520000D02*
X151099967Y-90054957D01*
X143260000Y-77190000D02*
X143260000Y-74810000D01*
X151099967Y-90054957D02*
X151099967Y-87979967D01*
X148089968Y-82757424D02*
X148093012Y-82754380D01*
X161690001Y-92850001D02*
X160360000Y-91520000D01*
X148093012Y-80383012D02*
X147370000Y-79660000D01*
X147370000Y-79660000D02*
X145730000Y-79660000D01*
%TO.N,USART4_RX*%
X148509978Y-84729978D02*
X148509978Y-78730022D01*
X144510000Y-74010000D02*
X144510000Y-74810000D01*
X151770000Y-90010000D02*
X151770000Y-87990000D01*
X148509978Y-78730022D02*
X148870000Y-78370000D01*
X147200000Y-73010000D02*
X145510000Y-73010000D01*
X148870000Y-74680000D02*
X147200000Y-73010000D01*
X160504979Y-91169989D02*
X152929989Y-91169989D01*
X151770000Y-87990000D02*
X148509978Y-84729978D01*
X152929989Y-91169989D02*
X151770000Y-90010000D01*
X158675000Y-102914000D02*
X160130990Y-102914000D01*
X160130990Y-102914000D02*
X162100000Y-100944990D01*
X162100000Y-100944990D02*
X162100000Y-92765010D01*
X148870000Y-78370000D02*
X148870000Y-74680000D01*
X162100000Y-92765010D02*
X160504979Y-91169989D01*
X145510000Y-73010000D02*
X144510000Y-74010000D01*
%TO.N,DIR*%
X150630000Y-74780000D02*
X152020000Y-74780000D01*
X149350000Y-76060000D02*
X150630000Y-74780000D01*
X149350000Y-78765010D02*
X149350000Y-76060000D01*
X148859989Y-79255021D02*
X149350000Y-78765010D01*
X152320000Y-87890000D02*
X148859989Y-84429989D01*
X160649958Y-90819978D02*
X153379978Y-90819978D01*
X152320000Y-89760000D02*
X152320000Y-87890000D01*
X153379978Y-90819978D02*
X152320000Y-89760000D01*
X162450010Y-92620030D02*
X160649958Y-90819978D01*
X160066000Y-103914000D02*
X160569990Y-103410010D01*
X148859989Y-84429989D02*
X148859989Y-79255021D01*
X160569990Y-102969990D02*
X162450010Y-101089970D01*
X160569990Y-103410010D02*
X160569990Y-102969990D01*
X162450010Y-101089970D02*
X162450010Y-92620030D01*
X158675000Y-103914000D02*
X160066000Y-103914000D01*
%TO.N,STEP*%
X153270000Y-75580000D02*
X153270000Y-74780000D01*
X150500000Y-75830000D02*
X153020000Y-75830000D01*
X149769998Y-79290002D02*
X149769998Y-76560002D01*
X149240000Y-79820000D02*
X149769998Y-79290002D01*
X152900000Y-87895010D02*
X149240000Y-84235010D01*
X160610001Y-103894989D02*
X160615011Y-103894989D01*
X153939967Y-90459967D02*
X152900000Y-89420000D01*
X161162485Y-102872485D02*
X162840010Y-101194960D01*
X162840010Y-92515040D02*
X160784937Y-90459967D01*
X153020000Y-75830000D02*
X153270000Y-75580000D01*
X160784937Y-90459967D02*
X153939967Y-90459967D01*
X162840010Y-101194960D02*
X162840010Y-92515040D01*
X161162485Y-103347515D02*
X161162485Y-102872485D01*
X160615011Y-103894989D02*
X161162485Y-103347515D01*
X152900000Y-89420000D02*
X152900000Y-87895010D01*
X149240000Y-84235010D02*
X149240000Y-79820000D01*
X159590990Y-104914000D02*
X160610001Y-103894989D01*
X149769998Y-76560002D02*
X150500000Y-75830000D01*
X158675000Y-104914000D02*
X159590990Y-104914000D01*
%TO.N,GND*%
X160662500Y-107614000D02*
X160650000Y-107626500D01*
X146150000Y-108414000D02*
X146130000Y-108434000D01*
D26*
X160650000Y-107626500D02*
X160650000Y-107474000D01*
D29*
X145760000Y-73600000D02*
X145770000Y-73590000D01*
X145760000Y-74810000D02*
X145760000Y-73600000D01*
X136970000Y-74810000D02*
X136970000Y-73670000D01*
X128210000Y-73780000D02*
X128220000Y-73770000D01*
X128210000Y-74810000D02*
X128210000Y-73780000D01*
X154520000Y-73650000D02*
X154530000Y-73640000D01*
X154520000Y-74780000D02*
X154520000Y-73650000D01*
D25*
X155380000Y-114690000D02*
X155410000Y-114720000D01*
X155380000Y-113510000D02*
X155380000Y-114690000D01*
D37*
X120030000Y-110715000D02*
X121160000Y-111845000D01*
X121160000Y-111845000D02*
X121160000Y-114910000D01*
D25*
X158675000Y-108414000D02*
X159862500Y-108414000D01*
X159862500Y-108414000D02*
X160650000Y-107626500D01*
D34*
X160723500Y-107626500D02*
X161410000Y-106940000D01*
X160650000Y-107626500D02*
X160723500Y-107626500D01*
D25*
X147325000Y-108414000D02*
X146150000Y-108414000D01*
X146111000Y-108414000D02*
X144540000Y-109985000D01*
X146150000Y-108414000D02*
X146111000Y-108414000D01*
X159220000Y-114982500D02*
X158492500Y-114982500D01*
X158492500Y-114982500D02*
X158480000Y-114970000D01*
X157580000Y-116070002D02*
X157579998Y-116070000D01*
X157580000Y-117210000D02*
X157580000Y-116070002D01*
D34*
X123650000Y-115710000D02*
X123680000Y-115740000D01*
X123650000Y-114730000D02*
X123650000Y-115710000D01*
D29*
X131490000Y-77290000D02*
X131490000Y-77480000D01*
D28*
X120030000Y-110715000D02*
X120235000Y-110715000D01*
D26*
X137186180Y-98437500D02*
X136448680Y-98437500D01*
X136167804Y-98156624D02*
X136167804Y-96859718D01*
X136448680Y-98437500D02*
X136167804Y-98156624D01*
X136167804Y-96859718D02*
X136664985Y-96362537D01*
D34*
X134010000Y-81800000D02*
X134015000Y-81795000D01*
X132700000Y-81800000D02*
X134010000Y-81800000D01*
X132660000Y-81760000D02*
X132700000Y-81800000D01*
D33*
X135430000Y-94090000D02*
X135510000Y-94010000D01*
D26*
X134970000Y-96887500D02*
X134970000Y-96740000D01*
X134970000Y-96740000D02*
X135590000Y-96120000D01*
D25*
X163020000Y-107100000D02*
X163020000Y-107400000D01*
X162806000Y-107614000D02*
X162225000Y-107614000D01*
X163020000Y-107400000D02*
X162806000Y-107614000D01*
D34*
X135670000Y-81810000D02*
X136140000Y-81340000D01*
X134030000Y-81810000D02*
X135670000Y-81810000D01*
X134015000Y-81795000D02*
X134030000Y-81810000D01*
D25*
X132676820Y-100896820D02*
X132153180Y-100896820D01*
X133800000Y-102020000D02*
X132676820Y-100896820D01*
X135050000Y-102020000D02*
X133800000Y-102020000D01*
X155690000Y-94850000D02*
X155700000Y-94840000D01*
X155690000Y-95570000D02*
X155690000Y-94850000D01*
X156022000Y-95902000D02*
X155690000Y-95570000D01*
X156022000Y-95980500D02*
X156022000Y-95902000D01*
D28*
X120030000Y-110990000D02*
X120030000Y-110715000D01*
X116880000Y-114140000D02*
X120030000Y-110990000D01*
D30*
X122159503Y-95492003D02*
X122195000Y-95527500D01*
X122159503Y-94059505D02*
X122159503Y-95492003D01*
D29*
X152540000Y-116370000D02*
X152540000Y-116510000D01*
X152975669Y-115930000D02*
X152975669Y-115934331D01*
X152975669Y-115934331D02*
X152540000Y-116370000D01*
X153680000Y-115930000D02*
X152975669Y-115930000D01*
D25*
X151250000Y-110839000D02*
X151250000Y-113340000D01*
X151250000Y-113340000D02*
X150575001Y-114014999D01*
X150575001Y-114014999D02*
X149727501Y-114014999D01*
X149727501Y-115685001D02*
X149742500Y-115700000D01*
X149727501Y-114014999D02*
X149727501Y-115685001D01*
X150520000Y-113222500D02*
X149727501Y-114014999D01*
X150520000Y-113140000D02*
X150520000Y-113222500D01*
D26*
X131490000Y-77290000D02*
X131490000Y-77200010D01*
X131490000Y-77200010D02*
X130710000Y-76420010D01*
D25*
X145634000Y-98210000D02*
X145879998Y-98210000D01*
D34*
X145020000Y-98197500D02*
X145867498Y-98197500D01*
D25*
X145390000Y-98454000D02*
X145634000Y-98210000D01*
D34*
X145867498Y-98197500D02*
X145879998Y-98210000D01*
D25*
X117220000Y-98702500D02*
X117220000Y-98260000D01*
X151480000Y-84620000D02*
X150768800Y-84620000D01*
X149790010Y-83641210D02*
X149790010Y-80290000D01*
X150768800Y-84620000D02*
X149790010Y-83641210D01*
X147387500Y-98207500D02*
X147950000Y-98770000D01*
X146740000Y-98207500D02*
X147387500Y-98207500D01*
X158675000Y-106914000D02*
X159815374Y-106914000D01*
X159815374Y-106914000D02*
X159865384Y-106964010D01*
D34*
X143624990Y-109985000D02*
X143559990Y-109920000D01*
X144540000Y-109985000D02*
X143624990Y-109985000D01*
D29*
X138591754Y-103430010D02*
X137664591Y-103430010D01*
X139510078Y-102511686D02*
X138591754Y-103430010D01*
X128995019Y-95887319D02*
X133458446Y-100350746D01*
X128995019Y-95076696D02*
X128995019Y-95887319D01*
X133458446Y-100350746D02*
X133458446Y-100775010D01*
D25*
X155690000Y-93160000D02*
X155080000Y-92550000D01*
X155690000Y-94850000D02*
X155690000Y-93160000D01*
D29*
X144990000Y-82237602D02*
X144990000Y-82010000D01*
X144510000Y-82490000D02*
X144990000Y-82010000D01*
X144510000Y-82752500D02*
X144510000Y-82490000D01*
D26*
X117220000Y-98702500D02*
X117220000Y-98880000D01*
X117220000Y-98880000D02*
X116740000Y-99360000D01*
D34*
X120660000Y-98800000D02*
X120720000Y-98740000D01*
X120130000Y-98800000D02*
X120660000Y-98800000D01*
D25*
X150670010Y-115840000D02*
X150710000Y-115800010D01*
X149882500Y-115840000D02*
X150670010Y-115840000D01*
X149742500Y-115700000D02*
X149882500Y-115840000D01*
D29*
X138072464Y-102310369D02*
X137648200Y-102310369D01*
X138839469Y-101543364D02*
X138072464Y-102310369D01*
X138839469Y-99860531D02*
X138839469Y-101543364D01*
X139417323Y-99282677D02*
X138839469Y-99860531D01*
X139417323Y-95882026D02*
X139417323Y-99282677D01*
%TO.N,RESET*%
X153750000Y-110839000D02*
X153750000Y-111583588D01*
X153750000Y-111880000D02*
X153570000Y-112060000D01*
X153750000Y-110839000D02*
X153750000Y-111880000D01*
X152690010Y-112608224D02*
X152690010Y-115250009D01*
X153238234Y-112060000D02*
X152690010Y-112608224D01*
X153570000Y-112060000D02*
X153238234Y-112060000D01*
%TD*%
D38*
%TO.N,+24V*%
X121124504Y-94971792D02*
X121098752Y-95056684D01*
X121081928Y-95227500D01*
X121081928Y-95677046D01*
X121021066Y-95808317D01*
X119813305Y-95739792D01*
X119806938Y-95536033D01*
X119803725Y-95511345D01*
X119795757Y-95487758D01*
X119783341Y-95466179D01*
X119766954Y-95447436D01*
X119747225Y-95432251D01*
X119724912Y-95421207D01*
X119700874Y-95414727D01*
X119680000Y-95413000D01*
X118617164Y-95413000D01*
X118608405Y-95396614D01*
X118531012Y-95302310D01*
X118544883Y-94477000D01*
X121124503Y-94477000D01*
X121124504Y-94971792D01*
%TA.AperFunction,Conductor*%
D39*
G36*
X121124504Y-94971792D02*
G01*
X121098752Y-95056684D01*
X121081928Y-95227500D01*
X121081928Y-95677046D01*
X121021066Y-95808317D01*
X119813305Y-95739792D01*
X119806938Y-95536033D01*
X119803725Y-95511345D01*
X119795757Y-95487758D01*
X119783341Y-95466179D01*
X119766954Y-95447436D01*
X119747225Y-95432251D01*
X119724912Y-95421207D01*
X119700874Y-95414727D01*
X119680000Y-95413000D01*
X118617164Y-95413000D01*
X118608405Y-95396614D01*
X118531012Y-95302310D01*
X118544883Y-94477000D01*
X121124503Y-94477000D01*
X121124504Y-94971792D01*
G37*
%TD.AperFunction*%
%TD*%
D38*
%TO.N,GND*%
X160633000Y-92832447D02*
X160633000Y-96381106D01*
X157266789Y-96331277D01*
X157050899Y-96115387D01*
X157025528Y-96084472D01*
X156902189Y-95983251D01*
X156761473Y-95908037D01*
X156608788Y-95861720D01*
X156489791Y-95850000D01*
X156489788Y-95850000D01*
X156450000Y-95846081D01*
X156410212Y-95850000D01*
X155145513Y-95850000D01*
X154805208Y-95509695D01*
X154803639Y-94712665D01*
X154926039Y-94630880D01*
X155056273Y-94500646D01*
X155158597Y-94347507D01*
X155229079Y-94177347D01*
X155265011Y-93996707D01*
X155265011Y-93812529D01*
X155229079Y-93631889D01*
X155158597Y-93461729D01*
X155056273Y-93308590D01*
X154926039Y-93178356D01*
X154800454Y-93094443D01*
X154798801Y-92255000D01*
X160055554Y-92255000D01*
X160633000Y-92832447D01*
%TA.AperFunction,Conductor*%
D39*
G36*
X160633000Y-92832447D02*
G01*
X160633000Y-96381106D01*
X157266789Y-96331277D01*
X157050899Y-96115387D01*
X157025528Y-96084472D01*
X156902189Y-95983251D01*
X156761473Y-95908037D01*
X156608788Y-95861720D01*
X156489791Y-95850000D01*
X156489788Y-95850000D01*
X156450000Y-95846081D01*
X156410212Y-95850000D01*
X155145513Y-95850000D01*
X154805208Y-95509695D01*
X154803639Y-94712665D01*
X154926039Y-94630880D01*
X155056273Y-94500646D01*
X155158597Y-94347507D01*
X155229079Y-94177347D01*
X155265011Y-93996707D01*
X155265011Y-93812529D01*
X155229079Y-93631889D01*
X155158597Y-93461729D01*
X155056273Y-93308590D01*
X154926039Y-93178356D01*
X154800454Y-93094443D01*
X154798801Y-92255000D01*
X160055554Y-92255000D01*
X160633000Y-92832447D01*
G37*
%TD.AperFunction*%
%TD*%
D38*
%TO.N,GND*%
X145185001Y-92304447D02*
X145185000Y-94683895D01*
X145181444Y-94720000D01*
X145185000Y-94756104D01*
X145195635Y-94864084D01*
X145237663Y-95002632D01*
X145305913Y-95130319D01*
X145397762Y-95242237D01*
X145425808Y-95265254D01*
X145611964Y-95451410D01*
X145610030Y-95544969D01*
X142276125Y-95544969D01*
X142240030Y-95541414D01*
X142203935Y-95544969D01*
X142203926Y-95544969D01*
X142095946Y-95555604D01*
X141957398Y-95597632D01*
X141829711Y-95665882D01*
X141717793Y-95757731D01*
X141694777Y-95785776D01*
X141351497Y-96129056D01*
X141275000Y-96127062D01*
X141275000Y-95746105D01*
X141278556Y-95710000D01*
X141264365Y-95565914D01*
X141251616Y-95523886D01*
X141222337Y-95427367D01*
X141154087Y-95299680D01*
X141106944Y-95242237D01*
X141085253Y-95215806D01*
X141085250Y-95215803D01*
X141062237Y-95187762D01*
X141034197Y-95164750D01*
X139400248Y-93530802D01*
X139377228Y-93502752D01*
X139265310Y-93410903D01*
X139137623Y-93342653D01*
X138999075Y-93300625D01*
X138891095Y-93289990D01*
X138854990Y-93286434D01*
X138818885Y-93289990D01*
X138202951Y-93289990D01*
X138062889Y-93196404D01*
X137892729Y-93125922D01*
X137777270Y-93102955D01*
X137675000Y-92958322D01*
X137675000Y-92155000D01*
X145035554Y-92155000D01*
X145185001Y-92304447D01*
%TA.AperFunction,Conductor*%
D39*
G36*
X145185001Y-92304447D02*
G01*
X145185000Y-94683895D01*
X145181444Y-94720000D01*
X145185000Y-94756104D01*
X145195635Y-94864084D01*
X145237663Y-95002632D01*
X145305913Y-95130319D01*
X145397762Y-95242237D01*
X145425808Y-95265254D01*
X145611964Y-95451410D01*
X145610030Y-95544969D01*
X142276125Y-95544969D01*
X142240030Y-95541414D01*
X142203935Y-95544969D01*
X142203926Y-95544969D01*
X142095946Y-95555604D01*
X141957398Y-95597632D01*
X141829711Y-95665882D01*
X141717793Y-95757731D01*
X141694777Y-95785776D01*
X141351497Y-96129056D01*
X141275000Y-96127062D01*
X141275000Y-95746105D01*
X141278556Y-95710000D01*
X141264365Y-95565914D01*
X141251616Y-95523886D01*
X141222337Y-95427367D01*
X141154087Y-95299680D01*
X141106944Y-95242237D01*
X141085253Y-95215806D01*
X141085250Y-95215803D01*
X141062237Y-95187762D01*
X141034197Y-95164750D01*
X139400248Y-93530802D01*
X139377228Y-93502752D01*
X139265310Y-93410903D01*
X139137623Y-93342653D01*
X138999075Y-93300625D01*
X138891095Y-93289990D01*
X138854990Y-93286434D01*
X138818885Y-93289990D01*
X138202951Y-93289990D01*
X138062889Y-93196404D01*
X137892729Y-93125922D01*
X137777270Y-93102955D01*
X137675000Y-92958322D01*
X137675000Y-92155000D01*
X145035554Y-92155000D01*
X145185001Y-92304447D01*
G37*
%TD.AperFunction*%
%TD*%
D38*
%TO.N,GND*%
X134423008Y-91065517D02*
X134352526Y-91235677D01*
X134316594Y-91416317D01*
X134316594Y-91600495D01*
X134352526Y-91781135D01*
X134423008Y-91951295D01*
X134525332Y-92104434D01*
X134650681Y-92229783D01*
X134672285Y-96024845D01*
X130092629Y-96091493D01*
X129321083Y-92443728D01*
X130764854Y-90999958D01*
X134466813Y-90999958D01*
X134423008Y-91065517D01*
%TA.AperFunction,Conductor*%
D39*
G36*
X134423008Y-91065517D02*
G01*
X134352526Y-91235677D01*
X134316594Y-91416317D01*
X134316594Y-91600495D01*
X134352526Y-91781135D01*
X134423008Y-91951295D01*
X134525332Y-92104434D01*
X134650681Y-92229783D01*
X134672285Y-96024845D01*
X130092629Y-96091493D01*
X129321083Y-92443728D01*
X130764854Y-90999958D01*
X134466813Y-90999958D01*
X134423008Y-91065517D01*
G37*
%TD.AperFunction*%
%TD*%
D38*
%TO.N,+24V*%
X143396928Y-83052500D02*
X143413752Y-83223316D01*
X143463577Y-83387567D01*
X143544488Y-83538942D01*
X143653377Y-83671623D01*
X143786058Y-83780512D01*
X143937433Y-83861423D01*
X144101684Y-83911248D01*
X144272500Y-83928072D01*
X144747500Y-83928072D01*
X144918316Y-83911248D01*
X144982091Y-83891902D01*
X145031263Y-83983894D01*
X145032171Y-83985000D01*
X145031263Y-83986106D01*
X144972298Y-84096420D01*
X144935988Y-84216118D01*
X144923728Y-84340600D01*
X144923728Y-84899400D01*
X144935988Y-85023882D01*
X144972298Y-85143580D01*
X145031263Y-85253894D01*
X145110615Y-85350585D01*
X145207306Y-85429937D01*
X145317620Y-85488902D01*
X145437318Y-85525212D01*
X145561800Y-85537472D01*
X147543000Y-85537472D01*
X147611299Y-85530745D01*
X149521304Y-87440751D01*
X149448772Y-87513283D01*
X149335504Y-87682801D01*
X149257483Y-87871159D01*
X149217709Y-88071118D01*
X149217709Y-88168610D01*
X147835677Y-89550643D01*
X147825226Y-89498102D01*
X147747205Y-89309744D01*
X147633937Y-89140226D01*
X147489774Y-88996063D01*
X147320256Y-88882795D01*
X147131898Y-88804774D01*
X146931939Y-88765000D01*
X146728061Y-88765000D01*
X146528102Y-88804774D01*
X146339744Y-88882795D01*
X146170226Y-88996063D01*
X146026063Y-89140226D01*
X145912795Y-89309744D01*
X145834774Y-89498102D01*
X145795000Y-89698061D01*
X145795000Y-89901939D01*
X145834774Y-90101898D01*
X145912795Y-90290256D01*
X145972735Y-90379963D01*
X145870320Y-90295913D01*
X145742633Y-90227663D01*
X145604085Y-90185635D01*
X145496105Y-90175000D01*
X145460000Y-90171444D01*
X145423895Y-90175000D01*
X138394447Y-90175000D01*
X137815000Y-89595554D01*
X137815000Y-86848061D01*
X145785000Y-86848061D01*
X145785000Y-87051939D01*
X145824774Y-87251898D01*
X145902795Y-87440256D01*
X146016063Y-87609774D01*
X146160226Y-87753937D01*
X146329744Y-87867205D01*
X146518102Y-87945226D01*
X146718061Y-87985000D01*
X146921939Y-87985000D01*
X147121898Y-87945226D01*
X147310256Y-87867205D01*
X147479774Y-87753937D01*
X147623937Y-87609774D01*
X147737205Y-87440256D01*
X147815226Y-87251898D01*
X147855000Y-87051939D01*
X147855000Y-86848061D01*
X147815226Y-86648102D01*
X147737205Y-86459744D01*
X147623937Y-86290226D01*
X147479774Y-86146063D01*
X147310256Y-86032795D01*
X147121898Y-85954774D01*
X146921939Y-85915000D01*
X146718061Y-85915000D01*
X146518102Y-85954774D01*
X146329744Y-86032795D01*
X146160226Y-86146063D01*
X146016063Y-86290226D01*
X145902795Y-86459744D01*
X145824774Y-86648102D01*
X145785000Y-86848061D01*
X137815000Y-86848061D01*
X137815000Y-82603054D01*
X138631850Y-82602123D01*
X138847907Y-82746488D01*
X139309248Y-82937582D01*
X139799004Y-83035000D01*
X140298356Y-83035000D01*
X140788112Y-82937582D01*
X141249453Y-82746488D01*
X141470348Y-82598890D01*
X143396928Y-82596696D01*
X143396928Y-83052500D01*
%TA.AperFunction,Conductor*%
D39*
G36*
X143396928Y-83052500D02*
G01*
X143413752Y-83223316D01*
X143463577Y-83387567D01*
X143544488Y-83538942D01*
X143653377Y-83671623D01*
X143786058Y-83780512D01*
X143937433Y-83861423D01*
X144101684Y-83911248D01*
X144272500Y-83928072D01*
X144747500Y-83928072D01*
X144918316Y-83911248D01*
X144982091Y-83891902D01*
X145031263Y-83983894D01*
X145032171Y-83985000D01*
X145031263Y-83986106D01*
X144972298Y-84096420D01*
X144935988Y-84216118D01*
X144923728Y-84340600D01*
X144923728Y-84899400D01*
X144935988Y-85023882D01*
X144972298Y-85143580D01*
X145031263Y-85253894D01*
X145110615Y-85350585D01*
X145207306Y-85429937D01*
X145317620Y-85488902D01*
X145437318Y-85525212D01*
X145561800Y-85537472D01*
X147543000Y-85537472D01*
X147611299Y-85530745D01*
X149521304Y-87440751D01*
X149448772Y-87513283D01*
X149335504Y-87682801D01*
X149257483Y-87871159D01*
X149217709Y-88071118D01*
X149217709Y-88168610D01*
X147835677Y-89550643D01*
X147825226Y-89498102D01*
X147747205Y-89309744D01*
X147633937Y-89140226D01*
X147489774Y-88996063D01*
X147320256Y-88882795D01*
X147131898Y-88804774D01*
X146931939Y-88765000D01*
X146728061Y-88765000D01*
X146528102Y-88804774D01*
X146339744Y-88882795D01*
X146170226Y-88996063D01*
X146026063Y-89140226D01*
X145912795Y-89309744D01*
X145834774Y-89498102D01*
X145795000Y-89698061D01*
X145795000Y-89901939D01*
X145834774Y-90101898D01*
X145912795Y-90290256D01*
X145972735Y-90379963D01*
X145870320Y-90295913D01*
X145742633Y-90227663D01*
X145604085Y-90185635D01*
X145496105Y-90175000D01*
X145460000Y-90171444D01*
X145423895Y-90175000D01*
X138394447Y-90175000D01*
X137815000Y-89595554D01*
X137815000Y-86848061D01*
X145785000Y-86848061D01*
X145785000Y-87051939D01*
X145824774Y-87251898D01*
X145902795Y-87440256D01*
X146016063Y-87609774D01*
X146160226Y-87753937D01*
X146329744Y-87867205D01*
X146518102Y-87945226D01*
X146718061Y-87985000D01*
X146921939Y-87985000D01*
X147121898Y-87945226D01*
X147310256Y-87867205D01*
X147479774Y-87753937D01*
X147623937Y-87609774D01*
X147737205Y-87440256D01*
X147815226Y-87251898D01*
X147855000Y-87051939D01*
X147855000Y-86848061D01*
X147815226Y-86648102D01*
X147737205Y-86459744D01*
X147623937Y-86290226D01*
X147479774Y-86146063D01*
X147310256Y-86032795D01*
X147121898Y-85954774D01*
X146921939Y-85915000D01*
X146718061Y-85915000D01*
X146518102Y-85954774D01*
X146329744Y-86032795D01*
X146160226Y-86146063D01*
X146016063Y-86290226D01*
X145902795Y-86459744D01*
X145824774Y-86648102D01*
X145785000Y-86848061D01*
X137815000Y-86848061D01*
X137815000Y-82603054D01*
X138631850Y-82602123D01*
X138847907Y-82746488D01*
X139309248Y-82937582D01*
X139799004Y-83035000D01*
X140298356Y-83035000D01*
X140788112Y-82937582D01*
X141249453Y-82746488D01*
X141470348Y-82598890D01*
X143396928Y-82596696D01*
X143396928Y-83052500D01*
G37*
%TD.AperFunction*%
%TD*%
D38*
%TO.N,+24V*%
X126666080Y-83915877D02*
X127464521Y-84612858D01*
X127467071Y-84638745D01*
X127486832Y-84703890D01*
X127226560Y-90061151D01*
X125398125Y-91889586D01*
X117586474Y-92001180D01*
X117578143Y-89963615D01*
X117647205Y-89860256D01*
X117725226Y-89671898D01*
X117765000Y-89471939D01*
X117765000Y-89268061D01*
X117725226Y-89068102D01*
X117647205Y-88879744D01*
X117573259Y-88769075D01*
X117566505Y-87117206D01*
X117573937Y-87109774D01*
X117687205Y-86940256D01*
X117765226Y-86751898D01*
X117805000Y-86551939D01*
X117805000Y-86348061D01*
X117765226Y-86148102D01*
X117687205Y-85959744D01*
X117573937Y-85790226D01*
X117561026Y-85777315D01*
X117558850Y-85245059D01*
X117910475Y-85315001D01*
X118429525Y-85315001D01*
X118938601Y-85213740D01*
X119418141Y-85015108D01*
X119849715Y-84726739D01*
X120216738Y-84359716D01*
X120505107Y-83928142D01*
X120569985Y-83771513D01*
X126666080Y-83915877D01*
%TA.AperFunction,Conductor*%
D39*
G36*
X126666080Y-83915877D02*
G01*
X127464521Y-84612858D01*
X127467071Y-84638745D01*
X127486832Y-84703890D01*
X127226560Y-90061151D01*
X125398125Y-91889586D01*
X117586474Y-92001180D01*
X117578143Y-89963615D01*
X117647205Y-89860256D01*
X117725226Y-89671898D01*
X117765000Y-89471939D01*
X117765000Y-89268061D01*
X117725226Y-89068102D01*
X117647205Y-88879744D01*
X117573259Y-88769075D01*
X117566505Y-87117206D01*
X117573937Y-87109774D01*
X117687205Y-86940256D01*
X117765226Y-86751898D01*
X117805000Y-86551939D01*
X117805000Y-86348061D01*
X117765226Y-86148102D01*
X117687205Y-85959744D01*
X117573937Y-85790226D01*
X117561026Y-85777315D01*
X117558850Y-85245059D01*
X117910475Y-85315001D01*
X118429525Y-85315001D01*
X118938601Y-85213740D01*
X119418141Y-85015108D01*
X119849715Y-84726739D01*
X120216738Y-84359716D01*
X120505107Y-83928142D01*
X120569985Y-83771513D01*
X126666080Y-83915877D01*
G37*
%TD.AperFunction*%
%TD*%
D38*
%TO.N,+24V*%
X153344746Y-83624193D02*
X153367762Y-83652238D01*
X153479680Y-83744087D01*
X153607367Y-83812337D01*
X153745915Y-83854365D01*
X153853895Y-83865000D01*
X153853904Y-83865000D01*
X153889999Y-83868555D01*
X153926094Y-83865000D01*
X158315554Y-83865000D01*
X161563163Y-87112610D01*
X161492601Y-90128185D01*
X161330195Y-89965779D01*
X161307175Y-89937729D01*
X161195257Y-89845880D01*
X161067570Y-89777630D01*
X160929022Y-89735602D01*
X160821042Y-89724967D01*
X160784937Y-89721411D01*
X160748832Y-89724967D01*
X154244414Y-89724967D01*
X153635000Y-89115554D01*
X153635000Y-87931115D01*
X153638556Y-87895010D01*
X153624365Y-87750925D01*
X153582337Y-87612376D01*
X153514087Y-87484690D01*
X153506885Y-87475914D01*
X153422238Y-87372772D01*
X153394193Y-87349756D01*
X151581908Y-85537472D01*
X152470600Y-85537472D01*
X152595082Y-85525212D01*
X152714780Y-85488902D01*
X152825094Y-85429937D01*
X152921785Y-85350585D01*
X153001137Y-85253894D01*
X153060102Y-85143580D01*
X153096412Y-85023882D01*
X153108672Y-84899400D01*
X153108672Y-84340600D01*
X153096412Y-84216118D01*
X153060102Y-84096420D01*
X153001137Y-83986106D01*
X153000229Y-83985000D01*
X153001137Y-83983894D01*
X153060102Y-83873580D01*
X153096412Y-83753882D01*
X153108672Y-83629400D01*
X153108672Y-83388119D01*
X153344746Y-83624193D01*
%TA.AperFunction,Conductor*%
D39*
G36*
X153344746Y-83624193D02*
G01*
X153367762Y-83652238D01*
X153479680Y-83744087D01*
X153607367Y-83812337D01*
X153745915Y-83854365D01*
X153853895Y-83865000D01*
X153853904Y-83865000D01*
X153889999Y-83868555D01*
X153926094Y-83865000D01*
X158315554Y-83865000D01*
X161563163Y-87112610D01*
X161492601Y-90128185D01*
X161330195Y-89965779D01*
X161307175Y-89937729D01*
X161195257Y-89845880D01*
X161067570Y-89777630D01*
X160929022Y-89735602D01*
X160821042Y-89724967D01*
X160784937Y-89721411D01*
X160748832Y-89724967D01*
X154244414Y-89724967D01*
X153635000Y-89115554D01*
X153635000Y-87931115D01*
X153638556Y-87895010D01*
X153624365Y-87750925D01*
X153582337Y-87612376D01*
X153514087Y-87484690D01*
X153506885Y-87475914D01*
X153422238Y-87372772D01*
X153394193Y-87349756D01*
X151581908Y-85537472D01*
X152470600Y-85537472D01*
X152595082Y-85525212D01*
X152714780Y-85488902D01*
X152825094Y-85429937D01*
X152921785Y-85350585D01*
X153001137Y-85253894D01*
X153060102Y-85143580D01*
X153096412Y-85023882D01*
X153108672Y-84899400D01*
X153108672Y-84340600D01*
X153096412Y-84216118D01*
X153060102Y-84096420D01*
X153001137Y-83986106D01*
X153000229Y-83985000D01*
X153001137Y-83983894D01*
X153060102Y-83873580D01*
X153096412Y-83753882D01*
X153108672Y-83629400D01*
X153108672Y-83388119D01*
X153344746Y-83624193D01*
G37*
%TD.AperFunction*%
%TD*%
D38*
%TO.N,GND*%
X129893112Y-94591748D02*
X129071071Y-93598151D01*
X129052983Y-92711829D01*
X129507718Y-92257093D01*
X129893112Y-94591748D01*
%TA.AperFunction,Conductor*%
D39*
G36*
X129893112Y-94591748D02*
G01*
X129071071Y-93598151D01*
X129052983Y-92711829D01*
X129507718Y-92257093D01*
X129893112Y-94591748D01*
G37*
%TD.AperFunction*%
%TD*%
D38*
%TO.N,+3V3*%
X163313679Y-113243508D02*
X163296299Y-113238993D01*
X163286262Y-113223972D01*
X163156028Y-113093738D01*
X163002889Y-112991414D01*
X162997648Y-112989243D01*
X162998558Y-112979999D01*
X162995002Y-112943894D01*
X162995002Y-111669920D01*
X163067273Y-111655544D01*
X163237433Y-111585062D01*
X163313679Y-111534116D01*
X163313679Y-113243508D01*
%TA.AperFunction,Conductor*%
D39*
G36*
X163313679Y-113243508D02*
G01*
X163296299Y-113238993D01*
X163286262Y-113223972D01*
X163156028Y-113093738D01*
X163002889Y-112991414D01*
X162997648Y-112989243D01*
X162998558Y-112979999D01*
X162995002Y-112943894D01*
X162995002Y-111669920D01*
X163067273Y-111655544D01*
X163237433Y-111585062D01*
X163313679Y-111534116D01*
X163313679Y-113243508D01*
G37*
%TD.AperFunction*%
%TD*%
D38*
%TO.N,+3V3*%
X123639844Y-96687380D02*
X123719134Y-96720223D01*
X123899774Y-96756155D01*
X124083952Y-96756155D01*
X124224126Y-96728272D01*
X129140614Y-97072360D01*
X129548172Y-97479918D01*
X129688319Y-99453994D01*
X129692508Y-99478535D01*
X129701404Y-99501788D01*
X129722305Y-99531814D01*
X131253566Y-101166806D01*
X131254112Y-101169549D01*
X131324594Y-101339709D01*
X131426918Y-101492848D01*
X131557152Y-101623082D01*
X131710291Y-101725406D01*
X131818834Y-101770365D01*
X132793212Y-102810750D01*
X133295696Y-107536423D01*
X133295230Y-107537121D01*
X133224748Y-107707281D01*
X133188816Y-107887921D01*
X133188816Y-108072099D01*
X133224748Y-108252739D01*
X133295230Y-108422899D01*
X133397554Y-108576038D01*
X133407272Y-108585756D01*
X133638412Y-110759536D01*
X123569794Y-110515862D01*
X123453072Y-108566603D01*
X123453072Y-107600000D01*
X123440812Y-107475518D01*
X123404502Y-107355820D01*
X123377551Y-107305399D01*
X123376773Y-107292409D01*
X123372856Y-107267822D01*
X123364218Y-107244473D01*
X123351190Y-107223257D01*
X123334274Y-107204990D01*
X123314119Y-107190375D01*
X123291909Y-107180160D01*
X123266185Y-107148815D01*
X123244333Y-107130882D01*
X123186262Y-107043972D01*
X123056028Y-106913738D01*
X122902889Y-106811414D01*
X122732729Y-106740932D01*
X122552089Y-106705000D01*
X122367911Y-106705000D01*
X122187271Y-106740932D01*
X122017111Y-106811414D01*
X121863972Y-106913738D01*
X121815782Y-106961928D01*
X121513802Y-106961928D01*
X119908390Y-106767613D01*
X119938192Y-104341706D01*
X119943676Y-104331447D01*
X120008577Y-104117499D01*
X120025000Y-103950752D01*
X120025000Y-103620132D01*
X120730132Y-102915000D01*
X121199249Y-102915000D01*
X121255000Y-102920491D01*
X121276928Y-102918331D01*
X121276928Y-105155000D01*
X121289188Y-105279482D01*
X121325498Y-105399180D01*
X121384463Y-105509494D01*
X121463815Y-105606185D01*
X121560506Y-105685537D01*
X121670820Y-105744502D01*
X121790518Y-105780812D01*
X121915000Y-105793072D01*
X122705000Y-105793072D01*
X122829482Y-105780812D01*
X122949180Y-105744502D01*
X123059494Y-105685537D01*
X123156185Y-105606185D01*
X123235537Y-105509494D01*
X123294502Y-105399180D01*
X123330812Y-105279482D01*
X123343072Y-105155000D01*
X123343072Y-103144684D01*
X125438000Y-103144684D01*
X125438000Y-103299316D01*
X125468167Y-103450976D01*
X125527342Y-103593837D01*
X125613251Y-103722408D01*
X125712843Y-103822000D01*
X125613251Y-103921592D01*
X125527342Y-104050163D01*
X125468167Y-104193024D01*
X125438000Y-104344684D01*
X125438000Y-104499316D01*
X125468167Y-104650976D01*
X125527342Y-104793837D01*
X125613251Y-104922408D01*
X125712843Y-105022000D01*
X125613251Y-105121592D01*
X125527342Y-105250163D01*
X125468167Y-105393024D01*
X125438000Y-105544684D01*
X125438000Y-105699316D01*
X125468167Y-105850976D01*
X125527342Y-105993837D01*
X125613251Y-106122408D01*
X125712843Y-106222000D01*
X125613251Y-106321592D01*
X125527342Y-106450163D01*
X125468167Y-106593024D01*
X125438000Y-106744684D01*
X125438000Y-106899316D01*
X125468167Y-107050976D01*
X125527342Y-107193837D01*
X125613251Y-107322408D01*
X125712843Y-107422000D01*
X125613251Y-107521592D01*
X125527342Y-107650163D01*
X125468167Y-107793024D01*
X125438000Y-107944684D01*
X125438000Y-108099316D01*
X125468167Y-108250976D01*
X125527342Y-108393837D01*
X125613251Y-108522408D01*
X125722592Y-108631749D01*
X125851163Y-108717658D01*
X125994024Y-108776833D01*
X126145684Y-108807000D01*
X126300316Y-108807000D01*
X126451976Y-108776833D01*
X126594837Y-108717658D01*
X126723408Y-108631749D01*
X126823000Y-108532157D01*
X126922592Y-108631749D01*
X127051163Y-108717658D01*
X127194024Y-108776833D01*
X127345684Y-108807000D01*
X127500316Y-108807000D01*
X127651976Y-108776833D01*
X127794837Y-108717658D01*
X127923408Y-108631749D01*
X128023000Y-108532157D01*
X128122592Y-108631749D01*
X128251163Y-108717658D01*
X128394024Y-108776833D01*
X128545684Y-108807000D01*
X128700316Y-108807000D01*
X128851976Y-108776833D01*
X128994837Y-108717658D01*
X129123408Y-108631749D01*
X129223000Y-108532157D01*
X129322592Y-108631749D01*
X129451163Y-108717658D01*
X129594024Y-108776833D01*
X129745684Y-108807000D01*
X129900316Y-108807000D01*
X130051976Y-108776833D01*
X130194837Y-108717658D01*
X130323408Y-108631749D01*
X130423000Y-108532157D01*
X130522592Y-108631749D01*
X130651163Y-108717658D01*
X130794024Y-108776833D01*
X130945684Y-108807000D01*
X131100316Y-108807000D01*
X131251976Y-108776833D01*
X131394837Y-108717658D01*
X131523408Y-108631749D01*
X131632749Y-108522408D01*
X131718658Y-108393837D01*
X131777833Y-108250976D01*
X131808000Y-108099316D01*
X131808000Y-107944684D01*
X131777833Y-107793024D01*
X131718658Y-107650163D01*
X131632749Y-107521592D01*
X131533157Y-107422000D01*
X131632749Y-107322408D01*
X131718658Y-107193837D01*
X131777833Y-107050976D01*
X131808000Y-106899316D01*
X131808000Y-106744684D01*
X131777833Y-106593024D01*
X131718658Y-106450163D01*
X131632749Y-106321592D01*
X131533157Y-106222000D01*
X131632749Y-106122408D01*
X131718658Y-105993837D01*
X131777833Y-105850976D01*
X131808000Y-105699316D01*
X131808000Y-105544684D01*
X131777833Y-105393024D01*
X131718658Y-105250163D01*
X131632749Y-105121592D01*
X131533157Y-105022000D01*
X131632749Y-104922408D01*
X131718658Y-104793837D01*
X131777833Y-104650976D01*
X131808000Y-104499316D01*
X131808000Y-104344684D01*
X131777833Y-104193024D01*
X131718658Y-104050163D01*
X131632749Y-103921592D01*
X131533157Y-103822000D01*
X131632749Y-103722408D01*
X131718658Y-103593837D01*
X131777833Y-103450976D01*
X131808000Y-103299316D01*
X131808000Y-103144684D01*
X131777833Y-102993024D01*
X131718658Y-102850163D01*
X131632749Y-102721592D01*
X131523408Y-102612251D01*
X131394837Y-102526342D01*
X131251976Y-102467167D01*
X131100316Y-102437000D01*
X130945684Y-102437000D01*
X130794024Y-102467167D01*
X130651163Y-102526342D01*
X130522592Y-102612251D01*
X130423000Y-102711843D01*
X130323408Y-102612251D01*
X130194837Y-102526342D01*
X130051976Y-102467167D01*
X129900316Y-102437000D01*
X129745684Y-102437000D01*
X129594024Y-102467167D01*
X129451163Y-102526342D01*
X129322592Y-102612251D01*
X129223000Y-102711843D01*
X129123408Y-102612251D01*
X128994837Y-102526342D01*
X128851976Y-102467167D01*
X128700316Y-102437000D01*
X128545684Y-102437000D01*
X128394024Y-102467167D01*
X128251163Y-102526342D01*
X128122592Y-102612251D01*
X128023000Y-102711843D01*
X127923408Y-102612251D01*
X127794837Y-102526342D01*
X127651976Y-102467167D01*
X127500316Y-102437000D01*
X127345684Y-102437000D01*
X127194024Y-102467167D01*
X127051163Y-102526342D01*
X126922592Y-102612251D01*
X126823000Y-102711843D01*
X126723408Y-102612251D01*
X126594837Y-102526342D01*
X126451976Y-102467167D01*
X126300316Y-102437000D01*
X126145684Y-102437000D01*
X125994024Y-102467167D01*
X125851163Y-102526342D01*
X125722592Y-102612251D01*
X125613251Y-102721592D01*
X125527342Y-102850163D01*
X125468167Y-102993024D01*
X125438000Y-103144684D01*
X123343072Y-103144684D01*
X123343072Y-102635000D01*
X123330812Y-102510518D01*
X123294502Y-102390820D01*
X123235537Y-102280506D01*
X123156185Y-102183815D01*
X123059494Y-102104463D01*
X122949180Y-102045498D01*
X122829482Y-102009188D01*
X122705000Y-101996928D01*
X122643204Y-101996928D01*
X122933140Y-101706992D01*
X122976449Y-101671449D01*
X123118284Y-101498623D01*
X123223676Y-101301446D01*
X123288577Y-101087498D01*
X123305000Y-100920751D01*
X123305000Y-100920743D01*
X123310490Y-100865001D01*
X123305000Y-100809259D01*
X123305000Y-100359248D01*
X123288577Y-100192501D01*
X123280790Y-100166831D01*
X123266488Y-100021623D01*
X123217375Y-99859717D01*
X123137618Y-99710503D01*
X123079758Y-99640000D01*
X123137618Y-99569497D01*
X123217375Y-99420283D01*
X123266488Y-99258377D01*
X123283072Y-99090000D01*
X123283072Y-98640000D01*
X123266488Y-98471623D01*
X123217375Y-98309717D01*
X123137618Y-98160503D01*
X123030284Y-98029716D01*
X122899497Y-97922382D01*
X122750283Y-97842625D01*
X122588377Y-97793512D01*
X122420000Y-97776928D01*
X121920000Y-97776928D01*
X121751623Y-97793512D01*
X121699417Y-97809348D01*
X121690252Y-97398160D01*
X121716008Y-97313254D01*
X121733072Y-97140000D01*
X121733072Y-96852607D01*
X122019140Y-96703072D01*
X122432500Y-96703072D01*
X122603316Y-96686248D01*
X122767567Y-96636423D01*
X122784259Y-96627501D01*
X123639844Y-96687380D01*
%TA.AperFunction,Conductor*%
D39*
G36*
X123639844Y-96687380D02*
G01*
X123719134Y-96720223D01*
X123899774Y-96756155D01*
X124083952Y-96756155D01*
X124224126Y-96728272D01*
X129140614Y-97072360D01*
X129548172Y-97479918D01*
X129688319Y-99453994D01*
X129692508Y-99478535D01*
X129701404Y-99501788D01*
X129722305Y-99531814D01*
X131253566Y-101166806D01*
X131254112Y-101169549D01*
X131324594Y-101339709D01*
X131426918Y-101492848D01*
X131557152Y-101623082D01*
X131710291Y-101725406D01*
X131818834Y-101770365D01*
X132793212Y-102810750D01*
X133295696Y-107536423D01*
X133295230Y-107537121D01*
X133224748Y-107707281D01*
X133188816Y-107887921D01*
X133188816Y-108072099D01*
X133224748Y-108252739D01*
X133295230Y-108422899D01*
X133397554Y-108576038D01*
X133407272Y-108585756D01*
X133638412Y-110759536D01*
X123569794Y-110515862D01*
X123453072Y-108566603D01*
X123453072Y-107600000D01*
X123440812Y-107475518D01*
X123404502Y-107355820D01*
X123377551Y-107305399D01*
X123376773Y-107292409D01*
X123372856Y-107267822D01*
X123364218Y-107244473D01*
X123351190Y-107223257D01*
X123334274Y-107204990D01*
X123314119Y-107190375D01*
X123291909Y-107180160D01*
X123266185Y-107148815D01*
X123244333Y-107130882D01*
X123186262Y-107043972D01*
X123056028Y-106913738D01*
X122902889Y-106811414D01*
X122732729Y-106740932D01*
X122552089Y-106705000D01*
X122367911Y-106705000D01*
X122187271Y-106740932D01*
X122017111Y-106811414D01*
X121863972Y-106913738D01*
X121815782Y-106961928D01*
X121513802Y-106961928D01*
X119908390Y-106767613D01*
X119938192Y-104341706D01*
X119943676Y-104331447D01*
X120008577Y-104117499D01*
X120025000Y-103950752D01*
X120025000Y-103620132D01*
X120730132Y-102915000D01*
X121199249Y-102915000D01*
X121255000Y-102920491D01*
X121276928Y-102918331D01*
X121276928Y-105155000D01*
X121289188Y-105279482D01*
X121325498Y-105399180D01*
X121384463Y-105509494D01*
X121463815Y-105606185D01*
X121560506Y-105685537D01*
X121670820Y-105744502D01*
X121790518Y-105780812D01*
X121915000Y-105793072D01*
X122705000Y-105793072D01*
X122829482Y-105780812D01*
X122949180Y-105744502D01*
X123059494Y-105685537D01*
X123156185Y-105606185D01*
X123235537Y-105509494D01*
X123294502Y-105399180D01*
X123330812Y-105279482D01*
X123343072Y-105155000D01*
X123343072Y-103144684D01*
X125438000Y-103144684D01*
X125438000Y-103299316D01*
X125468167Y-103450976D01*
X125527342Y-103593837D01*
X125613251Y-103722408D01*
X125712843Y-103822000D01*
X125613251Y-103921592D01*
X125527342Y-104050163D01*
X125468167Y-104193024D01*
X125438000Y-104344684D01*
X125438000Y-104499316D01*
X125468167Y-104650976D01*
X125527342Y-104793837D01*
X125613251Y-104922408D01*
X125712843Y-105022000D01*
X125613251Y-105121592D01*
X125527342Y-105250163D01*
X125468167Y-105393024D01*
X125438000Y-105544684D01*
X125438000Y-105699316D01*
X125468167Y-105850976D01*
X125527342Y-105993837D01*
X125613251Y-106122408D01*
X125712843Y-106222000D01*
X125613251Y-106321592D01*
X125527342Y-106450163D01*
X125468167Y-106593024D01*
X125438000Y-106744684D01*
X125438000Y-106899316D01*
X125468167Y-107050976D01*
X125527342Y-107193837D01*
X125613251Y-107322408D01*
X125712843Y-107422000D01*
X125613251Y-107521592D01*
X125527342Y-107650163D01*
X125468167Y-107793024D01*
X125438000Y-107944684D01*
X125438000Y-108099316D01*
X125468167Y-108250976D01*
X125527342Y-108393837D01*
X125613251Y-108522408D01*
X125722592Y-108631749D01*
X125851163Y-108717658D01*
X125994024Y-108776833D01*
X126145684Y-108807000D01*
X126300316Y-108807000D01*
X126451976Y-108776833D01*
X126594837Y-108717658D01*
X126723408Y-108631749D01*
X126823000Y-108532157D01*
X126922592Y-108631749D01*
X127051163Y-108717658D01*
X127194024Y-108776833D01*
X127345684Y-108807000D01*
X127500316Y-108807000D01*
X127651976Y-108776833D01*
X127794837Y-108717658D01*
X127923408Y-108631749D01*
X128023000Y-108532157D01*
X128122592Y-108631749D01*
X128251163Y-108717658D01*
X128394024Y-108776833D01*
X128545684Y-108807000D01*
X128700316Y-108807000D01*
X128851976Y-108776833D01*
X128994837Y-108717658D01*
X129123408Y-108631749D01*
X129223000Y-108532157D01*
X129322592Y-108631749D01*
X129451163Y-108717658D01*
X129594024Y-108776833D01*
X129745684Y-108807000D01*
X129900316Y-108807000D01*
X130051976Y-108776833D01*
X130194837Y-108717658D01*
X130323408Y-108631749D01*
X130423000Y-108532157D01*
X130522592Y-108631749D01*
X130651163Y-108717658D01*
X130794024Y-108776833D01*
X130945684Y-108807000D01*
X131100316Y-108807000D01*
X131251976Y-108776833D01*
X131394837Y-108717658D01*
X131523408Y-108631749D01*
X131632749Y-108522408D01*
X131718658Y-108393837D01*
X131777833Y-108250976D01*
X131808000Y-108099316D01*
X131808000Y-107944684D01*
X131777833Y-107793024D01*
X131718658Y-107650163D01*
X131632749Y-107521592D01*
X131533157Y-107422000D01*
X131632749Y-107322408D01*
X131718658Y-107193837D01*
X131777833Y-107050976D01*
X131808000Y-106899316D01*
X131808000Y-106744684D01*
X131777833Y-106593024D01*
X131718658Y-106450163D01*
X131632749Y-106321592D01*
X131533157Y-106222000D01*
X131632749Y-106122408D01*
X131718658Y-105993837D01*
X131777833Y-105850976D01*
X131808000Y-105699316D01*
X131808000Y-105544684D01*
X131777833Y-105393024D01*
X131718658Y-105250163D01*
X131632749Y-105121592D01*
X131533157Y-105022000D01*
X131632749Y-104922408D01*
X131718658Y-104793837D01*
X131777833Y-104650976D01*
X131808000Y-104499316D01*
X131808000Y-104344684D01*
X131777833Y-104193024D01*
X131718658Y-104050163D01*
X131632749Y-103921592D01*
X131533157Y-103822000D01*
X131632749Y-103722408D01*
X131718658Y-103593837D01*
X131777833Y-103450976D01*
X131808000Y-103299316D01*
X131808000Y-103144684D01*
X131777833Y-102993024D01*
X131718658Y-102850163D01*
X131632749Y-102721592D01*
X131523408Y-102612251D01*
X131394837Y-102526342D01*
X131251976Y-102467167D01*
X131100316Y-102437000D01*
X130945684Y-102437000D01*
X130794024Y-102467167D01*
X130651163Y-102526342D01*
X130522592Y-102612251D01*
X130423000Y-102711843D01*
X130323408Y-102612251D01*
X130194837Y-102526342D01*
X130051976Y-102467167D01*
X129900316Y-102437000D01*
X129745684Y-102437000D01*
X129594024Y-102467167D01*
X129451163Y-102526342D01*
X129322592Y-102612251D01*
X129223000Y-102711843D01*
X129123408Y-102612251D01*
X128994837Y-102526342D01*
X128851976Y-102467167D01*
X128700316Y-102437000D01*
X128545684Y-102437000D01*
X128394024Y-102467167D01*
X128251163Y-102526342D01*
X128122592Y-102612251D01*
X128023000Y-102711843D01*
X127923408Y-102612251D01*
X127794837Y-102526342D01*
X127651976Y-102467167D01*
X127500316Y-102437000D01*
X127345684Y-102437000D01*
X127194024Y-102467167D01*
X127051163Y-102526342D01*
X126922592Y-102612251D01*
X126823000Y-102711843D01*
X126723408Y-102612251D01*
X126594837Y-102526342D01*
X126451976Y-102467167D01*
X126300316Y-102437000D01*
X126145684Y-102437000D01*
X125994024Y-102467167D01*
X125851163Y-102526342D01*
X125722592Y-102612251D01*
X125613251Y-102721592D01*
X125527342Y-102850163D01*
X125468167Y-102993024D01*
X125438000Y-103144684D01*
X123343072Y-103144684D01*
X123343072Y-102635000D01*
X123330812Y-102510518D01*
X123294502Y-102390820D01*
X123235537Y-102280506D01*
X123156185Y-102183815D01*
X123059494Y-102104463D01*
X122949180Y-102045498D01*
X122829482Y-102009188D01*
X122705000Y-101996928D01*
X122643204Y-101996928D01*
X122933140Y-101706992D01*
X122976449Y-101671449D01*
X123118284Y-101498623D01*
X123223676Y-101301446D01*
X123288577Y-101087498D01*
X123305000Y-100920751D01*
X123305000Y-100920743D01*
X123310490Y-100865001D01*
X123305000Y-100809259D01*
X123305000Y-100359248D01*
X123288577Y-100192501D01*
X123280790Y-100166831D01*
X123266488Y-100021623D01*
X123217375Y-99859717D01*
X123137618Y-99710503D01*
X123079758Y-99640000D01*
X123137618Y-99569497D01*
X123217375Y-99420283D01*
X123266488Y-99258377D01*
X123283072Y-99090000D01*
X123283072Y-98640000D01*
X123266488Y-98471623D01*
X123217375Y-98309717D01*
X123137618Y-98160503D01*
X123030284Y-98029716D01*
X122899497Y-97922382D01*
X122750283Y-97842625D01*
X122588377Y-97793512D01*
X122420000Y-97776928D01*
X121920000Y-97776928D01*
X121751623Y-97793512D01*
X121699417Y-97809348D01*
X121690252Y-97398160D01*
X121716008Y-97313254D01*
X121733072Y-97140000D01*
X121733072Y-96852607D01*
X122019140Y-96703072D01*
X122432500Y-96703072D01*
X122603316Y-96686248D01*
X122767567Y-96636423D01*
X122784259Y-96627501D01*
X123639844Y-96687380D01*
G37*
%TD.AperFunction*%
%TD*%
D38*
%TO.N,Net-(C13-Pad2)*%
X119151479Y-105033000D02*
X118962294Y-105033000D01*
X118956262Y-105023972D01*
X118826028Y-104893738D01*
X118672889Y-104791414D01*
X118502729Y-104720932D01*
X118322089Y-104685000D01*
X118137911Y-104685000D01*
X117957271Y-104720932D01*
X117787111Y-104791414D01*
X117701145Y-104848855D01*
X117636028Y-104783738D01*
X117482889Y-104681414D01*
X117478907Y-104679764D01*
X117485144Y-103108069D01*
X117588489Y-103065262D01*
X117741628Y-102962938D01*
X117871862Y-102832704D01*
X117915764Y-102767000D01*
X119124503Y-102767000D01*
X119151479Y-105033000D01*
%TA.AperFunction,Conductor*%
D39*
G36*
X119151479Y-105033000D02*
G01*
X118962294Y-105033000D01*
X118956262Y-105023972D01*
X118826028Y-104893738D01*
X118672889Y-104791414D01*
X118502729Y-104720932D01*
X118322089Y-104685000D01*
X118137911Y-104685000D01*
X117957271Y-104720932D01*
X117787111Y-104791414D01*
X117701145Y-104848855D01*
X117636028Y-104783738D01*
X117482889Y-104681414D01*
X117478907Y-104679764D01*
X117485144Y-103108069D01*
X117588489Y-103065262D01*
X117741628Y-102962938D01*
X117871862Y-102832704D01*
X117915764Y-102767000D01*
X119124503Y-102767000D01*
X119151479Y-105033000D01*
G37*
%TD.AperFunction*%
%TD*%
M02*
