%TF.GenerationSoftware,KiCad,Pcbnew,(5.1.8-0-10_14)*%
%TF.CreationDate,2021-05-13T19:53:47+02:00*%
%TF.ProjectId,Nauthiluscontroller,4e617574-6869-46c7-9573-636f6e74726f,rev?*%
%TF.SameCoordinates,Original*%
%TF.FileFunction,Legend,Top*%
%TF.FilePolarity,Positive*%
%FSLAX46Y46*%
G04 Gerber Fmt 4.6, Leading zero omitted, Abs format (unit mm)*
G04 Created by KiCad (PCBNEW (5.1.8-0-10_14)) date 2021-05-13 19:53:47*
%MOMM*%
%LPD*%
G01*
G04 APERTURE LIST*
%ADD10C,0.120000*%
%ADD11C,0.200000*%
%ADD12C,0.150000*%
%ADD13C,0.100000*%
%ADD14C,0.125000*%
%ADD15C,0.127000*%
%ADD16C,0.062500*%
G04 APERTURE END LIST*
D10*
X129860000Y-111680000D02*
G75*
G03*
X129860000Y-111680000I-500000J0D01*
G01*
X133180000Y-111670000D02*
G75*
G03*
X133180000Y-111670000I-500000J0D01*
G01*
X131290000Y-111920000D02*
G75*
G03*
X131290000Y-111920000I-500000J0D01*
G01*
X135700000Y-112300000D02*
G75*
G03*
X135700000Y-112300000I-500000J0D01*
G01*
X137340000Y-113590000D02*
G75*
G03*
X137340000Y-113590000I-500000J0D01*
G01*
X136610000Y-114880000D02*
G75*
G03*
X136610000Y-114880000I-500000J0D01*
G01*
X133290000Y-114200000D02*
G75*
G03*
X133290000Y-114200000I-500000J0D01*
G01*
X132250000Y-114810000D02*
G75*
G03*
X132250000Y-114810000I-500000J0D01*
G01*
X136590000Y-116020000D02*
G75*
G03*
X136590000Y-116020000I-500000J0D01*
G01*
X127700000Y-114180000D02*
G75*
G03*
X127700000Y-114180000I-500000J0D01*
G01*
X134420000Y-116750000D02*
G75*
G03*
X134420000Y-116750000I-500000J0D01*
G01*
X144710000Y-98780000D02*
X144870000Y-98700000D01*
X144620000Y-98830000D02*
X144710000Y-98780000D01*
X144570000Y-98910000D02*
X144620000Y-98830000D01*
X144520000Y-98860000D02*
X144570000Y-98910000D01*
X144480000Y-98950000D02*
X144520000Y-98860000D01*
X144450000Y-98910000D02*
X144480000Y-98950000D01*
X144320000Y-99100000D02*
X144450000Y-98910000D01*
X144340000Y-98910000D02*
X144320000Y-99100000D01*
X144150000Y-99170000D02*
X144340000Y-98910000D01*
X144210000Y-98900000D02*
X144150000Y-99170000D01*
X144010000Y-99220000D02*
X144210000Y-98900000D01*
X144110000Y-98870000D02*
X144010000Y-99220000D01*
X143880000Y-99250000D02*
X144110000Y-98870000D01*
X144040000Y-98830000D02*
X143880000Y-99250000D01*
X143750000Y-99250000D02*
X144040000Y-98830000D01*
X143980000Y-98760000D02*
X143750000Y-99250000D01*
X143640000Y-99320000D02*
X143980000Y-98760000D01*
X143990000Y-98540000D02*
X143640000Y-99320000D01*
X143560000Y-99240000D02*
X143990000Y-98540000D01*
X143900000Y-98560000D02*
X143560000Y-99240000D01*
X143540000Y-99030000D02*
X143900000Y-98560000D01*
X143650000Y-98620000D02*
X143540000Y-99030000D01*
X143530000Y-98830000D02*
X143650000Y-98620000D01*
X144090000Y-98350000D02*
X143530000Y-98830000D01*
X143680000Y-98560000D02*
X144090000Y-98350000D01*
X144440000Y-97920000D02*
X143680000Y-98560000D01*
X143850000Y-98300000D02*
X144440000Y-97920000D01*
X143940000Y-98140000D02*
X143850000Y-98300000D01*
X144730000Y-97650000D02*
X143940000Y-98140000D01*
X144250000Y-97820000D02*
X144730000Y-97650000D01*
X145380000Y-97210000D02*
X144250000Y-97820000D01*
X146030000Y-97220000D02*
X145380000Y-97210000D01*
X145970000Y-97350000D02*
X146030000Y-97220000D01*
X145810000Y-97280000D02*
X145970000Y-97350000D01*
X145580000Y-97180000D02*
X145810000Y-97280000D01*
X146130000Y-97140000D02*
X145580000Y-97180000D01*
X145310000Y-97370000D02*
X146130000Y-97140000D01*
X144750000Y-97570000D02*
X145310000Y-97370000D01*
X145490000Y-97190000D02*
X144750000Y-97570000D01*
X144650000Y-97470000D02*
X145490000Y-97190000D01*
X145340000Y-97120000D02*
X144650000Y-97470000D01*
X146130000Y-97040000D02*
X145340000Y-97120000D01*
X146050000Y-97370000D02*
X146130000Y-97040000D01*
X146310000Y-97590000D02*
X146050000Y-97370000D01*
X146250000Y-97740000D02*
X146310000Y-97590000D01*
X146130000Y-97500000D02*
X146250000Y-97740000D01*
X146160000Y-97610000D02*
X146130000Y-97500000D01*
X146400000Y-97170000D02*
X146160000Y-97610000D01*
X146120000Y-97490000D02*
X146400000Y-97170000D01*
X146240000Y-97050000D02*
X146120000Y-97490000D01*
X146350000Y-97100000D02*
X146240000Y-97050000D01*
X146140000Y-97840000D02*
X146350000Y-97100000D01*
X146180000Y-97710000D02*
X146140000Y-97840000D01*
X146480000Y-97190000D02*
X146180000Y-97710000D01*
X146500000Y-97380000D02*
X146480000Y-97190000D01*
X146140000Y-98020000D02*
X146500000Y-97380000D01*
X145940000Y-98620000D02*
X146140000Y-98020000D01*
X145830000Y-98780000D02*
X145940000Y-98620000D01*
X145880000Y-98780000D02*
X145830000Y-98780000D01*
X146460000Y-97730000D02*
X145880000Y-98780000D01*
X146530000Y-97530000D02*
X146460000Y-97730000D01*
X145770000Y-98670000D02*
X146530000Y-97530000D01*
X145670000Y-98850000D02*
X145770000Y-98670000D01*
X144830000Y-99650000D02*
X145670000Y-98850000D01*
X145680000Y-99040000D02*
X144830000Y-99650000D01*
X144860000Y-99740000D02*
X145680000Y-99040000D01*
X144740000Y-99670000D02*
X144860000Y-99740000D01*
X145790000Y-98860000D02*
X144740000Y-99670000D01*
X145700000Y-98770000D02*
X145790000Y-98860000D01*
X144720000Y-99590000D02*
X145700000Y-98770000D01*
X144770000Y-99740000D02*
X144720000Y-99590000D01*
X144070000Y-100220000D02*
X144770000Y-99740000D01*
X144730000Y-99680000D02*
X144070000Y-100220000D01*
X143700000Y-100360000D02*
X144730000Y-99680000D01*
X144670000Y-99610000D02*
X143700000Y-100360000D01*
X143430000Y-100440000D02*
X144670000Y-99610000D01*
X144440000Y-99720000D02*
X143430000Y-100440000D01*
X144050000Y-99880000D02*
X144440000Y-99720000D01*
X143340000Y-100430000D02*
X144050000Y-99880000D01*
X143790000Y-99990000D02*
X143340000Y-100430000D01*
X143130000Y-100520000D02*
X143790000Y-99990000D01*
X143030000Y-100500000D02*
X143130000Y-100520000D01*
X143620000Y-100050000D02*
X143030000Y-100500000D01*
X143350000Y-100050000D02*
X143620000Y-100050000D01*
X143450000Y-100060000D02*
X143350000Y-100050000D01*
X142880000Y-100520000D02*
X143450000Y-100060000D01*
X143300000Y-100050000D02*
X142880000Y-100520000D01*
X142990000Y-100170000D02*
X143300000Y-100050000D01*
X143060000Y-100070000D02*
X142990000Y-100170000D01*
X142830000Y-99940000D02*
X143060000Y-100070000D01*
X143200000Y-99990000D02*
X142830000Y-99940000D01*
X142750000Y-100530000D02*
X143200000Y-99990000D01*
X142630000Y-100510000D02*
X142750000Y-100530000D01*
X143030000Y-100000000D02*
X142630000Y-100510000D01*
X142990000Y-99940000D02*
X143030000Y-100000000D01*
X142470000Y-100540000D02*
X142990000Y-99940000D01*
X142400000Y-100490000D02*
X142470000Y-100540000D01*
X142880000Y-99880000D02*
X142400000Y-100490000D01*
X142830000Y-99860000D02*
X142880000Y-99880000D01*
X142320000Y-100440000D02*
X142830000Y-99860000D01*
X142760000Y-99770000D02*
X142320000Y-100440000D01*
X142230000Y-100400000D02*
X142760000Y-99770000D01*
X142700000Y-99660000D02*
X142230000Y-100400000D01*
X142150000Y-100310000D02*
X142700000Y-99660000D01*
X142650000Y-99520000D02*
X142150000Y-100310000D01*
X142060000Y-100230000D02*
X142650000Y-99520000D01*
X142650000Y-99350000D02*
X142060000Y-100230000D01*
X142010000Y-100110000D02*
X142650000Y-99350000D01*
X142580000Y-99280000D02*
X142010000Y-100110000D01*
X141970000Y-99970000D02*
X142580000Y-99280000D01*
X142610000Y-99140000D02*
X141970000Y-99970000D01*
X141980000Y-99680000D02*
X142610000Y-99140000D01*
X142330000Y-99320000D02*
X141980000Y-99680000D01*
X142140000Y-99420000D02*
X142330000Y-99320000D01*
X142240000Y-99430000D02*
X142140000Y-99420000D01*
X141940000Y-99920000D02*
X142240000Y-99430000D01*
X142670000Y-98960000D02*
X141940000Y-99920000D01*
X142080000Y-99330000D02*
X142670000Y-98960000D01*
X142710000Y-98800000D02*
X142080000Y-99330000D01*
X141960000Y-99630000D02*
X142710000Y-98800000D01*
X142370000Y-98880000D02*
X141960000Y-99630000D01*
X142230000Y-98990000D02*
X142370000Y-98880000D01*
X142250000Y-98890000D02*
X142230000Y-98990000D01*
X142750000Y-98660000D02*
X142250000Y-98890000D01*
X142090000Y-99190000D02*
X142750000Y-98660000D01*
X142180000Y-98890000D02*
X142090000Y-99190000D01*
X142870000Y-98500000D02*
X142180000Y-98890000D01*
X142350000Y-98780000D02*
X142870000Y-98500000D01*
X142550000Y-98460000D02*
X142350000Y-98780000D01*
X142940000Y-98370000D02*
X142550000Y-98460000D01*
X142430000Y-98620000D02*
X142940000Y-98370000D01*
X143140000Y-98110000D02*
X142430000Y-98620000D01*
X142560000Y-98420000D02*
X143140000Y-98110000D01*
X143220000Y-97930000D02*
X142560000Y-98420000D01*
X143370000Y-97800000D02*
X143220000Y-97930000D01*
X142770000Y-98180000D02*
X143370000Y-97800000D01*
X143970000Y-97260000D02*
X142770000Y-98180000D01*
X133930000Y-99540000D02*
X134030000Y-99540000D01*
X134050000Y-99570000D02*
X133930000Y-99540000D01*
X133930000Y-99500000D02*
X134050000Y-99570000D01*
D11*
X132710000Y-96340000D02*
X132710000Y-99900000D01*
D12*
X160297142Y-96708571D02*
X160582857Y-96708571D01*
X160582857Y-97308571D01*
X160011428Y-96708571D02*
X160068571Y-96737142D01*
X160097142Y-96794285D01*
X160097142Y-97308571D01*
X159697142Y-96708571D02*
X159754285Y-96737142D01*
X159782857Y-96765714D01*
X159811428Y-96822857D01*
X159811428Y-96994285D01*
X159782857Y-97051428D01*
X159754285Y-97080000D01*
X159697142Y-97108571D01*
X159611428Y-97108571D01*
X159554285Y-97080000D01*
X159525714Y-97051428D01*
X159497142Y-96994285D01*
X159497142Y-96822857D01*
X159525714Y-96765714D01*
X159554285Y-96737142D01*
X159611428Y-96708571D01*
X159697142Y-96708571D01*
X159240000Y-97108571D02*
X159240000Y-96508571D01*
X159240000Y-97080000D02*
X159182857Y-97108571D01*
X159068571Y-97108571D01*
X159011428Y-97080000D01*
X158982857Y-97051428D01*
X158954285Y-96994285D01*
X158954285Y-96822857D01*
X158982857Y-96765714D01*
X159011428Y-96737142D01*
X159068571Y-96708571D01*
X159182857Y-96708571D01*
X159240000Y-96737142D01*
X158697142Y-96708571D02*
X158697142Y-97108571D01*
X158697142Y-97308571D02*
X158725714Y-97280000D01*
X158697142Y-97251428D01*
X158668571Y-97280000D01*
X158697142Y-97308571D01*
X158697142Y-97251428D01*
X158440000Y-96737142D02*
X158382857Y-96708571D01*
X158268571Y-96708571D01*
X158211428Y-96737142D01*
X158182857Y-96794285D01*
X158182857Y-96822857D01*
X158211428Y-96880000D01*
X158268571Y-96908571D01*
X158354285Y-96908571D01*
X158411428Y-96937142D01*
X158440000Y-96994285D01*
X158440000Y-97022857D01*
X158411428Y-97080000D01*
X158354285Y-97108571D01*
X158268571Y-97108571D01*
X158211428Y-97080000D01*
X157468571Y-96708571D02*
X157468571Y-97308571D01*
X157325714Y-97308571D01*
X157240000Y-97280000D01*
X157182857Y-97222857D01*
X157154285Y-97165714D01*
X157125714Y-97051428D01*
X157125714Y-96965714D01*
X157154285Y-96851428D01*
X157182857Y-96794285D01*
X157240000Y-96737142D01*
X157325714Y-96708571D01*
X157468571Y-96708571D01*
X156640000Y-96737142D02*
X156697142Y-96708571D01*
X156811428Y-96708571D01*
X156868571Y-96737142D01*
X156897142Y-96794285D01*
X156897142Y-97022857D01*
X156868571Y-97080000D01*
X156811428Y-97108571D01*
X156697142Y-97108571D01*
X156640000Y-97080000D01*
X156611428Y-97022857D01*
X156611428Y-96965714D01*
X156897142Y-96908571D01*
X156411428Y-97108571D02*
X156268571Y-96708571D01*
X156125714Y-97108571D01*
X155668571Y-96737142D02*
X155725714Y-96708571D01*
X155840000Y-96708571D01*
X155897142Y-96737142D01*
X155925714Y-96794285D01*
X155925714Y-97022857D01*
X155897142Y-97080000D01*
X155840000Y-97108571D01*
X155725714Y-97108571D01*
X155668571Y-97080000D01*
X155640000Y-97022857D01*
X155640000Y-96965714D01*
X155925714Y-96908571D01*
X155297142Y-96708571D02*
X155354285Y-96737142D01*
X155382857Y-96794285D01*
X155382857Y-97308571D01*
X154982857Y-96708571D02*
X155040000Y-96737142D01*
X155068571Y-96765714D01*
X155097142Y-96822857D01*
X155097142Y-96994285D01*
X155068571Y-97051428D01*
X155040000Y-97080000D01*
X154982857Y-97108571D01*
X154897142Y-97108571D01*
X154840000Y-97080000D01*
X154811428Y-97051428D01*
X154782857Y-96994285D01*
X154782857Y-96822857D01*
X154811428Y-96765714D01*
X154840000Y-96737142D01*
X154897142Y-96708571D01*
X154982857Y-96708571D01*
X154525714Y-97108571D02*
X154525714Y-96508571D01*
X154525714Y-97080000D02*
X154468571Y-97108571D01*
X154354285Y-97108571D01*
X154297142Y-97080000D01*
X154268571Y-97051428D01*
X154240000Y-96994285D01*
X154240000Y-96822857D01*
X154268571Y-96765714D01*
X154297142Y-96737142D01*
X154354285Y-96708571D01*
X154468571Y-96708571D01*
X154525714Y-96737142D01*
X153982857Y-96708571D02*
X153982857Y-97108571D01*
X153982857Y-97051428D02*
X153954285Y-97080000D01*
X153897142Y-97108571D01*
X153811428Y-97108571D01*
X153754285Y-97080000D01*
X153725714Y-97022857D01*
X153725714Y-96708571D01*
X153725714Y-97022857D02*
X153697142Y-97080000D01*
X153640000Y-97108571D01*
X153554285Y-97108571D01*
X153497142Y-97080000D01*
X153468571Y-97022857D01*
X153468571Y-96708571D01*
X152954285Y-96737142D02*
X153011428Y-96708571D01*
X153125714Y-96708571D01*
X153182857Y-96737142D01*
X153211428Y-96794285D01*
X153211428Y-97022857D01*
X153182857Y-97080000D01*
X153125714Y-97108571D01*
X153011428Y-97108571D01*
X152954285Y-97080000D01*
X152925714Y-97022857D01*
X152925714Y-96965714D01*
X153211428Y-96908571D01*
X152668571Y-97108571D02*
X152668571Y-96708571D01*
X152668571Y-97051428D02*
X152640000Y-97080000D01*
X152582857Y-97108571D01*
X152497142Y-97108571D01*
X152440000Y-97080000D01*
X152411428Y-97022857D01*
X152411428Y-96708571D01*
X152211428Y-97108571D02*
X151982857Y-97108571D01*
X152125714Y-97308571D02*
X152125714Y-96794285D01*
X152097142Y-96737142D01*
X152040000Y-96708571D01*
X151982857Y-96708571D01*
X151811428Y-96737142D02*
X151754285Y-96708571D01*
X151640000Y-96708571D01*
X151582857Y-96737142D01*
X151554285Y-96794285D01*
X151554285Y-96822857D01*
X151582857Y-96880000D01*
X151640000Y-96908571D01*
X151725714Y-96908571D01*
X151782857Y-96937142D01*
X151811428Y-96994285D01*
X151811428Y-97022857D01*
X151782857Y-97080000D01*
X151725714Y-97108571D01*
X151640000Y-97108571D01*
X151582857Y-97080000D01*
X150840000Y-96708571D02*
X150840000Y-97308571D01*
X150554285Y-97108571D02*
X150554285Y-96708571D01*
X150554285Y-97051428D02*
X150525714Y-97080000D01*
X150468571Y-97108571D01*
X150382857Y-97108571D01*
X150325714Y-97080000D01*
X150297142Y-97022857D01*
X150297142Y-96708571D01*
X149754285Y-96737142D02*
X149811428Y-96708571D01*
X149925714Y-96708571D01*
X149982857Y-96737142D01*
X150011428Y-96765714D01*
X150040000Y-96822857D01*
X150040000Y-96994285D01*
X150011428Y-97051428D01*
X149982857Y-97080000D01*
X149925714Y-97108571D01*
X149811428Y-97108571D01*
X149754285Y-97080000D01*
X149497142Y-96765714D02*
X149468571Y-96737142D01*
X149497142Y-96708571D01*
X149525714Y-96737142D01*
X149497142Y-96765714D01*
X149497142Y-96708571D01*
D11*
X146122228Y-102912228D02*
G75*
G03*
X146122228Y-102912228I-562228J0D01*
G01*
D13*
X163167619Y-92476666D02*
X163143809Y-92548095D01*
X163143809Y-92667142D01*
X163167619Y-92714761D01*
X163191428Y-92738571D01*
X163239047Y-92762380D01*
X163286666Y-92762380D01*
X163334285Y-92738571D01*
X163358095Y-92714761D01*
X163381904Y-92667142D01*
X163405714Y-92571904D01*
X163429523Y-92524285D01*
X163453333Y-92500476D01*
X163500952Y-92476666D01*
X163548571Y-92476666D01*
X163596190Y-92500476D01*
X163620000Y-92524285D01*
X163643809Y-92571904D01*
X163643809Y-92690952D01*
X163620000Y-92762380D01*
X163477142Y-92905238D02*
X163477142Y-93095714D01*
X163643809Y-92976666D02*
X163215238Y-92976666D01*
X163167619Y-93000476D01*
X163143809Y-93048095D01*
X163143809Y-93095714D01*
X163143809Y-93476666D02*
X163405714Y-93476666D01*
X163453333Y-93452857D01*
X163477142Y-93405238D01*
X163477142Y-93310000D01*
X163453333Y-93262380D01*
X163167619Y-93476666D02*
X163143809Y-93429047D01*
X163143809Y-93310000D01*
X163167619Y-93262380D01*
X163215238Y-93238571D01*
X163262857Y-93238571D01*
X163310476Y-93262380D01*
X163334285Y-93310000D01*
X163334285Y-93429047D01*
X163358095Y-93476666D01*
X163477142Y-93643333D02*
X163477142Y-93833809D01*
X163643809Y-93714761D02*
X163215238Y-93714761D01*
X163167619Y-93738571D01*
X163143809Y-93786190D01*
X163143809Y-93833809D01*
X163477142Y-94214761D02*
X163143809Y-94214761D01*
X163477142Y-94000476D02*
X163215238Y-94000476D01*
X163167619Y-94024285D01*
X163143809Y-94071904D01*
X163143809Y-94143333D01*
X163167619Y-94190952D01*
X163191428Y-94214761D01*
X163167619Y-94429047D02*
X163143809Y-94476666D01*
X163143809Y-94571904D01*
X163167619Y-94619523D01*
X163215238Y-94643333D01*
X163239047Y-94643333D01*
X163286666Y-94619523D01*
X163310476Y-94571904D01*
X163310476Y-94500476D01*
X163334285Y-94452857D01*
X163381904Y-94429047D01*
X163405714Y-94429047D01*
X163453333Y-94452857D01*
X163477142Y-94500476D01*
X163477142Y-94571904D01*
X163453333Y-94619523D01*
X118546666Y-95983809D02*
X118546666Y-96483809D01*
X118356190Y-96483809D01*
X118308571Y-96460000D01*
X118284761Y-96436190D01*
X118260952Y-96388571D01*
X118260952Y-96317142D01*
X118284761Y-96269523D01*
X118308571Y-96245714D01*
X118356190Y-96221904D01*
X118546666Y-96221904D01*
X118094285Y-96483809D02*
X117975238Y-95983809D01*
X117880000Y-96340952D01*
X117784761Y-95983809D01*
X117665714Y-96483809D01*
X117189523Y-95983809D02*
X117356190Y-96221904D01*
X117475238Y-95983809D02*
X117475238Y-96483809D01*
X117284761Y-96483809D01*
X117237142Y-96460000D01*
X117213333Y-96436190D01*
X117189523Y-96388571D01*
X117189523Y-96317142D01*
X117213333Y-96269523D01*
X117237142Y-96245714D01*
X117284761Y-96221904D01*
X117475238Y-96221904D01*
X122184761Y-113683809D02*
X122184761Y-114017142D01*
X122184761Y-113969523D02*
X122160952Y-113993333D01*
X122113333Y-114017142D01*
X122041904Y-114017142D01*
X121994285Y-113993333D01*
X121970476Y-113945714D01*
X121970476Y-113683809D01*
X121970476Y-113945714D02*
X121946666Y-113993333D01*
X121899047Y-114017142D01*
X121827619Y-114017142D01*
X121780000Y-113993333D01*
X121756190Y-113945714D01*
X121756190Y-113683809D01*
X121351428Y-113945714D02*
X121518095Y-113945714D01*
X121518095Y-113683809D02*
X121518095Y-114183809D01*
X121280000Y-114183809D01*
X120875238Y-113683809D02*
X120875238Y-113945714D01*
X120899047Y-113993333D01*
X120946666Y-114017142D01*
X121041904Y-114017142D01*
X121089523Y-113993333D01*
X120875238Y-113707619D02*
X120922857Y-113683809D01*
X121041904Y-113683809D01*
X121089523Y-113707619D01*
X121113333Y-113755238D01*
X121113333Y-113802857D01*
X121089523Y-113850476D01*
X121041904Y-113874285D01*
X120922857Y-113874285D01*
X120875238Y-113898095D01*
X120422857Y-114017142D02*
X120422857Y-113683809D01*
X120637142Y-114017142D02*
X120637142Y-113755238D01*
X120613333Y-113707619D01*
X120565714Y-113683809D01*
X120494285Y-113683809D01*
X120446666Y-113707619D01*
X120422857Y-113731428D01*
X120113333Y-113683809D02*
X120160952Y-113707619D01*
X120184761Y-113755238D01*
X120184761Y-114183809D01*
X119994285Y-114017142D02*
X119803809Y-114017142D01*
X119922857Y-114183809D02*
X119922857Y-113755238D01*
X119899047Y-113707619D01*
X119851428Y-113683809D01*
X119803809Y-113683809D01*
X145376190Y-114468095D02*
X145376190Y-114158571D01*
X145566666Y-114325238D01*
X145566666Y-114253809D01*
X145590476Y-114206190D01*
X145614285Y-114182380D01*
X145661904Y-114158571D01*
X145780952Y-114158571D01*
X145828571Y-114182380D01*
X145852380Y-114206190D01*
X145876190Y-114253809D01*
X145876190Y-114396666D01*
X145852380Y-114444285D01*
X145828571Y-114468095D01*
X145828571Y-113944285D02*
X145852380Y-113920476D01*
X145876190Y-113944285D01*
X145852380Y-113968095D01*
X145828571Y-113944285D01*
X145876190Y-113944285D01*
X145376190Y-113753809D02*
X145376190Y-113444285D01*
X145566666Y-113610952D01*
X145566666Y-113539523D01*
X145590476Y-113491904D01*
X145614285Y-113468095D01*
X145661904Y-113444285D01*
X145780952Y-113444285D01*
X145828571Y-113468095D01*
X145852380Y-113491904D01*
X145876190Y-113539523D01*
X145876190Y-113682380D01*
X145852380Y-113730000D01*
X145828571Y-113753809D01*
X145376190Y-113301428D02*
X145876190Y-113134761D01*
X145376190Y-112968095D01*
X146610000Y-114190952D02*
X146586190Y-114238571D01*
X146586190Y-114310000D01*
X146610000Y-114381428D01*
X146657619Y-114429047D01*
X146705238Y-114452857D01*
X146800476Y-114476666D01*
X146871904Y-114476666D01*
X146967142Y-114452857D01*
X147014761Y-114429047D01*
X147062380Y-114381428D01*
X147086190Y-114310000D01*
X147086190Y-114262380D01*
X147062380Y-114190952D01*
X147038571Y-114167142D01*
X146871904Y-114167142D01*
X146871904Y-114262380D01*
X147086190Y-113952857D02*
X146586190Y-113952857D01*
X147086190Y-113667142D01*
X146586190Y-113667142D01*
X147086190Y-113429047D02*
X146586190Y-113429047D01*
X146586190Y-113310000D01*
X146610000Y-113238571D01*
X146657619Y-113190952D01*
X146705238Y-113167142D01*
X146800476Y-113143333D01*
X146871904Y-113143333D01*
X146967142Y-113167142D01*
X147014761Y-113190952D01*
X147062380Y-113238571D01*
X147086190Y-113310000D01*
X147086190Y-113429047D01*
X148346190Y-114421904D02*
X147846190Y-114421904D01*
X147846190Y-114302857D01*
X147870000Y-114231428D01*
X147917619Y-114183809D01*
X147965238Y-114160000D01*
X148060476Y-114136190D01*
X148131904Y-114136190D01*
X148227142Y-114160000D01*
X148274761Y-114183809D01*
X148322380Y-114231428D01*
X148346190Y-114302857D01*
X148346190Y-114421904D01*
X148346190Y-113921904D02*
X147846190Y-113921904D01*
X147846190Y-113588571D02*
X147846190Y-113493333D01*
X147870000Y-113445714D01*
X147917619Y-113398095D01*
X148012857Y-113374285D01*
X148179523Y-113374285D01*
X148274761Y-113398095D01*
X148322380Y-113445714D01*
X148346190Y-113493333D01*
X148346190Y-113588571D01*
X148322380Y-113636190D01*
X148274761Y-113683809D01*
X148179523Y-113707619D01*
X148012857Y-113707619D01*
X147917619Y-113683809D01*
X147870000Y-113636190D01*
X147846190Y-113588571D01*
X149548571Y-114217619D02*
X149572380Y-114241428D01*
X149596190Y-114312857D01*
X149596190Y-114360476D01*
X149572380Y-114431904D01*
X149524761Y-114479523D01*
X149477142Y-114503333D01*
X149381904Y-114527142D01*
X149310476Y-114527142D01*
X149215238Y-114503333D01*
X149167619Y-114479523D01*
X149120000Y-114431904D01*
X149096190Y-114360476D01*
X149096190Y-114312857D01*
X149120000Y-114241428D01*
X149143809Y-114217619D01*
X149596190Y-113765238D02*
X149596190Y-114003333D01*
X149096190Y-114003333D01*
X149596190Y-113598571D02*
X149096190Y-113598571D01*
X149596190Y-113312857D02*
X149310476Y-113527142D01*
X149096190Y-113312857D02*
X149381904Y-113598571D01*
D14*
X126565714Y-118062380D02*
X126541904Y-118110000D01*
X126494285Y-118157619D01*
X126375238Y-118157619D01*
X126327619Y-118110000D01*
X126303809Y-118062380D01*
X126280000Y-117967142D01*
X126280000Y-117871904D01*
X126303809Y-117729047D01*
X126589523Y-117157619D01*
X126280000Y-117157619D01*
X125970476Y-118157619D02*
X125922857Y-118157619D01*
X125875238Y-118110000D01*
X125851428Y-118062380D01*
X125827619Y-117967142D01*
X125803809Y-117776666D01*
X125803809Y-117538571D01*
X125827619Y-117348095D01*
X125851428Y-117252857D01*
X125875238Y-117205238D01*
X125922857Y-117157619D01*
X125970476Y-117157619D01*
X126018095Y-117205238D01*
X126041904Y-117252857D01*
X126065714Y-117348095D01*
X126089523Y-117538571D01*
X126089523Y-117776666D01*
X126065714Y-117967142D01*
X126041904Y-118062380D01*
X126018095Y-118110000D01*
X125970476Y-118157619D01*
X125613333Y-118062380D02*
X125589523Y-118110000D01*
X125541904Y-118157619D01*
X125422857Y-118157619D01*
X125375238Y-118110000D01*
X125351428Y-118062380D01*
X125327619Y-117967142D01*
X125327619Y-117871904D01*
X125351428Y-117729047D01*
X125637142Y-117157619D01*
X125327619Y-117157619D01*
X124851428Y-117157619D02*
X125137142Y-117157619D01*
X124994285Y-117157619D02*
X124994285Y-118157619D01*
X125041904Y-118014761D01*
X125089523Y-117919523D01*
X125137142Y-117871904D01*
X123899047Y-118205238D02*
X124327619Y-116919523D01*
X123065714Y-117157619D02*
X123232380Y-117633809D01*
X123351428Y-117157619D02*
X123351428Y-118157619D01*
X123160952Y-118157619D01*
X123113333Y-118110000D01*
X123089523Y-118062380D01*
X123065714Y-117967142D01*
X123065714Y-117824285D01*
X123089523Y-117729047D01*
X123113333Y-117681428D01*
X123160952Y-117633809D01*
X123351428Y-117633809D01*
X122208571Y-117157619D02*
X122494285Y-117157619D01*
X122351428Y-117157619D02*
X122351428Y-118157619D01*
X122399047Y-118014761D01*
X122446666Y-117919523D01*
X122494285Y-117871904D01*
X121994285Y-117252857D02*
X121970476Y-117205238D01*
X121994285Y-117157619D01*
X122018095Y-117205238D01*
X121994285Y-117252857D01*
X121994285Y-117157619D01*
X121494285Y-117157619D02*
X121780000Y-117157619D01*
X121637142Y-117157619D02*
X121637142Y-118157619D01*
X121684761Y-118014761D01*
X121732380Y-117919523D01*
X121780000Y-117871904D01*
D13*
X131872142Y-97070714D02*
X131872142Y-97820714D01*
X131515000Y-97570714D02*
X131515000Y-97070714D01*
X131515000Y-97499285D02*
X131479285Y-97535000D01*
X131407857Y-97570714D01*
X131300714Y-97570714D01*
X131229285Y-97535000D01*
X131193571Y-97463571D01*
X131193571Y-97070714D01*
X130872142Y-97106428D02*
X130800714Y-97070714D01*
X130657857Y-97070714D01*
X130586428Y-97106428D01*
X130550714Y-97177857D01*
X130550714Y-97213571D01*
X130586428Y-97285000D01*
X130657857Y-97320714D01*
X130765000Y-97320714D01*
X130836428Y-97356428D01*
X130872142Y-97427857D01*
X130872142Y-97463571D01*
X130836428Y-97535000D01*
X130765000Y-97570714D01*
X130657857Y-97570714D01*
X130586428Y-97535000D01*
X130229285Y-97070714D02*
X130229285Y-97570714D01*
X130229285Y-97820714D02*
X130265000Y-97785000D01*
X130229285Y-97749285D01*
X130193571Y-97785000D01*
X130229285Y-97820714D01*
X130229285Y-97749285D01*
X129550714Y-97070714D02*
X129550714Y-97820714D01*
X129550714Y-97106428D02*
X129622142Y-97070714D01*
X129765000Y-97070714D01*
X129836428Y-97106428D01*
X129872142Y-97142142D01*
X129907857Y-97213571D01*
X129907857Y-97427857D01*
X129872142Y-97499285D01*
X129836428Y-97535000D01*
X129765000Y-97570714D01*
X129622142Y-97570714D01*
X129550714Y-97535000D01*
X128907857Y-97106428D02*
X128979285Y-97070714D01*
X129122142Y-97070714D01*
X129193571Y-97106428D01*
X129229285Y-97177857D01*
X129229285Y-97463571D01*
X129193571Y-97535000D01*
X129122142Y-97570714D01*
X128979285Y-97570714D01*
X128907857Y-97535000D01*
X128872142Y-97463571D01*
X128872142Y-97392142D01*
X129229285Y-97320714D01*
X131779285Y-98326428D02*
X131672142Y-98290714D01*
X131493571Y-98290714D01*
X131422142Y-98326428D01*
X131386428Y-98362142D01*
X131350714Y-98433571D01*
X131350714Y-98505000D01*
X131386428Y-98576428D01*
X131422142Y-98612142D01*
X131493571Y-98647857D01*
X131636428Y-98683571D01*
X131707857Y-98719285D01*
X131743571Y-98755000D01*
X131779285Y-98826428D01*
X131779285Y-98897857D01*
X131743571Y-98969285D01*
X131707857Y-99005000D01*
X131636428Y-99040714D01*
X131457857Y-99040714D01*
X131350714Y-99005000D01*
X131029285Y-98290714D02*
X131029285Y-98790714D01*
X131029285Y-99040714D02*
X131065000Y-99005000D01*
X131029285Y-98969285D01*
X130993571Y-99005000D01*
X131029285Y-99040714D01*
X131029285Y-98969285D01*
X130672142Y-98290714D02*
X130672142Y-98790714D01*
X130672142Y-98719285D02*
X130636428Y-98755000D01*
X130565000Y-98790714D01*
X130457857Y-98790714D01*
X130386428Y-98755000D01*
X130350714Y-98683571D01*
X130350714Y-98290714D01*
X130350714Y-98683571D02*
X130315000Y-98755000D01*
X130243571Y-98790714D01*
X130136428Y-98790714D01*
X130065000Y-98755000D01*
X130029285Y-98683571D01*
X130029285Y-98290714D01*
X129672142Y-98790714D02*
X129672142Y-98040714D01*
X129672142Y-98755000D02*
X129600714Y-98790714D01*
X129457857Y-98790714D01*
X129386428Y-98755000D01*
X129350714Y-98719285D01*
X129315000Y-98647857D01*
X129315000Y-98433571D01*
X129350714Y-98362142D01*
X129386428Y-98326428D01*
X129457857Y-98290714D01*
X129600714Y-98290714D01*
X129672142Y-98326428D01*
X128886428Y-98290714D02*
X128957857Y-98326428D01*
X128993571Y-98397857D01*
X128993571Y-99040714D01*
X128315000Y-98326428D02*
X128386428Y-98290714D01*
X128529285Y-98290714D01*
X128600714Y-98326428D01*
X128636428Y-98397857D01*
X128636428Y-98683571D01*
X128600714Y-98755000D01*
X128529285Y-98790714D01*
X128386428Y-98790714D01*
X128315000Y-98755000D01*
X128279285Y-98683571D01*
X128279285Y-98612142D01*
X128636428Y-98540714D01*
X127707857Y-98683571D02*
X127957857Y-98683571D01*
X127957857Y-98290714D02*
X127957857Y-99040714D01*
X127600714Y-99040714D01*
X127172142Y-99040714D02*
X127029285Y-99040714D01*
X126957857Y-99005000D01*
X126886428Y-98933571D01*
X126850714Y-98790714D01*
X126850714Y-98540714D01*
X126886428Y-98397857D01*
X126957857Y-98326428D01*
X127029285Y-98290714D01*
X127172142Y-98290714D01*
X127243571Y-98326428D01*
X127315000Y-98397857D01*
X127350714Y-98540714D01*
X127350714Y-98790714D01*
X127315000Y-98933571D01*
X127243571Y-99005000D01*
X127172142Y-99040714D01*
X126100714Y-98362142D02*
X126136428Y-98326428D01*
X126243571Y-98290714D01*
X126315000Y-98290714D01*
X126422142Y-98326428D01*
X126493571Y-98397857D01*
X126529285Y-98469285D01*
X126565000Y-98612142D01*
X126565000Y-98719285D01*
X126529285Y-98862142D01*
X126493571Y-98933571D01*
X126422142Y-99005000D01*
X126315000Y-99040714D01*
X126243571Y-99040714D01*
X126136428Y-99005000D01*
X126100714Y-98969285D01*
D10*
%TO.C,Q2*%
X126245000Y-89600000D02*
X126545000Y-89600000D01*
X121475000Y-89600000D02*
X121175000Y-89600000D01*
X121525000Y-83480000D02*
X121175000Y-83480000D01*
X126545000Y-89600000D02*
X126545000Y-83480000D01*
X121175000Y-89600000D02*
X121175000Y-83480000D01*
%TO.C,Q6*%
X158675000Y-89350000D02*
X158975000Y-89350000D01*
X153905000Y-89350000D02*
X153605000Y-89350000D01*
X153955000Y-83230000D02*
X153605000Y-83230000D01*
X158975000Y-89350000D02*
X158975000Y-83230000D01*
X153605000Y-89350000D02*
X153605000Y-83230000D01*
%TO.C,Q7*%
X153205000Y-83210000D02*
X153205000Y-89330000D01*
X147835000Y-83210000D02*
X147835000Y-89330000D01*
X152855000Y-89330000D02*
X153205000Y-89330000D01*
X152905000Y-83210000D02*
X153205000Y-83210000D01*
X148135000Y-83210000D02*
X147835000Y-83210000D01*
%TO.C,R16*%
X134847500Y-109147742D02*
X134847500Y-109622258D01*
X135892500Y-109147742D02*
X135892500Y-109622258D01*
D15*
%TO.C,U11*%
X125473000Y-109222000D02*
X125023000Y-109222000D01*
X125023000Y-109222000D02*
X125023000Y-108772000D01*
X132223000Y-108772000D02*
X132223000Y-109222000D01*
X132223000Y-109222000D02*
X131773000Y-109222000D01*
X125023000Y-102472000D02*
X125023000Y-102022000D01*
X125023000Y-102022000D02*
X125473000Y-102022000D01*
X131773000Y-102022000D02*
X132223000Y-102022000D01*
X132223000Y-102022000D02*
X132223000Y-102472000D01*
D11*
X125923000Y-111222000D02*
G75*
G03*
X125923000Y-111222000I-100000J0D01*
G01*
D10*
%TO.C,C49*%
X149565000Y-94141252D02*
X149565000Y-93618748D01*
X151035000Y-94141252D02*
X151035000Y-93618748D01*
%TO.C,Q5*%
X133005000Y-83490000D02*
X132705000Y-83490000D01*
X137775000Y-83490000D02*
X138075000Y-83490000D01*
X137725000Y-89610000D02*
X138075000Y-89610000D01*
X132705000Y-83490000D02*
X132705000Y-89610000D01*
X138075000Y-83490000D02*
X138075000Y-89610000D01*
%TO.C,Q3*%
X132295000Y-83490000D02*
X132295000Y-89610000D01*
X126925000Y-83490000D02*
X126925000Y-89610000D01*
X131945000Y-89610000D02*
X132295000Y-89610000D01*
X131995000Y-83490000D02*
X132295000Y-83490000D01*
X127225000Y-83490000D02*
X126925000Y-83490000D01*
%TO.C,Q4*%
X138555000Y-89570000D02*
X138555000Y-83450000D01*
X143925000Y-89570000D02*
X143925000Y-83450000D01*
X138905000Y-83450000D02*
X138555000Y-83450000D01*
X138855000Y-89570000D02*
X138555000Y-89570000D01*
X143625000Y-89570000D02*
X143925000Y-89570000D01*
%TO.C,R22*%
X122977500Y-112897258D02*
X122977500Y-112422742D01*
X124022500Y-112897258D02*
X124022500Y-112422742D01*
%TO.C,C45*%
X134755000Y-94141252D02*
X134755000Y-93618748D01*
X136225000Y-94141252D02*
X136225000Y-93618748D01*
%TO.C,C58*%
X155480000Y-111773252D02*
X155480000Y-110350748D01*
X152760000Y-111773252D02*
X152760000Y-110350748D01*
%TO.C,R21*%
X125622500Y-112897258D02*
X125622500Y-112422742D01*
X124577500Y-112897258D02*
X124577500Y-112422742D01*
%TO.C,C26*%
X151880000Y-106673252D02*
X151880000Y-105250748D01*
X149160000Y-106673252D02*
X149160000Y-105250748D01*
%TO.C,C20*%
X156302000Y-101610752D02*
X156302000Y-100188248D01*
X159022000Y-101610752D02*
X159022000Y-100188248D01*
%TO.C,C40*%
X120616252Y-102340000D02*
X119193748Y-102340000D01*
X120616252Y-100520000D02*
X119193748Y-100520000D01*
%TO.C,C21*%
X159010000Y-106673252D02*
X159010000Y-105250748D01*
X156290000Y-106673252D02*
X156290000Y-105250748D01*
%TO.C,C24*%
X159862000Y-111773252D02*
X159862000Y-110350748D01*
X162582000Y-111773252D02*
X162582000Y-110350748D01*
%TO.C,C27*%
X159862000Y-106673252D02*
X159862000Y-105250748D01*
X162582000Y-106673252D02*
X162582000Y-105250748D01*
%TO.C,C28*%
X159010000Y-111773252D02*
X159010000Y-110350748D01*
X156290000Y-111773252D02*
X156290000Y-110350748D01*
%TO.C,C29*%
X135583733Y-101720000D02*
X135876267Y-101720000D01*
X135583733Y-100700000D02*
X135876267Y-100700000D01*
%TO.C,C31*%
X120494233Y-111345000D02*
X120786767Y-111345000D01*
X120494233Y-110325000D02*
X120786767Y-110325000D01*
%TO.C,C32*%
X137500000Y-108516267D02*
X137500000Y-108223733D01*
X136480000Y-108516267D02*
X136480000Y-108223733D01*
%TO.C,C33*%
X120494233Y-109757000D02*
X120786767Y-109757000D01*
X120494233Y-108737000D02*
X120786767Y-108737000D01*
%TO.C,C34*%
X135571233Y-102370000D02*
X135863767Y-102370000D01*
X135571233Y-103390000D02*
X135863767Y-103390000D01*
%TO.C,C35*%
X120758733Y-106495000D02*
X121051267Y-106495000D01*
X120758733Y-105475000D02*
X121051267Y-105475000D01*
%TO.C,C36*%
X118710000Y-105911252D02*
X118710000Y-104488748D01*
X116890000Y-105911252D02*
X116890000Y-104488748D01*
%TO.C,C38*%
X120973767Y-103920000D02*
X120681233Y-103920000D01*
X120973767Y-102900000D02*
X120681233Y-102900000D01*
%TO.C,C41*%
X120881267Y-99970000D02*
X120588733Y-99970000D01*
X120881267Y-98950000D02*
X120588733Y-98950000D01*
%TO.C,C42*%
X135591233Y-105060000D02*
X135883767Y-105060000D01*
X135591233Y-104040000D02*
X135883767Y-104040000D01*
%TO.C,C44*%
X123095000Y-94141252D02*
X123095000Y-93618748D01*
X124565000Y-94141252D02*
X124565000Y-93618748D01*
%TO.C,C54*%
X152760000Y-101610752D02*
X152760000Y-100188248D01*
X155480000Y-101610752D02*
X155480000Y-100188248D01*
%TO.C,C55*%
X155480000Y-106673252D02*
X155480000Y-105250748D01*
X152760000Y-106673252D02*
X152760000Y-105250748D01*
%TO.C,C56*%
X151880000Y-101610752D02*
X151880000Y-100188248D01*
X149160000Y-101610752D02*
X149160000Y-100188248D01*
%TO.C,C57*%
X159862000Y-101610752D02*
X159862000Y-100188248D01*
X162582000Y-101610752D02*
X162582000Y-100188248D01*
%TO.C,C59*%
X149160000Y-111773252D02*
X149160000Y-110350748D01*
X151880000Y-111773252D02*
X151880000Y-110350748D01*
%TO.C,R6*%
X140942258Y-115797500D02*
X140467742Y-115797500D01*
X140942258Y-116842500D02*
X140467742Y-116842500D01*
%TO.C,R7*%
X120667742Y-97337500D02*
X121142258Y-97337500D01*
X120667742Y-98382500D02*
X121142258Y-98382500D01*
%TO.C,R8*%
X139627500Y-113807742D02*
X139627500Y-114282258D01*
X138582500Y-113807742D02*
X138582500Y-114282258D01*
%TO.C,R9*%
X141227500Y-113803742D02*
X141227500Y-114278258D01*
X140182500Y-113803742D02*
X140182500Y-114278258D01*
%TO.C,R10*%
X141757500Y-114277258D02*
X141757500Y-113802742D01*
X142802500Y-114277258D02*
X142802500Y-113802742D01*
%TO.C,R11*%
X161547500Y-96132742D02*
X161547500Y-96607258D01*
X162592500Y-96132742D02*
X162592500Y-96607258D01*
%TO.C,R17*%
X120517742Y-107037500D02*
X120992258Y-107037500D01*
X120517742Y-108082500D02*
X120992258Y-108082500D01*
%TO.C,U5*%
X138840000Y-99640000D02*
X138840000Y-99450000D01*
X138880000Y-99750000D02*
X138840000Y-99640000D01*
X138920000Y-99840000D02*
X138880000Y-99750000D01*
D12*
X134394338Y-96975834D02*
X134414683Y-96835059D01*
X134529863Y-97334497D02*
X134442163Y-97207374D01*
X134442163Y-97207374D02*
X134399111Y-97054810D01*
X134399111Y-97054810D02*
X134394338Y-96975834D01*
X134889838Y-97475435D02*
X134734206Y-97455586D01*
X134734206Y-97455586D02*
X134593534Y-97389369D01*
X134593534Y-97389369D02*
X134529863Y-97334497D01*
X135251126Y-97316285D02*
X135129717Y-97413218D01*
X135129717Y-97413218D02*
X134979132Y-97467807D01*
X134979132Y-97467807D02*
X134889838Y-97475435D01*
X135401417Y-96900853D02*
X135386784Y-97051613D01*
X135386784Y-97051613D02*
X135336788Y-97195465D01*
X135336788Y-97195465D02*
X135251126Y-97316285D01*
X135264580Y-96495101D02*
X135347964Y-96620253D01*
X135347964Y-96620253D02*
X135392864Y-96777834D01*
X135392864Y-96777834D02*
X135401417Y-96900853D01*
X134891807Y-96349568D02*
X135042177Y-96366777D01*
X135042177Y-96366777D02*
X135189813Y-96431453D01*
X135189813Y-96431453D02*
X135264580Y-96495101D01*
X134512799Y-96458020D02*
X134647847Y-96383928D01*
X134647847Y-96383928D02*
X134801696Y-96353390D01*
X134801696Y-96353390D02*
X134891807Y-96349568D01*
X134605992Y-96651626D02*
X134512799Y-96458020D01*
X134856039Y-96561386D02*
X134703589Y-96586832D01*
X134703589Y-96586832D02*
X134605992Y-96651626D01*
X135065724Y-96633414D02*
X134925958Y-96567074D01*
X134925958Y-96567074D02*
X134856039Y-96561386D01*
X134414683Y-96835059D02*
X135150385Y-96835059D01*
X136537128Y-100322752D02*
X136438684Y-100365739D01*
X136578146Y-100218894D02*
X136537128Y-100322752D01*
X136537128Y-100115036D02*
X136578146Y-100218894D01*
X136438684Y-100071885D02*
X136537128Y-100115036D01*
X136339912Y-100115036D02*
X136438684Y-100071885D01*
X136299222Y-100218894D02*
X136339912Y-100115036D01*
X136339912Y-100322752D02*
X136299222Y-100218894D01*
X136438684Y-100365739D02*
X136339912Y-100322752D01*
X137362249Y-97175510D02*
X137419241Y-97030075D01*
X137419241Y-97030075D02*
X137428534Y-96915127D01*
X137183246Y-97268703D02*
X137326088Y-97216236D01*
X137326088Y-97216236D02*
X137362249Y-97175510D01*
X136939106Y-96915127D02*
X136954364Y-97069770D01*
X136954364Y-97069770D02*
X137025174Y-97210317D01*
X137025174Y-97210317D02*
X137168225Y-97268357D01*
X137168225Y-97268357D02*
X137183246Y-97268703D01*
X137004735Y-96649493D02*
X136948277Y-96797003D01*
X136948277Y-96797003D02*
X136939106Y-96915127D01*
X137183246Y-96556300D02*
X137040656Y-96608767D01*
X137040656Y-96608767D02*
X137004735Y-96649493D01*
X137428534Y-96915127D02*
X137413211Y-96758140D01*
X137413211Y-96758140D02*
X137342083Y-96615520D01*
X137342083Y-96615520D02*
X137198341Y-96556650D01*
X137198341Y-96556650D02*
X137183246Y-96556300D01*
X137371929Y-99192456D02*
X137371929Y-99741607D01*
X137288909Y-98931416D02*
X137358259Y-99067705D01*
X137358259Y-99067705D02*
X137371929Y-99192456D01*
X137052644Y-98839699D02*
X137202985Y-98868764D01*
X137202985Y-98868764D02*
X137288909Y-98931416D01*
X136814082Y-98870217D02*
X136962746Y-98842679D01*
X136962746Y-98842679D02*
X137052644Y-98839699D01*
X136814082Y-99103200D02*
X136814082Y-98870217D01*
X136975530Y-99053650D02*
X136828214Y-99094319D01*
X136828214Y-99094319D02*
X136814082Y-99103200D01*
X137096615Y-99101723D02*
X136975530Y-99053650D01*
X137131399Y-99266288D02*
X137104798Y-99114797D01*
X137104798Y-99114797D02*
X137096615Y-99101723D01*
X137131399Y-99741607D02*
X137131399Y-99266288D01*
X136848538Y-99741607D02*
X137131399Y-99741607D01*
X136848538Y-99945221D02*
X136848538Y-99741607D01*
X137131399Y-99945221D02*
X136848538Y-99945221D01*
X137131399Y-100259420D02*
X137131399Y-99945221D01*
X137371929Y-100166063D02*
X137131399Y-100259420D01*
X137371929Y-99945221D02*
X137371929Y-100166063D01*
X137491210Y-99945221D02*
X137371929Y-99945221D01*
X137491210Y-99741607D02*
X137491210Y-99945221D01*
X137371929Y-99741607D02*
X137491210Y-99741607D01*
X139493881Y-96369913D02*
X139734412Y-96369913D01*
X139493881Y-97035556D02*
X139493881Y-96369913D01*
X139600200Y-97359436D02*
X139520460Y-97220384D01*
X139520460Y-97220384D02*
X139494296Y-97061162D01*
X139494296Y-97061162D02*
X139493881Y-97035556D01*
X139890281Y-97475435D02*
X139734999Y-97449927D01*
X139734999Y-97449927D02*
X139606920Y-97366567D01*
X139606920Y-97366567D02*
X139600200Y-97359436D01*
X140179705Y-97353857D02*
X140058311Y-97445040D01*
X140058311Y-97445040D02*
X139902142Y-97475316D01*
X139902142Y-97475316D02*
X139890281Y-97475435D01*
X140224005Y-97455090D02*
X140179705Y-97353857D01*
X140397101Y-97455090D02*
X140224005Y-97455090D01*
X140397101Y-96369913D02*
X140397101Y-97455090D01*
X140156735Y-96369913D02*
X140397101Y-96369913D01*
X140156735Y-97154181D02*
X140156735Y-96369913D01*
X139949839Y-97263617D02*
X140062885Y-97232115D01*
X139784946Y-97199793D02*
X139922228Y-97262617D01*
X139922228Y-97262617D02*
X139949839Y-97263617D01*
X139734412Y-96997163D02*
X139756126Y-97147005D01*
X139756126Y-97147005D02*
X139784946Y-97199793D01*
X139734412Y-96369913D02*
X139734412Y-96997163D01*
X134554473Y-98859060D02*
X134794676Y-98859060D01*
X134554473Y-99945221D02*
X134554473Y-98859060D01*
X134794676Y-99945221D02*
X134554473Y-99945221D01*
X134794676Y-99199511D02*
X134794676Y-99945221D01*
X134888197Y-99096145D02*
X134794676Y-99199511D01*
X135040129Y-99051517D02*
X134892606Y-99093404D01*
X134892606Y-99093404D02*
X134888197Y-99096145D01*
X135217983Y-99260218D02*
X135178980Y-99110417D01*
X135178980Y-99110417D02*
X135040129Y-99051517D01*
X135217983Y-99945221D02*
X135217983Y-99260218D01*
X135458514Y-99945221D02*
X135217983Y-99945221D01*
X135458514Y-99241021D02*
X135458514Y-99945221D01*
X135099851Y-98839699D02*
X135256812Y-98864797D01*
X135256812Y-98864797D02*
X135379744Y-98953006D01*
X135379744Y-98953006D02*
X135445914Y-99104675D01*
X135445914Y-99104675D02*
X135458514Y-99241021D01*
X134935122Y-98872186D02*
X135085609Y-98839984D01*
X135085609Y-98839984D02*
X135099851Y-98839699D01*
X134794676Y-98950284D02*
X134929590Y-98874228D01*
X134929590Y-98874228D02*
X134935122Y-98872186D01*
X134794676Y-98859060D02*
X134794676Y-98950284D01*
X134885900Y-97263617D02*
X135036157Y-97218031D01*
X135036157Y-97218031D02*
X135122367Y-97094114D01*
X135122367Y-97094114D02*
X135141854Y-97025548D01*
X134635853Y-97025548D02*
X134682783Y-97170597D01*
X134682783Y-97170597D02*
X134808571Y-97255242D01*
X134808571Y-97255242D02*
X134885900Y-97263617D01*
X135141854Y-97025548D02*
X134635853Y-97025548D01*
X134198764Y-98857583D02*
X134339960Y-98920019D01*
X134339960Y-98920019D02*
X134357914Y-98929939D01*
X134033707Y-98839699D02*
X134186696Y-98854412D01*
X134186696Y-98854412D02*
X134198764Y-98857583D01*
X133744611Y-98926494D02*
X133879066Y-98858751D01*
X133879066Y-98858751D02*
X134033707Y-98839699D01*
X133638292Y-99164071D02*
X133671931Y-99014570D01*
X133671931Y-99014570D02*
X133744611Y-98926494D01*
X133698014Y-99357513D02*
X133641161Y-99212106D01*
X133641161Y-99212106D02*
X133638292Y-99164071D01*
X133893261Y-99493857D02*
X133758937Y-99418601D01*
X133758937Y-99418601D02*
X133698014Y-99357513D01*
X134111477Y-99658422D02*
X134070131Y-99583441D01*
X133985469Y-99763921D02*
X134110369Y-99677288D01*
X134110369Y-99677288D02*
X134111477Y-99658422D01*
X133766268Y-99692877D02*
X133903763Y-99756994D01*
X133903763Y-99756994D02*
X133985469Y-99763921D01*
X133697030Y-99889436D02*
X133766268Y-99692877D01*
X133998923Y-99965566D02*
X133843177Y-99946513D01*
X133843177Y-99946513D02*
X133697030Y-99889436D01*
X134259799Y-99886975D02*
X134118676Y-99952579D01*
X134118676Y-99952579D02*
X133998923Y-99965566D01*
X134361524Y-99667610D02*
X134321835Y-99819311D01*
X134321835Y-99819311D02*
X134259799Y-99886975D01*
X134095070Y-99341269D02*
X134235679Y-99423264D01*
X134235679Y-99423264D02*
X134335547Y-99545641D01*
X134335547Y-99545641D02*
X134361524Y-99667610D01*
X133930669Y-99248076D02*
X134065798Y-99328079D01*
X134065798Y-99328079D02*
X134095070Y-99341269D01*
X133888338Y-99146843D02*
X133930669Y-99248076D01*
X134028785Y-99041345D02*
X133893284Y-99110969D01*
X133893284Y-99110969D02*
X133888338Y-99146843D01*
X134272268Y-99131585D02*
X134134475Y-99056270D01*
X134134475Y-99056270D02*
X134028785Y-99041345D01*
X134357914Y-98929939D02*
X134272268Y-99131585D01*
X139071722Y-99269406D02*
X139071722Y-99370803D01*
X139288134Y-99041345D02*
X139140218Y-99085032D01*
X139140218Y-99085032D02*
X139073625Y-99228674D01*
X139073625Y-99228674D02*
X139071722Y-99269406D01*
X139448761Y-99187369D02*
X139372864Y-99055616D01*
X139372864Y-99055616D02*
X139288134Y-99041345D01*
X139164095Y-99383928D02*
X139314236Y-99364710D01*
X139314236Y-99364710D02*
X139435145Y-99263914D01*
X139435145Y-99263914D02*
X139448761Y-99187369D01*
X139071722Y-99370803D02*
X139164095Y-99383928D01*
X139197730Y-96702325D02*
X139197730Y-97251476D01*
X139114873Y-96441285D02*
X139184071Y-96577574D01*
X139184071Y-96577574D02*
X139197730Y-96702325D01*
X138878281Y-96349568D02*
X139028923Y-96378633D01*
X139028923Y-96378633D02*
X139114873Y-96441285D01*
X138639719Y-96380086D02*
X138788456Y-96352548D01*
X138788456Y-96352548D02*
X138878281Y-96349568D01*
X138639719Y-96613069D02*
X138639719Y-96380086D01*
X138801330Y-96563519D02*
X138653892Y-96604188D01*
X138653892Y-96604188D02*
X138639719Y-96613069D01*
X138922580Y-96611592D02*
X138801330Y-96563519D01*
X138957200Y-96776157D02*
X138930709Y-96624666D01*
X138930709Y-96624666D02*
X138922580Y-96611592D01*
X138957200Y-97251476D02*
X138957200Y-96776157D01*
X138674338Y-97251476D02*
X138957200Y-97251476D01*
X138674338Y-97455090D02*
X138674338Y-97251476D01*
X138957200Y-97455090D02*
X138674338Y-97455090D01*
X138957200Y-97769289D02*
X138957200Y-97455090D01*
X139197730Y-97675932D02*
X138957200Y-97769289D01*
X139197730Y-97455090D02*
X139197730Y-97675932D01*
X139317011Y-97455090D02*
X139197730Y-97455090D01*
X139317011Y-97251476D02*
X139317011Y-97455090D01*
X139197730Y-97251476D02*
X139317011Y-97251476D01*
X141449135Y-96504125D02*
X141528620Y-96634370D01*
X141528620Y-96634370D02*
X141569255Y-96778935D01*
X141569255Y-96778935D02*
X141579573Y-96915127D01*
X141084074Y-96349568D02*
X141233153Y-96367831D01*
X141233153Y-96367831D02*
X141377489Y-96436506D01*
X141377489Y-96436506D02*
X141449135Y-96504125D01*
X140721965Y-96502648D02*
X140845500Y-96403534D01*
X140845500Y-96403534D02*
X140988172Y-96356893D01*
X140988172Y-96356893D02*
X141084074Y-96349568D01*
X140589723Y-96915127D02*
X140602648Y-96763312D01*
X140602648Y-96763312D02*
X140652252Y-96608672D01*
X140652252Y-96608672D02*
X140721965Y-96502648D01*
X140719504Y-97325473D02*
X140640442Y-97197424D01*
X140640442Y-97197424D02*
X140599998Y-97052839D01*
X140599998Y-97052839D02*
X140589723Y-96915127D01*
X141084074Y-97475435D02*
X140922849Y-97454332D01*
X140922849Y-97454332D02*
X140781370Y-97383883D01*
X140781370Y-97383883D02*
X140719504Y-97325473D01*
X141443393Y-97319402D02*
X141318434Y-97420427D01*
X141318434Y-97420427D02*
X141164718Y-97469949D01*
X141164718Y-97469949D02*
X141084074Y-97475435D01*
X141579573Y-96915127D02*
X141563468Y-97074848D01*
X141563468Y-97074848D02*
X141509198Y-97224320D01*
X141509198Y-97224320D02*
X141443393Y-97319402D01*
X136455091Y-96588786D02*
X136455091Y-97859365D01*
X136291675Y-96349568D02*
X136423812Y-96425258D01*
X136423812Y-96425258D02*
X136454931Y-96574068D01*
X136454931Y-96574068D02*
X136455091Y-96588786D01*
X136101022Y-96461138D02*
X136215149Y-96360474D01*
X136215149Y-96360474D02*
X136291675Y-96349568D01*
X136214561Y-96700192D02*
X136189651Y-96547748D01*
X136189651Y-96547748D02*
X136101022Y-96461138D01*
X136214561Y-97920236D02*
X136214561Y-96700192D01*
X136455091Y-97859365D02*
X136214561Y-97920236D01*
X137548307Y-96504125D02*
X137627792Y-96634370D01*
X137627792Y-96634370D02*
X137668427Y-96778935D01*
X137668427Y-96778935D02*
X137678745Y-96915127D01*
X137183246Y-96349568D02*
X137332325Y-96367831D01*
X137332325Y-96367831D02*
X137476661Y-96436506D01*
X137476661Y-96436506D02*
X137548307Y-96504125D01*
X136820973Y-96502648D02*
X136944875Y-96403534D01*
X136944875Y-96403534D02*
X137087511Y-96356893D01*
X137087511Y-96356893D02*
X137183246Y-96349568D01*
X136689059Y-96915127D02*
X136701941Y-96763312D01*
X136701941Y-96763312D02*
X136751408Y-96608672D01*
X136751408Y-96608672D02*
X136820973Y-96502648D01*
X136819004Y-97325473D02*
X136739818Y-97197424D01*
X136739818Y-97197424D02*
X136699337Y-97052839D01*
X136699337Y-97052839D02*
X136689059Y-96915127D01*
X137183246Y-97475435D02*
X137022025Y-97454332D01*
X137022025Y-97454332D02*
X136880586Y-97383883D01*
X136880586Y-97383883D02*
X136819004Y-97325473D01*
X137542565Y-97319402D02*
X137417654Y-97420427D01*
X137417654Y-97420427D02*
X137263951Y-97469949D01*
X137263951Y-97469949D02*
X137183246Y-97475435D01*
X137678745Y-96915127D02*
X137662640Y-97074848D01*
X137662640Y-97074848D02*
X137608370Y-97224320D01*
X137608370Y-97224320D02*
X137542565Y-97319402D01*
X135873946Y-96588786D02*
X135873946Y-97859365D01*
X135710529Y-96349568D02*
X135842667Y-96425258D01*
X135842667Y-96425258D02*
X135873786Y-96574068D01*
X135873786Y-96574068D02*
X135873946Y-96588786D01*
X135519877Y-96461138D02*
X135634004Y-96360474D01*
X135634004Y-96360474D02*
X135710529Y-96349568D01*
X135633415Y-96700192D02*
X135608506Y-96547748D01*
X135608506Y-96547748D02*
X135519877Y-96461138D01*
X135633415Y-97920236D02*
X135633415Y-96700192D01*
X135873946Y-97859365D02*
X135633415Y-97920236D01*
X133504736Y-97435894D02*
X133606790Y-97218989D01*
X133693092Y-97475435D02*
X133541042Y-97453146D01*
X133541042Y-97453146D02*
X133504736Y-97435894D01*
X133961515Y-97355826D02*
X133835590Y-97449153D01*
X133835590Y-97449153D02*
X133693092Y-97475435D01*
X133961515Y-97455090D02*
X133961515Y-97355826D01*
X134202045Y-97455090D02*
X133961515Y-97455090D01*
X134202045Y-96369913D02*
X134202045Y-97455090D01*
X133961515Y-96369913D02*
X134202045Y-96369913D01*
X133961515Y-96987975D02*
X133961515Y-96369913D01*
X133896542Y-97183550D02*
X133957454Y-97043567D01*
X133957454Y-97043567D02*
X133961515Y-96987975D01*
X133748220Y-97263617D02*
X133884279Y-97197846D01*
X133884279Y-97197846D02*
X133896542Y-97183550D01*
X133606790Y-97218989D02*
X133748220Y-97263617D01*
X141263077Y-97175510D02*
X141320069Y-97030075D01*
X141320069Y-97030075D02*
X141329362Y-96915127D01*
X141084074Y-97268703D02*
X141226985Y-97216236D01*
X141226985Y-97216236D02*
X141263077Y-97175510D01*
X140839769Y-96915127D02*
X140855053Y-97069770D01*
X140855053Y-97069770D02*
X140925942Y-97210317D01*
X140925942Y-97210317D02*
X141069053Y-97268357D01*
X141069053Y-97268357D02*
X141084074Y-97268703D01*
X140905727Y-96649493D02*
X140849044Y-96797003D01*
X140849044Y-96797003D02*
X140839769Y-96915127D01*
X141084074Y-96556300D02*
X140941599Y-96608767D01*
X140941599Y-96608767D02*
X140905727Y-96649493D01*
X141329362Y-96915127D02*
X141314039Y-96758140D01*
X141314039Y-96758140D02*
X141242911Y-96615520D01*
X141242911Y-96615520D02*
X141099169Y-96556650D01*
X141099169Y-96556650D02*
X141084074Y-96556300D01*
X142127740Y-96578614D02*
X141970107Y-96607335D01*
X141970107Y-96607335D02*
X141845637Y-96693444D01*
X141845637Y-96693444D02*
X141816166Y-96728576D01*
X142406335Y-96718404D02*
X142293148Y-96618066D01*
X142293148Y-96618066D02*
X142138562Y-96578750D01*
X142138562Y-96578750D02*
X142127740Y-96578614D01*
X142510685Y-97096427D02*
X142498354Y-96944312D01*
X142498354Y-96944312D02*
X142451988Y-96794520D01*
X142451988Y-96794520D02*
X142406335Y-96718404D01*
X142398132Y-97490038D02*
X142470982Y-97350024D01*
X142470982Y-97350024D02*
X142505293Y-97196611D01*
X142505293Y-97196611D02*
X142510685Y-97096427D01*
X142109528Y-97645578D02*
X142260620Y-97611401D01*
X142260620Y-97611401D02*
X142383823Y-97508872D01*
X142383823Y-97508872D02*
X142398132Y-97490038D01*
X141840120Y-97557471D02*
X141975511Y-97631036D01*
X141975511Y-97631036D02*
X142109528Y-97645578D01*
X142124951Y-97879710D02*
X141969753Y-97867379D01*
X141969753Y-97867379D02*
X141815937Y-97821013D01*
X141815937Y-97821013D02*
X141737247Y-97775360D01*
X142589112Y-97658212D02*
X142479064Y-97765283D01*
X142479064Y-97765283D02*
X142337974Y-97843154D01*
X142337974Y-97843154D02*
X142177080Y-97877763D01*
X142177080Y-97877763D02*
X142124951Y-97879710D01*
X142770412Y-97107584D02*
X142759088Y-97265491D01*
X142759088Y-97265491D02*
X142719266Y-97427011D01*
X142719266Y-97427011D02*
X142650746Y-97571436D01*
X142650746Y-97571436D02*
X142589112Y-97658212D01*
X142606832Y-96549245D02*
X142693119Y-96691743D01*
X142693119Y-96691743D02*
X142743430Y-96844839D01*
X142743430Y-96844839D02*
X142766421Y-97000706D01*
X142766421Y-97000706D02*
X142770412Y-97107584D01*
X142148085Y-96344646D02*
X142303773Y-96360811D01*
X142303773Y-96360811D02*
X142452285Y-96416728D01*
X142452285Y-96416728D02*
X142575032Y-96512655D01*
X142575032Y-96512655D02*
X142606832Y-96549245D01*
X141699674Y-96515774D02*
X141821725Y-96418295D01*
X141821725Y-96418295D02*
X141977394Y-96361335D01*
X141977394Y-96361335D02*
X142129765Y-96344812D01*
X142129765Y-96344812D02*
X142148085Y-96344646D01*
X141816166Y-96728576D02*
X141699674Y-96515774D01*
X141737247Y-97775360D02*
X141840120Y-97557471D01*
X135997985Y-99078917D02*
X135997985Y-100349496D01*
X135834568Y-98839699D02*
X135966706Y-98915389D01*
X135966706Y-98915389D02*
X135997825Y-99064199D01*
X135997825Y-99064199D02*
X135997985Y-99078917D01*
X135643916Y-98951269D02*
X135758043Y-98850605D01*
X135758043Y-98850605D02*
X135834568Y-98839699D01*
X135757454Y-99190323D02*
X135732545Y-99037879D01*
X135732545Y-99037879D02*
X135643916Y-98951269D01*
X135757454Y-100410367D02*
X135757454Y-99190323D01*
X136694309Y-99945221D02*
X136694309Y-99737505D01*
X136562723Y-99737505D02*
X136562723Y-98860044D01*
X136694309Y-99737505D02*
X136562723Y-99737505D01*
X136319239Y-99945221D02*
X136694309Y-99945221D01*
X135997985Y-100349496D02*
X135757454Y-100410367D01*
X136319239Y-98860044D02*
X136319239Y-99945221D01*
X136562723Y-98860044D02*
X136319239Y-98860044D01*
X137668081Y-98859060D02*
X137908611Y-98859060D01*
X137668081Y-99945221D02*
X137668081Y-98859060D01*
X137908611Y-99945221D02*
X137668081Y-99945221D01*
X137908611Y-99199511D02*
X137908611Y-99945221D01*
X138001968Y-99096145D02*
X137908611Y-99199511D01*
X138153900Y-99051517D02*
X138006363Y-99093404D01*
X138006363Y-99093404D02*
X138001968Y-99096145D01*
X138331919Y-99260218D02*
X138292784Y-99110417D01*
X138292784Y-99110417D02*
X138153900Y-99051517D01*
X138331919Y-99945221D02*
X138331919Y-99260218D01*
X138572285Y-99945221D02*
X138331919Y-99945221D01*
X138572285Y-99241021D02*
X138572285Y-99945221D01*
X138213622Y-98839699D02*
X138370583Y-98864797D01*
X138370583Y-98864797D02*
X138493515Y-98953006D01*
X138493515Y-98953006D02*
X138559685Y-99104675D01*
X138559685Y-99104675D02*
X138572285Y-99241021D01*
X138049057Y-98872186D02*
X138199418Y-98839984D01*
X138199418Y-98839984D02*
X138213622Y-98839699D01*
X137908611Y-98950284D02*
X138043496Y-98874228D01*
X138043496Y-98874228D02*
X138049057Y-98872186D01*
X137908611Y-98859060D02*
X137908611Y-98950284D01*
X137755695Y-97435894D02*
X137857584Y-97218989D01*
X137944215Y-97475435D02*
X137792027Y-97453146D01*
X137792027Y-97453146D02*
X137755695Y-97435894D01*
X138212638Y-97355826D02*
X138086525Y-97449153D01*
X138086525Y-97449153D02*
X137944215Y-97475435D01*
X138212638Y-97455090D02*
X138212638Y-97355826D01*
X138453004Y-97455090D02*
X138212638Y-97455090D01*
X138453004Y-96369913D02*
X138453004Y-97455090D01*
X138212638Y-96369913D02*
X138453004Y-96369913D01*
X138212638Y-96987975D02*
X138212638Y-96369913D01*
X138147665Y-97183550D02*
X138208577Y-97043567D01*
X138208577Y-97043567D02*
X138212638Y-96987975D01*
X137999015Y-97263617D02*
X138135318Y-97197846D01*
X138135318Y-97197846D02*
X138147665Y-97183550D01*
X137857584Y-97218989D02*
X137999015Y-97263617D01*
X143022417Y-97847452D02*
X142859020Y-97995036D01*
X143376618Y-97562299D02*
X143022417Y-97847452D01*
X143763499Y-97291376D02*
X143376618Y-97562299D01*
X144178316Y-97034159D02*
X143763499Y-97291376D01*
X144618960Y-96791699D02*
X144178316Y-97034159D01*
X146081623Y-96149181D02*
X145571404Y-96348947D01*
X139048588Y-98968496D02*
X139162618Y-98875795D01*
X145730057Y-96293603D02*
X146081623Y-96149181D01*
X145390087Y-96451729D02*
X145730057Y-96293603D01*
X145062239Y-96623559D02*
X145390087Y-96451729D01*
X138899446Y-98839699D02*
X138992803Y-98880389D01*
X138815769Y-98852497D02*
X138899446Y-98839699D01*
X138832176Y-99192456D02*
X138818528Y-99042851D01*
X138818528Y-99042851D02*
X138749483Y-98919767D01*
X138832176Y-99424454D02*
X138832176Y-99192456D01*
X139287150Y-99965566D02*
X139128164Y-99949654D01*
X139128164Y-99949654D02*
X138987367Y-99890917D01*
X138987367Y-99890917D02*
X138941777Y-99852520D01*
X139582480Y-99902726D02*
X139437353Y-99951739D01*
X139437353Y-99951739D02*
X139287150Y-99965566D01*
X139530469Y-99706167D02*
X139582480Y-99902726D01*
X139303557Y-99753748D02*
X139455759Y-99735137D01*
X139455759Y-99735137D02*
X139530469Y-99706167D01*
X139073691Y-99562275D02*
X139131157Y-99705879D01*
X139131157Y-99705879D02*
X139275721Y-99753000D01*
X139275721Y-99753000D02*
X139303557Y-99753748D01*
X139173611Y-99577370D02*
X139073691Y-99562275D01*
X139555080Y-99471051D02*
X139416047Y-99543729D01*
X139416047Y-99543729D02*
X139262383Y-99573632D01*
X139262383Y-99573632D02*
X139173611Y-99577370D01*
X139689292Y-99176212D02*
X139663585Y-99325433D01*
X139663585Y-99325433D02*
X139579052Y-99450393D01*
X139579052Y-99450393D02*
X139555080Y-99471051D01*
X139593966Y-98927478D02*
X139673543Y-99057410D01*
X139673543Y-99057410D02*
X139689292Y-99176212D01*
X139332434Y-98839699D02*
X139480981Y-98861684D01*
X139480981Y-98861684D02*
X139593966Y-98927478D01*
X139162618Y-98875795D02*
X139310399Y-98840267D01*
X139310399Y-98840267D02*
X139332434Y-98839699D01*
X140802197Y-100344410D02*
X140922462Y-100344410D01*
X140136390Y-99448737D02*
X140802197Y-100344410D01*
X140136390Y-100344410D02*
X140136390Y-99448737D01*
X139896023Y-100344410D02*
X140136390Y-100344410D01*
X139896023Y-98839699D02*
X139896023Y-100344410D01*
X139997912Y-98839699D02*
X139896023Y-98839699D01*
X140681931Y-99779015D02*
X139997912Y-98839699D01*
X140681931Y-98859060D02*
X140681931Y-99779015D01*
X140922462Y-98859060D02*
X140681931Y-98859060D01*
X140922462Y-100344410D02*
X140922462Y-98859060D01*
X138992803Y-98880389D02*
X139048588Y-98968496D01*
X144520395Y-97925461D02*
X144574158Y-97875388D01*
X144334860Y-98111522D02*
X144520395Y-97925461D01*
X144242093Y-98212196D02*
X144334860Y-98111522D01*
X144154070Y-98328682D02*
X144242093Y-98212196D01*
X144083441Y-98458872D02*
X144154070Y-98328682D01*
X144059722Y-98525285D02*
X144083441Y-98458872D01*
X144046017Y-98589589D02*
X144059722Y-98525285D01*
X144043382Y-98649150D02*
X144046017Y-98589589D01*
X144052870Y-98702385D02*
X144043382Y-98649150D01*
X144075007Y-98746661D02*
X144052870Y-98702385D01*
X144109795Y-98781448D02*
X144075007Y-98746661D01*
X144156178Y-98805694D02*
X144109795Y-98781448D01*
X144212577Y-98819926D02*
X144156178Y-98805694D01*
X144278462Y-98823615D02*
X144212577Y-98819926D01*
X144350673Y-98817290D02*
X144278462Y-98823615D01*
X144428682Y-98800951D02*
X144350673Y-98817290D01*
X144509326Y-98776178D02*
X144428682Y-98800951D01*
X144673250Y-98703967D02*
X144509326Y-98776178D01*
X144829794Y-98608037D02*
X144673250Y-98703967D01*
X144974216Y-98497349D02*
X144829794Y-98608037D01*
X145105460Y-98379282D02*
X144974216Y-98497349D01*
X145223527Y-98260160D02*
X145105460Y-98379282D01*
X145329472Y-98143674D02*
X145223527Y-98260160D01*
X145423820Y-98029824D02*
X145329472Y-98143674D01*
X145362678Y-98151581D02*
X145423820Y-98029824D01*
X145280453Y-98287042D02*
X145362678Y-98151581D01*
X145176617Y-98434626D02*
X145280453Y-98287042D01*
X145049062Y-98592225D02*
X145176617Y-98434626D01*
X144895153Y-98754567D02*
X145049062Y-98592225D01*
X144713308Y-98914274D02*
X144895153Y-98754567D01*
X144507745Y-99062912D02*
X144713308Y-98914274D01*
X144287423Y-99189940D02*
X144507745Y-99062912D01*
X144064992Y-99283761D02*
X144287423Y-99189940D01*
X143958521Y-99314332D02*
X144064992Y-99283761D01*
X143857321Y-99332253D02*
X143958521Y-99314332D01*
X143764554Y-99335943D02*
X143857321Y-99332253D01*
X143682328Y-99323293D02*
X143764554Y-99335943D01*
X143611699Y-99294303D02*
X143682328Y-99323293D01*
X143554773Y-99247392D02*
X143611699Y-99294303D01*
X143513661Y-99183088D02*
X143554773Y-99247392D01*
X143489415Y-99102444D02*
X143513661Y-99183088D01*
X143482035Y-99005987D02*
X143489415Y-99102444D01*
X143493104Y-98896353D02*
X143482035Y-99005987D01*
X143522621Y-98776178D02*
X143493104Y-98896353D01*
X143570059Y-98648096D02*
X143522621Y-98776178D01*
X143634890Y-98514216D02*
X143570059Y-98648096D01*
X143716589Y-98377701D02*
X143634890Y-98514216D01*
X143813573Y-98240131D02*
X143716589Y-98377701D01*
X143924261Y-98103616D02*
X143813573Y-98240131D01*
X144047599Y-97969736D02*
X143924261Y-98103616D01*
X144181478Y-97840073D02*
X144047599Y-97969736D01*
X144472430Y-97594978D02*
X144181478Y-97840073D01*
X144781829Y-97376237D02*
X144472430Y-97594978D01*
X145095973Y-97191230D02*
X144781829Y-97376237D01*
X145251463Y-97114276D02*
X145095973Y-97191230D01*
X145404845Y-97048390D02*
X145251463Y-97114276D01*
X145555064Y-96995681D02*
X145404845Y-97048390D01*
X145702121Y-96957204D02*
X145555064Y-96995681D01*
X145843908Y-96934539D02*
X145702121Y-96957204D01*
X145979896Y-96928214D02*
X145843908Y-96934539D01*
X146108505Y-96939283D02*
X145979896Y-96928214D01*
X146227626Y-96968273D02*
X146108505Y-96939283D01*
X146334625Y-97016238D02*
X146227626Y-96968273D01*
X146427392Y-97082650D02*
X146334625Y-97016238D01*
X146501711Y-97166984D02*
X146427392Y-97082650D01*
X146555474Y-97269239D02*
X146501711Y-97166984D01*
X146586044Y-97387306D02*
X146555474Y-97269239D01*
X146591842Y-97520132D02*
X146586044Y-97387306D01*
X146573394Y-97665607D02*
X146591842Y-97520132D01*
X146531228Y-97820044D02*
X146573394Y-97665607D01*
X146468504Y-97980805D02*
X146531228Y-97820044D01*
X146388387Y-98144201D02*
X146468504Y-97980805D01*
X146193365Y-98466251D02*
X146388387Y-98144201D01*
X145980950Y-98760892D02*
X146193365Y-98466251D01*
X145877641Y-98892136D02*
X145980950Y-98760892D01*
X145779076Y-99011258D02*
X145877641Y-98892136D01*
X145686836Y-99118256D02*
X145779076Y-99011258D01*
X145599867Y-99214186D02*
X145686836Y-99118256D01*
X145433308Y-99382853D02*
X145599867Y-99214186D01*
X145259896Y-99536235D02*
X145433308Y-99382853D01*
X145058549Y-99691726D02*
X145259896Y-99536235D01*
X144819780Y-99856704D02*
X145058549Y-99691726D01*
X144546222Y-100026425D02*
X144819780Y-99856704D01*
X144250527Y-100189295D02*
X144546222Y-100026425D01*
X143946398Y-100332135D02*
X144250527Y-100189295D01*
X143646486Y-100445459D02*
X143946398Y-100332135D01*
X143357643Y-100527157D02*
X143646486Y-100445459D01*
X143081977Y-100578284D02*
X143357643Y-100527157D01*
X142820543Y-100599368D02*
X143081977Y-100578284D01*
X142696677Y-100598314D02*
X142820543Y-100599368D01*
X142577556Y-100587772D02*
X142696677Y-100598314D01*
X142464760Y-100566688D02*
X142577556Y-100587772D01*
X142359342Y-100532955D02*
X142464760Y-100566688D01*
X142261832Y-100485517D02*
X142359342Y-100532955D01*
X142174862Y-100423321D02*
X142261832Y-100485517D01*
X142097908Y-100345839D02*
X142174862Y-100423321D01*
X142033603Y-100252018D02*
X142097908Y-100345839D01*
X141982476Y-100143438D02*
X142033603Y-100252018D01*
X141945580Y-100021154D02*
X141982476Y-100143438D01*
X141923442Y-99886748D02*
X141945580Y-100021154D01*
X141916590Y-99742853D02*
X141923442Y-99886748D01*
X142317176Y-98617525D02*
X142213867Y-98779867D01*
X142434189Y-98457818D02*
X142317176Y-98617525D01*
X142563852Y-98300746D02*
X142434189Y-98457818D01*
X142706165Y-98146310D02*
X142563852Y-98300746D01*
X142859020Y-97995036D02*
X142706165Y-98146310D01*
X141926078Y-99590525D02*
X141916590Y-99742853D01*
X141951378Y-99432399D02*
X141926078Y-99590525D01*
X141993545Y-99271111D02*
X141951378Y-99432399D01*
X142050997Y-99107187D02*
X141993545Y-99271111D01*
X142124789Y-98943264D02*
X142050997Y-99107187D01*
X142213867Y-98779867D02*
X142124789Y-98943264D01*
X145083850Y-96563471D02*
X144618960Y-96791699D01*
X145571404Y-96348947D02*
X145083850Y-96563471D01*
X146036294Y-98000307D02*
X145999925Y-98105724D01*
X146062121Y-97898579D02*
X146036294Y-98000307D01*
X146075825Y-97801069D02*
X146062121Y-97898579D01*
X146076879Y-97709883D02*
X146075825Y-97801069D01*
X146064757Y-97627130D02*
X146076879Y-97709883D01*
X146037875Y-97553338D02*
X146064757Y-97627130D01*
X145996762Y-97490615D02*
X146037875Y-97553338D01*
X145940891Y-97440542D02*
X145996762Y-97490615D01*
X145870789Y-97404173D02*
X145940891Y-97440542D01*
X145786455Y-97382035D02*
X145870789Y-97404173D01*
X145689471Y-97374656D02*
X145786455Y-97382035D01*
X145581946Y-97382035D02*
X145689471Y-97374656D01*
X145466514Y-97403646D02*
X145581946Y-97382035D01*
X145346338Y-97436852D02*
X145466514Y-97403646D01*
X145224582Y-97480600D02*
X145346338Y-97436852D01*
X145105460Y-97531728D02*
X145224582Y-97480600D01*
X144991610Y-97588126D02*
X145105460Y-97531728D01*
X144885665Y-97647159D02*
X144991610Y-97588126D01*
X144790790Y-97707247D02*
X144885665Y-97647159D01*
X144707510Y-97765754D02*
X144790790Y-97707247D01*
X144635827Y-97822152D02*
X144707510Y-97765754D01*
X144574158Y-97875388D02*
X144635827Y-97822152D01*
X143640688Y-97652957D02*
X143890000Y-97430000D01*
X143414568Y-97880131D02*
X143640688Y-97652957D01*
X143214803Y-98107833D02*
X143414568Y-97880131D01*
X143125725Y-98221683D02*
X143214803Y-98107833D01*
X143044554Y-98335007D02*
X143125725Y-98221683D01*
X142971289Y-98448330D02*
X143044554Y-98335007D01*
X142906458Y-98561654D02*
X142971289Y-98448330D01*
X142849532Y-98674450D02*
X142906458Y-98561654D01*
X142801568Y-98786719D02*
X142849532Y-98674450D01*
X142762036Y-98899516D02*
X142801568Y-98786719D01*
X142731465Y-99011258D02*
X142762036Y-98899516D01*
X142709855Y-99122473D02*
X142731465Y-99011258D01*
X142697205Y-99231580D02*
X142709855Y-99122473D01*
X142694042Y-99338578D02*
X142697205Y-99231580D01*
X142700367Y-99440833D02*
X142694042Y-99338578D01*
X142716707Y-99537290D02*
X142700367Y-99440833D01*
X142742534Y-99626367D02*
X142716707Y-99537290D01*
X142777849Y-99706484D02*
X142742534Y-99626367D01*
X142823178Y-99776060D02*
X142777849Y-99706484D01*
X142877468Y-99834566D02*
X142823178Y-99776060D01*
X142940718Y-99882004D02*
X142877468Y-99834566D01*
X143011348Y-99918900D02*
X142940718Y-99882004D01*
X143088829Y-99945254D02*
X143011348Y-99918900D01*
X143171582Y-99962648D02*
X143088829Y-99945254D01*
X143259605Y-99972135D02*
X143171582Y-99962648D01*
X143446721Y-99970027D02*
X143259605Y-99972135D01*
X143648068Y-99942619D02*
X143446721Y-99970027D01*
X143862592Y-99889383D02*
X143648068Y-99942619D01*
X143975915Y-99852487D02*
X143862592Y-99889383D01*
X144091874Y-99809266D02*
X143975915Y-99852487D01*
X144334333Y-99700686D02*
X144091874Y-99809266D01*
X144584699Y-99566279D02*
X144334333Y-99700686D01*
X144835065Y-99409735D02*
X144584699Y-99566279D01*
X145077525Y-99235269D02*
X144835065Y-99409735D01*
X145303117Y-99047100D02*
X145077525Y-99235269D01*
X145507100Y-98848915D02*
X145303117Y-99047100D01*
X145685255Y-98641771D02*
X145507100Y-98848915D01*
X145835474Y-98428828D02*
X145685255Y-98641771D01*
X145898724Y-98320775D02*
X145835474Y-98428828D01*
X145954068Y-98212723D02*
X145898724Y-98320775D01*
X145999925Y-98105724D02*
X145954068Y-98212723D01*
X144747569Y-96808039D02*
X145062239Y-96623559D01*
X144446076Y-97005169D02*
X144747569Y-96808039D01*
X144159341Y-97212841D02*
X144446076Y-97005169D01*
X143890000Y-97430000D02*
X144159341Y-97212841D01*
D10*
%TO.C,D3*%
X117295000Y-97510000D02*
X117295000Y-99970000D01*
X117295000Y-99970000D02*
X118765000Y-99970000D01*
X118765000Y-99970000D02*
X118765000Y-97510000D01*
%TO.C,D4*%
X162805000Y-94845000D02*
X162805000Y-92385000D01*
X161335000Y-94845000D02*
X162805000Y-94845000D01*
X161335000Y-92385000D02*
X161335000Y-94845000D01*
%TO.C,D6*%
X119840500Y-113345000D02*
X122300500Y-113345000D01*
X122300500Y-113345000D02*
X122300500Y-111875000D01*
X122300500Y-111875000D02*
X119840500Y-111875000D01*
%TO.C,C2*%
X145618748Y-89355000D02*
X146141252Y-89355000D01*
X145618748Y-87885000D02*
X146141252Y-87885000D01*
%TO.C,C4*%
X145598748Y-84915000D02*
X146121252Y-84915000D01*
X145598748Y-86385000D02*
X146121252Y-86385000D01*
%TO.C,C6*%
X161478748Y-87265000D02*
X162001252Y-87265000D01*
X161478748Y-85795000D02*
X162001252Y-85795000D01*
%TO.C,C8*%
X118871252Y-90185000D02*
X118348748Y-90185000D01*
X118871252Y-88715000D02*
X118348748Y-88715000D01*
%TO.C,C17*%
X161488748Y-88090000D02*
X162011252Y-88090000D01*
X161488748Y-89560000D02*
X162011252Y-89560000D01*
%TO.C,C18*%
X118871252Y-85740000D02*
X118348748Y-85740000D01*
X118871252Y-87210000D02*
X118348748Y-87210000D01*
%TO.C,C19*%
X147200000Y-109406267D02*
X147200000Y-109113733D01*
X148220000Y-109406267D02*
X148220000Y-109113733D01*
%TO.C,R1*%
X147187500Y-106007258D02*
X147187500Y-105532742D01*
X148232500Y-106007258D02*
X148232500Y-105532742D01*
%TO.C,Q2*%
D14*
X123662380Y-85033809D02*
X123614761Y-85010000D01*
X123567142Y-84962380D01*
X123495714Y-84890952D01*
X123448095Y-84867142D01*
X123400476Y-84867142D01*
X123424285Y-84986190D02*
X123376666Y-84962380D01*
X123329047Y-84914761D01*
X123305238Y-84819523D01*
X123305238Y-84652857D01*
X123329047Y-84557619D01*
X123376666Y-84510000D01*
X123424285Y-84486190D01*
X123519523Y-84486190D01*
X123567142Y-84510000D01*
X123614761Y-84557619D01*
X123638571Y-84652857D01*
X123638571Y-84819523D01*
X123614761Y-84914761D01*
X123567142Y-84962380D01*
X123519523Y-84986190D01*
X123424285Y-84986190D01*
X123829047Y-84533809D02*
X123852857Y-84510000D01*
X123900476Y-84486190D01*
X124019523Y-84486190D01*
X124067142Y-84510000D01*
X124090952Y-84533809D01*
X124114761Y-84581428D01*
X124114761Y-84629047D01*
X124090952Y-84700476D01*
X123805238Y-84986190D01*
X124114761Y-84986190D01*
D12*
X125674285Y-82700000D02*
X125769523Y-82604761D01*
X125864761Y-82700000D01*
X125769523Y-82795238D01*
X125674285Y-82700000D01*
X125864761Y-82700000D01*
%TO.C,Q6*%
D14*
X156182380Y-84683809D02*
X156134761Y-84660000D01*
X156087142Y-84612380D01*
X156015714Y-84540952D01*
X155968095Y-84517142D01*
X155920476Y-84517142D01*
X155944285Y-84636190D02*
X155896666Y-84612380D01*
X155849047Y-84564761D01*
X155825238Y-84469523D01*
X155825238Y-84302857D01*
X155849047Y-84207619D01*
X155896666Y-84160000D01*
X155944285Y-84136190D01*
X156039523Y-84136190D01*
X156087142Y-84160000D01*
X156134761Y-84207619D01*
X156158571Y-84302857D01*
X156158571Y-84469523D01*
X156134761Y-84564761D01*
X156087142Y-84612380D01*
X156039523Y-84636190D01*
X155944285Y-84636190D01*
X156587142Y-84136190D02*
X156491904Y-84136190D01*
X156444285Y-84160000D01*
X156420476Y-84183809D01*
X156372857Y-84255238D01*
X156349047Y-84350476D01*
X156349047Y-84540952D01*
X156372857Y-84588571D01*
X156396666Y-84612380D01*
X156444285Y-84636190D01*
X156539523Y-84636190D01*
X156587142Y-84612380D01*
X156610952Y-84588571D01*
X156634761Y-84540952D01*
X156634761Y-84421904D01*
X156610952Y-84374285D01*
X156587142Y-84350476D01*
X156539523Y-84326666D01*
X156444285Y-84326666D01*
X156396666Y-84350476D01*
X156372857Y-84374285D01*
X156349047Y-84421904D01*
D12*
X158094285Y-82300000D02*
X158189523Y-82204761D01*
X158284761Y-82300000D01*
X158189523Y-82395238D01*
X158094285Y-82300000D01*
X158284761Y-82300000D01*
%TO.C,Q7*%
D14*
X151812380Y-88433809D02*
X151764761Y-88410000D01*
X151717142Y-88362380D01*
X151645714Y-88290952D01*
X151598095Y-88267142D01*
X151550476Y-88267142D01*
X151574285Y-88386190D02*
X151526666Y-88362380D01*
X151479047Y-88314761D01*
X151455238Y-88219523D01*
X151455238Y-88052857D01*
X151479047Y-87957619D01*
X151526666Y-87910000D01*
X151574285Y-87886190D01*
X151669523Y-87886190D01*
X151717142Y-87910000D01*
X151764761Y-87957619D01*
X151788571Y-88052857D01*
X151788571Y-88219523D01*
X151764761Y-88314761D01*
X151717142Y-88362380D01*
X151669523Y-88386190D01*
X151574285Y-88386190D01*
X151955238Y-87886190D02*
X152288571Y-87886190D01*
X152074285Y-88386190D01*
D12*
X148394285Y-89950000D02*
X148489523Y-89854761D01*
X148584761Y-89950000D01*
X148489523Y-90045238D01*
X148394285Y-89950000D01*
X148584761Y-89950000D01*
%TO.C,R16*%
D16*
X135269285Y-109453095D02*
X135185952Y-109334047D01*
X135126428Y-109453095D02*
X135126428Y-109203095D01*
X135221666Y-109203095D01*
X135245476Y-109215000D01*
X135257380Y-109226904D01*
X135269285Y-109250714D01*
X135269285Y-109286428D01*
X135257380Y-109310238D01*
X135245476Y-109322142D01*
X135221666Y-109334047D01*
X135126428Y-109334047D01*
X135507380Y-109453095D02*
X135364523Y-109453095D01*
X135435952Y-109453095D02*
X135435952Y-109203095D01*
X135412142Y-109238809D01*
X135388333Y-109262619D01*
X135364523Y-109274523D01*
X135721666Y-109203095D02*
X135674047Y-109203095D01*
X135650238Y-109215000D01*
X135638333Y-109226904D01*
X135614523Y-109262619D01*
X135602619Y-109310238D01*
X135602619Y-109405476D01*
X135614523Y-109429285D01*
X135626428Y-109441190D01*
X135650238Y-109453095D01*
X135697857Y-109453095D01*
X135721666Y-109441190D01*
X135733571Y-109429285D01*
X135745476Y-109405476D01*
X135745476Y-109345952D01*
X135733571Y-109322142D01*
X135721666Y-109310238D01*
X135697857Y-109298333D01*
X135650238Y-109298333D01*
X135626428Y-109310238D01*
X135614523Y-109322142D01*
X135602619Y-109345952D01*
%TO.C,U11*%
X124810476Y-101583095D02*
X124810476Y-101785476D01*
X124822380Y-101809285D01*
X124834285Y-101821190D01*
X124858095Y-101833095D01*
X124905714Y-101833095D01*
X124929523Y-101821190D01*
X124941428Y-101809285D01*
X124953333Y-101785476D01*
X124953333Y-101583095D01*
X125203333Y-101833095D02*
X125060476Y-101833095D01*
X125131904Y-101833095D02*
X125131904Y-101583095D01*
X125108095Y-101618809D01*
X125084285Y-101642619D01*
X125060476Y-101654523D01*
X125441428Y-101833095D02*
X125298571Y-101833095D01*
X125370000Y-101833095D02*
X125370000Y-101583095D01*
X125346190Y-101618809D01*
X125322380Y-101642619D01*
X125298571Y-101654523D01*
%TO.C,C49*%
X150239285Y-94056785D02*
X150227380Y-94068690D01*
X150191666Y-94080595D01*
X150167857Y-94080595D01*
X150132142Y-94068690D01*
X150108333Y-94044880D01*
X150096428Y-94021071D01*
X150084523Y-93973452D01*
X150084523Y-93937738D01*
X150096428Y-93890119D01*
X150108333Y-93866309D01*
X150132142Y-93842500D01*
X150167857Y-93830595D01*
X150191666Y-93830595D01*
X150227380Y-93842500D01*
X150239285Y-93854404D01*
X150453571Y-93913928D02*
X150453571Y-94080595D01*
X150394047Y-93818690D02*
X150334523Y-93997261D01*
X150489285Y-93997261D01*
X150596428Y-94080595D02*
X150644047Y-94080595D01*
X150667857Y-94068690D01*
X150679761Y-94056785D01*
X150703571Y-94021071D01*
X150715476Y-93973452D01*
X150715476Y-93878214D01*
X150703571Y-93854404D01*
X150691666Y-93842500D01*
X150667857Y-93830595D01*
X150620238Y-93830595D01*
X150596428Y-93842500D01*
X150584523Y-93854404D01*
X150572619Y-93878214D01*
X150572619Y-93937738D01*
X150584523Y-93961547D01*
X150596428Y-93973452D01*
X150620238Y-93985357D01*
X150667857Y-93985357D01*
X150691666Y-93973452D01*
X150703571Y-93961547D01*
X150715476Y-93937738D01*
%TO.C,Q5*%
D14*
X134672380Y-88623809D02*
X134624761Y-88600000D01*
X134577142Y-88552380D01*
X134505714Y-88480952D01*
X134458095Y-88457142D01*
X134410476Y-88457142D01*
X134434285Y-88576190D02*
X134386666Y-88552380D01*
X134339047Y-88504761D01*
X134315238Y-88409523D01*
X134315238Y-88242857D01*
X134339047Y-88147619D01*
X134386666Y-88100000D01*
X134434285Y-88076190D01*
X134529523Y-88076190D01*
X134577142Y-88100000D01*
X134624761Y-88147619D01*
X134648571Y-88242857D01*
X134648571Y-88409523D01*
X134624761Y-88504761D01*
X134577142Y-88552380D01*
X134529523Y-88576190D01*
X134434285Y-88576190D01*
X135100952Y-88076190D02*
X134862857Y-88076190D01*
X134839047Y-88314285D01*
X134862857Y-88290476D01*
X134910476Y-88266666D01*
X135029523Y-88266666D01*
X135077142Y-88290476D01*
X135100952Y-88314285D01*
X135124761Y-88361904D01*
X135124761Y-88480952D01*
X135100952Y-88528571D01*
X135077142Y-88552380D01*
X135029523Y-88576190D01*
X134910476Y-88576190D01*
X134862857Y-88552380D01*
X134839047Y-88528571D01*
D12*
X133334285Y-90280000D02*
X133429523Y-90184761D01*
X133524761Y-90280000D01*
X133429523Y-90375238D01*
X133334285Y-90280000D01*
X133524761Y-90280000D01*
%TO.C,Q3*%
D14*
X129902380Y-88593809D02*
X129854761Y-88570000D01*
X129807142Y-88522380D01*
X129735714Y-88450952D01*
X129688095Y-88427142D01*
X129640476Y-88427142D01*
X129664285Y-88546190D02*
X129616666Y-88522380D01*
X129569047Y-88474761D01*
X129545238Y-88379523D01*
X129545238Y-88212857D01*
X129569047Y-88117619D01*
X129616666Y-88070000D01*
X129664285Y-88046190D01*
X129759523Y-88046190D01*
X129807142Y-88070000D01*
X129854761Y-88117619D01*
X129878571Y-88212857D01*
X129878571Y-88379523D01*
X129854761Y-88474761D01*
X129807142Y-88522380D01*
X129759523Y-88546190D01*
X129664285Y-88546190D01*
X130045238Y-88046190D02*
X130354761Y-88046190D01*
X130188095Y-88236666D01*
X130259523Y-88236666D01*
X130307142Y-88260476D01*
X130330952Y-88284285D01*
X130354761Y-88331904D01*
X130354761Y-88450952D01*
X130330952Y-88498571D01*
X130307142Y-88522380D01*
X130259523Y-88546190D01*
X130116666Y-88546190D01*
X130069047Y-88522380D01*
X130045238Y-88498571D01*
D12*
X127564285Y-90380000D02*
X127659523Y-90284761D01*
X127754761Y-90380000D01*
X127659523Y-90475238D01*
X127564285Y-90380000D01*
X127754761Y-90380000D01*
%TO.C,SW2*%
D14*
X141152380Y-108466666D02*
X141176190Y-108395238D01*
X141176190Y-108276190D01*
X141152380Y-108228571D01*
X141128571Y-108204761D01*
X141080952Y-108180952D01*
X141033333Y-108180952D01*
X140985714Y-108204761D01*
X140961904Y-108228571D01*
X140938095Y-108276190D01*
X140914285Y-108371428D01*
X140890476Y-108419047D01*
X140866666Y-108442857D01*
X140819047Y-108466666D01*
X140771428Y-108466666D01*
X140723809Y-108442857D01*
X140700000Y-108419047D01*
X140676190Y-108371428D01*
X140676190Y-108252380D01*
X140700000Y-108180952D01*
X140676190Y-108014285D02*
X141176190Y-107895238D01*
X140819047Y-107800000D01*
X141176190Y-107704761D01*
X140676190Y-107585714D01*
X140723809Y-107419047D02*
X140700000Y-107395238D01*
X140676190Y-107347619D01*
X140676190Y-107228571D01*
X140700000Y-107180952D01*
X140723809Y-107157142D01*
X140771428Y-107133333D01*
X140819047Y-107133333D01*
X140890476Y-107157142D01*
X141176190Y-107442857D01*
X141176190Y-107133333D01*
%TO.C,J7*%
X130916666Y-71946380D02*
X130916666Y-72660666D01*
X130869047Y-72803523D01*
X130773809Y-72898761D01*
X130630952Y-72946380D01*
X130535714Y-72946380D01*
X131297619Y-71946380D02*
X131964285Y-71946380D01*
X131535714Y-72946380D01*
%TO.C,U7*%
D13*
X139978095Y-77963809D02*
X139668571Y-77963809D01*
X139835238Y-77773333D01*
X139763809Y-77773333D01*
X139716190Y-77749523D01*
X139692380Y-77725714D01*
X139668571Y-77678095D01*
X139668571Y-77559047D01*
X139692380Y-77511428D01*
X139716190Y-77487619D01*
X139763809Y-77463809D01*
X139906666Y-77463809D01*
X139954285Y-77487619D01*
X139978095Y-77511428D01*
X139454285Y-77511428D02*
X139430476Y-77487619D01*
X139454285Y-77463809D01*
X139478095Y-77487619D01*
X139454285Y-77511428D01*
X139454285Y-77463809D01*
X139263809Y-77963809D02*
X138954285Y-77963809D01*
X139120952Y-77773333D01*
X139049523Y-77773333D01*
X139001904Y-77749523D01*
X138978095Y-77725714D01*
X138954285Y-77678095D01*
X138954285Y-77559047D01*
X138978095Y-77511428D01*
X139001904Y-77487619D01*
X139049523Y-77463809D01*
X139192380Y-77463809D01*
X139240000Y-77487619D01*
X139263809Y-77511428D01*
X138811428Y-77963809D02*
X138644761Y-77463809D01*
X138478095Y-77963809D01*
%TO.C,U17*%
X137650952Y-78194285D02*
X137270000Y-78194285D01*
X137460476Y-78003809D02*
X137460476Y-78384761D01*
X137055714Y-78456190D02*
X137031904Y-78480000D01*
X136984285Y-78503809D01*
X136865238Y-78503809D01*
X136817619Y-78480000D01*
X136793809Y-78456190D01*
X136770000Y-78408571D01*
X136770000Y-78360952D01*
X136793809Y-78289523D01*
X137079523Y-78003809D01*
X136770000Y-78003809D01*
X136341428Y-78337142D02*
X136341428Y-78003809D01*
X136460476Y-78527619D02*
X136579523Y-78170476D01*
X136270000Y-78170476D01*
X136150952Y-78503809D02*
X135984285Y-78003809D01*
X135817619Y-78503809D01*
%TO.C,Q4*%
D14*
X141602380Y-84953809D02*
X141554761Y-84930000D01*
X141507142Y-84882380D01*
X141435714Y-84810952D01*
X141388095Y-84787142D01*
X141340476Y-84787142D01*
X141364285Y-84906190D02*
X141316666Y-84882380D01*
X141269047Y-84834761D01*
X141245238Y-84739523D01*
X141245238Y-84572857D01*
X141269047Y-84477619D01*
X141316666Y-84430000D01*
X141364285Y-84406190D01*
X141459523Y-84406190D01*
X141507142Y-84430000D01*
X141554761Y-84477619D01*
X141578571Y-84572857D01*
X141578571Y-84739523D01*
X141554761Y-84834761D01*
X141507142Y-84882380D01*
X141459523Y-84906190D01*
X141364285Y-84906190D01*
X142007142Y-84572857D02*
X142007142Y-84906190D01*
X141888095Y-84382380D02*
X141769047Y-84739523D01*
X142078571Y-84739523D01*
D12*
X143074285Y-82730000D02*
X143169523Y-82634761D01*
X143264761Y-82730000D01*
X143169523Y-82825238D01*
X143074285Y-82730000D01*
X143264761Y-82730000D01*
%TO.C,R22*%
D16*
X123339285Y-112743095D02*
X123255952Y-112624047D01*
X123196428Y-112743095D02*
X123196428Y-112493095D01*
X123291666Y-112493095D01*
X123315476Y-112505000D01*
X123327380Y-112516904D01*
X123339285Y-112540714D01*
X123339285Y-112576428D01*
X123327380Y-112600238D01*
X123315476Y-112612142D01*
X123291666Y-112624047D01*
X123196428Y-112624047D01*
X123434523Y-112516904D02*
X123446428Y-112505000D01*
X123470238Y-112493095D01*
X123529761Y-112493095D01*
X123553571Y-112505000D01*
X123565476Y-112516904D01*
X123577380Y-112540714D01*
X123577380Y-112564523D01*
X123565476Y-112600238D01*
X123422619Y-112743095D01*
X123577380Y-112743095D01*
X123672619Y-112516904D02*
X123684523Y-112505000D01*
X123708333Y-112493095D01*
X123767857Y-112493095D01*
X123791666Y-112505000D01*
X123803571Y-112516904D01*
X123815476Y-112540714D01*
X123815476Y-112564523D01*
X123803571Y-112600238D01*
X123660714Y-112743095D01*
X123815476Y-112743095D01*
%TO.C,C45*%
X135329285Y-93986785D02*
X135317380Y-93998690D01*
X135281666Y-94010595D01*
X135257857Y-94010595D01*
X135222142Y-93998690D01*
X135198333Y-93974880D01*
X135186428Y-93951071D01*
X135174523Y-93903452D01*
X135174523Y-93867738D01*
X135186428Y-93820119D01*
X135198333Y-93796309D01*
X135222142Y-93772500D01*
X135257857Y-93760595D01*
X135281666Y-93760595D01*
X135317380Y-93772500D01*
X135329285Y-93784404D01*
X135543571Y-93843928D02*
X135543571Y-94010595D01*
X135484047Y-93748690D02*
X135424523Y-93927261D01*
X135579285Y-93927261D01*
X135793571Y-93760595D02*
X135674523Y-93760595D01*
X135662619Y-93879642D01*
X135674523Y-93867738D01*
X135698333Y-93855833D01*
X135757857Y-93855833D01*
X135781666Y-93867738D01*
X135793571Y-93879642D01*
X135805476Y-93903452D01*
X135805476Y-93962976D01*
X135793571Y-93986785D01*
X135781666Y-93998690D01*
X135757857Y-94010595D01*
X135698333Y-94010595D01*
X135674523Y-93998690D01*
X135662619Y-93986785D01*
%TO.C,C58*%
D14*
X153788571Y-111150571D02*
X153764761Y-111174380D01*
X153693333Y-111198190D01*
X153645714Y-111198190D01*
X153574285Y-111174380D01*
X153526666Y-111126761D01*
X153502857Y-111079142D01*
X153479047Y-110983904D01*
X153479047Y-110912476D01*
X153502857Y-110817238D01*
X153526666Y-110769619D01*
X153574285Y-110722000D01*
X153645714Y-110698190D01*
X153693333Y-110698190D01*
X153764761Y-110722000D01*
X153788571Y-110745809D01*
X154240952Y-110698190D02*
X154002857Y-110698190D01*
X153979047Y-110936285D01*
X154002857Y-110912476D01*
X154050476Y-110888666D01*
X154169523Y-110888666D01*
X154217142Y-110912476D01*
X154240952Y-110936285D01*
X154264761Y-110983904D01*
X154264761Y-111102952D01*
X154240952Y-111150571D01*
X154217142Y-111174380D01*
X154169523Y-111198190D01*
X154050476Y-111198190D01*
X154002857Y-111174380D01*
X153979047Y-111150571D01*
X154550476Y-110912476D02*
X154502857Y-110888666D01*
X154479047Y-110864857D01*
X154455238Y-110817238D01*
X154455238Y-110793428D01*
X154479047Y-110745809D01*
X154502857Y-110722000D01*
X154550476Y-110698190D01*
X154645714Y-110698190D01*
X154693333Y-110722000D01*
X154717142Y-110745809D01*
X154740952Y-110793428D01*
X154740952Y-110817238D01*
X154717142Y-110864857D01*
X154693333Y-110888666D01*
X154645714Y-110912476D01*
X154550476Y-110912476D01*
X154502857Y-110936285D01*
X154479047Y-110960095D01*
X154455238Y-111007714D01*
X154455238Y-111102952D01*
X154479047Y-111150571D01*
X154502857Y-111174380D01*
X154550476Y-111198190D01*
X154645714Y-111198190D01*
X154693333Y-111174380D01*
X154717142Y-111150571D01*
X154740952Y-111102952D01*
X154740952Y-111007714D01*
X154717142Y-110960095D01*
X154693333Y-110936285D01*
X154645714Y-110912476D01*
%TO.C,R21*%
D16*
X124909285Y-112733095D02*
X124825952Y-112614047D01*
X124766428Y-112733095D02*
X124766428Y-112483095D01*
X124861666Y-112483095D01*
X124885476Y-112495000D01*
X124897380Y-112506904D01*
X124909285Y-112530714D01*
X124909285Y-112566428D01*
X124897380Y-112590238D01*
X124885476Y-112602142D01*
X124861666Y-112614047D01*
X124766428Y-112614047D01*
X125004523Y-112506904D02*
X125016428Y-112495000D01*
X125040238Y-112483095D01*
X125099761Y-112483095D01*
X125123571Y-112495000D01*
X125135476Y-112506904D01*
X125147380Y-112530714D01*
X125147380Y-112554523D01*
X125135476Y-112590238D01*
X124992619Y-112733095D01*
X125147380Y-112733095D01*
X125385476Y-112733095D02*
X125242619Y-112733095D01*
X125314047Y-112733095D02*
X125314047Y-112483095D01*
X125290238Y-112518809D01*
X125266428Y-112542619D01*
X125242619Y-112554523D01*
%TO.C,C26*%
D14*
X150268571Y-106018071D02*
X150244761Y-106041880D01*
X150173333Y-106065690D01*
X150125714Y-106065690D01*
X150054285Y-106041880D01*
X150006666Y-105994261D01*
X149982857Y-105946642D01*
X149959047Y-105851404D01*
X149959047Y-105779976D01*
X149982857Y-105684738D01*
X150006666Y-105637119D01*
X150054285Y-105589500D01*
X150125714Y-105565690D01*
X150173333Y-105565690D01*
X150244761Y-105589500D01*
X150268571Y-105613309D01*
X150459047Y-105613309D02*
X150482857Y-105589500D01*
X150530476Y-105565690D01*
X150649523Y-105565690D01*
X150697142Y-105589500D01*
X150720952Y-105613309D01*
X150744761Y-105660928D01*
X150744761Y-105708547D01*
X150720952Y-105779976D01*
X150435238Y-106065690D01*
X150744761Y-106065690D01*
X151173333Y-105565690D02*
X151078095Y-105565690D01*
X151030476Y-105589500D01*
X151006666Y-105613309D01*
X150959047Y-105684738D01*
X150935238Y-105779976D01*
X150935238Y-105970452D01*
X150959047Y-106018071D01*
X150982857Y-106041880D01*
X151030476Y-106065690D01*
X151125714Y-106065690D01*
X151173333Y-106041880D01*
X151197142Y-106018071D01*
X151220952Y-105970452D01*
X151220952Y-105851404D01*
X151197142Y-105803785D01*
X151173333Y-105779976D01*
X151125714Y-105756166D01*
X151030476Y-105756166D01*
X150982857Y-105779976D01*
X150959047Y-105803785D01*
X150935238Y-105851404D01*
%TO.C,C20*%
X157132571Y-101078071D02*
X157108761Y-101101880D01*
X157037333Y-101125690D01*
X156989714Y-101125690D01*
X156918285Y-101101880D01*
X156870666Y-101054261D01*
X156846857Y-101006642D01*
X156823047Y-100911404D01*
X156823047Y-100839976D01*
X156846857Y-100744738D01*
X156870666Y-100697119D01*
X156918285Y-100649500D01*
X156989714Y-100625690D01*
X157037333Y-100625690D01*
X157108761Y-100649500D01*
X157132571Y-100673309D01*
X157323047Y-100673309D02*
X157346857Y-100649500D01*
X157394476Y-100625690D01*
X157513523Y-100625690D01*
X157561142Y-100649500D01*
X157584952Y-100673309D01*
X157608761Y-100720928D01*
X157608761Y-100768547D01*
X157584952Y-100839976D01*
X157299238Y-101125690D01*
X157608761Y-101125690D01*
X157918285Y-100625690D02*
X157965904Y-100625690D01*
X158013523Y-100649500D01*
X158037333Y-100673309D01*
X158061142Y-100720928D01*
X158084952Y-100816166D01*
X158084952Y-100935214D01*
X158061142Y-101030452D01*
X158037333Y-101078071D01*
X158013523Y-101101880D01*
X157965904Y-101125690D01*
X157918285Y-101125690D01*
X157870666Y-101101880D01*
X157846857Y-101078071D01*
X157823047Y-101030452D01*
X157799238Y-100935214D01*
X157799238Y-100816166D01*
X157823047Y-100720928D01*
X157846857Y-100673309D01*
X157870666Y-100649500D01*
X157918285Y-100625690D01*
%TO.C,C40*%
D16*
X120116785Y-101620714D02*
X120128690Y-101632619D01*
X120140595Y-101668333D01*
X120140595Y-101692142D01*
X120128690Y-101727857D01*
X120104880Y-101751666D01*
X120081071Y-101763571D01*
X120033452Y-101775476D01*
X119997738Y-101775476D01*
X119950119Y-101763571D01*
X119926309Y-101751666D01*
X119902500Y-101727857D01*
X119890595Y-101692142D01*
X119890595Y-101668333D01*
X119902500Y-101632619D01*
X119914404Y-101620714D01*
X119973928Y-101406428D02*
X120140595Y-101406428D01*
X119878690Y-101465952D02*
X120057261Y-101525476D01*
X120057261Y-101370714D01*
X119890595Y-101227857D02*
X119890595Y-101204047D01*
X119902500Y-101180238D01*
X119914404Y-101168333D01*
X119938214Y-101156428D01*
X119985833Y-101144523D01*
X120045357Y-101144523D01*
X120092976Y-101156428D01*
X120116785Y-101168333D01*
X120128690Y-101180238D01*
X120140595Y-101204047D01*
X120140595Y-101227857D01*
X120128690Y-101251666D01*
X120116785Y-101263571D01*
X120092976Y-101275476D01*
X120045357Y-101287380D01*
X119985833Y-101287380D01*
X119938214Y-101275476D01*
X119914404Y-101263571D01*
X119902500Y-101251666D01*
X119890595Y-101227857D01*
%TO.C,J6*%
D12*
X148624666Y-71866380D02*
X148624666Y-72580666D01*
X148577047Y-72723523D01*
X148481809Y-72818761D01*
X148338952Y-72866380D01*
X148243714Y-72866380D01*
X149529428Y-71866380D02*
X149338952Y-71866380D01*
X149243714Y-71914000D01*
X149196095Y-71961619D01*
X149100857Y-72104476D01*
X149053238Y-72294952D01*
X149053238Y-72675904D01*
X149100857Y-72771142D01*
X149148476Y-72818761D01*
X149243714Y-72866380D01*
X149434190Y-72866380D01*
X149529428Y-72818761D01*
X149577047Y-72771142D01*
X149624666Y-72675904D01*
X149624666Y-72437809D01*
X149577047Y-72342571D01*
X149529428Y-72294952D01*
X149434190Y-72247333D01*
X149243714Y-72247333D01*
X149148476Y-72294952D01*
X149100857Y-72342571D01*
X149053238Y-72437809D01*
%TO.C,C21*%
D14*
X157378571Y-106060571D02*
X157354761Y-106084380D01*
X157283333Y-106108190D01*
X157235714Y-106108190D01*
X157164285Y-106084380D01*
X157116666Y-106036761D01*
X157092857Y-105989142D01*
X157069047Y-105893904D01*
X157069047Y-105822476D01*
X157092857Y-105727238D01*
X157116666Y-105679619D01*
X157164285Y-105632000D01*
X157235714Y-105608190D01*
X157283333Y-105608190D01*
X157354761Y-105632000D01*
X157378571Y-105655809D01*
X157569047Y-105655809D02*
X157592857Y-105632000D01*
X157640476Y-105608190D01*
X157759523Y-105608190D01*
X157807142Y-105632000D01*
X157830952Y-105655809D01*
X157854761Y-105703428D01*
X157854761Y-105751047D01*
X157830952Y-105822476D01*
X157545238Y-106108190D01*
X157854761Y-106108190D01*
X158330952Y-106108190D02*
X158045238Y-106108190D01*
X158188095Y-106108190D02*
X158188095Y-105608190D01*
X158140476Y-105679619D01*
X158092857Y-105727238D01*
X158045238Y-105751047D01*
%TO.C,C24*%
X160872571Y-111390571D02*
X160848761Y-111414380D01*
X160777333Y-111438190D01*
X160729714Y-111438190D01*
X160658285Y-111414380D01*
X160610666Y-111366761D01*
X160586857Y-111319142D01*
X160563047Y-111223904D01*
X160563047Y-111152476D01*
X160586857Y-111057238D01*
X160610666Y-111009619D01*
X160658285Y-110962000D01*
X160729714Y-110938190D01*
X160777333Y-110938190D01*
X160848761Y-110962000D01*
X160872571Y-110985809D01*
X161063047Y-110985809D02*
X161086857Y-110962000D01*
X161134476Y-110938190D01*
X161253523Y-110938190D01*
X161301142Y-110962000D01*
X161324952Y-110985809D01*
X161348761Y-111033428D01*
X161348761Y-111081047D01*
X161324952Y-111152476D01*
X161039238Y-111438190D01*
X161348761Y-111438190D01*
X161777333Y-111104857D02*
X161777333Y-111438190D01*
X161658285Y-110914380D02*
X161539238Y-111271523D01*
X161848761Y-111271523D01*
%TO.C,C27*%
X160828571Y-106215071D02*
X160804761Y-106238880D01*
X160733333Y-106262690D01*
X160685714Y-106262690D01*
X160614285Y-106238880D01*
X160566666Y-106191261D01*
X160542857Y-106143642D01*
X160519047Y-106048404D01*
X160519047Y-105976976D01*
X160542857Y-105881738D01*
X160566666Y-105834119D01*
X160614285Y-105786500D01*
X160685714Y-105762690D01*
X160733333Y-105762690D01*
X160804761Y-105786500D01*
X160828571Y-105810309D01*
X161019047Y-105810309D02*
X161042857Y-105786500D01*
X161090476Y-105762690D01*
X161209523Y-105762690D01*
X161257142Y-105786500D01*
X161280952Y-105810309D01*
X161304761Y-105857928D01*
X161304761Y-105905547D01*
X161280952Y-105976976D01*
X160995238Y-106262690D01*
X161304761Y-106262690D01*
X161471428Y-105762690D02*
X161804761Y-105762690D01*
X161590476Y-106262690D01*
%TO.C,C28*%
X157170571Y-111290571D02*
X157146761Y-111314380D01*
X157075333Y-111338190D01*
X157027714Y-111338190D01*
X156956285Y-111314380D01*
X156908666Y-111266761D01*
X156884857Y-111219142D01*
X156861047Y-111123904D01*
X156861047Y-111052476D01*
X156884857Y-110957238D01*
X156908666Y-110909619D01*
X156956285Y-110862000D01*
X157027714Y-110838190D01*
X157075333Y-110838190D01*
X157146761Y-110862000D01*
X157170571Y-110885809D01*
X157361047Y-110885809D02*
X157384857Y-110862000D01*
X157432476Y-110838190D01*
X157551523Y-110838190D01*
X157599142Y-110862000D01*
X157622952Y-110885809D01*
X157646761Y-110933428D01*
X157646761Y-110981047D01*
X157622952Y-111052476D01*
X157337238Y-111338190D01*
X157646761Y-111338190D01*
X157932476Y-111052476D02*
X157884857Y-111028666D01*
X157861047Y-111004857D01*
X157837238Y-110957238D01*
X157837238Y-110933428D01*
X157861047Y-110885809D01*
X157884857Y-110862000D01*
X157932476Y-110838190D01*
X158027714Y-110838190D01*
X158075333Y-110862000D01*
X158099142Y-110885809D01*
X158122952Y-110933428D01*
X158122952Y-110957238D01*
X158099142Y-111004857D01*
X158075333Y-111028666D01*
X158027714Y-111052476D01*
X157932476Y-111052476D01*
X157884857Y-111076285D01*
X157861047Y-111100095D01*
X157837238Y-111147714D01*
X157837238Y-111242952D01*
X157861047Y-111290571D01*
X157884857Y-111314380D01*
X157932476Y-111338190D01*
X158027714Y-111338190D01*
X158075333Y-111314380D01*
X158099142Y-111290571D01*
X158122952Y-111242952D01*
X158122952Y-111147714D01*
X158099142Y-111100095D01*
X158075333Y-111076285D01*
X158027714Y-111052476D01*
%TO.C,C29*%
D16*
X135909285Y-101420714D02*
X135921190Y-101432619D01*
X135933095Y-101468333D01*
X135933095Y-101492142D01*
X135921190Y-101527857D01*
X135897380Y-101551666D01*
X135873571Y-101563571D01*
X135825952Y-101575476D01*
X135790238Y-101575476D01*
X135742619Y-101563571D01*
X135718809Y-101551666D01*
X135695000Y-101527857D01*
X135683095Y-101492142D01*
X135683095Y-101468333D01*
X135695000Y-101432619D01*
X135706904Y-101420714D01*
X135706904Y-101325476D02*
X135695000Y-101313571D01*
X135683095Y-101289761D01*
X135683095Y-101230238D01*
X135695000Y-101206428D01*
X135706904Y-101194523D01*
X135730714Y-101182619D01*
X135754523Y-101182619D01*
X135790238Y-101194523D01*
X135933095Y-101337380D01*
X135933095Y-101182619D01*
X135933095Y-101063571D02*
X135933095Y-101015952D01*
X135921190Y-100992142D01*
X135909285Y-100980238D01*
X135873571Y-100956428D01*
X135825952Y-100944523D01*
X135730714Y-100944523D01*
X135706904Y-100956428D01*
X135695000Y-100968333D01*
X135683095Y-100992142D01*
X135683095Y-101039761D01*
X135695000Y-101063571D01*
X135706904Y-101075476D01*
X135730714Y-101087380D01*
X135790238Y-101087380D01*
X135814047Y-101075476D01*
X135825952Y-101063571D01*
X135837857Y-101039761D01*
X135837857Y-100992142D01*
X135825952Y-100968333D01*
X135814047Y-100956428D01*
X135790238Y-100944523D01*
%TO.C,C31*%
X120767285Y-110950714D02*
X120779190Y-110962619D01*
X120791095Y-110998333D01*
X120791095Y-111022142D01*
X120779190Y-111057857D01*
X120755380Y-111081666D01*
X120731571Y-111093571D01*
X120683952Y-111105476D01*
X120648238Y-111105476D01*
X120600619Y-111093571D01*
X120576809Y-111081666D01*
X120553000Y-111057857D01*
X120541095Y-111022142D01*
X120541095Y-110998333D01*
X120553000Y-110962619D01*
X120564904Y-110950714D01*
X120541095Y-110867380D02*
X120541095Y-110712619D01*
X120636333Y-110795952D01*
X120636333Y-110760238D01*
X120648238Y-110736428D01*
X120660142Y-110724523D01*
X120683952Y-110712619D01*
X120743476Y-110712619D01*
X120767285Y-110724523D01*
X120779190Y-110736428D01*
X120791095Y-110760238D01*
X120791095Y-110831666D01*
X120779190Y-110855476D01*
X120767285Y-110867380D01*
X120791095Y-110474523D02*
X120791095Y-110617380D01*
X120791095Y-110545952D02*
X120541095Y-110545952D01*
X120576809Y-110569761D01*
X120600619Y-110593571D01*
X120612523Y-110617380D01*
%TO.C,C32*%
X136819285Y-108471785D02*
X136807380Y-108483690D01*
X136771666Y-108495595D01*
X136747857Y-108495595D01*
X136712142Y-108483690D01*
X136688333Y-108459880D01*
X136676428Y-108436071D01*
X136664523Y-108388452D01*
X136664523Y-108352738D01*
X136676428Y-108305119D01*
X136688333Y-108281309D01*
X136712142Y-108257500D01*
X136747857Y-108245595D01*
X136771666Y-108245595D01*
X136807380Y-108257500D01*
X136819285Y-108269404D01*
X136902619Y-108245595D02*
X137057380Y-108245595D01*
X136974047Y-108340833D01*
X137009761Y-108340833D01*
X137033571Y-108352738D01*
X137045476Y-108364642D01*
X137057380Y-108388452D01*
X137057380Y-108447976D01*
X137045476Y-108471785D01*
X137033571Y-108483690D01*
X137009761Y-108495595D01*
X136938333Y-108495595D01*
X136914523Y-108483690D01*
X136902619Y-108471785D01*
X137152619Y-108269404D02*
X137164523Y-108257500D01*
X137188333Y-108245595D01*
X137247857Y-108245595D01*
X137271666Y-108257500D01*
X137283571Y-108269404D01*
X137295476Y-108293214D01*
X137295476Y-108317023D01*
X137283571Y-108352738D01*
X137140714Y-108495595D01*
X137295476Y-108495595D01*
%TO.C,C33*%
X120759285Y-109410714D02*
X120771190Y-109422619D01*
X120783095Y-109458333D01*
X120783095Y-109482142D01*
X120771190Y-109517857D01*
X120747380Y-109541666D01*
X120723571Y-109553571D01*
X120675952Y-109565476D01*
X120640238Y-109565476D01*
X120592619Y-109553571D01*
X120568809Y-109541666D01*
X120545000Y-109517857D01*
X120533095Y-109482142D01*
X120533095Y-109458333D01*
X120545000Y-109422619D01*
X120556904Y-109410714D01*
X120533095Y-109327380D02*
X120533095Y-109172619D01*
X120628333Y-109255952D01*
X120628333Y-109220238D01*
X120640238Y-109196428D01*
X120652142Y-109184523D01*
X120675952Y-109172619D01*
X120735476Y-109172619D01*
X120759285Y-109184523D01*
X120771190Y-109196428D01*
X120783095Y-109220238D01*
X120783095Y-109291666D01*
X120771190Y-109315476D01*
X120759285Y-109327380D01*
X120533095Y-109089285D02*
X120533095Y-108934523D01*
X120628333Y-109017857D01*
X120628333Y-108982142D01*
X120640238Y-108958333D01*
X120652142Y-108946428D01*
X120675952Y-108934523D01*
X120735476Y-108934523D01*
X120759285Y-108946428D01*
X120771190Y-108958333D01*
X120783095Y-108982142D01*
X120783095Y-109053571D01*
X120771190Y-109077380D01*
X120759285Y-109089285D01*
%TO.C,C34*%
X135889285Y-103030714D02*
X135901190Y-103042619D01*
X135913095Y-103078333D01*
X135913095Y-103102142D01*
X135901190Y-103137857D01*
X135877380Y-103161666D01*
X135853571Y-103173571D01*
X135805952Y-103185476D01*
X135770238Y-103185476D01*
X135722619Y-103173571D01*
X135698809Y-103161666D01*
X135675000Y-103137857D01*
X135663095Y-103102142D01*
X135663095Y-103078333D01*
X135675000Y-103042619D01*
X135686904Y-103030714D01*
X135663095Y-102947380D02*
X135663095Y-102792619D01*
X135758333Y-102875952D01*
X135758333Y-102840238D01*
X135770238Y-102816428D01*
X135782142Y-102804523D01*
X135805952Y-102792619D01*
X135865476Y-102792619D01*
X135889285Y-102804523D01*
X135901190Y-102816428D01*
X135913095Y-102840238D01*
X135913095Y-102911666D01*
X135901190Y-102935476D01*
X135889285Y-102947380D01*
X135746428Y-102578333D02*
X135913095Y-102578333D01*
X135651190Y-102637857D02*
X135829761Y-102697380D01*
X135829761Y-102542619D01*
%TO.C,C35*%
X121009285Y-106140714D02*
X121021190Y-106152619D01*
X121033095Y-106188333D01*
X121033095Y-106212142D01*
X121021190Y-106247857D01*
X120997380Y-106271666D01*
X120973571Y-106283571D01*
X120925952Y-106295476D01*
X120890238Y-106295476D01*
X120842619Y-106283571D01*
X120818809Y-106271666D01*
X120795000Y-106247857D01*
X120783095Y-106212142D01*
X120783095Y-106188333D01*
X120795000Y-106152619D01*
X120806904Y-106140714D01*
X120783095Y-106057380D02*
X120783095Y-105902619D01*
X120878333Y-105985952D01*
X120878333Y-105950238D01*
X120890238Y-105926428D01*
X120902142Y-105914523D01*
X120925952Y-105902619D01*
X120985476Y-105902619D01*
X121009285Y-105914523D01*
X121021190Y-105926428D01*
X121033095Y-105950238D01*
X121033095Y-106021666D01*
X121021190Y-106045476D01*
X121009285Y-106057380D01*
X120783095Y-105676428D02*
X120783095Y-105795476D01*
X120902142Y-105807380D01*
X120890238Y-105795476D01*
X120878333Y-105771666D01*
X120878333Y-105712142D01*
X120890238Y-105688333D01*
X120902142Y-105676428D01*
X120925952Y-105664523D01*
X120985476Y-105664523D01*
X121009285Y-105676428D01*
X121021190Y-105688333D01*
X121033095Y-105712142D01*
X121033095Y-105771666D01*
X121021190Y-105795476D01*
X121009285Y-105807380D01*
%TO.C,C36*%
X117949285Y-104981785D02*
X117937380Y-104993690D01*
X117901666Y-105005595D01*
X117877857Y-105005595D01*
X117842142Y-104993690D01*
X117818333Y-104969880D01*
X117806428Y-104946071D01*
X117794523Y-104898452D01*
X117794523Y-104862738D01*
X117806428Y-104815119D01*
X117818333Y-104791309D01*
X117842142Y-104767500D01*
X117877857Y-104755595D01*
X117901666Y-104755595D01*
X117937380Y-104767500D01*
X117949285Y-104779404D01*
X118032619Y-104755595D02*
X118187380Y-104755595D01*
X118104047Y-104850833D01*
X118139761Y-104850833D01*
X118163571Y-104862738D01*
X118175476Y-104874642D01*
X118187380Y-104898452D01*
X118187380Y-104957976D01*
X118175476Y-104981785D01*
X118163571Y-104993690D01*
X118139761Y-105005595D01*
X118068333Y-105005595D01*
X118044523Y-104993690D01*
X118032619Y-104981785D01*
X118401666Y-104755595D02*
X118354047Y-104755595D01*
X118330238Y-104767500D01*
X118318333Y-104779404D01*
X118294523Y-104815119D01*
X118282619Y-104862738D01*
X118282619Y-104957976D01*
X118294523Y-104981785D01*
X118306428Y-104993690D01*
X118330238Y-105005595D01*
X118377857Y-105005595D01*
X118401666Y-104993690D01*
X118413571Y-104981785D01*
X118425476Y-104957976D01*
X118425476Y-104898452D01*
X118413571Y-104874642D01*
X118401666Y-104862738D01*
X118377857Y-104850833D01*
X118330238Y-104850833D01*
X118306428Y-104862738D01*
X118294523Y-104874642D01*
X118282619Y-104898452D01*
%TO.C,C38*%
X120929285Y-103540714D02*
X120941190Y-103552619D01*
X120953095Y-103588333D01*
X120953095Y-103612142D01*
X120941190Y-103647857D01*
X120917380Y-103671666D01*
X120893571Y-103683571D01*
X120845952Y-103695476D01*
X120810238Y-103695476D01*
X120762619Y-103683571D01*
X120738809Y-103671666D01*
X120715000Y-103647857D01*
X120703095Y-103612142D01*
X120703095Y-103588333D01*
X120715000Y-103552619D01*
X120726904Y-103540714D01*
X120703095Y-103457380D02*
X120703095Y-103302619D01*
X120798333Y-103385952D01*
X120798333Y-103350238D01*
X120810238Y-103326428D01*
X120822142Y-103314523D01*
X120845952Y-103302619D01*
X120905476Y-103302619D01*
X120929285Y-103314523D01*
X120941190Y-103326428D01*
X120953095Y-103350238D01*
X120953095Y-103421666D01*
X120941190Y-103445476D01*
X120929285Y-103457380D01*
X120810238Y-103159761D02*
X120798333Y-103183571D01*
X120786428Y-103195476D01*
X120762619Y-103207380D01*
X120750714Y-103207380D01*
X120726904Y-103195476D01*
X120715000Y-103183571D01*
X120703095Y-103159761D01*
X120703095Y-103112142D01*
X120715000Y-103088333D01*
X120726904Y-103076428D01*
X120750714Y-103064523D01*
X120762619Y-103064523D01*
X120786428Y-103076428D01*
X120798333Y-103088333D01*
X120810238Y-103112142D01*
X120810238Y-103159761D01*
X120822142Y-103183571D01*
X120834047Y-103195476D01*
X120857857Y-103207380D01*
X120905476Y-103207380D01*
X120929285Y-103195476D01*
X120941190Y-103183571D01*
X120953095Y-103159761D01*
X120953095Y-103112142D01*
X120941190Y-103088333D01*
X120929285Y-103076428D01*
X120905476Y-103064523D01*
X120857857Y-103064523D01*
X120834047Y-103076428D01*
X120822142Y-103088333D01*
X120810238Y-103112142D01*
%TO.C,C41*%
X120836785Y-99600714D02*
X120848690Y-99612619D01*
X120860595Y-99648333D01*
X120860595Y-99672142D01*
X120848690Y-99707857D01*
X120824880Y-99731666D01*
X120801071Y-99743571D01*
X120753452Y-99755476D01*
X120717738Y-99755476D01*
X120670119Y-99743571D01*
X120646309Y-99731666D01*
X120622500Y-99707857D01*
X120610595Y-99672142D01*
X120610595Y-99648333D01*
X120622500Y-99612619D01*
X120634404Y-99600714D01*
X120693928Y-99386428D02*
X120860595Y-99386428D01*
X120598690Y-99445952D02*
X120777261Y-99505476D01*
X120777261Y-99350714D01*
X120860595Y-99124523D02*
X120860595Y-99267380D01*
X120860595Y-99195952D02*
X120610595Y-99195952D01*
X120646309Y-99219761D01*
X120670119Y-99243571D01*
X120682023Y-99267380D01*
%TO.C,C42*%
X135939285Y-104720714D02*
X135951190Y-104732619D01*
X135963095Y-104768333D01*
X135963095Y-104792142D01*
X135951190Y-104827857D01*
X135927380Y-104851666D01*
X135903571Y-104863571D01*
X135855952Y-104875476D01*
X135820238Y-104875476D01*
X135772619Y-104863571D01*
X135748809Y-104851666D01*
X135725000Y-104827857D01*
X135713095Y-104792142D01*
X135713095Y-104768333D01*
X135725000Y-104732619D01*
X135736904Y-104720714D01*
X135796428Y-104506428D02*
X135963095Y-104506428D01*
X135701190Y-104565952D02*
X135879761Y-104625476D01*
X135879761Y-104470714D01*
X135736904Y-104387380D02*
X135725000Y-104375476D01*
X135713095Y-104351666D01*
X135713095Y-104292142D01*
X135725000Y-104268333D01*
X135736904Y-104256428D01*
X135760714Y-104244523D01*
X135784523Y-104244523D01*
X135820238Y-104256428D01*
X135963095Y-104399285D01*
X135963095Y-104244523D01*
%TO.C,C44*%
X123769285Y-93969285D02*
X123757380Y-93981190D01*
X123721666Y-93993095D01*
X123697857Y-93993095D01*
X123662142Y-93981190D01*
X123638333Y-93957380D01*
X123626428Y-93933571D01*
X123614523Y-93885952D01*
X123614523Y-93850238D01*
X123626428Y-93802619D01*
X123638333Y-93778809D01*
X123662142Y-93755000D01*
X123697857Y-93743095D01*
X123721666Y-93743095D01*
X123757380Y-93755000D01*
X123769285Y-93766904D01*
X123983571Y-93826428D02*
X123983571Y-93993095D01*
X123924047Y-93731190D02*
X123864523Y-93909761D01*
X124019285Y-93909761D01*
X124221666Y-93826428D02*
X124221666Y-93993095D01*
X124162142Y-93731190D02*
X124102619Y-93909761D01*
X124257380Y-93909761D01*
%TO.C,C54*%
D14*
X153548571Y-101128071D02*
X153524761Y-101151880D01*
X153453333Y-101175690D01*
X153405714Y-101175690D01*
X153334285Y-101151880D01*
X153286666Y-101104261D01*
X153262857Y-101056642D01*
X153239047Y-100961404D01*
X153239047Y-100889976D01*
X153262857Y-100794738D01*
X153286666Y-100747119D01*
X153334285Y-100699500D01*
X153405714Y-100675690D01*
X153453333Y-100675690D01*
X153524761Y-100699500D01*
X153548571Y-100723309D01*
X154000952Y-100675690D02*
X153762857Y-100675690D01*
X153739047Y-100913785D01*
X153762857Y-100889976D01*
X153810476Y-100866166D01*
X153929523Y-100866166D01*
X153977142Y-100889976D01*
X154000952Y-100913785D01*
X154024761Y-100961404D01*
X154024761Y-101080452D01*
X154000952Y-101128071D01*
X153977142Y-101151880D01*
X153929523Y-101175690D01*
X153810476Y-101175690D01*
X153762857Y-101151880D01*
X153739047Y-101128071D01*
X154453333Y-100842357D02*
X154453333Y-101175690D01*
X154334285Y-100651880D02*
X154215238Y-101009023D01*
X154524761Y-101009023D01*
%TO.C,C55*%
X153748571Y-106080571D02*
X153724761Y-106104380D01*
X153653333Y-106128190D01*
X153605714Y-106128190D01*
X153534285Y-106104380D01*
X153486666Y-106056761D01*
X153462857Y-106009142D01*
X153439047Y-105913904D01*
X153439047Y-105842476D01*
X153462857Y-105747238D01*
X153486666Y-105699619D01*
X153534285Y-105652000D01*
X153605714Y-105628190D01*
X153653333Y-105628190D01*
X153724761Y-105652000D01*
X153748571Y-105675809D01*
X154200952Y-105628190D02*
X153962857Y-105628190D01*
X153939047Y-105866285D01*
X153962857Y-105842476D01*
X154010476Y-105818666D01*
X154129523Y-105818666D01*
X154177142Y-105842476D01*
X154200952Y-105866285D01*
X154224761Y-105913904D01*
X154224761Y-106032952D01*
X154200952Y-106080571D01*
X154177142Y-106104380D01*
X154129523Y-106128190D01*
X154010476Y-106128190D01*
X153962857Y-106104380D01*
X153939047Y-106080571D01*
X154677142Y-105628190D02*
X154439047Y-105628190D01*
X154415238Y-105866285D01*
X154439047Y-105842476D01*
X154486666Y-105818666D01*
X154605714Y-105818666D01*
X154653333Y-105842476D01*
X154677142Y-105866285D01*
X154700952Y-105913904D01*
X154700952Y-106032952D01*
X154677142Y-106080571D01*
X154653333Y-106104380D01*
X154605714Y-106128190D01*
X154486666Y-106128190D01*
X154439047Y-106104380D01*
X154415238Y-106080571D01*
%TO.C,C56*%
X150238571Y-101148071D02*
X150214761Y-101171880D01*
X150143333Y-101195690D01*
X150095714Y-101195690D01*
X150024285Y-101171880D01*
X149976666Y-101124261D01*
X149952857Y-101076642D01*
X149929047Y-100981404D01*
X149929047Y-100909976D01*
X149952857Y-100814738D01*
X149976666Y-100767119D01*
X150024285Y-100719500D01*
X150095714Y-100695690D01*
X150143333Y-100695690D01*
X150214761Y-100719500D01*
X150238571Y-100743309D01*
X150690952Y-100695690D02*
X150452857Y-100695690D01*
X150429047Y-100933785D01*
X150452857Y-100909976D01*
X150500476Y-100886166D01*
X150619523Y-100886166D01*
X150667142Y-100909976D01*
X150690952Y-100933785D01*
X150714761Y-100981404D01*
X150714761Y-101100452D01*
X150690952Y-101148071D01*
X150667142Y-101171880D01*
X150619523Y-101195690D01*
X150500476Y-101195690D01*
X150452857Y-101171880D01*
X150429047Y-101148071D01*
X151143333Y-100695690D02*
X151048095Y-100695690D01*
X151000476Y-100719500D01*
X150976666Y-100743309D01*
X150929047Y-100814738D01*
X150905238Y-100909976D01*
X150905238Y-101100452D01*
X150929047Y-101148071D01*
X150952857Y-101171880D01*
X151000476Y-101195690D01*
X151095714Y-101195690D01*
X151143333Y-101171880D01*
X151167142Y-101148071D01*
X151190952Y-101100452D01*
X151190952Y-100981404D01*
X151167142Y-100933785D01*
X151143333Y-100909976D01*
X151095714Y-100886166D01*
X151000476Y-100886166D01*
X150952857Y-100909976D01*
X150929047Y-100933785D01*
X150905238Y-100981404D01*
%TO.C,C57*%
X160952571Y-101028071D02*
X160928761Y-101051880D01*
X160857333Y-101075690D01*
X160809714Y-101075690D01*
X160738285Y-101051880D01*
X160690666Y-101004261D01*
X160666857Y-100956642D01*
X160643047Y-100861404D01*
X160643047Y-100789976D01*
X160666857Y-100694738D01*
X160690666Y-100647119D01*
X160738285Y-100599500D01*
X160809714Y-100575690D01*
X160857333Y-100575690D01*
X160928761Y-100599500D01*
X160952571Y-100623309D01*
X161404952Y-100575690D02*
X161166857Y-100575690D01*
X161143047Y-100813785D01*
X161166857Y-100789976D01*
X161214476Y-100766166D01*
X161333523Y-100766166D01*
X161381142Y-100789976D01*
X161404952Y-100813785D01*
X161428761Y-100861404D01*
X161428761Y-100980452D01*
X161404952Y-101028071D01*
X161381142Y-101051880D01*
X161333523Y-101075690D01*
X161214476Y-101075690D01*
X161166857Y-101051880D01*
X161143047Y-101028071D01*
X161595428Y-100575690D02*
X161928761Y-100575690D01*
X161714476Y-101075690D01*
%TO.C,C59*%
X150120571Y-111020571D02*
X150096761Y-111044380D01*
X150025333Y-111068190D01*
X149977714Y-111068190D01*
X149906285Y-111044380D01*
X149858666Y-110996761D01*
X149834857Y-110949142D01*
X149811047Y-110853904D01*
X149811047Y-110782476D01*
X149834857Y-110687238D01*
X149858666Y-110639619D01*
X149906285Y-110592000D01*
X149977714Y-110568190D01*
X150025333Y-110568190D01*
X150096761Y-110592000D01*
X150120571Y-110615809D01*
X150572952Y-110568190D02*
X150334857Y-110568190D01*
X150311047Y-110806285D01*
X150334857Y-110782476D01*
X150382476Y-110758666D01*
X150501523Y-110758666D01*
X150549142Y-110782476D01*
X150572952Y-110806285D01*
X150596761Y-110853904D01*
X150596761Y-110972952D01*
X150572952Y-111020571D01*
X150549142Y-111044380D01*
X150501523Y-111068190D01*
X150382476Y-111068190D01*
X150334857Y-111044380D01*
X150311047Y-111020571D01*
X150834857Y-111068190D02*
X150930095Y-111068190D01*
X150977714Y-111044380D01*
X151001523Y-111020571D01*
X151049142Y-110949142D01*
X151072952Y-110853904D01*
X151072952Y-110663428D01*
X151049142Y-110615809D01*
X151025333Y-110592000D01*
X150977714Y-110568190D01*
X150882476Y-110568190D01*
X150834857Y-110592000D01*
X150811047Y-110615809D01*
X150787238Y-110663428D01*
X150787238Y-110782476D01*
X150811047Y-110830095D01*
X150834857Y-110853904D01*
X150882476Y-110877714D01*
X150977714Y-110877714D01*
X151025333Y-110853904D01*
X151049142Y-110830095D01*
X151072952Y-110782476D01*
%TO.C,R6*%
D16*
X140836095Y-116307666D02*
X140717047Y-116391000D01*
X140836095Y-116450523D02*
X140586095Y-116450523D01*
X140586095Y-116355285D01*
X140598000Y-116331476D01*
X140609904Y-116319571D01*
X140633714Y-116307666D01*
X140669428Y-116307666D01*
X140693238Y-116319571D01*
X140705142Y-116331476D01*
X140717047Y-116355285D01*
X140717047Y-116450523D01*
X140586095Y-116093380D02*
X140586095Y-116141000D01*
X140598000Y-116164809D01*
X140609904Y-116176714D01*
X140645619Y-116200523D01*
X140693238Y-116212428D01*
X140788476Y-116212428D01*
X140812285Y-116200523D01*
X140824190Y-116188619D01*
X140836095Y-116164809D01*
X140836095Y-116117190D01*
X140824190Y-116093380D01*
X140812285Y-116081476D01*
X140788476Y-116069571D01*
X140728952Y-116069571D01*
X140705142Y-116081476D01*
X140693238Y-116093380D01*
X140681333Y-116117190D01*
X140681333Y-116164809D01*
X140693238Y-116188619D01*
X140705142Y-116200523D01*
X140728952Y-116212428D01*
%TO.C,R7*%
X120993095Y-97851666D02*
X120874047Y-97935000D01*
X120993095Y-97994523D02*
X120743095Y-97994523D01*
X120743095Y-97899285D01*
X120755000Y-97875476D01*
X120766904Y-97863571D01*
X120790714Y-97851666D01*
X120826428Y-97851666D01*
X120850238Y-97863571D01*
X120862142Y-97875476D01*
X120874047Y-97899285D01*
X120874047Y-97994523D01*
X120743095Y-97768333D02*
X120743095Y-97601666D01*
X120993095Y-97708809D01*
%TO.C,R8*%
X139013333Y-114108095D02*
X138930000Y-113989047D01*
X138870476Y-114108095D02*
X138870476Y-113858095D01*
X138965714Y-113858095D01*
X138989523Y-113870000D01*
X139001428Y-113881904D01*
X139013333Y-113905714D01*
X139013333Y-113941428D01*
X139001428Y-113965238D01*
X138989523Y-113977142D01*
X138965714Y-113989047D01*
X138870476Y-113989047D01*
X139156190Y-113965238D02*
X139132380Y-113953333D01*
X139120476Y-113941428D01*
X139108571Y-113917619D01*
X139108571Y-113905714D01*
X139120476Y-113881904D01*
X139132380Y-113870000D01*
X139156190Y-113858095D01*
X139203809Y-113858095D01*
X139227619Y-113870000D01*
X139239523Y-113881904D01*
X139251428Y-113905714D01*
X139251428Y-113917619D01*
X139239523Y-113941428D01*
X139227619Y-113953333D01*
X139203809Y-113965238D01*
X139156190Y-113965238D01*
X139132380Y-113977142D01*
X139120476Y-113989047D01*
X139108571Y-114012857D01*
X139108571Y-114060476D01*
X139120476Y-114084285D01*
X139132380Y-114096190D01*
X139156190Y-114108095D01*
X139203809Y-114108095D01*
X139227619Y-114096190D01*
X139239523Y-114084285D01*
X139251428Y-114060476D01*
X139251428Y-114012857D01*
X139239523Y-113989047D01*
X139227619Y-113977142D01*
X139203809Y-113965238D01*
%TO.C,R9*%
X140595333Y-114158095D02*
X140512000Y-114039047D01*
X140452476Y-114158095D02*
X140452476Y-113908095D01*
X140547714Y-113908095D01*
X140571523Y-113920000D01*
X140583428Y-113931904D01*
X140595333Y-113955714D01*
X140595333Y-113991428D01*
X140583428Y-114015238D01*
X140571523Y-114027142D01*
X140547714Y-114039047D01*
X140452476Y-114039047D01*
X140714380Y-114158095D02*
X140762000Y-114158095D01*
X140785809Y-114146190D01*
X140797714Y-114134285D01*
X140821523Y-114098571D01*
X140833428Y-114050952D01*
X140833428Y-113955714D01*
X140821523Y-113931904D01*
X140809619Y-113920000D01*
X140785809Y-113908095D01*
X140738190Y-113908095D01*
X140714380Y-113920000D01*
X140702476Y-113931904D01*
X140690571Y-113955714D01*
X140690571Y-114015238D01*
X140702476Y-114039047D01*
X140714380Y-114050952D01*
X140738190Y-114062857D01*
X140785809Y-114062857D01*
X140809619Y-114050952D01*
X140821523Y-114039047D01*
X140833428Y-114015238D01*
%TO.C,R10*%
X142119285Y-114153095D02*
X142035952Y-114034047D01*
X141976428Y-114153095D02*
X141976428Y-113903095D01*
X142071666Y-113903095D01*
X142095476Y-113915000D01*
X142107380Y-113926904D01*
X142119285Y-113950714D01*
X142119285Y-113986428D01*
X142107380Y-114010238D01*
X142095476Y-114022142D01*
X142071666Y-114034047D01*
X141976428Y-114034047D01*
X142357380Y-114153095D02*
X142214523Y-114153095D01*
X142285952Y-114153095D02*
X142285952Y-113903095D01*
X142262142Y-113938809D01*
X142238333Y-113962619D01*
X142214523Y-113974523D01*
X142512142Y-113903095D02*
X142535952Y-113903095D01*
X142559761Y-113915000D01*
X142571666Y-113926904D01*
X142583571Y-113950714D01*
X142595476Y-113998333D01*
X142595476Y-114057857D01*
X142583571Y-114105476D01*
X142571666Y-114129285D01*
X142559761Y-114141190D01*
X142535952Y-114153095D01*
X142512142Y-114153095D01*
X142488333Y-114141190D01*
X142476428Y-114129285D01*
X142464523Y-114105476D01*
X142452619Y-114057857D01*
X142452619Y-113998333D01*
X142464523Y-113950714D01*
X142476428Y-113926904D01*
X142488333Y-113915000D01*
X142512142Y-113903095D01*
%TO.C,R11*%
X161909285Y-96483095D02*
X161825952Y-96364047D01*
X161766428Y-96483095D02*
X161766428Y-96233095D01*
X161861666Y-96233095D01*
X161885476Y-96245000D01*
X161897380Y-96256904D01*
X161909285Y-96280714D01*
X161909285Y-96316428D01*
X161897380Y-96340238D01*
X161885476Y-96352142D01*
X161861666Y-96364047D01*
X161766428Y-96364047D01*
X162147380Y-96483095D02*
X162004523Y-96483095D01*
X162075952Y-96483095D02*
X162075952Y-96233095D01*
X162052142Y-96268809D01*
X162028333Y-96292619D01*
X162004523Y-96304523D01*
X162385476Y-96483095D02*
X162242619Y-96483095D01*
X162314047Y-96483095D02*
X162314047Y-96233095D01*
X162290238Y-96268809D01*
X162266428Y-96292619D01*
X162242619Y-96304523D01*
%TO.C,R17*%
X120863095Y-107710714D02*
X120744047Y-107794047D01*
X120863095Y-107853571D02*
X120613095Y-107853571D01*
X120613095Y-107758333D01*
X120625000Y-107734523D01*
X120636904Y-107722619D01*
X120660714Y-107710714D01*
X120696428Y-107710714D01*
X120720238Y-107722619D01*
X120732142Y-107734523D01*
X120744047Y-107758333D01*
X120744047Y-107853571D01*
X120863095Y-107472619D02*
X120863095Y-107615476D01*
X120863095Y-107544047D02*
X120613095Y-107544047D01*
X120648809Y-107567857D01*
X120672619Y-107591666D01*
X120684523Y-107615476D01*
X120613095Y-107389285D02*
X120613095Y-107222619D01*
X120863095Y-107329761D01*
%TO.C,J8*%
D14*
X147348333Y-118234190D02*
X147348333Y-118591333D01*
X147324523Y-118662761D01*
X147276904Y-118710380D01*
X147205476Y-118734190D01*
X147157857Y-118734190D01*
X147657857Y-118448476D02*
X147610238Y-118424666D01*
X147586428Y-118400857D01*
X147562619Y-118353238D01*
X147562619Y-118329428D01*
X147586428Y-118281809D01*
X147610238Y-118258000D01*
X147657857Y-118234190D01*
X147753095Y-118234190D01*
X147800714Y-118258000D01*
X147824523Y-118281809D01*
X147848333Y-118329428D01*
X147848333Y-118353238D01*
X147824523Y-118400857D01*
X147800714Y-118424666D01*
X147753095Y-118448476D01*
X147657857Y-118448476D01*
X147610238Y-118472285D01*
X147586428Y-118496095D01*
X147562619Y-118543714D01*
X147562619Y-118638952D01*
X147586428Y-118686571D01*
X147610238Y-118710380D01*
X147657857Y-118734190D01*
X147753095Y-118734190D01*
X147800714Y-118710380D01*
X147824523Y-118686571D01*
X147848333Y-118638952D01*
X147848333Y-118543714D01*
X147824523Y-118496095D01*
X147800714Y-118472285D01*
X147753095Y-118448476D01*
D12*
X145635000Y-118242285D02*
X145730238Y-118337523D01*
X145635000Y-118432761D01*
X145539761Y-118337523D01*
X145635000Y-118242285D01*
X145635000Y-118432761D01*
%TO.C,U15*%
D13*
X126630952Y-78290000D02*
X126678571Y-78313809D01*
X126750000Y-78313809D01*
X126821428Y-78290000D01*
X126869047Y-78242380D01*
X126892857Y-78194761D01*
X126916666Y-78099523D01*
X126916666Y-78028095D01*
X126892857Y-77932857D01*
X126869047Y-77885238D01*
X126821428Y-77837619D01*
X126750000Y-77813809D01*
X126702380Y-77813809D01*
X126630952Y-77837619D01*
X126607142Y-77861428D01*
X126607142Y-78028095D01*
X126702380Y-78028095D01*
X126392857Y-77813809D02*
X126392857Y-78313809D01*
X126107142Y-77813809D01*
X126107142Y-78313809D01*
X125869047Y-77813809D02*
X125869047Y-78313809D01*
X125750000Y-78313809D01*
X125678571Y-78290000D01*
X125630952Y-78242380D01*
X125607142Y-78194761D01*
X125583333Y-78099523D01*
X125583333Y-78028095D01*
X125607142Y-77932857D01*
X125630952Y-77885238D01*
X125678571Y-77837619D01*
X125750000Y-77813809D01*
X125869047Y-77813809D01*
%TO.C,U19*%
X143520952Y-78050000D02*
X143568571Y-78073809D01*
X143640000Y-78073809D01*
X143711428Y-78050000D01*
X143759047Y-78002380D01*
X143782857Y-77954761D01*
X143806666Y-77859523D01*
X143806666Y-77788095D01*
X143782857Y-77692857D01*
X143759047Y-77645238D01*
X143711428Y-77597619D01*
X143640000Y-77573809D01*
X143592380Y-77573809D01*
X143520952Y-77597619D01*
X143497142Y-77621428D01*
X143497142Y-77788095D01*
X143592380Y-77788095D01*
X143282857Y-77573809D02*
X143282857Y-78073809D01*
X142997142Y-77573809D01*
X142997142Y-78073809D01*
X142759047Y-77573809D02*
X142759047Y-78073809D01*
X142640000Y-78073809D01*
X142568571Y-78050000D01*
X142520952Y-78002380D01*
X142497142Y-77954761D01*
X142473333Y-77859523D01*
X142473333Y-77788095D01*
X142497142Y-77692857D01*
X142520952Y-77645238D01*
X142568571Y-77597619D01*
X142640000Y-77573809D01*
X142759047Y-77573809D01*
%TO.C,U20*%
X132378095Y-118143809D02*
X132068571Y-118143809D01*
X132235238Y-117953333D01*
X132163809Y-117953333D01*
X132116190Y-117929523D01*
X132092380Y-117905714D01*
X132068571Y-117858095D01*
X132068571Y-117739047D01*
X132092380Y-117691428D01*
X132116190Y-117667619D01*
X132163809Y-117643809D01*
X132306666Y-117643809D01*
X132354285Y-117667619D01*
X132378095Y-117691428D01*
X131854285Y-117691428D02*
X131830476Y-117667619D01*
X131854285Y-117643809D01*
X131878095Y-117667619D01*
X131854285Y-117691428D01*
X131854285Y-117643809D01*
X131663809Y-118143809D02*
X131354285Y-118143809D01*
X131520952Y-117953333D01*
X131449523Y-117953333D01*
X131401904Y-117929523D01*
X131378095Y-117905714D01*
X131354285Y-117858095D01*
X131354285Y-117739047D01*
X131378095Y-117691428D01*
X131401904Y-117667619D01*
X131449523Y-117643809D01*
X131592380Y-117643809D01*
X131640000Y-117667619D01*
X131663809Y-117691428D01*
X131211428Y-118143809D02*
X131044761Y-117643809D01*
X130878095Y-118143809D01*
%TO.C,D3*%
D16*
X117845476Y-98443095D02*
X117845476Y-98193095D01*
X117905000Y-98193095D01*
X117940714Y-98205000D01*
X117964523Y-98228809D01*
X117976428Y-98252619D01*
X117988333Y-98300238D01*
X117988333Y-98335952D01*
X117976428Y-98383571D01*
X117964523Y-98407380D01*
X117940714Y-98431190D01*
X117905000Y-98443095D01*
X117845476Y-98443095D01*
X118071666Y-98193095D02*
X118226428Y-98193095D01*
X118143095Y-98288333D01*
X118178809Y-98288333D01*
X118202619Y-98300238D01*
X118214523Y-98312142D01*
X118226428Y-98335952D01*
X118226428Y-98395476D01*
X118214523Y-98419285D01*
X118202619Y-98431190D01*
X118178809Y-98443095D01*
X118107380Y-98443095D01*
X118083571Y-98431190D01*
X118071666Y-98419285D01*
%TO.C,D4*%
X161910476Y-93298095D02*
X161910476Y-93048095D01*
X161970000Y-93048095D01*
X162005714Y-93060000D01*
X162029523Y-93083809D01*
X162041428Y-93107619D01*
X162053333Y-93155238D01*
X162053333Y-93190952D01*
X162041428Y-93238571D01*
X162029523Y-93262380D01*
X162005714Y-93286190D01*
X161970000Y-93298095D01*
X161910476Y-93298095D01*
X162267619Y-93131428D02*
X162267619Y-93298095D01*
X162208095Y-93036190D02*
X162148571Y-93214761D01*
X162303333Y-93214761D01*
%TO.C,D6*%
X120758595Y-112814523D02*
X120508595Y-112814523D01*
X120508595Y-112755000D01*
X120520500Y-112719285D01*
X120544309Y-112695476D01*
X120568119Y-112683571D01*
X120615738Y-112671666D01*
X120651452Y-112671666D01*
X120699071Y-112683571D01*
X120722880Y-112695476D01*
X120746690Y-112719285D01*
X120758595Y-112755000D01*
X120758595Y-112814523D01*
X120508595Y-112457380D02*
X120508595Y-112505000D01*
X120520500Y-112528809D01*
X120532404Y-112540714D01*
X120568119Y-112564523D01*
X120615738Y-112576428D01*
X120710976Y-112576428D01*
X120734785Y-112564523D01*
X120746690Y-112552619D01*
X120758595Y-112528809D01*
X120758595Y-112481190D01*
X120746690Y-112457380D01*
X120734785Y-112445476D01*
X120710976Y-112433571D01*
X120651452Y-112433571D01*
X120627642Y-112445476D01*
X120615738Y-112457380D01*
X120603833Y-112481190D01*
X120603833Y-112528809D01*
X120615738Y-112552619D01*
X120627642Y-112564523D01*
X120651452Y-112576428D01*
%TO.C,U9*%
D13*
X156060952Y-77924285D02*
X155680000Y-77924285D01*
X155870476Y-77733809D02*
X155870476Y-78114761D01*
X155465714Y-78186190D02*
X155441904Y-78210000D01*
X155394285Y-78233809D01*
X155275238Y-78233809D01*
X155227619Y-78210000D01*
X155203809Y-78186190D01*
X155180000Y-78138571D01*
X155180000Y-78090952D01*
X155203809Y-78019523D01*
X155489523Y-77733809D01*
X155180000Y-77733809D01*
X154751428Y-78067142D02*
X154751428Y-77733809D01*
X154870476Y-78257619D02*
X154989523Y-77900476D01*
X154680000Y-77900476D01*
X154560952Y-78233809D02*
X154394285Y-77733809D01*
X154227619Y-78233809D01*
%TO.C,C2*%
D16*
X145989285Y-88671666D02*
X146001190Y-88683571D01*
X146013095Y-88719285D01*
X146013095Y-88743095D01*
X146001190Y-88778809D01*
X145977380Y-88802619D01*
X145953571Y-88814523D01*
X145905952Y-88826428D01*
X145870238Y-88826428D01*
X145822619Y-88814523D01*
X145798809Y-88802619D01*
X145775000Y-88778809D01*
X145763095Y-88743095D01*
X145763095Y-88719285D01*
X145775000Y-88683571D01*
X145786904Y-88671666D01*
X145786904Y-88576428D02*
X145775000Y-88564523D01*
X145763095Y-88540714D01*
X145763095Y-88481190D01*
X145775000Y-88457380D01*
X145786904Y-88445476D01*
X145810714Y-88433571D01*
X145834523Y-88433571D01*
X145870238Y-88445476D01*
X146013095Y-88588333D01*
X146013095Y-88433571D01*
%TO.C,C4*%
X146009285Y-85791666D02*
X146021190Y-85803571D01*
X146033095Y-85839285D01*
X146033095Y-85863095D01*
X146021190Y-85898809D01*
X145997380Y-85922619D01*
X145973571Y-85934523D01*
X145925952Y-85946428D01*
X145890238Y-85946428D01*
X145842619Y-85934523D01*
X145818809Y-85922619D01*
X145795000Y-85898809D01*
X145783095Y-85863095D01*
X145783095Y-85839285D01*
X145795000Y-85803571D01*
X145806904Y-85791666D01*
X145866428Y-85577380D02*
X146033095Y-85577380D01*
X145771190Y-85636904D02*
X145949761Y-85696428D01*
X145949761Y-85541666D01*
%TO.C,C6*%
X161879285Y-86571666D02*
X161891190Y-86583571D01*
X161903095Y-86619285D01*
X161903095Y-86643095D01*
X161891190Y-86678809D01*
X161867380Y-86702619D01*
X161843571Y-86714523D01*
X161795952Y-86726428D01*
X161760238Y-86726428D01*
X161712619Y-86714523D01*
X161688809Y-86702619D01*
X161665000Y-86678809D01*
X161653095Y-86643095D01*
X161653095Y-86619285D01*
X161665000Y-86583571D01*
X161676904Y-86571666D01*
X161653095Y-86357380D02*
X161653095Y-86405000D01*
X161665000Y-86428809D01*
X161676904Y-86440714D01*
X161712619Y-86464523D01*
X161760238Y-86476428D01*
X161855476Y-86476428D01*
X161879285Y-86464523D01*
X161891190Y-86452619D01*
X161903095Y-86428809D01*
X161903095Y-86381190D01*
X161891190Y-86357380D01*
X161879285Y-86345476D01*
X161855476Y-86333571D01*
X161795952Y-86333571D01*
X161772142Y-86345476D01*
X161760238Y-86357380D01*
X161748333Y-86381190D01*
X161748333Y-86428809D01*
X161760238Y-86452619D01*
X161772142Y-86464523D01*
X161795952Y-86476428D01*
%TO.C,C8*%
X118739285Y-89441666D02*
X118751190Y-89453571D01*
X118763095Y-89489285D01*
X118763095Y-89513095D01*
X118751190Y-89548809D01*
X118727380Y-89572619D01*
X118703571Y-89584523D01*
X118655952Y-89596428D01*
X118620238Y-89596428D01*
X118572619Y-89584523D01*
X118548809Y-89572619D01*
X118525000Y-89548809D01*
X118513095Y-89513095D01*
X118513095Y-89489285D01*
X118525000Y-89453571D01*
X118536904Y-89441666D01*
X118620238Y-89298809D02*
X118608333Y-89322619D01*
X118596428Y-89334523D01*
X118572619Y-89346428D01*
X118560714Y-89346428D01*
X118536904Y-89334523D01*
X118525000Y-89322619D01*
X118513095Y-89298809D01*
X118513095Y-89251190D01*
X118525000Y-89227380D01*
X118536904Y-89215476D01*
X118560714Y-89203571D01*
X118572619Y-89203571D01*
X118596428Y-89215476D01*
X118608333Y-89227380D01*
X118620238Y-89251190D01*
X118620238Y-89298809D01*
X118632142Y-89322619D01*
X118644047Y-89334523D01*
X118667857Y-89346428D01*
X118715476Y-89346428D01*
X118739285Y-89334523D01*
X118751190Y-89322619D01*
X118763095Y-89298809D01*
X118763095Y-89251190D01*
X118751190Y-89227380D01*
X118739285Y-89215476D01*
X118715476Y-89203571D01*
X118667857Y-89203571D01*
X118644047Y-89215476D01*
X118632142Y-89227380D01*
X118620238Y-89251190D01*
%TO.C,C17*%
X161839285Y-88980714D02*
X161851190Y-88992619D01*
X161863095Y-89028333D01*
X161863095Y-89052142D01*
X161851190Y-89087857D01*
X161827380Y-89111666D01*
X161803571Y-89123571D01*
X161755952Y-89135476D01*
X161720238Y-89135476D01*
X161672619Y-89123571D01*
X161648809Y-89111666D01*
X161625000Y-89087857D01*
X161613095Y-89052142D01*
X161613095Y-89028333D01*
X161625000Y-88992619D01*
X161636904Y-88980714D01*
X161863095Y-88742619D02*
X161863095Y-88885476D01*
X161863095Y-88814047D02*
X161613095Y-88814047D01*
X161648809Y-88837857D01*
X161672619Y-88861666D01*
X161684523Y-88885476D01*
X161613095Y-88659285D02*
X161613095Y-88492619D01*
X161863095Y-88599761D01*
%TO.C,C18*%
X118669285Y-86620714D02*
X118681190Y-86632619D01*
X118693095Y-86668333D01*
X118693095Y-86692142D01*
X118681190Y-86727857D01*
X118657380Y-86751666D01*
X118633571Y-86763571D01*
X118585952Y-86775476D01*
X118550238Y-86775476D01*
X118502619Y-86763571D01*
X118478809Y-86751666D01*
X118455000Y-86727857D01*
X118443095Y-86692142D01*
X118443095Y-86668333D01*
X118455000Y-86632619D01*
X118466904Y-86620714D01*
X118693095Y-86382619D02*
X118693095Y-86525476D01*
X118693095Y-86454047D02*
X118443095Y-86454047D01*
X118478809Y-86477857D01*
X118502619Y-86501666D01*
X118514523Y-86525476D01*
X118550238Y-86239761D02*
X118538333Y-86263571D01*
X118526428Y-86275476D01*
X118502619Y-86287380D01*
X118490714Y-86287380D01*
X118466904Y-86275476D01*
X118455000Y-86263571D01*
X118443095Y-86239761D01*
X118443095Y-86192142D01*
X118455000Y-86168333D01*
X118466904Y-86156428D01*
X118490714Y-86144523D01*
X118502619Y-86144523D01*
X118526428Y-86156428D01*
X118538333Y-86168333D01*
X118550238Y-86192142D01*
X118550238Y-86239761D01*
X118562142Y-86263571D01*
X118574047Y-86275476D01*
X118597857Y-86287380D01*
X118645476Y-86287380D01*
X118669285Y-86275476D01*
X118681190Y-86263571D01*
X118693095Y-86239761D01*
X118693095Y-86192142D01*
X118681190Y-86168333D01*
X118669285Y-86156428D01*
X118645476Y-86144523D01*
X118597857Y-86144523D01*
X118574047Y-86156428D01*
X118562142Y-86168333D01*
X118550238Y-86192142D01*
%TO.C,R15*%
D14*
X128538571Y-93906190D02*
X128371904Y-93668095D01*
X128252857Y-93906190D02*
X128252857Y-93406190D01*
X128443333Y-93406190D01*
X128490952Y-93430000D01*
X128514761Y-93453809D01*
X128538571Y-93501428D01*
X128538571Y-93572857D01*
X128514761Y-93620476D01*
X128490952Y-93644285D01*
X128443333Y-93668095D01*
X128252857Y-93668095D01*
X129014761Y-93906190D02*
X128729047Y-93906190D01*
X128871904Y-93906190D02*
X128871904Y-93406190D01*
X128824285Y-93477619D01*
X128776666Y-93525238D01*
X128729047Y-93549047D01*
X129467142Y-93406190D02*
X129229047Y-93406190D01*
X129205238Y-93644285D01*
X129229047Y-93620476D01*
X129276666Y-93596666D01*
X129395714Y-93596666D01*
X129443333Y-93620476D01*
X129467142Y-93644285D01*
X129490952Y-93691904D01*
X129490952Y-93810952D01*
X129467142Y-93858571D01*
X129443333Y-93882380D01*
X129395714Y-93906190D01*
X129276666Y-93906190D01*
X129229047Y-93882380D01*
X129205238Y-93858571D01*
%TO.C,R18*%
X139908571Y-93906190D02*
X139741904Y-93668095D01*
X139622857Y-93906190D02*
X139622857Y-93406190D01*
X139813333Y-93406190D01*
X139860952Y-93430000D01*
X139884761Y-93453809D01*
X139908571Y-93501428D01*
X139908571Y-93572857D01*
X139884761Y-93620476D01*
X139860952Y-93644285D01*
X139813333Y-93668095D01*
X139622857Y-93668095D01*
X140384761Y-93906190D02*
X140099047Y-93906190D01*
X140241904Y-93906190D02*
X140241904Y-93406190D01*
X140194285Y-93477619D01*
X140146666Y-93525238D01*
X140099047Y-93549047D01*
X140670476Y-93620476D02*
X140622857Y-93596666D01*
X140599047Y-93572857D01*
X140575238Y-93525238D01*
X140575238Y-93501428D01*
X140599047Y-93453809D01*
X140622857Y-93430000D01*
X140670476Y-93406190D01*
X140765714Y-93406190D01*
X140813333Y-93430000D01*
X140837142Y-93453809D01*
X140860952Y-93501428D01*
X140860952Y-93525238D01*
X140837142Y-93572857D01*
X140813333Y-93596666D01*
X140765714Y-93620476D01*
X140670476Y-93620476D01*
X140622857Y-93644285D01*
X140599047Y-93668095D01*
X140575238Y-93715714D01*
X140575238Y-93810952D01*
X140599047Y-93858571D01*
X140622857Y-93882380D01*
X140670476Y-93906190D01*
X140765714Y-93906190D01*
X140813333Y-93882380D01*
X140837142Y-93858571D01*
X140860952Y-93810952D01*
X140860952Y-93715714D01*
X140837142Y-93668095D01*
X140813333Y-93644285D01*
X140765714Y-93620476D01*
%TO.C,R24*%
X154808571Y-93906190D02*
X154641904Y-93668095D01*
X154522857Y-93906190D02*
X154522857Y-93406190D01*
X154713333Y-93406190D01*
X154760952Y-93430000D01*
X154784761Y-93453809D01*
X154808571Y-93501428D01*
X154808571Y-93572857D01*
X154784761Y-93620476D01*
X154760952Y-93644285D01*
X154713333Y-93668095D01*
X154522857Y-93668095D01*
X154999047Y-93453809D02*
X155022857Y-93430000D01*
X155070476Y-93406190D01*
X155189523Y-93406190D01*
X155237142Y-93430000D01*
X155260952Y-93453809D01*
X155284761Y-93501428D01*
X155284761Y-93549047D01*
X155260952Y-93620476D01*
X154975238Y-93906190D01*
X155284761Y-93906190D01*
X155713333Y-93572857D02*
X155713333Y-93906190D01*
X155594285Y-93382380D02*
X155475238Y-93739523D01*
X155784761Y-93739523D01*
%TO.C,C19*%
D16*
X147559285Y-109349285D02*
X147547380Y-109361190D01*
X147511666Y-109373095D01*
X147487857Y-109373095D01*
X147452142Y-109361190D01*
X147428333Y-109337380D01*
X147416428Y-109313571D01*
X147404523Y-109265952D01*
X147404523Y-109230238D01*
X147416428Y-109182619D01*
X147428333Y-109158809D01*
X147452142Y-109135000D01*
X147487857Y-109123095D01*
X147511666Y-109123095D01*
X147547380Y-109135000D01*
X147559285Y-109146904D01*
X147797380Y-109373095D02*
X147654523Y-109373095D01*
X147725952Y-109373095D02*
X147725952Y-109123095D01*
X147702142Y-109158809D01*
X147678333Y-109182619D01*
X147654523Y-109194523D01*
X147916428Y-109373095D02*
X147964047Y-109373095D01*
X147987857Y-109361190D01*
X147999761Y-109349285D01*
X148023571Y-109313571D01*
X148035476Y-109265952D01*
X148035476Y-109170714D01*
X148023571Y-109146904D01*
X148011666Y-109135000D01*
X147987857Y-109123095D01*
X147940238Y-109123095D01*
X147916428Y-109135000D01*
X147904523Y-109146904D01*
X147892619Y-109170714D01*
X147892619Y-109230238D01*
X147904523Y-109254047D01*
X147916428Y-109265952D01*
X147940238Y-109277857D01*
X147987857Y-109277857D01*
X148011666Y-109265952D01*
X148023571Y-109254047D01*
X148035476Y-109230238D01*
%TO.C,R1*%
X147688333Y-105903095D02*
X147605000Y-105784047D01*
X147545476Y-105903095D02*
X147545476Y-105653095D01*
X147640714Y-105653095D01*
X147664523Y-105665000D01*
X147676428Y-105676904D01*
X147688333Y-105700714D01*
X147688333Y-105736428D01*
X147676428Y-105760238D01*
X147664523Y-105772142D01*
X147640714Y-105784047D01*
X147545476Y-105784047D01*
X147926428Y-105903095D02*
X147783571Y-105903095D01*
X147855000Y-105903095D02*
X147855000Y-105653095D01*
X147831190Y-105688809D01*
X147807380Y-105712619D01*
X147783571Y-105724523D01*
%TO.C,SW1*%
D13*
X145352380Y-108286666D02*
X145376190Y-108215238D01*
X145376190Y-108096190D01*
X145352380Y-108048571D01*
X145328571Y-108024761D01*
X145280952Y-108000952D01*
X145233333Y-108000952D01*
X145185714Y-108024761D01*
X145161904Y-108048571D01*
X145138095Y-108096190D01*
X145114285Y-108191428D01*
X145090476Y-108239047D01*
X145066666Y-108262857D01*
X145019047Y-108286666D01*
X144971428Y-108286666D01*
X144923809Y-108262857D01*
X144900000Y-108239047D01*
X144876190Y-108191428D01*
X144876190Y-108072380D01*
X144900000Y-108000952D01*
X144876190Y-107834285D02*
X145376190Y-107715238D01*
X145019047Y-107620000D01*
X145376190Y-107524761D01*
X144876190Y-107405714D01*
X145376190Y-106953333D02*
X145376190Y-107239047D01*
X145376190Y-107096190D02*
X144876190Y-107096190D01*
X144947619Y-107143809D01*
X144995238Y-107191428D01*
X145019047Y-107239047D01*
%TD*%
M02*
