%TF.GenerationSoftware,KiCad,Pcbnew,(5.1.8-0-10_14)*%
%TF.CreationDate,2021-05-13T19:53:47+02:00*%
%TF.ProjectId,Nauthiluscontroller,4e617574-6869-46c7-9573-636f6e74726f,rev?*%
%TF.SameCoordinates,Original*%
%TF.FileFunction,Legend,Bot*%
%TF.FilePolarity,Positive*%
%FSLAX46Y46*%
G04 Gerber Fmt 4.6, Leading zero omitted, Abs format (unit mm)*
G04 Created by KiCad (PCBNEW (5.1.8-0-10_14)) date 2021-05-13 19:53:47*
%MOMM*%
%LPD*%
G01*
G04 APERTURE LIST*
%ADD10C,0.125000*%
%ADD11C,0.150000*%
%ADD12C,0.120000*%
%ADD13C,0.127000*%
%ADD14C,0.200000*%
%ADD15C,0.152400*%
%ADD16C,0.100000*%
%ADD17C,0.062500*%
G04 APERTURE END LIST*
D10*
X156122857Y-75041428D02*
X156099047Y-75017619D01*
X156027619Y-74993809D01*
X155980000Y-74993809D01*
X155908571Y-75017619D01*
X155860952Y-75065238D01*
X155837142Y-75112857D01*
X155813333Y-75208095D01*
X155813333Y-75279523D01*
X155837142Y-75374761D01*
X155860952Y-75422380D01*
X155908571Y-75470000D01*
X155980000Y-75493809D01*
X156027619Y-75493809D01*
X156099047Y-75470000D01*
X156122857Y-75446190D01*
X156337142Y-74993809D02*
X156337142Y-75493809D01*
X156622857Y-74993809D01*
X156622857Y-75493809D01*
X157146666Y-75041428D02*
X157122857Y-75017619D01*
X157051428Y-74993809D01*
X157003809Y-74993809D01*
X156932380Y-75017619D01*
X156884761Y-75065238D01*
X156860952Y-75112857D01*
X156837142Y-75208095D01*
X156837142Y-75279523D01*
X156860952Y-75374761D01*
X156884761Y-75422380D01*
X156932380Y-75470000D01*
X157003809Y-75493809D01*
X157051428Y-75493809D01*
X157122857Y-75470000D01*
X157146666Y-75446190D01*
X130958571Y-74631428D02*
X130934761Y-74607619D01*
X130863333Y-74583809D01*
X130815714Y-74583809D01*
X130744285Y-74607619D01*
X130696666Y-74655238D01*
X130672857Y-74702857D01*
X130649047Y-74798095D01*
X130649047Y-74869523D01*
X130672857Y-74964761D01*
X130696666Y-75012380D01*
X130744285Y-75060000D01*
X130815714Y-75083809D01*
X130863333Y-75083809D01*
X130934761Y-75060000D01*
X130958571Y-75036190D01*
X131149047Y-74726666D02*
X131387142Y-74726666D01*
X131101428Y-74583809D02*
X131268095Y-75083809D01*
X131434761Y-74583809D01*
X131601428Y-74583809D02*
X131601428Y-75083809D01*
X131887142Y-74583809D01*
X131887142Y-75083809D01*
X146662380Y-75253809D02*
X146495714Y-75491904D01*
X146376666Y-75253809D02*
X146376666Y-75753809D01*
X146567142Y-75753809D01*
X146614761Y-75730000D01*
X146638571Y-75706190D01*
X146662380Y-75658571D01*
X146662380Y-75587142D01*
X146638571Y-75539523D01*
X146614761Y-75515714D01*
X146567142Y-75491904D01*
X146376666Y-75491904D01*
X146852857Y-75277619D02*
X146924285Y-75253809D01*
X147043333Y-75253809D01*
X147090952Y-75277619D01*
X147114761Y-75301428D01*
X147138571Y-75349047D01*
X147138571Y-75396666D01*
X147114761Y-75444285D01*
X147090952Y-75468095D01*
X147043333Y-75491904D01*
X146948095Y-75515714D01*
X146900476Y-75539523D01*
X146876666Y-75563333D01*
X146852857Y-75610952D01*
X146852857Y-75658571D01*
X146876666Y-75706190D01*
X146900476Y-75730000D01*
X146948095Y-75753809D01*
X147067142Y-75753809D01*
X147138571Y-75730000D01*
X147329047Y-75706190D02*
X147352857Y-75730000D01*
X147400476Y-75753809D01*
X147519523Y-75753809D01*
X147567142Y-75730000D01*
X147590952Y-75706190D01*
X147614761Y-75658571D01*
X147614761Y-75610952D01*
X147590952Y-75539523D01*
X147305238Y-75253809D01*
X147614761Y-75253809D01*
X147781428Y-75753809D02*
X148090952Y-75753809D01*
X147924285Y-75563333D01*
X147995714Y-75563333D01*
X148043333Y-75539523D01*
X148067142Y-75515714D01*
X148090952Y-75468095D01*
X148090952Y-75349047D01*
X148067142Y-75301428D01*
X148043333Y-75277619D01*
X147995714Y-75253809D01*
X147852857Y-75253809D01*
X147805238Y-75277619D01*
X147781428Y-75301428D01*
X148281428Y-75706190D02*
X148305238Y-75730000D01*
X148352857Y-75753809D01*
X148471904Y-75753809D01*
X148519523Y-75730000D01*
X148543333Y-75706190D01*
X148567142Y-75658571D01*
X148567142Y-75610952D01*
X148543333Y-75539523D01*
X148257619Y-75253809D01*
X148567142Y-75253809D01*
D11*
X148637696Y-97182304D02*
G75*
G03*
X148637696Y-97182304I-367696J0D01*
G01*
X149977696Y-96900000D02*
G75*
G03*
X149977696Y-96900000I-367696J0D01*
G01*
X148870000Y-98220000D02*
G75*
G03*
X148870000Y-98220000I-367696J0D01*
G01*
X148230000Y-99660000D02*
G75*
G03*
X148230000Y-99660000I-367696J0D01*
G01*
X144548680Y-99690000D02*
G75*
G03*
X144548680Y-99690000I-4500000J0D01*
G01*
D12*
%TO.C,C39*%
X135480000Y-97896267D02*
X135480000Y-97603733D01*
X134460000Y-97896267D02*
X134460000Y-97603733D01*
%TO.C,C9*%
X157890000Y-96613733D02*
X157890000Y-96906267D01*
X156870000Y-96613733D02*
X156870000Y-96906267D01*
%TO.C,C7*%
X160140000Y-108342733D02*
X160140000Y-108635267D01*
X161160000Y-108342733D02*
X161160000Y-108635267D01*
%TO.C,U14*%
X131540000Y-84990000D02*
X129590000Y-84990000D01*
X131540000Y-84990000D02*
X133490000Y-84990000D01*
X131540000Y-79870000D02*
X129590000Y-79870000D01*
X131540000Y-79870000D02*
X134990000Y-79870000D01*
%TO.C,C47*%
X136650000Y-82056233D02*
X136650000Y-82348767D01*
X135630000Y-82056233D02*
X135630000Y-82348767D01*
D13*
%TO.C,U4*%
X116700000Y-112435000D02*
X116700000Y-106215000D01*
X116700000Y-106215000D02*
X123360000Y-106215000D01*
X123360000Y-106215000D02*
X123360000Y-112435000D01*
D14*
X117830000Y-102035000D02*
G75*
G03*
X117830000Y-102035000I-100000J0D01*
G01*
D12*
%TO.C,C30*%
X145020000Y-81743733D02*
X145020000Y-82036267D01*
X144000000Y-81743733D02*
X144000000Y-82036267D01*
%TO.C,C15*%
X159730000Y-114266267D02*
X159730000Y-113973733D01*
X158710000Y-114266267D02*
X158710000Y-113973733D01*
%TO.C,R13*%
X154192500Y-113362742D02*
X154192500Y-113837258D01*
X153147500Y-113362742D02*
X153147500Y-113837258D01*
%TO.C,U1*%
X147890000Y-101004000D02*
X147890000Y-100054000D01*
X147890000Y-100054000D02*
X148840000Y-100054000D01*
X147890000Y-109324000D02*
X147890000Y-110274000D01*
X147890000Y-110274000D02*
X148840000Y-110274000D01*
X158110000Y-101004000D02*
X158110000Y-100054000D01*
X158110000Y-100054000D02*
X157160000Y-100054000D01*
X158110000Y-109324000D02*
X158110000Y-110274000D01*
X158110000Y-110274000D02*
X157160000Y-110274000D01*
X157160000Y-110274000D02*
X157160000Y-111614000D01*
%TO.C,F1*%
X118292936Y-97425000D02*
X119497064Y-97425000D01*
X118292936Y-95605000D02*
X119497064Y-95605000D01*
%TO.C,C11*%
X144510000Y-98913733D02*
X144510000Y-99206267D01*
X145530000Y-98913733D02*
X145530000Y-99206267D01*
%TO.C,C12*%
X156230000Y-96513733D02*
X156230000Y-96806267D01*
X155210000Y-96513733D02*
X155210000Y-96806267D01*
%TO.C,C13*%
X116710000Y-99418733D02*
X116710000Y-99711267D01*
X117730000Y-99418733D02*
X117730000Y-99711267D01*
%TO.C,C14*%
X122705000Y-96243733D02*
X122705000Y-96536267D01*
X121685000Y-96243733D02*
X121685000Y-96536267D01*
%TO.C,C16*%
X154190000Y-116646233D02*
X154190000Y-116938767D01*
X153170000Y-116646233D02*
X153170000Y-116938767D01*
%TO.C,FB1*%
X122680000Y-99780580D02*
X122680000Y-99499420D01*
X121660000Y-99780580D02*
X121660000Y-99499420D01*
%TO.C,R12*%
X162131742Y-106440500D02*
X162606258Y-106440500D01*
X162131742Y-105395500D02*
X162606258Y-105395500D01*
%TO.C,R14*%
X162543258Y-104916500D02*
X162068742Y-104916500D01*
X162543258Y-103871500D02*
X162068742Y-103871500D01*
%TO.C,R29*%
X132012500Y-78352258D02*
X132012500Y-77877742D01*
X130967500Y-78352258D02*
X130967500Y-77877742D01*
%TO.C,C1*%
X144030000Y-109268767D02*
X144030000Y-108976233D01*
X145050000Y-109268767D02*
X145050000Y-108976233D01*
%TO.C,C3*%
X161715000Y-108330233D02*
X161715000Y-108622767D01*
X162735000Y-108330233D02*
X162735000Y-108622767D01*
%TO.C,C5*%
X159308767Y-110854000D02*
X159016233Y-110854000D01*
X159308767Y-111874000D02*
X159016233Y-111874000D01*
%TO.C,C10*%
X147250000Y-98923733D02*
X147250000Y-99216267D01*
X146230000Y-98923733D02*
X146230000Y-99216267D01*
%TO.C,C37*%
X135480000Y-101023733D02*
X135480000Y-101316267D01*
X134460000Y-101023733D02*
X134460000Y-101316267D01*
%TO.C,R5*%
X123522500Y-76327742D02*
X123522500Y-76802258D01*
X122477500Y-76327742D02*
X122477500Y-76802258D01*
D15*
%TO.C,U8*%
X149321000Y-80225800D02*
X150387800Y-80225800D01*
X148711400Y-80225800D02*
X149321000Y-80225800D01*
X147644600Y-80225800D02*
X148711400Y-80225800D01*
X150387800Y-85204200D02*
X147644600Y-85204200D01*
D16*
X148711400Y-80225800D02*
G75*
G03*
X149321000Y-80225800I304800J0D01*
G01*
D12*
%TO.C,U10*%
X140048680Y-97080000D02*
X143648680Y-97080000D01*
X140048680Y-97080000D02*
X137848680Y-97080000D01*
X140048680Y-102300000D02*
X142248680Y-102300000D01*
X140048680Y-102300000D02*
X137848680Y-102300000D01*
%TO.C,C22*%
X149026267Y-115190000D02*
X148733733Y-115190000D01*
X149026267Y-116210000D02*
X148733733Y-116210000D01*
%TO.C,C23*%
X149011268Y-114524999D02*
X148718734Y-114524999D01*
X149011268Y-113504999D02*
X148718734Y-113504999D01*
%TO.C,C39*%
D17*
X135080714Y-97839285D02*
X135092619Y-97851190D01*
X135128333Y-97863095D01*
X135152142Y-97863095D01*
X135187857Y-97851190D01*
X135211666Y-97827380D01*
X135223571Y-97803571D01*
X135235476Y-97755952D01*
X135235476Y-97720238D01*
X135223571Y-97672619D01*
X135211666Y-97648809D01*
X135187857Y-97625000D01*
X135152142Y-97613095D01*
X135128333Y-97613095D01*
X135092619Y-97625000D01*
X135080714Y-97636904D01*
X134997380Y-97613095D02*
X134842619Y-97613095D01*
X134925952Y-97708333D01*
X134890238Y-97708333D01*
X134866428Y-97720238D01*
X134854523Y-97732142D01*
X134842619Y-97755952D01*
X134842619Y-97815476D01*
X134854523Y-97839285D01*
X134866428Y-97851190D01*
X134890238Y-97863095D01*
X134961666Y-97863095D01*
X134985476Y-97851190D01*
X134997380Y-97839285D01*
X134723571Y-97863095D02*
X134675952Y-97863095D01*
X134652142Y-97851190D01*
X134640238Y-97839285D01*
X134616428Y-97803571D01*
X134604523Y-97755952D01*
X134604523Y-97660714D01*
X134616428Y-97636904D01*
X134628333Y-97625000D01*
X134652142Y-97613095D01*
X134699761Y-97613095D01*
X134723571Y-97625000D01*
X134735476Y-97636904D01*
X134747380Y-97660714D01*
X134747380Y-97720238D01*
X134735476Y-97744047D01*
X134723571Y-97755952D01*
X134699761Y-97767857D01*
X134652142Y-97767857D01*
X134628333Y-97755952D01*
X134616428Y-97744047D01*
X134604523Y-97720238D01*
%TO.C,C9*%
X157401666Y-96869285D02*
X157413571Y-96881190D01*
X157449285Y-96893095D01*
X157473095Y-96893095D01*
X157508809Y-96881190D01*
X157532619Y-96857380D01*
X157544523Y-96833571D01*
X157556428Y-96785952D01*
X157556428Y-96750238D01*
X157544523Y-96702619D01*
X157532619Y-96678809D01*
X157508809Y-96655000D01*
X157473095Y-96643095D01*
X157449285Y-96643095D01*
X157413571Y-96655000D01*
X157401666Y-96666904D01*
X157282619Y-96893095D02*
X157235000Y-96893095D01*
X157211190Y-96881190D01*
X157199285Y-96869285D01*
X157175476Y-96833571D01*
X157163571Y-96785952D01*
X157163571Y-96690714D01*
X157175476Y-96666904D01*
X157187380Y-96655000D01*
X157211190Y-96643095D01*
X157258809Y-96643095D01*
X157282619Y-96655000D01*
X157294523Y-96666904D01*
X157306428Y-96690714D01*
X157306428Y-96750238D01*
X157294523Y-96774047D01*
X157282619Y-96785952D01*
X157258809Y-96797857D01*
X157211190Y-96797857D01*
X157187380Y-96785952D01*
X157175476Y-96774047D01*
X157163571Y-96750238D01*
%TO.C,C7*%
X160576665Y-108603284D02*
X160588570Y-108615189D01*
X160624284Y-108627094D01*
X160648094Y-108627094D01*
X160683808Y-108615189D01*
X160707618Y-108591379D01*
X160719522Y-108567570D01*
X160731427Y-108519951D01*
X160731427Y-108484237D01*
X160719522Y-108436618D01*
X160707618Y-108412808D01*
X160683808Y-108388999D01*
X160648094Y-108377094D01*
X160624284Y-108377094D01*
X160588570Y-108388999D01*
X160576665Y-108400903D01*
X160493332Y-108377094D02*
X160326665Y-108377094D01*
X160433808Y-108627094D01*
%TO.C,U14*%
D10*
X132094047Y-82029190D02*
X132094047Y-82433952D01*
X132070238Y-82481571D01*
X132046428Y-82505380D01*
X131998809Y-82529190D01*
X131903571Y-82529190D01*
X131855952Y-82505380D01*
X131832142Y-82481571D01*
X131808333Y-82433952D01*
X131808333Y-82029190D01*
X131308333Y-82529190D02*
X131594047Y-82529190D01*
X131451190Y-82529190D02*
X131451190Y-82029190D01*
X131498809Y-82100619D01*
X131546428Y-82148238D01*
X131594047Y-82172047D01*
X130879761Y-82195857D02*
X130879761Y-82529190D01*
X130998809Y-82005380D02*
X131117857Y-82362523D01*
X130808333Y-82362523D01*
D11*
X135565000Y-80429285D02*
X135469761Y-80524523D01*
X135565000Y-80619761D01*
X135660238Y-80524523D01*
X135565000Y-80429285D01*
X135565000Y-80619761D01*
%TO.C,C47*%
D17*
X136310714Y-82311785D02*
X136322619Y-82323690D01*
X136358333Y-82335595D01*
X136382142Y-82335595D01*
X136417857Y-82323690D01*
X136441666Y-82299880D01*
X136453571Y-82276071D01*
X136465476Y-82228452D01*
X136465476Y-82192738D01*
X136453571Y-82145119D01*
X136441666Y-82121309D01*
X136417857Y-82097500D01*
X136382142Y-82085595D01*
X136358333Y-82085595D01*
X136322619Y-82097500D01*
X136310714Y-82109404D01*
X136096428Y-82168928D02*
X136096428Y-82335595D01*
X136155952Y-82073690D02*
X136215476Y-82252261D01*
X136060714Y-82252261D01*
X135989285Y-82085595D02*
X135822619Y-82085595D01*
X135929761Y-82335595D01*
%TO.C,U4*%
D10*
X121280952Y-106676190D02*
X121280952Y-107080952D01*
X121257142Y-107128571D01*
X121233333Y-107152380D01*
X121185714Y-107176190D01*
X121090476Y-107176190D01*
X121042857Y-107152380D01*
X121019047Y-107128571D01*
X120995238Y-107080952D01*
X120995238Y-106676190D01*
X120542857Y-106842857D02*
X120542857Y-107176190D01*
X120661904Y-106652380D02*
X120780952Y-107009523D01*
X120471428Y-107009523D01*
%TO.C,U7*%
D16*
X138381904Y-75823809D02*
X138691428Y-75823809D01*
X138524761Y-75633333D01*
X138596190Y-75633333D01*
X138643809Y-75609523D01*
X138667619Y-75585714D01*
X138691428Y-75538095D01*
X138691428Y-75419047D01*
X138667619Y-75371428D01*
X138643809Y-75347619D01*
X138596190Y-75323809D01*
X138453333Y-75323809D01*
X138405714Y-75347619D01*
X138381904Y-75371428D01*
X138905714Y-75371428D02*
X138929523Y-75347619D01*
X138905714Y-75323809D01*
X138881904Y-75347619D01*
X138905714Y-75371428D01*
X138905714Y-75323809D01*
X139096190Y-75823809D02*
X139405714Y-75823809D01*
X139239047Y-75633333D01*
X139310476Y-75633333D01*
X139358095Y-75609523D01*
X139381904Y-75585714D01*
X139405714Y-75538095D01*
X139405714Y-75419047D01*
X139381904Y-75371428D01*
X139358095Y-75347619D01*
X139310476Y-75323809D01*
X139167619Y-75323809D01*
X139120000Y-75347619D01*
X139096190Y-75371428D01*
X139548571Y-75823809D02*
X139715238Y-75323809D01*
X139881904Y-75823809D01*
%TO.C,U17*%
X135799047Y-78204285D02*
X136180000Y-78204285D01*
X135989523Y-78013809D02*
X135989523Y-78394761D01*
X136394285Y-78466190D02*
X136418095Y-78490000D01*
X136465714Y-78513809D01*
X136584761Y-78513809D01*
X136632380Y-78490000D01*
X136656190Y-78466190D01*
X136680000Y-78418571D01*
X136680000Y-78370952D01*
X136656190Y-78299523D01*
X136370476Y-78013809D01*
X136680000Y-78013809D01*
X137108571Y-78347142D02*
X137108571Y-78013809D01*
X136989523Y-78537619D02*
X136870476Y-78180476D01*
X137180000Y-78180476D01*
X137299047Y-78513809D02*
X137465714Y-78013809D01*
X137632380Y-78513809D01*
%TO.C,J3*%
D10*
X135366666Y-71716190D02*
X135366666Y-72073333D01*
X135390476Y-72144761D01*
X135438095Y-72192380D01*
X135509523Y-72216190D01*
X135557142Y-72216190D01*
X135176190Y-71716190D02*
X134866666Y-71716190D01*
X135033333Y-71906666D01*
X134961904Y-71906666D01*
X134914285Y-71930476D01*
X134890476Y-71954285D01*
X134866666Y-72001904D01*
X134866666Y-72120952D01*
X134890476Y-72168571D01*
X134914285Y-72192380D01*
X134961904Y-72216190D01*
X135104761Y-72216190D01*
X135152380Y-72192380D01*
X135176190Y-72168571D01*
D11*
X134460000Y-73744285D02*
X134364761Y-73839523D01*
X134460000Y-73934761D01*
X134555238Y-73839523D01*
X134460000Y-73744285D01*
X134460000Y-73934761D01*
D17*
X133898571Y-74708333D02*
X133922380Y-74696428D01*
X133946190Y-74660714D01*
X133946190Y-74636904D01*
X133922380Y-74601190D01*
X133874761Y-74577380D01*
X133827142Y-74565476D01*
X133731904Y-74553571D01*
X133660476Y-74553571D01*
X133565238Y-74565476D01*
X133517619Y-74577380D01*
X133470000Y-74601190D01*
X133446190Y-74636904D01*
X133446190Y-74660714D01*
X133470000Y-74696428D01*
X133493809Y-74708333D01*
X133803333Y-74803571D02*
X133803333Y-74922619D01*
X133946190Y-74779761D02*
X133446190Y-74863095D01*
X133946190Y-74946428D01*
X133946190Y-75029761D02*
X133446190Y-75029761D01*
X133946190Y-75172619D01*
X133446190Y-75172619D01*
X133946190Y-75291666D02*
X133446190Y-75291666D01*
X133684285Y-75291666D02*
X133684285Y-75434523D01*
X133946190Y-75434523D02*
X133446190Y-75434523D01*
X135868571Y-75798095D02*
X135892380Y-75786190D01*
X135916190Y-75750476D01*
X135916190Y-75726666D01*
X135892380Y-75690952D01*
X135844761Y-75667142D01*
X135797142Y-75655238D01*
X135701904Y-75643333D01*
X135630476Y-75643333D01*
X135535238Y-75655238D01*
X135487619Y-75667142D01*
X135440000Y-75690952D01*
X135416190Y-75726666D01*
X135416190Y-75750476D01*
X135440000Y-75786190D01*
X135463809Y-75798095D01*
X135773333Y-75893333D02*
X135773333Y-76012380D01*
X135916190Y-75869523D02*
X135416190Y-75952857D01*
X135916190Y-76036190D01*
X135916190Y-76119523D02*
X135416190Y-76119523D01*
X135916190Y-76262380D01*
X135416190Y-76262380D01*
X135916190Y-76500476D02*
X135916190Y-76381428D01*
X135416190Y-76381428D01*
%TO.C,C30*%
X144339285Y-81795714D02*
X144327380Y-81783809D01*
X144291666Y-81771904D01*
X144267857Y-81771904D01*
X144232142Y-81783809D01*
X144208333Y-81807619D01*
X144196428Y-81831428D01*
X144184523Y-81879047D01*
X144184523Y-81914761D01*
X144196428Y-81962380D01*
X144208333Y-81986190D01*
X144232142Y-82010000D01*
X144267857Y-82021904D01*
X144291666Y-82021904D01*
X144327380Y-82010000D01*
X144339285Y-81998095D01*
X144422619Y-82021904D02*
X144577380Y-82021904D01*
X144494047Y-81926666D01*
X144529761Y-81926666D01*
X144553571Y-81914761D01*
X144565476Y-81902857D01*
X144577380Y-81879047D01*
X144577380Y-81819523D01*
X144565476Y-81795714D01*
X144553571Y-81783809D01*
X144529761Y-81771904D01*
X144458333Y-81771904D01*
X144434523Y-81783809D01*
X144422619Y-81795714D01*
X144732142Y-82021904D02*
X144755952Y-82021904D01*
X144779761Y-82010000D01*
X144791666Y-81998095D01*
X144803571Y-81974285D01*
X144815476Y-81926666D01*
X144815476Y-81867142D01*
X144803571Y-81819523D01*
X144791666Y-81795714D01*
X144779761Y-81783809D01*
X144755952Y-81771904D01*
X144732142Y-81771904D01*
X144708333Y-81783809D01*
X144696428Y-81795714D01*
X144684523Y-81819523D01*
X144672619Y-81867142D01*
X144672619Y-81926666D01*
X144684523Y-81974285D01*
X144696428Y-81998095D01*
X144708333Y-82010000D01*
X144732142Y-82021904D01*
%TO.C,J1*%
D10*
X153356666Y-71696190D02*
X153356666Y-72053333D01*
X153380476Y-72124761D01*
X153428095Y-72172380D01*
X153499523Y-72196190D01*
X153547142Y-72196190D01*
X152856666Y-72196190D02*
X153142380Y-72196190D01*
X152999523Y-72196190D02*
X152999523Y-71696190D01*
X153047142Y-71767619D01*
X153094761Y-71815238D01*
X153142380Y-71839047D01*
D11*
X152020000Y-73664285D02*
X151924761Y-73759523D01*
X152020000Y-73854761D01*
X152115238Y-73759523D01*
X152020000Y-73664285D01*
X152020000Y-73854761D01*
D17*
X152256190Y-75540000D02*
X151756190Y-75540000D01*
X151756190Y-75599523D01*
X151780000Y-75635238D01*
X151827619Y-75659047D01*
X151875238Y-75670952D01*
X151970476Y-75682857D01*
X152041904Y-75682857D01*
X152137142Y-75670952D01*
X152184761Y-75659047D01*
X152232380Y-75635238D01*
X152256190Y-75599523D01*
X152256190Y-75540000D01*
X152256190Y-75790000D02*
X151756190Y-75790000D01*
X152256190Y-76051904D02*
X152018095Y-75968571D01*
X152256190Y-75909047D02*
X151756190Y-75909047D01*
X151756190Y-76004285D01*
X151780000Y-76028095D01*
X151803809Y-76040000D01*
X151851428Y-76051904D01*
X151922857Y-76051904D01*
X151970476Y-76040000D01*
X151994285Y-76028095D01*
X152018095Y-76004285D01*
X152018095Y-75909047D01*
X153492380Y-75655238D02*
X153516190Y-75690952D01*
X153516190Y-75750476D01*
X153492380Y-75774285D01*
X153468571Y-75786190D01*
X153420952Y-75798095D01*
X153373333Y-75798095D01*
X153325714Y-75786190D01*
X153301904Y-75774285D01*
X153278095Y-75750476D01*
X153254285Y-75702857D01*
X153230476Y-75679047D01*
X153206666Y-75667142D01*
X153159047Y-75655238D01*
X153111428Y-75655238D01*
X153063809Y-75667142D01*
X153040000Y-75679047D01*
X153016190Y-75702857D01*
X153016190Y-75762380D01*
X153040000Y-75798095D01*
X153016190Y-75869523D02*
X153016190Y-76012380D01*
X153516190Y-75940952D02*
X153016190Y-75940952D01*
X153254285Y-76095714D02*
X153254285Y-76179047D01*
X153516190Y-76214761D02*
X153516190Y-76095714D01*
X153016190Y-76095714D01*
X153016190Y-76214761D01*
X153516190Y-76321904D02*
X153016190Y-76321904D01*
X153016190Y-76417142D01*
X153040000Y-76440952D01*
X153063809Y-76452857D01*
X153111428Y-76464761D01*
X153182857Y-76464761D01*
X153230476Y-76452857D01*
X153254285Y-76440952D01*
X153278095Y-76417142D01*
X153278095Y-76321904D01*
%TO.C,C15*%
X159360714Y-114199285D02*
X159372619Y-114211190D01*
X159408333Y-114223095D01*
X159432142Y-114223095D01*
X159467857Y-114211190D01*
X159491666Y-114187380D01*
X159503571Y-114163571D01*
X159515476Y-114115952D01*
X159515476Y-114080238D01*
X159503571Y-114032619D01*
X159491666Y-114008809D01*
X159467857Y-113985000D01*
X159432142Y-113973095D01*
X159408333Y-113973095D01*
X159372619Y-113985000D01*
X159360714Y-113996904D01*
X159122619Y-114223095D02*
X159265476Y-114223095D01*
X159194047Y-114223095D02*
X159194047Y-113973095D01*
X159217857Y-114008809D01*
X159241666Y-114032619D01*
X159265476Y-114044523D01*
X158896428Y-113973095D02*
X159015476Y-113973095D01*
X159027380Y-114092142D01*
X159015476Y-114080238D01*
X158991666Y-114068333D01*
X158932142Y-114068333D01*
X158908333Y-114080238D01*
X158896428Y-114092142D01*
X158884523Y-114115952D01*
X158884523Y-114175476D01*
X158896428Y-114199285D01*
X158908333Y-114211190D01*
X158932142Y-114223095D01*
X158991666Y-114223095D01*
X159015476Y-114211190D01*
X159027380Y-114199285D01*
%TO.C,R13*%
X153820714Y-113713095D02*
X153904047Y-113594047D01*
X153963571Y-113713095D02*
X153963571Y-113463095D01*
X153868333Y-113463095D01*
X153844523Y-113475000D01*
X153832619Y-113486904D01*
X153820714Y-113510714D01*
X153820714Y-113546428D01*
X153832619Y-113570238D01*
X153844523Y-113582142D01*
X153868333Y-113594047D01*
X153963571Y-113594047D01*
X153582619Y-113713095D02*
X153725476Y-113713095D01*
X153654047Y-113713095D02*
X153654047Y-113463095D01*
X153677857Y-113498809D01*
X153701666Y-113522619D01*
X153725476Y-113534523D01*
X153499285Y-113463095D02*
X153344523Y-113463095D01*
X153427857Y-113558333D01*
X153392142Y-113558333D01*
X153368333Y-113570238D01*
X153356428Y-113582142D01*
X153344523Y-113605952D01*
X153344523Y-113665476D01*
X153356428Y-113689285D01*
X153368333Y-113701190D01*
X153392142Y-113713095D01*
X153463571Y-113713095D01*
X153487380Y-113701190D01*
X153499285Y-113689285D01*
%TO.C,Q1*%
X119763809Y-99866904D02*
X119787619Y-99855000D01*
X119811428Y-99831190D01*
X119847142Y-99795476D01*
X119870952Y-99783571D01*
X119894761Y-99783571D01*
X119882857Y-99843095D02*
X119906666Y-99831190D01*
X119930476Y-99807380D01*
X119942380Y-99759761D01*
X119942380Y-99676428D01*
X119930476Y-99628809D01*
X119906666Y-99605000D01*
X119882857Y-99593095D01*
X119835238Y-99593095D01*
X119811428Y-99605000D01*
X119787619Y-99628809D01*
X119775714Y-99676428D01*
X119775714Y-99759761D01*
X119787619Y-99807380D01*
X119811428Y-99831190D01*
X119835238Y-99843095D01*
X119882857Y-99843095D01*
X119537619Y-99843095D02*
X119680476Y-99843095D01*
X119609047Y-99843095D02*
X119609047Y-99593095D01*
X119632857Y-99628809D01*
X119656666Y-99652619D01*
X119680476Y-99664523D01*
%TO.C,U1*%
D11*
X153811904Y-104206380D02*
X153811904Y-105015904D01*
X153764285Y-105111142D01*
X153716666Y-105158761D01*
X153621428Y-105206380D01*
X153430952Y-105206380D01*
X153335714Y-105158761D01*
X153288095Y-105111142D01*
X153240476Y-105015904D01*
X153240476Y-104206380D01*
X152240476Y-105206380D02*
X152811904Y-105206380D01*
X152526190Y-105206380D02*
X152526190Y-104206380D01*
X152621428Y-104349238D01*
X152716666Y-104444476D01*
X152811904Y-104492095D01*
X156634285Y-112234000D02*
X156729523Y-112329238D01*
X156824761Y-112234000D01*
X156729523Y-112138761D01*
X156634285Y-112234000D01*
X156824761Y-112234000D01*
%TO.C,F1*%
D17*
X118878333Y-96497142D02*
X118961666Y-96497142D01*
X118961666Y-96628095D02*
X118961666Y-96378095D01*
X118842619Y-96378095D01*
X118616428Y-96628095D02*
X118759285Y-96628095D01*
X118687857Y-96628095D02*
X118687857Y-96378095D01*
X118711666Y-96413809D01*
X118735476Y-96437619D01*
X118759285Y-96449523D01*
%TO.C,C11*%
X145140714Y-99169285D02*
X145152619Y-99181190D01*
X145188333Y-99193095D01*
X145212142Y-99193095D01*
X145247857Y-99181190D01*
X145271666Y-99157380D01*
X145283571Y-99133571D01*
X145295476Y-99085952D01*
X145295476Y-99050238D01*
X145283571Y-99002619D01*
X145271666Y-98978809D01*
X145247857Y-98955000D01*
X145212142Y-98943095D01*
X145188333Y-98943095D01*
X145152619Y-98955000D01*
X145140714Y-98966904D01*
X144902619Y-99193095D02*
X145045476Y-99193095D01*
X144974047Y-99193095D02*
X144974047Y-98943095D01*
X144997857Y-98978809D01*
X145021666Y-99002619D01*
X145045476Y-99014523D01*
X144664523Y-99193095D02*
X144807380Y-99193095D01*
X144735952Y-99193095D02*
X144735952Y-98943095D01*
X144759761Y-98978809D01*
X144783571Y-99002619D01*
X144807380Y-99014523D01*
%TO.C,C12*%
X155860714Y-96759285D02*
X155872619Y-96771190D01*
X155908333Y-96783095D01*
X155932142Y-96783095D01*
X155967857Y-96771190D01*
X155991666Y-96747380D01*
X156003571Y-96723571D01*
X156015476Y-96675952D01*
X156015476Y-96640238D01*
X156003571Y-96592619D01*
X155991666Y-96568809D01*
X155967857Y-96545000D01*
X155932142Y-96533095D01*
X155908333Y-96533095D01*
X155872619Y-96545000D01*
X155860714Y-96556904D01*
X155622619Y-96783095D02*
X155765476Y-96783095D01*
X155694047Y-96783095D02*
X155694047Y-96533095D01*
X155717857Y-96568809D01*
X155741666Y-96592619D01*
X155765476Y-96604523D01*
X155527380Y-96556904D02*
X155515476Y-96545000D01*
X155491666Y-96533095D01*
X155432142Y-96533095D01*
X155408333Y-96545000D01*
X155396428Y-96556904D01*
X155384523Y-96580714D01*
X155384523Y-96604523D01*
X155396428Y-96640238D01*
X155539285Y-96783095D01*
X155384523Y-96783095D01*
%TO.C,C13*%
X117390714Y-99669285D02*
X117402619Y-99681190D01*
X117438333Y-99693095D01*
X117462142Y-99693095D01*
X117497857Y-99681190D01*
X117521666Y-99657380D01*
X117533571Y-99633571D01*
X117545476Y-99585952D01*
X117545476Y-99550238D01*
X117533571Y-99502619D01*
X117521666Y-99478809D01*
X117497857Y-99455000D01*
X117462142Y-99443095D01*
X117438333Y-99443095D01*
X117402619Y-99455000D01*
X117390714Y-99466904D01*
X117152619Y-99693095D02*
X117295476Y-99693095D01*
X117224047Y-99693095D02*
X117224047Y-99443095D01*
X117247857Y-99478809D01*
X117271666Y-99502619D01*
X117295476Y-99514523D01*
X117069285Y-99443095D02*
X116914523Y-99443095D01*
X116997857Y-99538333D01*
X116962142Y-99538333D01*
X116938333Y-99550238D01*
X116926428Y-99562142D01*
X116914523Y-99585952D01*
X116914523Y-99645476D01*
X116926428Y-99669285D01*
X116938333Y-99681190D01*
X116962142Y-99693095D01*
X117033571Y-99693095D01*
X117057380Y-99681190D01*
X117069285Y-99669285D01*
%TO.C,C14*%
X122310714Y-96489285D02*
X122322619Y-96501190D01*
X122358333Y-96513095D01*
X122382142Y-96513095D01*
X122417857Y-96501190D01*
X122441666Y-96477380D01*
X122453571Y-96453571D01*
X122465476Y-96405952D01*
X122465476Y-96370238D01*
X122453571Y-96322619D01*
X122441666Y-96298809D01*
X122417857Y-96275000D01*
X122382142Y-96263095D01*
X122358333Y-96263095D01*
X122322619Y-96275000D01*
X122310714Y-96286904D01*
X122072619Y-96513095D02*
X122215476Y-96513095D01*
X122144047Y-96513095D02*
X122144047Y-96263095D01*
X122167857Y-96298809D01*
X122191666Y-96322619D01*
X122215476Y-96334523D01*
X121858333Y-96346428D02*
X121858333Y-96513095D01*
X121917857Y-96251190D02*
X121977380Y-96429761D01*
X121822619Y-96429761D01*
%TO.C,C16*%
X153825714Y-116861785D02*
X153837619Y-116873690D01*
X153873333Y-116885595D01*
X153897142Y-116885595D01*
X153932857Y-116873690D01*
X153956666Y-116849880D01*
X153968571Y-116826071D01*
X153980476Y-116778452D01*
X153980476Y-116742738D01*
X153968571Y-116695119D01*
X153956666Y-116671309D01*
X153932857Y-116647500D01*
X153897142Y-116635595D01*
X153873333Y-116635595D01*
X153837619Y-116647500D01*
X153825714Y-116659404D01*
X153587619Y-116885595D02*
X153730476Y-116885595D01*
X153659047Y-116885595D02*
X153659047Y-116635595D01*
X153682857Y-116671309D01*
X153706666Y-116695119D01*
X153730476Y-116707023D01*
X153373333Y-116635595D02*
X153420952Y-116635595D01*
X153444761Y-116647500D01*
X153456666Y-116659404D01*
X153480476Y-116695119D01*
X153492380Y-116742738D01*
X153492380Y-116837976D01*
X153480476Y-116861785D01*
X153468571Y-116873690D01*
X153444761Y-116885595D01*
X153397142Y-116885595D01*
X153373333Y-116873690D01*
X153361428Y-116861785D01*
X153349523Y-116837976D01*
X153349523Y-116778452D01*
X153361428Y-116754642D01*
X153373333Y-116742738D01*
X153397142Y-116730833D01*
X153444761Y-116730833D01*
X153468571Y-116742738D01*
X153480476Y-116754642D01*
X153492380Y-116778452D01*
%TO.C,FB1*%
X122328333Y-99612142D02*
X122411666Y-99612142D01*
X122411666Y-99743095D02*
X122411666Y-99493095D01*
X122292619Y-99493095D01*
X122114047Y-99612142D02*
X122078333Y-99624047D01*
X122066428Y-99635952D01*
X122054523Y-99659761D01*
X122054523Y-99695476D01*
X122066428Y-99719285D01*
X122078333Y-99731190D01*
X122102142Y-99743095D01*
X122197380Y-99743095D01*
X122197380Y-99493095D01*
X122114047Y-99493095D01*
X122090238Y-99505000D01*
X122078333Y-99516904D01*
X122066428Y-99540714D01*
X122066428Y-99564523D01*
X122078333Y-99588333D01*
X122090238Y-99600238D01*
X122114047Y-99612142D01*
X122197380Y-99612142D01*
X121816428Y-99743095D02*
X121959285Y-99743095D01*
X121887857Y-99743095D02*
X121887857Y-99493095D01*
X121911666Y-99528809D01*
X121935476Y-99552619D01*
X121959285Y-99564523D01*
%TO.C,R12*%
X162482095Y-105807285D02*
X162363047Y-105723952D01*
X162482095Y-105664428D02*
X162232095Y-105664428D01*
X162232095Y-105759666D01*
X162244000Y-105783476D01*
X162255904Y-105795380D01*
X162279714Y-105807285D01*
X162315428Y-105807285D01*
X162339238Y-105795380D01*
X162351142Y-105783476D01*
X162363047Y-105759666D01*
X162363047Y-105664428D01*
X162482095Y-106045380D02*
X162482095Y-105902523D01*
X162482095Y-105973952D02*
X162232095Y-105973952D01*
X162267809Y-105950142D01*
X162291619Y-105926333D01*
X162303523Y-105902523D01*
X162255904Y-106140619D02*
X162244000Y-106152523D01*
X162232095Y-106176333D01*
X162232095Y-106235857D01*
X162244000Y-106259666D01*
X162255904Y-106271571D01*
X162279714Y-106283476D01*
X162303523Y-106283476D01*
X162339238Y-106271571D01*
X162482095Y-106128714D01*
X162482095Y-106283476D01*
%TO.C,R14*%
X162419095Y-104233285D02*
X162300047Y-104149952D01*
X162419095Y-104090428D02*
X162169095Y-104090428D01*
X162169095Y-104185666D01*
X162181000Y-104209476D01*
X162192904Y-104221380D01*
X162216714Y-104233285D01*
X162252428Y-104233285D01*
X162276238Y-104221380D01*
X162288142Y-104209476D01*
X162300047Y-104185666D01*
X162300047Y-104090428D01*
X162419095Y-104471380D02*
X162419095Y-104328523D01*
X162419095Y-104399952D02*
X162169095Y-104399952D01*
X162204809Y-104376142D01*
X162228619Y-104352333D01*
X162240523Y-104328523D01*
X162252428Y-104685666D02*
X162419095Y-104685666D01*
X162157190Y-104626142D02*
X162335761Y-104566619D01*
X162335761Y-104721380D01*
%TO.C,R29*%
X131335285Y-77970904D02*
X131251952Y-78089952D01*
X131192428Y-77970904D02*
X131192428Y-78220904D01*
X131287666Y-78220904D01*
X131311476Y-78209000D01*
X131323380Y-78197095D01*
X131335285Y-78173285D01*
X131335285Y-78137571D01*
X131323380Y-78113761D01*
X131311476Y-78101857D01*
X131287666Y-78089952D01*
X131192428Y-78089952D01*
X131430523Y-78197095D02*
X131442428Y-78209000D01*
X131466238Y-78220904D01*
X131525761Y-78220904D01*
X131549571Y-78209000D01*
X131561476Y-78197095D01*
X131573380Y-78173285D01*
X131573380Y-78149476D01*
X131561476Y-78113761D01*
X131418619Y-77970904D01*
X131573380Y-77970904D01*
X131692428Y-77970904D02*
X131740047Y-77970904D01*
X131763857Y-77982809D01*
X131775761Y-77994714D01*
X131799571Y-78030428D01*
X131811476Y-78078047D01*
X131811476Y-78173285D01*
X131799571Y-78197095D01*
X131787666Y-78209000D01*
X131763857Y-78220904D01*
X131716238Y-78220904D01*
X131692428Y-78209000D01*
X131680523Y-78197095D01*
X131668619Y-78173285D01*
X131668619Y-78113761D01*
X131680523Y-78089952D01*
X131692428Y-78078047D01*
X131716238Y-78066142D01*
X131763857Y-78066142D01*
X131787666Y-78078047D01*
X131799571Y-78089952D01*
X131811476Y-78113761D01*
%TO.C,C1*%
X144571666Y-109181785D02*
X144583571Y-109193690D01*
X144619285Y-109205595D01*
X144643095Y-109205595D01*
X144678809Y-109193690D01*
X144702619Y-109169880D01*
X144714523Y-109146071D01*
X144726428Y-109098452D01*
X144726428Y-109062738D01*
X144714523Y-109015119D01*
X144702619Y-108991309D01*
X144678809Y-108967500D01*
X144643095Y-108955595D01*
X144619285Y-108955595D01*
X144583571Y-108967500D01*
X144571666Y-108979404D01*
X144333571Y-109205595D02*
X144476428Y-109205595D01*
X144405000Y-109205595D02*
X144405000Y-108955595D01*
X144428809Y-108991309D01*
X144452619Y-109015119D01*
X144476428Y-109027023D01*
%TO.C,C3*%
X162251665Y-108540784D02*
X162263570Y-108552689D01*
X162299284Y-108564594D01*
X162323094Y-108564594D01*
X162358808Y-108552689D01*
X162382618Y-108528879D01*
X162394522Y-108505070D01*
X162406427Y-108457451D01*
X162406427Y-108421737D01*
X162394522Y-108374118D01*
X162382618Y-108350308D01*
X162358808Y-108326499D01*
X162323094Y-108314594D01*
X162299284Y-108314594D01*
X162263570Y-108326499D01*
X162251665Y-108338403D01*
X162168332Y-108314594D02*
X162013570Y-108314594D01*
X162096903Y-108409832D01*
X162061189Y-108409832D01*
X162037379Y-108421737D01*
X162025475Y-108433641D01*
X162013570Y-108457451D01*
X162013570Y-108516975D01*
X162025475Y-108540784D01*
X162037379Y-108552689D01*
X162061189Y-108564594D01*
X162132618Y-108564594D01*
X162156427Y-108552689D01*
X162168332Y-108540784D01*
%TO.C,C5*%
X159050714Y-111425666D02*
X159038809Y-111437571D01*
X159026904Y-111473285D01*
X159026904Y-111497095D01*
X159038809Y-111532809D01*
X159062619Y-111556619D01*
X159086428Y-111568523D01*
X159134047Y-111580428D01*
X159169761Y-111580428D01*
X159217380Y-111568523D01*
X159241190Y-111556619D01*
X159265000Y-111532809D01*
X159276904Y-111497095D01*
X159276904Y-111473285D01*
X159265000Y-111437571D01*
X159253095Y-111425666D01*
X159276904Y-111199476D02*
X159276904Y-111318523D01*
X159157857Y-111330428D01*
X159169761Y-111318523D01*
X159181666Y-111294714D01*
X159181666Y-111235190D01*
X159169761Y-111211380D01*
X159157857Y-111199476D01*
X159134047Y-111187571D01*
X159074523Y-111187571D01*
X159050714Y-111199476D01*
X159038809Y-111211380D01*
X159026904Y-111235190D01*
X159026904Y-111294714D01*
X159038809Y-111318523D01*
X159050714Y-111330428D01*
%TO.C,C10*%
X146880714Y-99149285D02*
X146892619Y-99161190D01*
X146928333Y-99173095D01*
X146952142Y-99173095D01*
X146987857Y-99161190D01*
X147011666Y-99137380D01*
X147023571Y-99113571D01*
X147035476Y-99065952D01*
X147035476Y-99030238D01*
X147023571Y-98982619D01*
X147011666Y-98958809D01*
X146987857Y-98935000D01*
X146952142Y-98923095D01*
X146928333Y-98923095D01*
X146892619Y-98935000D01*
X146880714Y-98946904D01*
X146642619Y-99173095D02*
X146785476Y-99173095D01*
X146714047Y-99173095D02*
X146714047Y-98923095D01*
X146737857Y-98958809D01*
X146761666Y-98982619D01*
X146785476Y-98994523D01*
X146487857Y-98923095D02*
X146464047Y-98923095D01*
X146440238Y-98935000D01*
X146428333Y-98946904D01*
X146416428Y-98970714D01*
X146404523Y-99018333D01*
X146404523Y-99077857D01*
X146416428Y-99125476D01*
X146428333Y-99149285D01*
X146440238Y-99161190D01*
X146464047Y-99173095D01*
X146487857Y-99173095D01*
X146511666Y-99161190D01*
X146523571Y-99149285D01*
X146535476Y-99125476D01*
X146547380Y-99077857D01*
X146547380Y-99018333D01*
X146535476Y-98970714D01*
X146523571Y-98946904D01*
X146511666Y-98935000D01*
X146487857Y-98923095D01*
%TO.C,C37*%
X135110714Y-101301785D02*
X135122619Y-101313690D01*
X135158333Y-101325595D01*
X135182142Y-101325595D01*
X135217857Y-101313690D01*
X135241666Y-101289880D01*
X135253571Y-101266071D01*
X135265476Y-101218452D01*
X135265476Y-101182738D01*
X135253571Y-101135119D01*
X135241666Y-101111309D01*
X135217857Y-101087500D01*
X135182142Y-101075595D01*
X135158333Y-101075595D01*
X135122619Y-101087500D01*
X135110714Y-101099404D01*
X135027380Y-101075595D02*
X134872619Y-101075595D01*
X134955952Y-101170833D01*
X134920238Y-101170833D01*
X134896428Y-101182738D01*
X134884523Y-101194642D01*
X134872619Y-101218452D01*
X134872619Y-101277976D01*
X134884523Y-101301785D01*
X134896428Y-101313690D01*
X134920238Y-101325595D01*
X134991666Y-101325595D01*
X135015476Y-101313690D01*
X135027380Y-101301785D01*
X134789285Y-101075595D02*
X134622619Y-101075595D01*
X134729761Y-101325595D01*
%TO.C,R5*%
X123101666Y-76658095D02*
X123185000Y-76539047D01*
X123244523Y-76658095D02*
X123244523Y-76408095D01*
X123149285Y-76408095D01*
X123125476Y-76420000D01*
X123113571Y-76431904D01*
X123101666Y-76455714D01*
X123101666Y-76491428D01*
X123113571Y-76515238D01*
X123125476Y-76527142D01*
X123149285Y-76539047D01*
X123244523Y-76539047D01*
X122875476Y-76408095D02*
X122994523Y-76408095D01*
X123006428Y-76527142D01*
X122994523Y-76515238D01*
X122970714Y-76503333D01*
X122911190Y-76503333D01*
X122887380Y-76515238D01*
X122875476Y-76527142D01*
X122863571Y-76550952D01*
X122863571Y-76610476D01*
X122875476Y-76634285D01*
X122887380Y-76646190D01*
X122911190Y-76658095D01*
X122970714Y-76658095D01*
X122994523Y-76646190D01*
X123006428Y-76634285D01*
%TO.C,J2*%
D10*
X145196666Y-71726190D02*
X145196666Y-72083333D01*
X145220476Y-72154761D01*
X145268095Y-72202380D01*
X145339523Y-72226190D01*
X145387142Y-72226190D01*
X144982380Y-71773809D02*
X144958571Y-71750000D01*
X144910952Y-71726190D01*
X144791904Y-71726190D01*
X144744285Y-71750000D01*
X144720476Y-71773809D01*
X144696666Y-71821428D01*
X144696666Y-71869047D01*
X144720476Y-71940476D01*
X145006190Y-72226190D01*
X144696666Y-72226190D01*
D11*
X143220000Y-73694285D02*
X143124761Y-73789523D01*
X143220000Y-73884761D01*
X143315238Y-73789523D01*
X143220000Y-73694285D01*
X143220000Y-73884761D01*
D16*
X144736190Y-76152380D02*
X144498095Y-75985714D01*
X144736190Y-75866666D02*
X144236190Y-75866666D01*
X144236190Y-76057142D01*
X144260000Y-76104761D01*
X144283809Y-76128571D01*
X144331428Y-76152380D01*
X144402857Y-76152380D01*
X144450476Y-76128571D01*
X144474285Y-76104761D01*
X144498095Y-76057142D01*
X144498095Y-75866666D01*
X144736190Y-76319047D02*
X144402857Y-76580952D01*
X144402857Y-76319047D02*
X144736190Y-76580952D01*
X142982190Y-75854761D02*
X142982190Y-76140476D01*
X143482190Y-75997619D02*
X142982190Y-75997619D01*
X143482190Y-76259523D02*
X143148857Y-76521428D01*
X143148857Y-76259523D02*
X143482190Y-76521428D01*
%TO.C,J4*%
D10*
X127526666Y-71716190D02*
X127526666Y-72073333D01*
X127550476Y-72144761D01*
X127598095Y-72192380D01*
X127669523Y-72216190D01*
X127717142Y-72216190D01*
X127074285Y-71882857D02*
X127074285Y-72216190D01*
X127193333Y-71692380D02*
X127312380Y-72049523D01*
X127002857Y-72049523D01*
D11*
X125660000Y-73674285D02*
X125564761Y-73769523D01*
X125660000Y-73864761D01*
X125755238Y-73769523D01*
X125660000Y-73674285D01*
X125660000Y-73864761D01*
D17*
X125228571Y-74668333D02*
X125252380Y-74656428D01*
X125276190Y-74620714D01*
X125276190Y-74596904D01*
X125252380Y-74561190D01*
X125204761Y-74537380D01*
X125157142Y-74525476D01*
X125061904Y-74513571D01*
X124990476Y-74513571D01*
X124895238Y-74525476D01*
X124847619Y-74537380D01*
X124800000Y-74561190D01*
X124776190Y-74596904D01*
X124776190Y-74620714D01*
X124800000Y-74656428D01*
X124823809Y-74668333D01*
X125133333Y-74763571D02*
X125133333Y-74882619D01*
X125276190Y-74739761D02*
X124776190Y-74823095D01*
X125276190Y-74906428D01*
X125276190Y-74989761D02*
X124776190Y-74989761D01*
X125276190Y-75132619D01*
X124776190Y-75132619D01*
X125276190Y-75251666D02*
X124776190Y-75251666D01*
X125014285Y-75251666D02*
X125014285Y-75394523D01*
X125276190Y-75394523D02*
X124776190Y-75394523D01*
X127088571Y-75878095D02*
X127112380Y-75866190D01*
X127136190Y-75830476D01*
X127136190Y-75806666D01*
X127112380Y-75770952D01*
X127064761Y-75747142D01*
X127017142Y-75735238D01*
X126921904Y-75723333D01*
X126850476Y-75723333D01*
X126755238Y-75735238D01*
X126707619Y-75747142D01*
X126660000Y-75770952D01*
X126636190Y-75806666D01*
X126636190Y-75830476D01*
X126660000Y-75866190D01*
X126683809Y-75878095D01*
X126993333Y-75973333D02*
X126993333Y-76092380D01*
X127136190Y-75949523D02*
X126636190Y-76032857D01*
X127136190Y-76116190D01*
X127136190Y-76199523D02*
X126636190Y-76199523D01*
X127136190Y-76342380D01*
X126636190Y-76342380D01*
X127136190Y-76580476D02*
X127136190Y-76461428D01*
X126636190Y-76461428D01*
%TO.C,J9*%
D10*
X124976666Y-116666190D02*
X124976666Y-117023333D01*
X125000476Y-117094761D01*
X125048095Y-117142380D01*
X125119523Y-117166190D01*
X125167142Y-117166190D01*
X124714761Y-117166190D02*
X124619523Y-117166190D01*
X124571904Y-117142380D01*
X124548095Y-117118571D01*
X124500476Y-117047142D01*
X124476666Y-116951904D01*
X124476666Y-116761428D01*
X124500476Y-116713809D01*
X124524285Y-116690000D01*
X124571904Y-116666190D01*
X124667142Y-116666190D01*
X124714761Y-116690000D01*
X124738571Y-116713809D01*
X124762380Y-116761428D01*
X124762380Y-116880476D01*
X124738571Y-116928095D01*
X124714761Y-116951904D01*
X124667142Y-116975714D01*
X124571904Y-116975714D01*
X124524285Y-116951904D01*
X124500476Y-116928095D01*
X124476666Y-116880476D01*
D11*
X126870000Y-114171428D02*
X126727142Y-114314285D01*
X126870000Y-114457142D01*
X127012857Y-114314285D01*
X126870000Y-114171428D01*
X126870000Y-114457142D01*
D17*
X125947619Y-113837142D02*
X125923809Y-113765714D01*
X125923809Y-113646666D01*
X125947619Y-113599047D01*
X125971428Y-113575238D01*
X126019047Y-113551428D01*
X126066666Y-113551428D01*
X126114285Y-113575238D01*
X126138095Y-113599047D01*
X126161904Y-113646666D01*
X126185714Y-113741904D01*
X126209523Y-113789523D01*
X126233333Y-113813333D01*
X126280952Y-113837142D01*
X126328571Y-113837142D01*
X126376190Y-113813333D01*
X126400000Y-113789523D01*
X126423809Y-113741904D01*
X126423809Y-113622857D01*
X126400000Y-113551428D01*
X125923809Y-113337142D02*
X126423809Y-113337142D01*
X126423809Y-113218095D01*
X126400000Y-113146666D01*
X126352380Y-113099047D01*
X126304761Y-113075238D01*
X126209523Y-113051428D01*
X126138095Y-113051428D01*
X126042857Y-113075238D01*
X125995238Y-113099047D01*
X125947619Y-113146666D01*
X125923809Y-113218095D01*
X125923809Y-113337142D01*
X126066666Y-112860952D02*
X126066666Y-112622857D01*
X125923809Y-112908571D02*
X126423809Y-112741904D01*
X125923809Y-112575238D01*
X123910000Y-113500952D02*
X123933809Y-113548571D01*
X123933809Y-113620000D01*
X123910000Y-113691428D01*
X123862380Y-113739047D01*
X123814761Y-113762857D01*
X123719523Y-113786666D01*
X123648095Y-113786666D01*
X123552857Y-113762857D01*
X123505238Y-113739047D01*
X123457619Y-113691428D01*
X123433809Y-113620000D01*
X123433809Y-113572380D01*
X123457619Y-113500952D01*
X123481428Y-113477142D01*
X123648095Y-113477142D01*
X123648095Y-113572380D01*
X123433809Y-113262857D02*
X123933809Y-113262857D01*
X123433809Y-112977142D01*
X123933809Y-112977142D01*
X123433809Y-112739047D02*
X123933809Y-112739047D01*
X123933809Y-112620000D01*
X123910000Y-112548571D01*
X123862380Y-112500952D01*
X123814761Y-112477142D01*
X123719523Y-112453333D01*
X123648095Y-112453333D01*
X123552857Y-112477142D01*
X123505238Y-112500952D01*
X123457619Y-112548571D01*
X123433809Y-112620000D01*
X123433809Y-112739047D01*
X124687619Y-113805238D02*
X124663809Y-113733809D01*
X124663809Y-113614761D01*
X124687619Y-113567142D01*
X124711428Y-113543333D01*
X124759047Y-113519523D01*
X124806666Y-113519523D01*
X124854285Y-113543333D01*
X124878095Y-113567142D01*
X124901904Y-113614761D01*
X124925714Y-113710000D01*
X124949523Y-113757619D01*
X124973333Y-113781428D01*
X125020952Y-113805238D01*
X125068571Y-113805238D01*
X125116190Y-113781428D01*
X125140000Y-113757619D01*
X125163809Y-113710000D01*
X125163809Y-113590952D01*
X125140000Y-113519523D01*
X124711428Y-113019523D02*
X124687619Y-113043333D01*
X124663809Y-113114761D01*
X124663809Y-113162380D01*
X124687619Y-113233809D01*
X124735238Y-113281428D01*
X124782857Y-113305238D01*
X124878095Y-113329047D01*
X124949523Y-113329047D01*
X125044761Y-113305238D01*
X125092380Y-113281428D01*
X125140000Y-113233809D01*
X125163809Y-113162380D01*
X125163809Y-113114761D01*
X125140000Y-113043333D01*
X125116190Y-113019523D01*
X124663809Y-112567142D02*
X124663809Y-112805238D01*
X125163809Y-112805238D01*
%TO.C,U15*%
D16*
X126139047Y-78360000D02*
X126091428Y-78383809D01*
X126020000Y-78383809D01*
X125948571Y-78360000D01*
X125900952Y-78312380D01*
X125877142Y-78264761D01*
X125853333Y-78169523D01*
X125853333Y-78098095D01*
X125877142Y-78002857D01*
X125900952Y-77955238D01*
X125948571Y-77907619D01*
X126020000Y-77883809D01*
X126067619Y-77883809D01*
X126139047Y-77907619D01*
X126162857Y-77931428D01*
X126162857Y-78098095D01*
X126067619Y-78098095D01*
X126377142Y-77883809D02*
X126377142Y-78383809D01*
X126662857Y-77883809D01*
X126662857Y-78383809D01*
X126900952Y-77883809D02*
X126900952Y-78383809D01*
X127020000Y-78383809D01*
X127091428Y-78360000D01*
X127139047Y-78312380D01*
X127162857Y-78264761D01*
X127186666Y-78169523D01*
X127186666Y-78098095D01*
X127162857Y-78002857D01*
X127139047Y-77955238D01*
X127091428Y-77907619D01*
X127020000Y-77883809D01*
X126900952Y-77883809D01*
%TO.C,U19*%
X143319047Y-78130000D02*
X143271428Y-78153809D01*
X143200000Y-78153809D01*
X143128571Y-78130000D01*
X143080952Y-78082380D01*
X143057142Y-78034761D01*
X143033333Y-77939523D01*
X143033333Y-77868095D01*
X143057142Y-77772857D01*
X143080952Y-77725238D01*
X143128571Y-77677619D01*
X143200000Y-77653809D01*
X143247619Y-77653809D01*
X143319047Y-77677619D01*
X143342857Y-77701428D01*
X143342857Y-77868095D01*
X143247619Y-77868095D01*
X143557142Y-77653809D02*
X143557142Y-78153809D01*
X143842857Y-77653809D01*
X143842857Y-78153809D01*
X144080952Y-77653809D02*
X144080952Y-78153809D01*
X144200000Y-78153809D01*
X144271428Y-78130000D01*
X144319047Y-78082380D01*
X144342857Y-78034761D01*
X144366666Y-77939523D01*
X144366666Y-77868095D01*
X144342857Y-77772857D01*
X144319047Y-77725238D01*
X144271428Y-77677619D01*
X144200000Y-77653809D01*
X144080952Y-77653809D01*
%TO.C,U20*%
X129441904Y-116973809D02*
X129751428Y-116973809D01*
X129584761Y-116783333D01*
X129656190Y-116783333D01*
X129703809Y-116759523D01*
X129727619Y-116735714D01*
X129751428Y-116688095D01*
X129751428Y-116569047D01*
X129727619Y-116521428D01*
X129703809Y-116497619D01*
X129656190Y-116473809D01*
X129513333Y-116473809D01*
X129465714Y-116497619D01*
X129441904Y-116521428D01*
X129965714Y-116521428D02*
X129989523Y-116497619D01*
X129965714Y-116473809D01*
X129941904Y-116497619D01*
X129965714Y-116521428D01*
X129965714Y-116473809D01*
X130156190Y-116973809D02*
X130465714Y-116973809D01*
X130299047Y-116783333D01*
X130370476Y-116783333D01*
X130418095Y-116759523D01*
X130441904Y-116735714D01*
X130465714Y-116688095D01*
X130465714Y-116569047D01*
X130441904Y-116521428D01*
X130418095Y-116497619D01*
X130370476Y-116473809D01*
X130227619Y-116473809D01*
X130180000Y-116497619D01*
X130156190Y-116521428D01*
X130608571Y-116973809D02*
X130775238Y-116473809D01*
X130941904Y-116973809D01*
%TO.C,HSE1*%
D17*
X157275238Y-115746190D02*
X157275238Y-115246190D01*
X157275238Y-115484285D02*
X156989523Y-115484285D01*
X156989523Y-115746190D02*
X156989523Y-115246190D01*
X156775238Y-115722380D02*
X156703809Y-115746190D01*
X156584761Y-115746190D01*
X156537142Y-115722380D01*
X156513333Y-115698571D01*
X156489523Y-115650952D01*
X156489523Y-115603333D01*
X156513333Y-115555714D01*
X156537142Y-115531904D01*
X156584761Y-115508095D01*
X156680000Y-115484285D01*
X156727619Y-115460476D01*
X156751428Y-115436666D01*
X156775238Y-115389047D01*
X156775238Y-115341428D01*
X156751428Y-115293809D01*
X156727619Y-115270000D01*
X156680000Y-115246190D01*
X156560952Y-115246190D01*
X156489523Y-115270000D01*
X156275238Y-115484285D02*
X156108571Y-115484285D01*
X156037142Y-115746190D02*
X156275238Y-115746190D01*
X156275238Y-115246190D01*
X156037142Y-115246190D01*
X155560952Y-115746190D02*
X155846666Y-115746190D01*
X155703809Y-115746190D02*
X155703809Y-115246190D01*
X155751428Y-115317619D01*
X155799047Y-115365238D01*
X155846666Y-115389047D01*
%TO.C,U8*%
D16*
X149307152Y-82306190D02*
X149307152Y-82710952D01*
X149283342Y-82758571D01*
X149259533Y-82782380D01*
X149211914Y-82806190D01*
X149116676Y-82806190D01*
X149069057Y-82782380D01*
X149045247Y-82758571D01*
X149021438Y-82710952D01*
X149021438Y-82306190D01*
X148711914Y-82520476D02*
X148759533Y-82496666D01*
X148783342Y-82472857D01*
X148807152Y-82425238D01*
X148807152Y-82401428D01*
X148783342Y-82353809D01*
X148759533Y-82330000D01*
X148711914Y-82306190D01*
X148616676Y-82306190D01*
X148569057Y-82330000D01*
X148545247Y-82353809D01*
X148521438Y-82401428D01*
X148521438Y-82425238D01*
X148545247Y-82472857D01*
X148569057Y-82496666D01*
X148616676Y-82520476D01*
X148711914Y-82520476D01*
X148759533Y-82544285D01*
X148783342Y-82568095D01*
X148807152Y-82615714D01*
X148807152Y-82710952D01*
X148783342Y-82758571D01*
X148759533Y-82782380D01*
X148711914Y-82806190D01*
X148616676Y-82806190D01*
X148569057Y-82782380D01*
X148545247Y-82758571D01*
X148521438Y-82710952D01*
X148521438Y-82615714D01*
X148545247Y-82568095D01*
X148569057Y-82544285D01*
X148616676Y-82520476D01*
D11*
X152890000Y-80671428D02*
X152747142Y-80814285D01*
X152890000Y-80957142D01*
X153032857Y-80814285D01*
X152890000Y-80671428D01*
X152890000Y-80957142D01*
%TO.C,U9*%
D16*
X153699047Y-77264285D02*
X154080000Y-77264285D01*
X153889523Y-77073809D02*
X153889523Y-77454761D01*
X154294285Y-77526190D02*
X154318095Y-77550000D01*
X154365714Y-77573809D01*
X154484761Y-77573809D01*
X154532380Y-77550000D01*
X154556190Y-77526190D01*
X154580000Y-77478571D01*
X154580000Y-77430952D01*
X154556190Y-77359523D01*
X154270476Y-77073809D01*
X154580000Y-77073809D01*
X155008571Y-77407142D02*
X155008571Y-77073809D01*
X154889523Y-77597619D02*
X154770476Y-77240476D01*
X155080000Y-77240476D01*
X155199047Y-77573809D02*
X155365714Y-77073809D01*
X155532380Y-77573809D01*
%TO.C,U10*%
D10*
X140859047Y-99296190D02*
X140859047Y-99700952D01*
X140835238Y-99748571D01*
X140811428Y-99772380D01*
X140763809Y-99796190D01*
X140668571Y-99796190D01*
X140620952Y-99772380D01*
X140597142Y-99748571D01*
X140573333Y-99700952D01*
X140573333Y-99296190D01*
X140073333Y-99796190D02*
X140359047Y-99796190D01*
X140216190Y-99796190D02*
X140216190Y-99296190D01*
X140263809Y-99367619D01*
X140311428Y-99415238D01*
X140359047Y-99439047D01*
X139763809Y-99296190D02*
X139716190Y-99296190D01*
X139668571Y-99320000D01*
X139644761Y-99343809D01*
X139620952Y-99391428D01*
X139597142Y-99486666D01*
X139597142Y-99605714D01*
X139620952Y-99700952D01*
X139644761Y-99748571D01*
X139668571Y-99772380D01*
X139716190Y-99796190D01*
X139763809Y-99796190D01*
X139811428Y-99772380D01*
X139835238Y-99748571D01*
X139859047Y-99700952D01*
X139882857Y-99605714D01*
X139882857Y-99486666D01*
X139859047Y-99391428D01*
X139835238Y-99343809D01*
X139811428Y-99320000D01*
X139763809Y-99296190D01*
D11*
X144320000Y-97364285D02*
X144224761Y-97459523D01*
X144320000Y-97554761D01*
X144415238Y-97459523D01*
X144320000Y-97364285D01*
X144320000Y-97554761D01*
%TO.C,C22*%
D17*
X148964286Y-115534284D02*
X148976191Y-115522379D01*
X148988096Y-115486665D01*
X148988096Y-115462856D01*
X148976191Y-115427141D01*
X148952381Y-115403332D01*
X148928572Y-115391427D01*
X148880953Y-115379522D01*
X148845239Y-115379522D01*
X148797620Y-115391427D01*
X148773810Y-115403332D01*
X148750001Y-115427141D01*
X148738096Y-115462856D01*
X148738096Y-115486665D01*
X148750001Y-115522379D01*
X148761905Y-115534284D01*
X148761905Y-115629522D02*
X148750001Y-115641427D01*
X148738096Y-115665237D01*
X148738096Y-115724760D01*
X148750001Y-115748570D01*
X148761905Y-115760475D01*
X148785715Y-115772379D01*
X148809524Y-115772379D01*
X148845239Y-115760475D01*
X148988096Y-115617618D01*
X148988096Y-115772379D01*
X148761905Y-115867618D02*
X148750001Y-115879522D01*
X148738096Y-115903332D01*
X148738096Y-115962856D01*
X148750001Y-115986665D01*
X148761905Y-115998570D01*
X148785715Y-116010475D01*
X148809524Y-116010475D01*
X148845239Y-115998570D01*
X148988096Y-115855713D01*
X148988096Y-116010475D01*
%TO.C,C23*%
X148949287Y-113899283D02*
X148961192Y-113887378D01*
X148973097Y-113851664D01*
X148973097Y-113827855D01*
X148961192Y-113792140D01*
X148937382Y-113768331D01*
X148913573Y-113756426D01*
X148865954Y-113744521D01*
X148830240Y-113744521D01*
X148782621Y-113756426D01*
X148758811Y-113768331D01*
X148735002Y-113792140D01*
X148723097Y-113827855D01*
X148723097Y-113851664D01*
X148735002Y-113887378D01*
X148746906Y-113899283D01*
X148746906Y-113994521D02*
X148735002Y-114006426D01*
X148723097Y-114030236D01*
X148723097Y-114089759D01*
X148735002Y-114113569D01*
X148746906Y-114125474D01*
X148770716Y-114137378D01*
X148794525Y-114137378D01*
X148830240Y-114125474D01*
X148973097Y-113982617D01*
X148973097Y-114137378D01*
X148723097Y-114220712D02*
X148723097Y-114375474D01*
X148818335Y-114292140D01*
X148818335Y-114327855D01*
X148830240Y-114351664D01*
X148842144Y-114363569D01*
X148865954Y-114375474D01*
X148925478Y-114375474D01*
X148949287Y-114363569D01*
X148961192Y-114351664D01*
X148973097Y-114327855D01*
X148973097Y-114256426D01*
X148961192Y-114232617D01*
X148949287Y-114220712D01*
%TD*%
M02*
