%TF.GenerationSoftware,KiCad,Pcbnew,(7.0.0-0)*%
%TF.CreationDate,2023-03-29T23:18:46+02:00*%
%TF.ProjectId,Nauthiluscontroller,4e617574-6869-46c7-9573-636f6e74726f,rev?*%
%TF.SameCoordinates,Original*%
%TF.FileFunction,Legend,Bot*%
%TF.FilePolarity,Positive*%
%FSLAX46Y46*%
G04 Gerber Fmt 4.6, Leading zero omitted, Abs format (unit mm)*
G04 Created by KiCad (PCBNEW (7.0.0-0)) date 2023-03-29 23:18:46*
%MOMM*%
%LPD*%
G01*
G04 APERTURE LIST*
G04 Aperture macros list*
%AMRoundRect*
0 Rectangle with rounded corners*
0 $1 Rounding radius*
0 $2 $3 $4 $5 $6 $7 $8 $9 X,Y pos of 4 corners*
0 Add a 4 corners polygon primitive as box body*
4,1,4,$2,$3,$4,$5,$6,$7,$8,$9,$2,$3,0*
0 Add four circle primitives for the rounded corners*
1,1,$1+$1,$2,$3*
1,1,$1+$1,$4,$5*
1,1,$1+$1,$6,$7*
1,1,$1+$1,$8,$9*
0 Add four rect primitives between the rounded corners*
20,1,$1+$1,$2,$3,$4,$5,0*
20,1,$1+$1,$4,$5,$6,$7,0*
20,1,$1+$1,$6,$7,$8,$9,0*
20,1,$1+$1,$8,$9,$2,$3,0*%
G04 Aperture macros list end*
%ADD10C,0.150000*%
%ADD11C,0.200000*%
%ADD12C,0.190000*%
%ADD13C,0.125000*%
%ADD14C,0.187500*%
%ADD15C,0.100000*%
%ADD16C,0.062500*%
%ADD17C,0.120000*%
%ADD18C,0.127000*%
%ADD19C,0.600000*%
%ADD20C,2.600000*%
%ADD21C,3.800000*%
%ADD22C,1.000000*%
%ADD23C,3.000000*%
%ADD24C,4.000000*%
%ADD25R,1.350000X1.350000*%
%ADD26O,1.350000X1.350000*%
%ADD27RoundRect,0.237500X-0.237500X0.300000X-0.237500X-0.300000X0.237500X-0.300000X0.237500X0.300000X0*%
%ADD28RoundRect,0.250000X-0.462500X-0.625000X0.462500X-0.625000X0.462500X0.625000X-0.462500X0.625000X0*%
%ADD29RoundRect,0.225000X0.250000X-0.225000X0.250000X0.225000X-0.250000X0.225000X-0.250000X-0.225000X0*%
%ADD30R,0.700000X0.600000*%
%ADD31RoundRect,0.200000X0.200000X0.275000X-0.200000X0.275000X-0.200000X-0.275000X0.200000X-0.275000X0*%
%ADD32RoundRect,0.200000X-0.275000X0.200000X-0.275000X-0.200000X0.275000X-0.200000X0.275000X0.200000X0*%
%ADD33R,0.790000X2.520000*%
%ADD34R,5.570000X6.230000*%
%ADD35RoundRect,0.200000X-0.200000X-0.275000X0.200000X-0.275000X0.200000X0.275000X-0.200000X0.275000X0*%
%ADD36RoundRect,0.237500X0.237500X-0.300000X0.237500X0.300000X-0.237500X0.300000X-0.237500X-0.300000X0*%
%ADD37RoundRect,0.237500X-0.300000X-0.237500X0.300000X-0.237500X0.300000X0.237500X-0.300000X0.237500X0*%
%ADD38RoundRect,0.100000X0.637500X0.100000X-0.637500X0.100000X-0.637500X-0.100000X0.637500X-0.100000X0*%
%ADD39RoundRect,0.200000X0.275000X-0.200000X0.275000X0.200000X-0.275000X0.200000X-0.275000X-0.200000X0*%
%ADD40RoundRect,0.150000X0.825000X0.150000X-0.825000X0.150000X-0.825000X-0.150000X0.825000X-0.150000X0*%
%ADD41R,1.200000X1.400000*%
%ADD42RoundRect,0.150000X0.675000X0.150000X-0.675000X0.150000X-0.675000X-0.150000X0.675000X-0.150000X0*%
%ADD43C,1.500000*%
%ADD44C,0.500000*%
%ADD45R,1.900000X2.400000*%
%ADD46R,0.700000X1.450000*%
%ADD47RoundRect,0.237500X0.300000X0.237500X-0.300000X0.237500X-0.300000X-0.237500X0.300000X-0.237500X0*%
%ADD48RoundRect,0.075000X0.075000X-0.700000X0.075000X0.700000X-0.075000X0.700000X-0.075000X-0.700000X0*%
%ADD49RoundRect,0.075000X0.700000X-0.075000X0.700000X0.075000X-0.700000X0.075000X-0.700000X-0.075000X0*%
G04 APERTURE END LIST*
D10*
X144548680Y-99690000D02*
G75*
G03*
X144548680Y-99690000I-4500000J0D01*
G01*
D11*
X143701920Y-102930000D02*
G75*
G03*
X143701920Y-102930000I-651920J0D01*
G01*
X147301920Y-96940000D02*
G75*
G03*
X147301920Y-96940000I-530960J0D01*
G01*
D12*
X157795000Y-113580000D02*
G75*
G03*
X157795000Y-113580000I-95000J0D01*
G01*
X153535000Y-80470000D02*
G75*
G03*
X153535000Y-80470000I-95000J0D01*
G01*
D11*
X142231920Y-103810000D02*
G75*
G03*
X142231920Y-103810000I-651920J0D01*
G01*
X146640960Y-98470000D02*
G75*
G03*
X146640960Y-98470000I-530960J0D01*
G01*
X148470960Y-101180960D02*
G75*
G03*
X148470960Y-101180960I-530960J0D01*
G01*
X148950960Y-98060960D02*
G75*
G03*
X148950960Y-98060960I-530960J0D01*
G01*
D13*
X140992857Y-74795892D02*
X140957143Y-74760178D01*
X140957143Y-74760178D02*
X140850000Y-74724464D01*
X140850000Y-74724464D02*
X140778572Y-74724464D01*
X140778572Y-74724464D02*
X140671429Y-74760178D01*
X140671429Y-74760178D02*
X140600000Y-74831607D01*
X140600000Y-74831607D02*
X140564286Y-74903035D01*
X140564286Y-74903035D02*
X140528572Y-75045892D01*
X140528572Y-75045892D02*
X140528572Y-75153035D01*
X140528572Y-75153035D02*
X140564286Y-75295892D01*
X140564286Y-75295892D02*
X140600000Y-75367321D01*
X140600000Y-75367321D02*
X140671429Y-75438750D01*
X140671429Y-75438750D02*
X140778572Y-75474464D01*
X140778572Y-75474464D02*
X140850000Y-75474464D01*
X140850000Y-75474464D02*
X140957143Y-75438750D01*
X140957143Y-75438750D02*
X140992857Y-75403035D01*
X141278572Y-74938750D02*
X141635715Y-74938750D01*
X141207143Y-74724464D02*
X141457143Y-75474464D01*
X141457143Y-75474464D02*
X141707143Y-74724464D01*
X141957143Y-74724464D02*
X141957143Y-75474464D01*
X141957143Y-75474464D02*
X142385714Y-74724464D01*
X142385714Y-74724464D02*
X142385714Y-75474464D01*
X154454762Y-75690119D02*
X154526190Y-75666309D01*
X154526190Y-75666309D02*
X154645238Y-75666309D01*
X154645238Y-75666309D02*
X154692857Y-75690119D01*
X154692857Y-75690119D02*
X154716666Y-75713928D01*
X154716666Y-75713928D02*
X154740476Y-75761547D01*
X154740476Y-75761547D02*
X154740476Y-75809166D01*
X154740476Y-75809166D02*
X154716666Y-75856785D01*
X154716666Y-75856785D02*
X154692857Y-75880595D01*
X154692857Y-75880595D02*
X154645238Y-75904404D01*
X154645238Y-75904404D02*
X154550000Y-75928214D01*
X154550000Y-75928214D02*
X154502381Y-75952023D01*
X154502381Y-75952023D02*
X154478571Y-75975833D01*
X154478571Y-75975833D02*
X154454762Y-76023452D01*
X154454762Y-76023452D02*
X154454762Y-76071071D01*
X154454762Y-76071071D02*
X154478571Y-76118690D01*
X154478571Y-76118690D02*
X154502381Y-76142500D01*
X154502381Y-76142500D02*
X154550000Y-76166309D01*
X154550000Y-76166309D02*
X154669047Y-76166309D01*
X154669047Y-76166309D02*
X154740476Y-76142500D01*
X155240475Y-75713928D02*
X155216666Y-75690119D01*
X155216666Y-75690119D02*
X155145237Y-75666309D01*
X155145237Y-75666309D02*
X155097618Y-75666309D01*
X155097618Y-75666309D02*
X155026190Y-75690119D01*
X155026190Y-75690119D02*
X154978571Y-75737738D01*
X154978571Y-75737738D02*
X154954761Y-75785357D01*
X154954761Y-75785357D02*
X154930952Y-75880595D01*
X154930952Y-75880595D02*
X154930952Y-75952023D01*
X154930952Y-75952023D02*
X154954761Y-76047261D01*
X154954761Y-76047261D02*
X154978571Y-76094880D01*
X154978571Y-76094880D02*
X155026190Y-76142500D01*
X155026190Y-76142500D02*
X155097618Y-76166309D01*
X155097618Y-76166309D02*
X155145237Y-76166309D01*
X155145237Y-76166309D02*
X155216666Y-76142500D01*
X155216666Y-76142500D02*
X155240475Y-76118690D01*
X155692856Y-75666309D02*
X155454761Y-75666309D01*
X155454761Y-75666309D02*
X155454761Y-76166309D01*
D14*
X125285714Y-74699464D02*
X125285714Y-75449464D01*
X125285714Y-75092321D02*
X125714285Y-75092321D01*
X125714285Y-74699464D02*
X125714285Y-75449464D01*
X135585714Y-74874464D02*
X135585714Y-75624464D01*
X135585714Y-75267321D02*
X136014285Y-75267321D01*
X136014285Y-74874464D02*
X136014285Y-75624464D01*
X138382143Y-76274464D02*
X138025000Y-76274464D01*
X138025000Y-76274464D02*
X138025000Y-77024464D01*
X146332142Y-74724464D02*
X146760714Y-74724464D01*
X146546428Y-73974464D02*
X146546428Y-74724464D01*
X146939285Y-73974464D02*
X147332143Y-74474464D01*
X146939285Y-74474464D02*
X147332143Y-73974464D01*
X149253571Y-76199464D02*
X149003571Y-76556607D01*
X148825000Y-76199464D02*
X148825000Y-76949464D01*
X148825000Y-76949464D02*
X149110714Y-76949464D01*
X149110714Y-76949464D02*
X149182143Y-76913750D01*
X149182143Y-76913750D02*
X149217857Y-76878035D01*
X149217857Y-76878035D02*
X149253571Y-76806607D01*
X149253571Y-76806607D02*
X149253571Y-76699464D01*
X149253571Y-76699464D02*
X149217857Y-76628035D01*
X149217857Y-76628035D02*
X149182143Y-76592321D01*
X149182143Y-76592321D02*
X149110714Y-76556607D01*
X149110714Y-76556607D02*
X148825000Y-76556607D01*
X149503571Y-76199464D02*
X149896429Y-76699464D01*
X149503571Y-76699464D02*
X149896429Y-76199464D01*
X127702143Y-76064464D02*
X127345000Y-76064464D01*
X127345000Y-76064464D02*
X127345000Y-76814464D01*
D13*
X156242858Y-75640119D02*
X156314286Y-75616309D01*
X156314286Y-75616309D02*
X156433334Y-75616309D01*
X156433334Y-75616309D02*
X156480953Y-75640119D01*
X156480953Y-75640119D02*
X156504762Y-75663928D01*
X156504762Y-75663928D02*
X156528572Y-75711547D01*
X156528572Y-75711547D02*
X156528572Y-75759166D01*
X156528572Y-75759166D02*
X156504762Y-75806785D01*
X156504762Y-75806785D02*
X156480953Y-75830595D01*
X156480953Y-75830595D02*
X156433334Y-75854404D01*
X156433334Y-75854404D02*
X156338096Y-75878214D01*
X156338096Y-75878214D02*
X156290477Y-75902023D01*
X156290477Y-75902023D02*
X156266667Y-75925833D01*
X156266667Y-75925833D02*
X156242858Y-75973452D01*
X156242858Y-75973452D02*
X156242858Y-76021071D01*
X156242858Y-76021071D02*
X156266667Y-76068690D01*
X156266667Y-76068690D02*
X156290477Y-76092500D01*
X156290477Y-76092500D02*
X156338096Y-76116309D01*
X156338096Y-76116309D02*
X156457143Y-76116309D01*
X156457143Y-76116309D02*
X156528572Y-76092500D01*
X156742857Y-75616309D02*
X156742857Y-76116309D01*
X156742857Y-76116309D02*
X156861905Y-76116309D01*
X156861905Y-76116309D02*
X156933333Y-76092500D01*
X156933333Y-76092500D02*
X156980952Y-76044880D01*
X156980952Y-76044880D02*
X157004762Y-75997261D01*
X157004762Y-75997261D02*
X157028571Y-75902023D01*
X157028571Y-75902023D02*
X157028571Y-75830595D01*
X157028571Y-75830595D02*
X157004762Y-75735357D01*
X157004762Y-75735357D02*
X156980952Y-75687738D01*
X156980952Y-75687738D02*
X156933333Y-75640119D01*
X156933333Y-75640119D02*
X156861905Y-75616309D01*
X156861905Y-75616309D02*
X156742857Y-75616309D01*
X157219048Y-75759166D02*
X157457143Y-75759166D01*
X157171429Y-75616309D02*
X157338095Y-76116309D01*
X157338095Y-76116309D02*
X157504762Y-75616309D01*
X151403571Y-75724464D02*
X151403571Y-75117321D01*
X151403571Y-75117321D02*
X151439285Y-75045892D01*
X151439285Y-75045892D02*
X151475000Y-75010178D01*
X151475000Y-75010178D02*
X151546428Y-74974464D01*
X151546428Y-74974464D02*
X151689285Y-74974464D01*
X151689285Y-74974464D02*
X151760714Y-75010178D01*
X151760714Y-75010178D02*
X151796428Y-75045892D01*
X151796428Y-75045892D02*
X151832142Y-75117321D01*
X151832142Y-75117321D02*
X151832142Y-75724464D01*
X152153571Y-75188750D02*
X152510714Y-75188750D01*
X152082142Y-74974464D02*
X152332142Y-75724464D01*
X152332142Y-75724464D02*
X152582142Y-74974464D01*
X153260713Y-74974464D02*
X153010713Y-75331607D01*
X152832142Y-74974464D02*
X152832142Y-75724464D01*
X152832142Y-75724464D02*
X153117856Y-75724464D01*
X153117856Y-75724464D02*
X153189285Y-75688750D01*
X153189285Y-75688750D02*
X153224999Y-75653035D01*
X153224999Y-75653035D02*
X153260713Y-75581607D01*
X153260713Y-75581607D02*
X153260713Y-75474464D01*
X153260713Y-75474464D02*
X153224999Y-75403035D01*
X153224999Y-75403035D02*
X153189285Y-75367321D01*
X153189285Y-75367321D02*
X153117856Y-75331607D01*
X153117856Y-75331607D02*
X152832142Y-75331607D01*
X153474999Y-75724464D02*
X153903571Y-75724464D01*
X153689285Y-74974464D02*
X153689285Y-75724464D01*
X130307857Y-74355892D02*
X130272143Y-74320178D01*
X130272143Y-74320178D02*
X130165000Y-74284464D01*
X130165000Y-74284464D02*
X130093572Y-74284464D01*
X130093572Y-74284464D02*
X129986429Y-74320178D01*
X129986429Y-74320178D02*
X129915000Y-74391607D01*
X129915000Y-74391607D02*
X129879286Y-74463035D01*
X129879286Y-74463035D02*
X129843572Y-74605892D01*
X129843572Y-74605892D02*
X129843572Y-74713035D01*
X129843572Y-74713035D02*
X129879286Y-74855892D01*
X129879286Y-74855892D02*
X129915000Y-74927321D01*
X129915000Y-74927321D02*
X129986429Y-74998750D01*
X129986429Y-74998750D02*
X130093572Y-75034464D01*
X130093572Y-75034464D02*
X130165000Y-75034464D01*
X130165000Y-75034464D02*
X130272143Y-74998750D01*
X130272143Y-74998750D02*
X130307857Y-74963035D01*
X130593572Y-74498750D02*
X130950715Y-74498750D01*
X130522143Y-74284464D02*
X130772143Y-75034464D01*
X130772143Y-75034464D02*
X131022143Y-74284464D01*
X131272143Y-74284464D02*
X131272143Y-75034464D01*
X131272143Y-75034464D02*
X131700714Y-74284464D01*
X131700714Y-74284464D02*
X131700714Y-75034464D01*
D14*
X143809285Y-74175892D02*
X143773571Y-74140178D01*
X143773571Y-74140178D02*
X143666428Y-74104464D01*
X143666428Y-74104464D02*
X143595000Y-74104464D01*
X143595000Y-74104464D02*
X143487857Y-74140178D01*
X143487857Y-74140178D02*
X143416428Y-74211607D01*
X143416428Y-74211607D02*
X143380714Y-74283035D01*
X143380714Y-74283035D02*
X143345000Y-74425892D01*
X143345000Y-74425892D02*
X143345000Y-74533035D01*
X143345000Y-74533035D02*
X143380714Y-74675892D01*
X143380714Y-74675892D02*
X143416428Y-74747321D01*
X143416428Y-74747321D02*
X143487857Y-74818750D01*
X143487857Y-74818750D02*
X143595000Y-74854464D01*
X143595000Y-74854464D02*
X143666428Y-74854464D01*
X143666428Y-74854464D02*
X143773571Y-74818750D01*
X143773571Y-74818750D02*
X143809285Y-74783035D01*
X144130714Y-74104464D02*
X144130714Y-74604464D01*
X144130714Y-74461607D02*
X144166428Y-74533035D01*
X144166428Y-74533035D02*
X144202143Y-74568750D01*
X144202143Y-74568750D02*
X144273571Y-74604464D01*
X144273571Y-74604464D02*
X144345000Y-74604464D01*
X144487857Y-74604464D02*
X144773571Y-74604464D01*
X144595000Y-74854464D02*
X144595000Y-74211607D01*
X144595000Y-74211607D02*
X144630714Y-74140178D01*
X144630714Y-74140178D02*
X144702143Y-74104464D01*
X144702143Y-74104464D02*
X144773571Y-74104464D01*
X145130714Y-74104464D02*
X145059285Y-74140178D01*
X145059285Y-74140178D02*
X145023571Y-74211607D01*
X145023571Y-74211607D02*
X145023571Y-74854464D01*
D15*
%TO.C,U9*%
X135869048Y-77976785D02*
X136250001Y-77976785D01*
X136059524Y-77786309D02*
X136059524Y-78167261D01*
X136464287Y-78238690D02*
X136488096Y-78262500D01*
X136488096Y-78262500D02*
X136535715Y-78286309D01*
X136535715Y-78286309D02*
X136654763Y-78286309D01*
X136654763Y-78286309D02*
X136702382Y-78262500D01*
X136702382Y-78262500D02*
X136726191Y-78238690D01*
X136726191Y-78238690D02*
X136750001Y-78191071D01*
X136750001Y-78191071D02*
X136750001Y-78143452D01*
X136750001Y-78143452D02*
X136726191Y-78072023D01*
X136726191Y-78072023D02*
X136440477Y-77786309D01*
X136440477Y-77786309D02*
X136750001Y-77786309D01*
X137178572Y-78119642D02*
X137178572Y-77786309D01*
X137059524Y-78310119D02*
X136940477Y-77952976D01*
X136940477Y-77952976D02*
X137250000Y-77952976D01*
X137369048Y-78286309D02*
X137535714Y-77786309D01*
X137535714Y-77786309D02*
X137702381Y-78286309D01*
%TO.C,U10*%
X143519047Y-78492500D02*
X143471428Y-78516309D01*
X143471428Y-78516309D02*
X143399999Y-78516309D01*
X143399999Y-78516309D02*
X143328571Y-78492500D01*
X143328571Y-78492500D02*
X143280952Y-78444880D01*
X143280952Y-78444880D02*
X143257142Y-78397261D01*
X143257142Y-78397261D02*
X143233333Y-78302023D01*
X143233333Y-78302023D02*
X143233333Y-78230595D01*
X143233333Y-78230595D02*
X143257142Y-78135357D01*
X143257142Y-78135357D02*
X143280952Y-78087738D01*
X143280952Y-78087738D02*
X143328571Y-78040119D01*
X143328571Y-78040119D02*
X143399999Y-78016309D01*
X143399999Y-78016309D02*
X143447618Y-78016309D01*
X143447618Y-78016309D02*
X143519047Y-78040119D01*
X143519047Y-78040119D02*
X143542856Y-78063928D01*
X143542856Y-78063928D02*
X143542856Y-78230595D01*
X143542856Y-78230595D02*
X143447618Y-78230595D01*
X143757142Y-78016309D02*
X143757142Y-78516309D01*
X143757142Y-78516309D02*
X144042856Y-78016309D01*
X144042856Y-78016309D02*
X144042856Y-78516309D01*
X144280952Y-78016309D02*
X144280952Y-78516309D01*
X144280952Y-78516309D02*
X144400000Y-78516309D01*
X144400000Y-78516309D02*
X144471428Y-78492500D01*
X144471428Y-78492500D02*
X144519047Y-78444880D01*
X144519047Y-78444880D02*
X144542857Y-78397261D01*
X144542857Y-78397261D02*
X144566666Y-78302023D01*
X144566666Y-78302023D02*
X144566666Y-78230595D01*
X144566666Y-78230595D02*
X144542857Y-78135357D01*
X144542857Y-78135357D02*
X144519047Y-78087738D01*
X144519047Y-78087738D02*
X144471428Y-78040119D01*
X144471428Y-78040119D02*
X144400000Y-78016309D01*
X144400000Y-78016309D02*
X144280952Y-78016309D01*
%TO.C,U12*%
X155219048Y-77906785D02*
X155600001Y-77906785D01*
X155409524Y-77716309D02*
X155409524Y-78097261D01*
X155814287Y-78168690D02*
X155838096Y-78192500D01*
X155838096Y-78192500D02*
X155885715Y-78216309D01*
X155885715Y-78216309D02*
X156004763Y-78216309D01*
X156004763Y-78216309D02*
X156052382Y-78192500D01*
X156052382Y-78192500D02*
X156076191Y-78168690D01*
X156076191Y-78168690D02*
X156100001Y-78121071D01*
X156100001Y-78121071D02*
X156100001Y-78073452D01*
X156100001Y-78073452D02*
X156076191Y-78002023D01*
X156076191Y-78002023D02*
X155790477Y-77716309D01*
X155790477Y-77716309D02*
X156100001Y-77716309D01*
X156528572Y-78049642D02*
X156528572Y-77716309D01*
X156409524Y-78240119D02*
X156290477Y-77882976D01*
X156290477Y-77882976D02*
X156600000Y-77882976D01*
X156719048Y-78216309D02*
X156885714Y-77716309D01*
X156885714Y-77716309D02*
X157052381Y-78216309D01*
%TO.C,U8*%
X126139047Y-78402500D02*
X126091428Y-78426309D01*
X126091428Y-78426309D02*
X126019999Y-78426309D01*
X126019999Y-78426309D02*
X125948571Y-78402500D01*
X125948571Y-78402500D02*
X125900952Y-78354880D01*
X125900952Y-78354880D02*
X125877142Y-78307261D01*
X125877142Y-78307261D02*
X125853333Y-78212023D01*
X125853333Y-78212023D02*
X125853333Y-78140595D01*
X125853333Y-78140595D02*
X125877142Y-78045357D01*
X125877142Y-78045357D02*
X125900952Y-77997738D01*
X125900952Y-77997738D02*
X125948571Y-77950119D01*
X125948571Y-77950119D02*
X126019999Y-77926309D01*
X126019999Y-77926309D02*
X126067618Y-77926309D01*
X126067618Y-77926309D02*
X126139047Y-77950119D01*
X126139047Y-77950119D02*
X126162856Y-77973928D01*
X126162856Y-77973928D02*
X126162856Y-78140595D01*
X126162856Y-78140595D02*
X126067618Y-78140595D01*
X126377142Y-77926309D02*
X126377142Y-78426309D01*
X126377142Y-78426309D02*
X126662856Y-77926309D01*
X126662856Y-77926309D02*
X126662856Y-78426309D01*
X126900952Y-77926309D02*
X126900952Y-78426309D01*
X126900952Y-78426309D02*
X127020000Y-78426309D01*
X127020000Y-78426309D02*
X127091428Y-78402500D01*
X127091428Y-78402500D02*
X127139047Y-78354880D01*
X127139047Y-78354880D02*
X127162857Y-78307261D01*
X127162857Y-78307261D02*
X127186666Y-78212023D01*
X127186666Y-78212023D02*
X127186666Y-78140595D01*
X127186666Y-78140595D02*
X127162857Y-78045357D01*
X127162857Y-78045357D02*
X127139047Y-77997738D01*
X127139047Y-77997738D02*
X127091428Y-77950119D01*
X127091428Y-77950119D02*
X127020000Y-77926309D01*
X127020000Y-77926309D02*
X126900952Y-77926309D01*
%TO.C,U11*%
X138681905Y-77986309D02*
X138991429Y-77986309D01*
X138991429Y-77986309D02*
X138824762Y-77795833D01*
X138824762Y-77795833D02*
X138896191Y-77795833D01*
X138896191Y-77795833D02*
X138943810Y-77772023D01*
X138943810Y-77772023D02*
X138967619Y-77748214D01*
X138967619Y-77748214D02*
X138991429Y-77700595D01*
X138991429Y-77700595D02*
X138991429Y-77581547D01*
X138991429Y-77581547D02*
X138967619Y-77533928D01*
X138967619Y-77533928D02*
X138943810Y-77510119D01*
X138943810Y-77510119D02*
X138896191Y-77486309D01*
X138896191Y-77486309D02*
X138753334Y-77486309D01*
X138753334Y-77486309D02*
X138705715Y-77510119D01*
X138705715Y-77510119D02*
X138681905Y-77533928D01*
X139205714Y-77533928D02*
X139229524Y-77510119D01*
X139229524Y-77510119D02*
X139205714Y-77486309D01*
X139205714Y-77486309D02*
X139181905Y-77510119D01*
X139181905Y-77510119D02*
X139205714Y-77533928D01*
X139205714Y-77533928D02*
X139205714Y-77486309D01*
X139396190Y-77986309D02*
X139705714Y-77986309D01*
X139705714Y-77986309D02*
X139539047Y-77795833D01*
X139539047Y-77795833D02*
X139610476Y-77795833D01*
X139610476Y-77795833D02*
X139658095Y-77772023D01*
X139658095Y-77772023D02*
X139681904Y-77748214D01*
X139681904Y-77748214D02*
X139705714Y-77700595D01*
X139705714Y-77700595D02*
X139705714Y-77581547D01*
X139705714Y-77581547D02*
X139681904Y-77533928D01*
X139681904Y-77533928D02*
X139658095Y-77510119D01*
X139658095Y-77510119D02*
X139610476Y-77486309D01*
X139610476Y-77486309D02*
X139467619Y-77486309D01*
X139467619Y-77486309D02*
X139420000Y-77510119D01*
X139420000Y-77510119D02*
X139396190Y-77533928D01*
X139848571Y-77986309D02*
X140015237Y-77486309D01*
X140015237Y-77486309D02*
X140181904Y-77986309D01*
D16*
%TO.C,C21*%
X117390714Y-99648035D02*
X117402618Y-99659940D01*
X117402618Y-99659940D02*
X117438333Y-99671845D01*
X117438333Y-99671845D02*
X117462142Y-99671845D01*
X117462142Y-99671845D02*
X117497856Y-99659940D01*
X117497856Y-99659940D02*
X117521666Y-99636130D01*
X117521666Y-99636130D02*
X117533571Y-99612321D01*
X117533571Y-99612321D02*
X117545475Y-99564702D01*
X117545475Y-99564702D02*
X117545475Y-99528988D01*
X117545475Y-99528988D02*
X117533571Y-99481369D01*
X117533571Y-99481369D02*
X117521666Y-99457559D01*
X117521666Y-99457559D02*
X117497856Y-99433750D01*
X117497856Y-99433750D02*
X117462142Y-99421845D01*
X117462142Y-99421845D02*
X117438333Y-99421845D01*
X117438333Y-99421845D02*
X117402618Y-99433750D01*
X117402618Y-99433750D02*
X117390714Y-99445654D01*
X117295475Y-99445654D02*
X117283571Y-99433750D01*
X117283571Y-99433750D02*
X117259761Y-99421845D01*
X117259761Y-99421845D02*
X117200237Y-99421845D01*
X117200237Y-99421845D02*
X117176428Y-99433750D01*
X117176428Y-99433750D02*
X117164523Y-99445654D01*
X117164523Y-99445654D02*
X117152618Y-99469464D01*
X117152618Y-99469464D02*
X117152618Y-99493273D01*
X117152618Y-99493273D02*
X117164523Y-99528988D01*
X117164523Y-99528988D02*
X117307380Y-99671845D01*
X117307380Y-99671845D02*
X117152618Y-99671845D01*
X116914523Y-99671845D02*
X117057380Y-99671845D01*
X116985952Y-99671845D02*
X116985952Y-99421845D01*
X116985952Y-99421845D02*
X117009761Y-99457559D01*
X117009761Y-99457559D02*
X117033571Y-99481369D01*
X117033571Y-99481369D02*
X117057380Y-99493273D01*
%TO.C,C20*%
X122310714Y-96468035D02*
X122322618Y-96479940D01*
X122322618Y-96479940D02*
X122358333Y-96491845D01*
X122358333Y-96491845D02*
X122382142Y-96491845D01*
X122382142Y-96491845D02*
X122417856Y-96479940D01*
X122417856Y-96479940D02*
X122441666Y-96456130D01*
X122441666Y-96456130D02*
X122453571Y-96432321D01*
X122453571Y-96432321D02*
X122465475Y-96384702D01*
X122465475Y-96384702D02*
X122465475Y-96348988D01*
X122465475Y-96348988D02*
X122453571Y-96301369D01*
X122453571Y-96301369D02*
X122441666Y-96277559D01*
X122441666Y-96277559D02*
X122417856Y-96253750D01*
X122417856Y-96253750D02*
X122382142Y-96241845D01*
X122382142Y-96241845D02*
X122358333Y-96241845D01*
X122358333Y-96241845D02*
X122322618Y-96253750D01*
X122322618Y-96253750D02*
X122310714Y-96265654D01*
X122215475Y-96265654D02*
X122203571Y-96253750D01*
X122203571Y-96253750D02*
X122179761Y-96241845D01*
X122179761Y-96241845D02*
X122120237Y-96241845D01*
X122120237Y-96241845D02*
X122096428Y-96253750D01*
X122096428Y-96253750D02*
X122084523Y-96265654D01*
X122084523Y-96265654D02*
X122072618Y-96289464D01*
X122072618Y-96289464D02*
X122072618Y-96313273D01*
X122072618Y-96313273D02*
X122084523Y-96348988D01*
X122084523Y-96348988D02*
X122227380Y-96491845D01*
X122227380Y-96491845D02*
X122072618Y-96491845D01*
X121917857Y-96241845D02*
X121894047Y-96241845D01*
X121894047Y-96241845D02*
X121870238Y-96253750D01*
X121870238Y-96253750D02*
X121858333Y-96265654D01*
X121858333Y-96265654D02*
X121846428Y-96289464D01*
X121846428Y-96289464D02*
X121834523Y-96337083D01*
X121834523Y-96337083D02*
X121834523Y-96396607D01*
X121834523Y-96396607D02*
X121846428Y-96444226D01*
X121846428Y-96444226D02*
X121858333Y-96468035D01*
X121858333Y-96468035D02*
X121870238Y-96479940D01*
X121870238Y-96479940D02*
X121894047Y-96491845D01*
X121894047Y-96491845D02*
X121917857Y-96491845D01*
X121917857Y-96491845D02*
X121941666Y-96479940D01*
X121941666Y-96479940D02*
X121953571Y-96468035D01*
X121953571Y-96468035D02*
X121965476Y-96444226D01*
X121965476Y-96444226D02*
X121977380Y-96396607D01*
X121977380Y-96396607D02*
X121977380Y-96337083D01*
X121977380Y-96337083D02*
X121965476Y-96289464D01*
X121965476Y-96289464D02*
X121953571Y-96265654D01*
X121953571Y-96265654D02*
X121941666Y-96253750D01*
X121941666Y-96253750D02*
X121917857Y-96241845D01*
%TO.C,F1*%
X118878332Y-96475892D02*
X118961666Y-96475892D01*
X118961666Y-96606845D02*
X118961666Y-96356845D01*
X118961666Y-96356845D02*
X118842618Y-96356845D01*
X118616427Y-96606845D02*
X118759284Y-96606845D01*
X118687856Y-96606845D02*
X118687856Y-96356845D01*
X118687856Y-96356845D02*
X118711665Y-96392559D01*
X118711665Y-96392559D02*
X118735475Y-96416369D01*
X118735475Y-96416369D02*
X118759284Y-96428273D01*
%TO.C,FB1*%
X122328332Y-99590892D02*
X122411666Y-99590892D01*
X122411666Y-99721845D02*
X122411666Y-99471845D01*
X122411666Y-99471845D02*
X122292618Y-99471845D01*
X122114046Y-99590892D02*
X122078332Y-99602797D01*
X122078332Y-99602797D02*
X122066427Y-99614702D01*
X122066427Y-99614702D02*
X122054523Y-99638511D01*
X122054523Y-99638511D02*
X122054523Y-99674226D01*
X122054523Y-99674226D02*
X122066427Y-99698035D01*
X122066427Y-99698035D02*
X122078332Y-99709940D01*
X122078332Y-99709940D02*
X122102142Y-99721845D01*
X122102142Y-99721845D02*
X122197380Y-99721845D01*
X122197380Y-99721845D02*
X122197380Y-99471845D01*
X122197380Y-99471845D02*
X122114046Y-99471845D01*
X122114046Y-99471845D02*
X122090237Y-99483750D01*
X122090237Y-99483750D02*
X122078332Y-99495654D01*
X122078332Y-99495654D02*
X122066427Y-99519464D01*
X122066427Y-99519464D02*
X122066427Y-99543273D01*
X122066427Y-99543273D02*
X122078332Y-99567083D01*
X122078332Y-99567083D02*
X122090237Y-99578988D01*
X122090237Y-99578988D02*
X122114046Y-99590892D01*
X122114046Y-99590892D02*
X122197380Y-99590892D01*
X121816427Y-99721845D02*
X121959284Y-99721845D01*
X121887856Y-99721845D02*
X121887856Y-99471845D01*
X121887856Y-99471845D02*
X121911665Y-99507559D01*
X121911665Y-99507559D02*
X121935475Y-99531369D01*
X121935475Y-99531369D02*
X121959284Y-99543273D01*
%TO.C,Q1*%
X119763809Y-99845654D02*
X119787619Y-99833750D01*
X119787619Y-99833750D02*
X119811428Y-99809940D01*
X119811428Y-99809940D02*
X119847142Y-99774226D01*
X119847142Y-99774226D02*
X119870952Y-99762321D01*
X119870952Y-99762321D02*
X119894761Y-99762321D01*
X119882857Y-99821845D02*
X119906666Y-99809940D01*
X119906666Y-99809940D02*
X119930476Y-99786130D01*
X119930476Y-99786130D02*
X119942380Y-99738511D01*
X119942380Y-99738511D02*
X119942380Y-99655178D01*
X119942380Y-99655178D02*
X119930476Y-99607559D01*
X119930476Y-99607559D02*
X119906666Y-99583750D01*
X119906666Y-99583750D02*
X119882857Y-99571845D01*
X119882857Y-99571845D02*
X119835238Y-99571845D01*
X119835238Y-99571845D02*
X119811428Y-99583750D01*
X119811428Y-99583750D02*
X119787619Y-99607559D01*
X119787619Y-99607559D02*
X119775714Y-99655178D01*
X119775714Y-99655178D02*
X119775714Y-99738511D01*
X119775714Y-99738511D02*
X119787619Y-99786130D01*
X119787619Y-99786130D02*
X119811428Y-99809940D01*
X119811428Y-99809940D02*
X119835238Y-99821845D01*
X119835238Y-99821845D02*
X119882857Y-99821845D01*
X119537618Y-99821845D02*
X119680475Y-99821845D01*
X119609047Y-99821845D02*
X119609047Y-99571845D01*
X119609047Y-99571845D02*
X119632856Y-99607559D01*
X119632856Y-99607559D02*
X119656666Y-99631369D01*
X119656666Y-99631369D02*
X119680475Y-99643273D01*
%TO.C,R6*%
X161441845Y-100058333D02*
X161322797Y-99975000D01*
X161441845Y-99915476D02*
X161191845Y-99915476D01*
X161191845Y-99915476D02*
X161191845Y-100010714D01*
X161191845Y-100010714D02*
X161203750Y-100034524D01*
X161203750Y-100034524D02*
X161215654Y-100046429D01*
X161215654Y-100046429D02*
X161239464Y-100058333D01*
X161239464Y-100058333D02*
X161275178Y-100058333D01*
X161275178Y-100058333D02*
X161298988Y-100046429D01*
X161298988Y-100046429D02*
X161310892Y-100034524D01*
X161310892Y-100034524D02*
X161322797Y-100010714D01*
X161322797Y-100010714D02*
X161322797Y-99915476D01*
X161191845Y-100272619D02*
X161191845Y-100225000D01*
X161191845Y-100225000D02*
X161203750Y-100201191D01*
X161203750Y-100201191D02*
X161215654Y-100189286D01*
X161215654Y-100189286D02*
X161251369Y-100165476D01*
X161251369Y-100165476D02*
X161298988Y-100153572D01*
X161298988Y-100153572D02*
X161394226Y-100153572D01*
X161394226Y-100153572D02*
X161418035Y-100165476D01*
X161418035Y-100165476D02*
X161429940Y-100177381D01*
X161429940Y-100177381D02*
X161441845Y-100201191D01*
X161441845Y-100201191D02*
X161441845Y-100248810D01*
X161441845Y-100248810D02*
X161429940Y-100272619D01*
X161429940Y-100272619D02*
X161418035Y-100284524D01*
X161418035Y-100284524D02*
X161394226Y-100296429D01*
X161394226Y-100296429D02*
X161334702Y-100296429D01*
X161334702Y-100296429D02*
X161310892Y-100284524D01*
X161310892Y-100284524D02*
X161298988Y-100272619D01*
X161298988Y-100272619D02*
X161287083Y-100248810D01*
X161287083Y-100248810D02*
X161287083Y-100201191D01*
X161287083Y-100201191D02*
X161298988Y-100177381D01*
X161298988Y-100177381D02*
X161310892Y-100165476D01*
X161310892Y-100165476D02*
X161334702Y-100153572D01*
%TO.C,C22*%
X144339285Y-81816964D02*
X144327381Y-81805059D01*
X144327381Y-81805059D02*
X144291666Y-81793154D01*
X144291666Y-81793154D02*
X144267857Y-81793154D01*
X144267857Y-81793154D02*
X144232143Y-81805059D01*
X144232143Y-81805059D02*
X144208333Y-81828869D01*
X144208333Y-81828869D02*
X144196428Y-81852678D01*
X144196428Y-81852678D02*
X144184524Y-81900297D01*
X144184524Y-81900297D02*
X144184524Y-81936011D01*
X144184524Y-81936011D02*
X144196428Y-81983630D01*
X144196428Y-81983630D02*
X144208333Y-82007440D01*
X144208333Y-82007440D02*
X144232143Y-82031250D01*
X144232143Y-82031250D02*
X144267857Y-82043154D01*
X144267857Y-82043154D02*
X144291666Y-82043154D01*
X144291666Y-82043154D02*
X144327381Y-82031250D01*
X144327381Y-82031250D02*
X144339285Y-82019345D01*
X144434524Y-82019345D02*
X144446428Y-82031250D01*
X144446428Y-82031250D02*
X144470238Y-82043154D01*
X144470238Y-82043154D02*
X144529762Y-82043154D01*
X144529762Y-82043154D02*
X144553571Y-82031250D01*
X144553571Y-82031250D02*
X144565476Y-82019345D01*
X144565476Y-82019345D02*
X144577381Y-81995535D01*
X144577381Y-81995535D02*
X144577381Y-81971726D01*
X144577381Y-81971726D02*
X144565476Y-81936011D01*
X144565476Y-81936011D02*
X144422619Y-81793154D01*
X144422619Y-81793154D02*
X144577381Y-81793154D01*
X144672619Y-82019345D02*
X144684523Y-82031250D01*
X144684523Y-82031250D02*
X144708333Y-82043154D01*
X144708333Y-82043154D02*
X144767857Y-82043154D01*
X144767857Y-82043154D02*
X144791666Y-82031250D01*
X144791666Y-82031250D02*
X144803571Y-82019345D01*
X144803571Y-82019345D02*
X144815476Y-81995535D01*
X144815476Y-81995535D02*
X144815476Y-81971726D01*
X144815476Y-81971726D02*
X144803571Y-81936011D01*
X144803571Y-81936011D02*
X144660714Y-81793154D01*
X144660714Y-81793154D02*
X144815476Y-81793154D01*
%TO.C,C25*%
X135110714Y-101280535D02*
X135122618Y-101292440D01*
X135122618Y-101292440D02*
X135158333Y-101304345D01*
X135158333Y-101304345D02*
X135182142Y-101304345D01*
X135182142Y-101304345D02*
X135217856Y-101292440D01*
X135217856Y-101292440D02*
X135241666Y-101268630D01*
X135241666Y-101268630D02*
X135253571Y-101244821D01*
X135253571Y-101244821D02*
X135265475Y-101197202D01*
X135265475Y-101197202D02*
X135265475Y-101161488D01*
X135265475Y-101161488D02*
X135253571Y-101113869D01*
X135253571Y-101113869D02*
X135241666Y-101090059D01*
X135241666Y-101090059D02*
X135217856Y-101066250D01*
X135217856Y-101066250D02*
X135182142Y-101054345D01*
X135182142Y-101054345D02*
X135158333Y-101054345D01*
X135158333Y-101054345D02*
X135122618Y-101066250D01*
X135122618Y-101066250D02*
X135110714Y-101078154D01*
X135015475Y-101078154D02*
X135003571Y-101066250D01*
X135003571Y-101066250D02*
X134979761Y-101054345D01*
X134979761Y-101054345D02*
X134920237Y-101054345D01*
X134920237Y-101054345D02*
X134896428Y-101066250D01*
X134896428Y-101066250D02*
X134884523Y-101078154D01*
X134884523Y-101078154D02*
X134872618Y-101101964D01*
X134872618Y-101101964D02*
X134872618Y-101125773D01*
X134872618Y-101125773D02*
X134884523Y-101161488D01*
X134884523Y-101161488D02*
X135027380Y-101304345D01*
X135027380Y-101304345D02*
X134872618Y-101304345D01*
X134646428Y-101054345D02*
X134765476Y-101054345D01*
X134765476Y-101054345D02*
X134777380Y-101173392D01*
X134777380Y-101173392D02*
X134765476Y-101161488D01*
X134765476Y-101161488D02*
X134741666Y-101149583D01*
X134741666Y-101149583D02*
X134682142Y-101149583D01*
X134682142Y-101149583D02*
X134658333Y-101161488D01*
X134658333Y-101161488D02*
X134646428Y-101173392D01*
X134646428Y-101173392D02*
X134634523Y-101197202D01*
X134634523Y-101197202D02*
X134634523Y-101256726D01*
X134634523Y-101256726D02*
X134646428Y-101280535D01*
X134646428Y-101280535D02*
X134658333Y-101292440D01*
X134658333Y-101292440D02*
X134682142Y-101304345D01*
X134682142Y-101304345D02*
X134741666Y-101304345D01*
X134741666Y-101304345D02*
X134765476Y-101292440D01*
X134765476Y-101292440D02*
X134777380Y-101280535D01*
%TO.C,R15*%
X123160714Y-76661845D02*
X123244047Y-76542797D01*
X123303571Y-76661845D02*
X123303571Y-76411845D01*
X123303571Y-76411845D02*
X123208333Y-76411845D01*
X123208333Y-76411845D02*
X123184523Y-76423750D01*
X123184523Y-76423750D02*
X123172618Y-76435654D01*
X123172618Y-76435654D02*
X123160714Y-76459464D01*
X123160714Y-76459464D02*
X123160714Y-76495178D01*
X123160714Y-76495178D02*
X123172618Y-76518988D01*
X123172618Y-76518988D02*
X123184523Y-76530892D01*
X123184523Y-76530892D02*
X123208333Y-76542797D01*
X123208333Y-76542797D02*
X123303571Y-76542797D01*
X122922618Y-76661845D02*
X123065475Y-76661845D01*
X122994047Y-76661845D02*
X122994047Y-76411845D01*
X122994047Y-76411845D02*
X123017856Y-76447559D01*
X123017856Y-76447559D02*
X123041666Y-76471369D01*
X123041666Y-76471369D02*
X123065475Y-76483273D01*
X122696428Y-76411845D02*
X122815476Y-76411845D01*
X122815476Y-76411845D02*
X122827380Y-76530892D01*
X122827380Y-76530892D02*
X122815476Y-76518988D01*
X122815476Y-76518988D02*
X122791666Y-76507083D01*
X122791666Y-76507083D02*
X122732142Y-76507083D01*
X122732142Y-76507083D02*
X122708333Y-76518988D01*
X122708333Y-76518988D02*
X122696428Y-76530892D01*
X122696428Y-76530892D02*
X122684523Y-76554702D01*
X122684523Y-76554702D02*
X122684523Y-76614226D01*
X122684523Y-76614226D02*
X122696428Y-76638035D01*
X122696428Y-76638035D02*
X122708333Y-76649940D01*
X122708333Y-76649940D02*
X122732142Y-76661845D01*
X122732142Y-76661845D02*
X122791666Y-76661845D01*
X122791666Y-76661845D02*
X122815476Y-76649940D01*
X122815476Y-76649940D02*
X122827380Y-76638035D01*
D13*
%TO.C,U1*%
X119040952Y-106603690D02*
X119040952Y-107008452D01*
X119040952Y-107008452D02*
X119017142Y-107056071D01*
X119017142Y-107056071D02*
X118993333Y-107079880D01*
X118993333Y-107079880D02*
X118945714Y-107103690D01*
X118945714Y-107103690D02*
X118850476Y-107103690D01*
X118850476Y-107103690D02*
X118802857Y-107079880D01*
X118802857Y-107079880D02*
X118779047Y-107056071D01*
X118779047Y-107056071D02*
X118755238Y-107008452D01*
X118755238Y-107008452D02*
X118755238Y-106603690D01*
X118255237Y-107103690D02*
X118540951Y-107103690D01*
X118398094Y-107103690D02*
X118398094Y-106603690D01*
X118398094Y-106603690D02*
X118445713Y-106675119D01*
X118445713Y-106675119D02*
X118493332Y-106722738D01*
X118493332Y-106722738D02*
X118540951Y-106746547D01*
D16*
%TO.C,R9*%
X161441845Y-101558333D02*
X161322797Y-101475000D01*
X161441845Y-101415476D02*
X161191845Y-101415476D01*
X161191845Y-101415476D02*
X161191845Y-101510714D01*
X161191845Y-101510714D02*
X161203750Y-101534524D01*
X161203750Y-101534524D02*
X161215654Y-101546429D01*
X161215654Y-101546429D02*
X161239464Y-101558333D01*
X161239464Y-101558333D02*
X161275178Y-101558333D01*
X161275178Y-101558333D02*
X161298988Y-101546429D01*
X161298988Y-101546429D02*
X161310892Y-101534524D01*
X161310892Y-101534524D02*
X161322797Y-101510714D01*
X161322797Y-101510714D02*
X161322797Y-101415476D01*
X161441845Y-101677381D02*
X161441845Y-101725000D01*
X161441845Y-101725000D02*
X161429940Y-101748810D01*
X161429940Y-101748810D02*
X161418035Y-101760714D01*
X161418035Y-101760714D02*
X161382321Y-101784524D01*
X161382321Y-101784524D02*
X161334702Y-101796429D01*
X161334702Y-101796429D02*
X161239464Y-101796429D01*
X161239464Y-101796429D02*
X161215654Y-101784524D01*
X161215654Y-101784524D02*
X161203750Y-101772619D01*
X161203750Y-101772619D02*
X161191845Y-101748810D01*
X161191845Y-101748810D02*
X161191845Y-101701191D01*
X161191845Y-101701191D02*
X161203750Y-101677381D01*
X161203750Y-101677381D02*
X161215654Y-101665476D01*
X161215654Y-101665476D02*
X161239464Y-101653572D01*
X161239464Y-101653572D02*
X161298988Y-101653572D01*
X161298988Y-101653572D02*
X161322797Y-101665476D01*
X161322797Y-101665476D02*
X161334702Y-101677381D01*
X161334702Y-101677381D02*
X161346607Y-101701191D01*
X161346607Y-101701191D02*
X161346607Y-101748810D01*
X161346607Y-101748810D02*
X161334702Y-101772619D01*
X161334702Y-101772619D02*
X161322797Y-101784524D01*
X161322797Y-101784524D02*
X161298988Y-101796429D01*
%TO.C,C11*%
X158590714Y-116808035D02*
X158602618Y-116819940D01*
X158602618Y-116819940D02*
X158638333Y-116831845D01*
X158638333Y-116831845D02*
X158662142Y-116831845D01*
X158662142Y-116831845D02*
X158697856Y-116819940D01*
X158697856Y-116819940D02*
X158721666Y-116796130D01*
X158721666Y-116796130D02*
X158733571Y-116772321D01*
X158733571Y-116772321D02*
X158745475Y-116724702D01*
X158745475Y-116724702D02*
X158745475Y-116688988D01*
X158745475Y-116688988D02*
X158733571Y-116641369D01*
X158733571Y-116641369D02*
X158721666Y-116617559D01*
X158721666Y-116617559D02*
X158697856Y-116593750D01*
X158697856Y-116593750D02*
X158662142Y-116581845D01*
X158662142Y-116581845D02*
X158638333Y-116581845D01*
X158638333Y-116581845D02*
X158602618Y-116593750D01*
X158602618Y-116593750D02*
X158590714Y-116605654D01*
X158352618Y-116831845D02*
X158495475Y-116831845D01*
X158424047Y-116831845D02*
X158424047Y-116581845D01*
X158424047Y-116581845D02*
X158447856Y-116617559D01*
X158447856Y-116617559D02*
X158471666Y-116641369D01*
X158471666Y-116641369D02*
X158495475Y-116653273D01*
X158114523Y-116831845D02*
X158257380Y-116831845D01*
X158185952Y-116831845D02*
X158185952Y-116581845D01*
X158185952Y-116581845D02*
X158209761Y-116617559D01*
X158209761Y-116617559D02*
X158233571Y-116641369D01*
X158233571Y-116641369D02*
X158257380Y-116653273D01*
%TO.C,R4*%
X153631666Y-115391845D02*
X153714999Y-115272797D01*
X153774523Y-115391845D02*
X153774523Y-115141845D01*
X153774523Y-115141845D02*
X153679285Y-115141845D01*
X153679285Y-115141845D02*
X153655475Y-115153750D01*
X153655475Y-115153750D02*
X153643570Y-115165654D01*
X153643570Y-115165654D02*
X153631666Y-115189464D01*
X153631666Y-115189464D02*
X153631666Y-115225178D01*
X153631666Y-115225178D02*
X153643570Y-115248988D01*
X153643570Y-115248988D02*
X153655475Y-115260892D01*
X153655475Y-115260892D02*
X153679285Y-115272797D01*
X153679285Y-115272797D02*
X153774523Y-115272797D01*
X153417380Y-115225178D02*
X153417380Y-115391845D01*
X153476904Y-115129940D02*
X153536427Y-115308511D01*
X153536427Y-115308511D02*
X153381666Y-115308511D01*
%TO.C,C12*%
X152360535Y-117729285D02*
X152372440Y-117717381D01*
X152372440Y-117717381D02*
X152384345Y-117681666D01*
X152384345Y-117681666D02*
X152384345Y-117657857D01*
X152384345Y-117657857D02*
X152372440Y-117622143D01*
X152372440Y-117622143D02*
X152348630Y-117598333D01*
X152348630Y-117598333D02*
X152324821Y-117586428D01*
X152324821Y-117586428D02*
X152277202Y-117574524D01*
X152277202Y-117574524D02*
X152241488Y-117574524D01*
X152241488Y-117574524D02*
X152193869Y-117586428D01*
X152193869Y-117586428D02*
X152170059Y-117598333D01*
X152170059Y-117598333D02*
X152146250Y-117622143D01*
X152146250Y-117622143D02*
X152134345Y-117657857D01*
X152134345Y-117657857D02*
X152134345Y-117681666D01*
X152134345Y-117681666D02*
X152146250Y-117717381D01*
X152146250Y-117717381D02*
X152158154Y-117729285D01*
X152384345Y-117967381D02*
X152384345Y-117824524D01*
X152384345Y-117895952D02*
X152134345Y-117895952D01*
X152134345Y-117895952D02*
X152170059Y-117872143D01*
X152170059Y-117872143D02*
X152193869Y-117848333D01*
X152193869Y-117848333D02*
X152205773Y-117824524D01*
X152158154Y-118062619D02*
X152146250Y-118074523D01*
X152146250Y-118074523D02*
X152134345Y-118098333D01*
X152134345Y-118098333D02*
X152134345Y-118157857D01*
X152134345Y-118157857D02*
X152146250Y-118181666D01*
X152146250Y-118181666D02*
X152158154Y-118193571D01*
X152158154Y-118193571D02*
X152181964Y-118205476D01*
X152181964Y-118205476D02*
X152205773Y-118205476D01*
X152205773Y-118205476D02*
X152241488Y-118193571D01*
X152241488Y-118193571D02*
X152384345Y-118050714D01*
X152384345Y-118050714D02*
X152384345Y-118205476D01*
D13*
%TO.C,U6*%
X140620245Y-99254397D02*
X140620245Y-99659159D01*
X140620245Y-99659159D02*
X140596435Y-99706778D01*
X140596435Y-99706778D02*
X140572626Y-99730587D01*
X140572626Y-99730587D02*
X140525007Y-99754397D01*
X140525007Y-99754397D02*
X140429769Y-99754397D01*
X140429769Y-99754397D02*
X140382150Y-99730587D01*
X140382150Y-99730587D02*
X140358340Y-99706778D01*
X140358340Y-99706778D02*
X140334531Y-99659159D01*
X140334531Y-99659159D02*
X140334531Y-99254397D01*
X139882149Y-99254397D02*
X139977387Y-99254397D01*
X139977387Y-99254397D02*
X140025006Y-99278207D01*
X140025006Y-99278207D02*
X140048816Y-99302016D01*
X140048816Y-99302016D02*
X140096435Y-99373445D01*
X140096435Y-99373445D02*
X140120244Y-99468683D01*
X140120244Y-99468683D02*
X140120244Y-99659159D01*
X140120244Y-99659159D02*
X140096435Y-99706778D01*
X140096435Y-99706778D02*
X140072625Y-99730587D01*
X140072625Y-99730587D02*
X140025006Y-99754397D01*
X140025006Y-99754397D02*
X139929768Y-99754397D01*
X139929768Y-99754397D02*
X139882149Y-99730587D01*
X139882149Y-99730587D02*
X139858340Y-99706778D01*
X139858340Y-99706778D02*
X139834530Y-99659159D01*
X139834530Y-99659159D02*
X139834530Y-99540111D01*
X139834530Y-99540111D02*
X139858340Y-99492492D01*
X139858340Y-99492492D02*
X139882149Y-99468683D01*
X139882149Y-99468683D02*
X139929768Y-99444873D01*
X139929768Y-99444873D02*
X140025006Y-99444873D01*
X140025006Y-99444873D02*
X140072625Y-99468683D01*
X140072625Y-99468683D02*
X140096435Y-99492492D01*
X140096435Y-99492492D02*
X140120244Y-99540111D01*
D10*
X144429999Y-97644285D02*
X144334761Y-97739523D01*
X144334761Y-97739523D02*
X144429999Y-97834761D01*
X144429999Y-97834761D02*
X144525237Y-97739523D01*
X144525237Y-97739523D02*
X144429999Y-97644285D01*
X144429999Y-97644285D02*
X144429999Y-97834761D01*
D16*
%TO.C,R14*%
X131335285Y-77992154D02*
X131251952Y-78111202D01*
X131192428Y-77992154D02*
X131192428Y-78242154D01*
X131192428Y-78242154D02*
X131287666Y-78242154D01*
X131287666Y-78242154D02*
X131311476Y-78230250D01*
X131311476Y-78230250D02*
X131323381Y-78218345D01*
X131323381Y-78218345D02*
X131335285Y-78194535D01*
X131335285Y-78194535D02*
X131335285Y-78158821D01*
X131335285Y-78158821D02*
X131323381Y-78135011D01*
X131323381Y-78135011D02*
X131311476Y-78123107D01*
X131311476Y-78123107D02*
X131287666Y-78111202D01*
X131287666Y-78111202D02*
X131192428Y-78111202D01*
X131573381Y-77992154D02*
X131430524Y-77992154D01*
X131501952Y-77992154D02*
X131501952Y-78242154D01*
X131501952Y-78242154D02*
X131478143Y-78206440D01*
X131478143Y-78206440D02*
X131454333Y-78182630D01*
X131454333Y-78182630D02*
X131430524Y-78170726D01*
X131787666Y-78158821D02*
X131787666Y-77992154D01*
X131728142Y-78254059D02*
X131668619Y-78075488D01*
X131668619Y-78075488D02*
X131823380Y-78075488D01*
%TO.C,C24*%
X136310714Y-82290535D02*
X136322618Y-82302440D01*
X136322618Y-82302440D02*
X136358333Y-82314345D01*
X136358333Y-82314345D02*
X136382142Y-82314345D01*
X136382142Y-82314345D02*
X136417856Y-82302440D01*
X136417856Y-82302440D02*
X136441666Y-82278630D01*
X136441666Y-82278630D02*
X136453571Y-82254821D01*
X136453571Y-82254821D02*
X136465475Y-82207202D01*
X136465475Y-82207202D02*
X136465475Y-82171488D01*
X136465475Y-82171488D02*
X136453571Y-82123869D01*
X136453571Y-82123869D02*
X136441666Y-82100059D01*
X136441666Y-82100059D02*
X136417856Y-82076250D01*
X136417856Y-82076250D02*
X136382142Y-82064345D01*
X136382142Y-82064345D02*
X136358333Y-82064345D01*
X136358333Y-82064345D02*
X136322618Y-82076250D01*
X136322618Y-82076250D02*
X136310714Y-82088154D01*
X136215475Y-82088154D02*
X136203571Y-82076250D01*
X136203571Y-82076250D02*
X136179761Y-82064345D01*
X136179761Y-82064345D02*
X136120237Y-82064345D01*
X136120237Y-82064345D02*
X136096428Y-82076250D01*
X136096428Y-82076250D02*
X136084523Y-82088154D01*
X136084523Y-82088154D02*
X136072618Y-82111964D01*
X136072618Y-82111964D02*
X136072618Y-82135773D01*
X136072618Y-82135773D02*
X136084523Y-82171488D01*
X136084523Y-82171488D02*
X136227380Y-82314345D01*
X136227380Y-82314345D02*
X136072618Y-82314345D01*
X135858333Y-82147678D02*
X135858333Y-82314345D01*
X135917857Y-82052440D02*
X135977380Y-82231011D01*
X135977380Y-82231011D02*
X135822619Y-82231011D01*
D13*
%TO.C,U5*%
X131855952Y-81986690D02*
X131855952Y-82391452D01*
X131855952Y-82391452D02*
X131832142Y-82439071D01*
X131832142Y-82439071D02*
X131808333Y-82462880D01*
X131808333Y-82462880D02*
X131760714Y-82486690D01*
X131760714Y-82486690D02*
X131665476Y-82486690D01*
X131665476Y-82486690D02*
X131617857Y-82462880D01*
X131617857Y-82462880D02*
X131594047Y-82439071D01*
X131594047Y-82439071D02*
X131570238Y-82391452D01*
X131570238Y-82391452D02*
X131570238Y-81986690D01*
X131094047Y-81986690D02*
X131332142Y-81986690D01*
X131332142Y-81986690D02*
X131355951Y-82224785D01*
X131355951Y-82224785D02*
X131332142Y-82200976D01*
X131332142Y-82200976D02*
X131284523Y-82177166D01*
X131284523Y-82177166D02*
X131165475Y-82177166D01*
X131165475Y-82177166D02*
X131117856Y-82200976D01*
X131117856Y-82200976D02*
X131094047Y-82224785D01*
X131094047Y-82224785D02*
X131070237Y-82272404D01*
X131070237Y-82272404D02*
X131070237Y-82391452D01*
X131070237Y-82391452D02*
X131094047Y-82439071D01*
X131094047Y-82439071D02*
X131117856Y-82462880D01*
X131117856Y-82462880D02*
X131165475Y-82486690D01*
X131165475Y-82486690D02*
X131284523Y-82486690D01*
X131284523Y-82486690D02*
X131332142Y-82462880D01*
X131332142Y-82462880D02*
X131355951Y-82439071D01*
D10*
X135564999Y-80259285D02*
X135469761Y-80354523D01*
X135469761Y-80354523D02*
X135564999Y-80449761D01*
X135564999Y-80449761D02*
X135660237Y-80354523D01*
X135660237Y-80354523D02*
X135564999Y-80259285D01*
X135564999Y-80259285D02*
X135564999Y-80449761D01*
D16*
%TO.C,C26*%
X135080714Y-97818035D02*
X135092618Y-97829940D01*
X135092618Y-97829940D02*
X135128333Y-97841845D01*
X135128333Y-97841845D02*
X135152142Y-97841845D01*
X135152142Y-97841845D02*
X135187856Y-97829940D01*
X135187856Y-97829940D02*
X135211666Y-97806130D01*
X135211666Y-97806130D02*
X135223571Y-97782321D01*
X135223571Y-97782321D02*
X135235475Y-97734702D01*
X135235475Y-97734702D02*
X135235475Y-97698988D01*
X135235475Y-97698988D02*
X135223571Y-97651369D01*
X135223571Y-97651369D02*
X135211666Y-97627559D01*
X135211666Y-97627559D02*
X135187856Y-97603750D01*
X135187856Y-97603750D02*
X135152142Y-97591845D01*
X135152142Y-97591845D02*
X135128333Y-97591845D01*
X135128333Y-97591845D02*
X135092618Y-97603750D01*
X135092618Y-97603750D02*
X135080714Y-97615654D01*
X134985475Y-97615654D02*
X134973571Y-97603750D01*
X134973571Y-97603750D02*
X134949761Y-97591845D01*
X134949761Y-97591845D02*
X134890237Y-97591845D01*
X134890237Y-97591845D02*
X134866428Y-97603750D01*
X134866428Y-97603750D02*
X134854523Y-97615654D01*
X134854523Y-97615654D02*
X134842618Y-97639464D01*
X134842618Y-97639464D02*
X134842618Y-97663273D01*
X134842618Y-97663273D02*
X134854523Y-97698988D01*
X134854523Y-97698988D02*
X134997380Y-97841845D01*
X134997380Y-97841845D02*
X134842618Y-97841845D01*
X134628333Y-97591845D02*
X134675952Y-97591845D01*
X134675952Y-97591845D02*
X134699761Y-97603750D01*
X134699761Y-97603750D02*
X134711666Y-97615654D01*
X134711666Y-97615654D02*
X134735476Y-97651369D01*
X134735476Y-97651369D02*
X134747380Y-97698988D01*
X134747380Y-97698988D02*
X134747380Y-97794226D01*
X134747380Y-97794226D02*
X134735476Y-97818035D01*
X134735476Y-97818035D02*
X134723571Y-97829940D01*
X134723571Y-97829940D02*
X134699761Y-97841845D01*
X134699761Y-97841845D02*
X134652142Y-97841845D01*
X134652142Y-97841845D02*
X134628333Y-97829940D01*
X134628333Y-97829940D02*
X134616428Y-97818035D01*
X134616428Y-97818035D02*
X134604523Y-97794226D01*
X134604523Y-97794226D02*
X134604523Y-97734702D01*
X134604523Y-97734702D02*
X134616428Y-97710892D01*
X134616428Y-97710892D02*
X134628333Y-97698988D01*
X134628333Y-97698988D02*
X134652142Y-97687083D01*
X134652142Y-97687083D02*
X134699761Y-97687083D01*
X134699761Y-97687083D02*
X134723571Y-97698988D01*
X134723571Y-97698988D02*
X134735476Y-97710892D01*
X134735476Y-97710892D02*
X134747380Y-97734702D01*
%TO.C,HSE1*%
X156422618Y-116591845D02*
X156422618Y-116341845D01*
X156422618Y-116460892D02*
X156279761Y-116460892D01*
X156279761Y-116591845D02*
X156279761Y-116341845D01*
X156172617Y-116579940D02*
X156136903Y-116591845D01*
X156136903Y-116591845D02*
X156077379Y-116591845D01*
X156077379Y-116591845D02*
X156053570Y-116579940D01*
X156053570Y-116579940D02*
X156041665Y-116568035D01*
X156041665Y-116568035D02*
X156029760Y-116544226D01*
X156029760Y-116544226D02*
X156029760Y-116520416D01*
X156029760Y-116520416D02*
X156041665Y-116496607D01*
X156041665Y-116496607D02*
X156053570Y-116484702D01*
X156053570Y-116484702D02*
X156077379Y-116472797D01*
X156077379Y-116472797D02*
X156124998Y-116460892D01*
X156124998Y-116460892D02*
X156148808Y-116448988D01*
X156148808Y-116448988D02*
X156160713Y-116437083D01*
X156160713Y-116437083D02*
X156172617Y-116413273D01*
X156172617Y-116413273D02*
X156172617Y-116389464D01*
X156172617Y-116389464D02*
X156160713Y-116365654D01*
X156160713Y-116365654D02*
X156148808Y-116353750D01*
X156148808Y-116353750D02*
X156124998Y-116341845D01*
X156124998Y-116341845D02*
X156065475Y-116341845D01*
X156065475Y-116341845D02*
X156029760Y-116353750D01*
X155922618Y-116460892D02*
X155839284Y-116460892D01*
X155803570Y-116591845D02*
X155922618Y-116591845D01*
X155922618Y-116591845D02*
X155922618Y-116341845D01*
X155922618Y-116341845D02*
X155803570Y-116341845D01*
X155565475Y-116591845D02*
X155708332Y-116591845D01*
X155636904Y-116591845D02*
X155636904Y-116341845D01*
X155636904Y-116341845D02*
X155660713Y-116377559D01*
X155660713Y-116377559D02*
X155684523Y-116401369D01*
X155684523Y-116401369D02*
X155708332Y-116413273D01*
D13*
%TO.C,U4*%
X149290952Y-82123690D02*
X149290952Y-82528452D01*
X149290952Y-82528452D02*
X149267142Y-82576071D01*
X149267142Y-82576071D02*
X149243333Y-82599880D01*
X149243333Y-82599880D02*
X149195714Y-82623690D01*
X149195714Y-82623690D02*
X149100476Y-82623690D01*
X149100476Y-82623690D02*
X149052857Y-82599880D01*
X149052857Y-82599880D02*
X149029047Y-82576071D01*
X149029047Y-82576071D02*
X149005238Y-82528452D01*
X149005238Y-82528452D02*
X149005238Y-82123690D01*
X148552856Y-82290357D02*
X148552856Y-82623690D01*
X148671904Y-82099880D02*
X148790951Y-82457023D01*
X148790951Y-82457023D02*
X148481428Y-82457023D01*
D16*
%TO.C,C6*%
X161491666Y-110316535D02*
X161503570Y-110328440D01*
X161503570Y-110328440D02*
X161539285Y-110340345D01*
X161539285Y-110340345D02*
X161563094Y-110340345D01*
X161563094Y-110340345D02*
X161598808Y-110328440D01*
X161598808Y-110328440D02*
X161622618Y-110304630D01*
X161622618Y-110304630D02*
X161634523Y-110280821D01*
X161634523Y-110280821D02*
X161646427Y-110233202D01*
X161646427Y-110233202D02*
X161646427Y-110197488D01*
X161646427Y-110197488D02*
X161634523Y-110149869D01*
X161634523Y-110149869D02*
X161622618Y-110126059D01*
X161622618Y-110126059D02*
X161598808Y-110102250D01*
X161598808Y-110102250D02*
X161563094Y-110090345D01*
X161563094Y-110090345D02*
X161539285Y-110090345D01*
X161539285Y-110090345D02*
X161503570Y-110102250D01*
X161503570Y-110102250D02*
X161491666Y-110114154D01*
X161277380Y-110090345D02*
X161324999Y-110090345D01*
X161324999Y-110090345D02*
X161348808Y-110102250D01*
X161348808Y-110102250D02*
X161360713Y-110114154D01*
X161360713Y-110114154D02*
X161384523Y-110149869D01*
X161384523Y-110149869D02*
X161396427Y-110197488D01*
X161396427Y-110197488D02*
X161396427Y-110292726D01*
X161396427Y-110292726D02*
X161384523Y-110316535D01*
X161384523Y-110316535D02*
X161372618Y-110328440D01*
X161372618Y-110328440D02*
X161348808Y-110340345D01*
X161348808Y-110340345D02*
X161301189Y-110340345D01*
X161301189Y-110340345D02*
X161277380Y-110328440D01*
X161277380Y-110328440D02*
X161265475Y-110316535D01*
X161265475Y-110316535D02*
X161253570Y-110292726D01*
X161253570Y-110292726D02*
X161253570Y-110233202D01*
X161253570Y-110233202D02*
X161265475Y-110209392D01*
X161265475Y-110209392D02*
X161277380Y-110197488D01*
X161277380Y-110197488D02*
X161301189Y-110185583D01*
X161301189Y-110185583D02*
X161348808Y-110185583D01*
X161348808Y-110185583D02*
X161372618Y-110197488D01*
X161372618Y-110197488D02*
X161384523Y-110209392D01*
X161384523Y-110209392D02*
X161396427Y-110233202D01*
%TO.C,C7*%
X150068035Y-114808333D02*
X150079940Y-114796429D01*
X150079940Y-114796429D02*
X150091845Y-114760714D01*
X150091845Y-114760714D02*
X150091845Y-114736905D01*
X150091845Y-114736905D02*
X150079940Y-114701191D01*
X150079940Y-114701191D02*
X150056130Y-114677381D01*
X150056130Y-114677381D02*
X150032321Y-114665476D01*
X150032321Y-114665476D02*
X149984702Y-114653572D01*
X149984702Y-114653572D02*
X149948988Y-114653572D01*
X149948988Y-114653572D02*
X149901369Y-114665476D01*
X149901369Y-114665476D02*
X149877559Y-114677381D01*
X149877559Y-114677381D02*
X149853750Y-114701191D01*
X149853750Y-114701191D02*
X149841845Y-114736905D01*
X149841845Y-114736905D02*
X149841845Y-114760714D01*
X149841845Y-114760714D02*
X149853750Y-114796429D01*
X149853750Y-114796429D02*
X149865654Y-114808333D01*
X149841845Y-114891667D02*
X149841845Y-115058333D01*
X149841845Y-115058333D02*
X150091845Y-114951191D01*
%TO.C,C2*%
X145268035Y-109658333D02*
X145279940Y-109646429D01*
X145279940Y-109646429D02*
X145291845Y-109610714D01*
X145291845Y-109610714D02*
X145291845Y-109586905D01*
X145291845Y-109586905D02*
X145279940Y-109551191D01*
X145279940Y-109551191D02*
X145256130Y-109527381D01*
X145256130Y-109527381D02*
X145232321Y-109515476D01*
X145232321Y-109515476D02*
X145184702Y-109503572D01*
X145184702Y-109503572D02*
X145148988Y-109503572D01*
X145148988Y-109503572D02*
X145101369Y-109515476D01*
X145101369Y-109515476D02*
X145077559Y-109527381D01*
X145077559Y-109527381D02*
X145053750Y-109551191D01*
X145053750Y-109551191D02*
X145041845Y-109586905D01*
X145041845Y-109586905D02*
X145041845Y-109610714D01*
X145041845Y-109610714D02*
X145053750Y-109646429D01*
X145053750Y-109646429D02*
X145065654Y-109658333D01*
X145065654Y-109753572D02*
X145053750Y-109765476D01*
X145053750Y-109765476D02*
X145041845Y-109789286D01*
X145041845Y-109789286D02*
X145041845Y-109848810D01*
X145041845Y-109848810D02*
X145053750Y-109872619D01*
X145053750Y-109872619D02*
X145065654Y-109884524D01*
X145065654Y-109884524D02*
X145089464Y-109896429D01*
X145089464Y-109896429D02*
X145113273Y-109896429D01*
X145113273Y-109896429D02*
X145148988Y-109884524D01*
X145148988Y-109884524D02*
X145291845Y-109741667D01*
X145291845Y-109741667D02*
X145291845Y-109896429D01*
%TO.C,C1*%
X160418035Y-112658333D02*
X160429940Y-112646429D01*
X160429940Y-112646429D02*
X160441845Y-112610714D01*
X160441845Y-112610714D02*
X160441845Y-112586905D01*
X160441845Y-112586905D02*
X160429940Y-112551191D01*
X160429940Y-112551191D02*
X160406130Y-112527381D01*
X160406130Y-112527381D02*
X160382321Y-112515476D01*
X160382321Y-112515476D02*
X160334702Y-112503572D01*
X160334702Y-112503572D02*
X160298988Y-112503572D01*
X160298988Y-112503572D02*
X160251369Y-112515476D01*
X160251369Y-112515476D02*
X160227559Y-112527381D01*
X160227559Y-112527381D02*
X160203750Y-112551191D01*
X160203750Y-112551191D02*
X160191845Y-112586905D01*
X160191845Y-112586905D02*
X160191845Y-112610714D01*
X160191845Y-112610714D02*
X160203750Y-112646429D01*
X160203750Y-112646429D02*
X160215654Y-112658333D01*
X160441845Y-112896429D02*
X160441845Y-112753572D01*
X160441845Y-112825000D02*
X160191845Y-112825000D01*
X160191845Y-112825000D02*
X160227559Y-112801191D01*
X160227559Y-112801191D02*
X160251369Y-112777381D01*
X160251369Y-112777381D02*
X160263273Y-112753572D01*
%TO.C,C10*%
X157060714Y-98118035D02*
X157072618Y-98129940D01*
X157072618Y-98129940D02*
X157108333Y-98141845D01*
X157108333Y-98141845D02*
X157132142Y-98141845D01*
X157132142Y-98141845D02*
X157167856Y-98129940D01*
X157167856Y-98129940D02*
X157191666Y-98106130D01*
X157191666Y-98106130D02*
X157203571Y-98082321D01*
X157203571Y-98082321D02*
X157215475Y-98034702D01*
X157215475Y-98034702D02*
X157215475Y-97998988D01*
X157215475Y-97998988D02*
X157203571Y-97951369D01*
X157203571Y-97951369D02*
X157191666Y-97927559D01*
X157191666Y-97927559D02*
X157167856Y-97903750D01*
X157167856Y-97903750D02*
X157132142Y-97891845D01*
X157132142Y-97891845D02*
X157108333Y-97891845D01*
X157108333Y-97891845D02*
X157072618Y-97903750D01*
X157072618Y-97903750D02*
X157060714Y-97915654D01*
X156822618Y-98141845D02*
X156965475Y-98141845D01*
X156894047Y-98141845D02*
X156894047Y-97891845D01*
X156894047Y-97891845D02*
X156917856Y-97927559D01*
X156917856Y-97927559D02*
X156941666Y-97951369D01*
X156941666Y-97951369D02*
X156965475Y-97963273D01*
X156667857Y-97891845D02*
X156644047Y-97891845D01*
X156644047Y-97891845D02*
X156620238Y-97903750D01*
X156620238Y-97903750D02*
X156608333Y-97915654D01*
X156608333Y-97915654D02*
X156596428Y-97939464D01*
X156596428Y-97939464D02*
X156584523Y-97987083D01*
X156584523Y-97987083D02*
X156584523Y-98046607D01*
X156584523Y-98046607D02*
X156596428Y-98094226D01*
X156596428Y-98094226D02*
X156608333Y-98118035D01*
X156608333Y-98118035D02*
X156620238Y-98129940D01*
X156620238Y-98129940D02*
X156644047Y-98141845D01*
X156644047Y-98141845D02*
X156667857Y-98141845D01*
X156667857Y-98141845D02*
X156691666Y-98129940D01*
X156691666Y-98129940D02*
X156703571Y-98118035D01*
X156703571Y-98118035D02*
X156715476Y-98094226D01*
X156715476Y-98094226D02*
X156727380Y-98046607D01*
X156727380Y-98046607D02*
X156727380Y-97987083D01*
X156727380Y-97987083D02*
X156715476Y-97939464D01*
X156715476Y-97939464D02*
X156703571Y-97915654D01*
X156703571Y-97915654D02*
X156691666Y-97903750D01*
X156691666Y-97903750D02*
X156667857Y-97891845D01*
%TO.C,R3*%
X163141666Y-109766845D02*
X163224999Y-109647797D01*
X163284523Y-109766845D02*
X163284523Y-109516845D01*
X163284523Y-109516845D02*
X163189285Y-109516845D01*
X163189285Y-109516845D02*
X163165475Y-109528750D01*
X163165475Y-109528750D02*
X163153570Y-109540654D01*
X163153570Y-109540654D02*
X163141666Y-109564464D01*
X163141666Y-109564464D02*
X163141666Y-109600178D01*
X163141666Y-109600178D02*
X163153570Y-109623988D01*
X163153570Y-109623988D02*
X163165475Y-109635892D01*
X163165475Y-109635892D02*
X163189285Y-109647797D01*
X163189285Y-109647797D02*
X163284523Y-109647797D01*
X163058332Y-109516845D02*
X162903570Y-109516845D01*
X162903570Y-109516845D02*
X162986904Y-109612083D01*
X162986904Y-109612083D02*
X162951189Y-109612083D01*
X162951189Y-109612083D02*
X162927380Y-109623988D01*
X162927380Y-109623988D02*
X162915475Y-109635892D01*
X162915475Y-109635892D02*
X162903570Y-109659702D01*
X162903570Y-109659702D02*
X162903570Y-109719226D01*
X162903570Y-109719226D02*
X162915475Y-109743035D01*
X162915475Y-109743035D02*
X162927380Y-109754940D01*
X162927380Y-109754940D02*
X162951189Y-109766845D01*
X162951189Y-109766845D02*
X163022618Y-109766845D01*
X163022618Y-109766845D02*
X163046427Y-109754940D01*
X163046427Y-109754940D02*
X163058332Y-109743035D01*
D10*
%TO.C,U2*%
X160708087Y-105837388D02*
X161517611Y-105837388D01*
X161517611Y-105837388D02*
X161612849Y-105885007D01*
X161612849Y-105885007D02*
X161660468Y-105932626D01*
X161660468Y-105932626D02*
X161708087Y-106027864D01*
X161708087Y-106027864D02*
X161708087Y-106218340D01*
X161708087Y-106218340D02*
X161660468Y-106313578D01*
X161660468Y-106313578D02*
X161612849Y-106361197D01*
X161612849Y-106361197D02*
X161517611Y-106408816D01*
X161517611Y-106408816D02*
X160708087Y-106408816D01*
X160803326Y-106837388D02*
X160755707Y-106885007D01*
X160755707Y-106885007D02*
X160708087Y-106980245D01*
X160708087Y-106980245D02*
X160708087Y-107218340D01*
X160708087Y-107218340D02*
X160755707Y-107313578D01*
X160755707Y-107313578D02*
X160803326Y-107361197D01*
X160803326Y-107361197D02*
X160898564Y-107408816D01*
X160898564Y-107408816D02*
X160993802Y-107408816D01*
X160993802Y-107408816D02*
X161136659Y-107361197D01*
X161136659Y-107361197D02*
X161708087Y-106789769D01*
X161708087Y-106789769D02*
X161708087Y-107408816D01*
D16*
%TO.C,C5*%
X150068035Y-116258333D02*
X150079940Y-116246429D01*
X150079940Y-116246429D02*
X150091845Y-116210714D01*
X150091845Y-116210714D02*
X150091845Y-116186905D01*
X150091845Y-116186905D02*
X150079940Y-116151191D01*
X150079940Y-116151191D02*
X150056130Y-116127381D01*
X150056130Y-116127381D02*
X150032321Y-116115476D01*
X150032321Y-116115476D02*
X149984702Y-116103572D01*
X149984702Y-116103572D02*
X149948988Y-116103572D01*
X149948988Y-116103572D02*
X149901369Y-116115476D01*
X149901369Y-116115476D02*
X149877559Y-116127381D01*
X149877559Y-116127381D02*
X149853750Y-116151191D01*
X149853750Y-116151191D02*
X149841845Y-116186905D01*
X149841845Y-116186905D02*
X149841845Y-116210714D01*
X149841845Y-116210714D02*
X149853750Y-116246429D01*
X149853750Y-116246429D02*
X149865654Y-116258333D01*
X149841845Y-116484524D02*
X149841845Y-116365476D01*
X149841845Y-116365476D02*
X149960892Y-116353572D01*
X149960892Y-116353572D02*
X149948988Y-116365476D01*
X149948988Y-116365476D02*
X149937083Y-116389286D01*
X149937083Y-116389286D02*
X149937083Y-116448810D01*
X149937083Y-116448810D02*
X149948988Y-116472619D01*
X149948988Y-116472619D02*
X149960892Y-116484524D01*
X149960892Y-116484524D02*
X149984702Y-116496429D01*
X149984702Y-116496429D02*
X150044226Y-116496429D01*
X150044226Y-116496429D02*
X150068035Y-116484524D01*
X150068035Y-116484524D02*
X150079940Y-116472619D01*
X150079940Y-116472619D02*
X150091845Y-116448810D01*
X150091845Y-116448810D02*
X150091845Y-116389286D01*
X150091845Y-116389286D02*
X150079940Y-116365476D01*
X150079940Y-116365476D02*
X150068035Y-116353572D01*
%TO.C,C4*%
X158541666Y-98168035D02*
X158553570Y-98179940D01*
X158553570Y-98179940D02*
X158589285Y-98191845D01*
X158589285Y-98191845D02*
X158613094Y-98191845D01*
X158613094Y-98191845D02*
X158648808Y-98179940D01*
X158648808Y-98179940D02*
X158672618Y-98156130D01*
X158672618Y-98156130D02*
X158684523Y-98132321D01*
X158684523Y-98132321D02*
X158696427Y-98084702D01*
X158696427Y-98084702D02*
X158696427Y-98048988D01*
X158696427Y-98048988D02*
X158684523Y-98001369D01*
X158684523Y-98001369D02*
X158672618Y-97977559D01*
X158672618Y-97977559D02*
X158648808Y-97953750D01*
X158648808Y-97953750D02*
X158613094Y-97941845D01*
X158613094Y-97941845D02*
X158589285Y-97941845D01*
X158589285Y-97941845D02*
X158553570Y-97953750D01*
X158553570Y-97953750D02*
X158541666Y-97965654D01*
X158327380Y-98025178D02*
X158327380Y-98191845D01*
X158386904Y-97929940D02*
X158446427Y-98108511D01*
X158446427Y-98108511D02*
X158291666Y-98108511D01*
%TO.C,C9*%
X144781666Y-101695535D02*
X144793570Y-101707440D01*
X144793570Y-101707440D02*
X144829285Y-101719345D01*
X144829285Y-101719345D02*
X144853094Y-101719345D01*
X144853094Y-101719345D02*
X144888808Y-101707440D01*
X144888808Y-101707440D02*
X144912618Y-101683630D01*
X144912618Y-101683630D02*
X144924523Y-101659821D01*
X144924523Y-101659821D02*
X144936427Y-101612202D01*
X144936427Y-101612202D02*
X144936427Y-101576488D01*
X144936427Y-101576488D02*
X144924523Y-101528869D01*
X144924523Y-101528869D02*
X144912618Y-101505059D01*
X144912618Y-101505059D02*
X144888808Y-101481250D01*
X144888808Y-101481250D02*
X144853094Y-101469345D01*
X144853094Y-101469345D02*
X144829285Y-101469345D01*
X144829285Y-101469345D02*
X144793570Y-101481250D01*
X144793570Y-101481250D02*
X144781666Y-101493154D01*
X144662618Y-101719345D02*
X144614999Y-101719345D01*
X144614999Y-101719345D02*
X144591189Y-101707440D01*
X144591189Y-101707440D02*
X144579285Y-101695535D01*
X144579285Y-101695535D02*
X144555475Y-101659821D01*
X144555475Y-101659821D02*
X144543570Y-101612202D01*
X144543570Y-101612202D02*
X144543570Y-101516964D01*
X144543570Y-101516964D02*
X144555475Y-101493154D01*
X144555475Y-101493154D02*
X144567380Y-101481250D01*
X144567380Y-101481250D02*
X144591189Y-101469345D01*
X144591189Y-101469345D02*
X144638808Y-101469345D01*
X144638808Y-101469345D02*
X144662618Y-101481250D01*
X144662618Y-101481250D02*
X144674523Y-101493154D01*
X144674523Y-101493154D02*
X144686427Y-101516964D01*
X144686427Y-101516964D02*
X144686427Y-101576488D01*
X144686427Y-101576488D02*
X144674523Y-101600297D01*
X144674523Y-101600297D02*
X144662618Y-101612202D01*
X144662618Y-101612202D02*
X144638808Y-101624107D01*
X144638808Y-101624107D02*
X144591189Y-101624107D01*
X144591189Y-101624107D02*
X144567380Y-101612202D01*
X144567380Y-101612202D02*
X144555475Y-101600297D01*
X144555475Y-101600297D02*
X144543570Y-101576488D01*
%TO.C,C3*%
X146281666Y-101688035D02*
X146293570Y-101699940D01*
X146293570Y-101699940D02*
X146329285Y-101711845D01*
X146329285Y-101711845D02*
X146353094Y-101711845D01*
X146353094Y-101711845D02*
X146388808Y-101699940D01*
X146388808Y-101699940D02*
X146412618Y-101676130D01*
X146412618Y-101676130D02*
X146424523Y-101652321D01*
X146424523Y-101652321D02*
X146436427Y-101604702D01*
X146436427Y-101604702D02*
X146436427Y-101568988D01*
X146436427Y-101568988D02*
X146424523Y-101521369D01*
X146424523Y-101521369D02*
X146412618Y-101497559D01*
X146412618Y-101497559D02*
X146388808Y-101473750D01*
X146388808Y-101473750D02*
X146353094Y-101461845D01*
X146353094Y-101461845D02*
X146329285Y-101461845D01*
X146329285Y-101461845D02*
X146293570Y-101473750D01*
X146293570Y-101473750D02*
X146281666Y-101485654D01*
X146198332Y-101461845D02*
X146043570Y-101461845D01*
X146043570Y-101461845D02*
X146126904Y-101557083D01*
X146126904Y-101557083D02*
X146091189Y-101557083D01*
X146091189Y-101557083D02*
X146067380Y-101568988D01*
X146067380Y-101568988D02*
X146055475Y-101580892D01*
X146055475Y-101580892D02*
X146043570Y-101604702D01*
X146043570Y-101604702D02*
X146043570Y-101664226D01*
X146043570Y-101664226D02*
X146055475Y-101688035D01*
X146055475Y-101688035D02*
X146067380Y-101699940D01*
X146067380Y-101699940D02*
X146091189Y-101711845D01*
X146091189Y-101711845D02*
X146162618Y-101711845D01*
X146162618Y-101711845D02*
X146186427Y-101699940D01*
X146186427Y-101699940D02*
X146198332Y-101688035D01*
%TO.C,C8*%
X145280535Y-111208333D02*
X145292440Y-111196429D01*
X145292440Y-111196429D02*
X145304345Y-111160714D01*
X145304345Y-111160714D02*
X145304345Y-111136905D01*
X145304345Y-111136905D02*
X145292440Y-111101191D01*
X145292440Y-111101191D02*
X145268630Y-111077381D01*
X145268630Y-111077381D02*
X145244821Y-111065476D01*
X145244821Y-111065476D02*
X145197202Y-111053572D01*
X145197202Y-111053572D02*
X145161488Y-111053572D01*
X145161488Y-111053572D02*
X145113869Y-111065476D01*
X145113869Y-111065476D02*
X145090059Y-111077381D01*
X145090059Y-111077381D02*
X145066250Y-111101191D01*
X145066250Y-111101191D02*
X145054345Y-111136905D01*
X145054345Y-111136905D02*
X145054345Y-111160714D01*
X145054345Y-111160714D02*
X145066250Y-111196429D01*
X145066250Y-111196429D02*
X145078154Y-111208333D01*
X145161488Y-111351191D02*
X145149583Y-111327381D01*
X145149583Y-111327381D02*
X145137678Y-111315476D01*
X145137678Y-111315476D02*
X145113869Y-111303572D01*
X145113869Y-111303572D02*
X145101964Y-111303572D01*
X145101964Y-111303572D02*
X145078154Y-111315476D01*
X145078154Y-111315476D02*
X145066250Y-111327381D01*
X145066250Y-111327381D02*
X145054345Y-111351191D01*
X145054345Y-111351191D02*
X145054345Y-111398810D01*
X145054345Y-111398810D02*
X145066250Y-111422619D01*
X145066250Y-111422619D02*
X145078154Y-111434524D01*
X145078154Y-111434524D02*
X145101964Y-111446429D01*
X145101964Y-111446429D02*
X145113869Y-111446429D01*
X145113869Y-111446429D02*
X145137678Y-111434524D01*
X145137678Y-111434524D02*
X145149583Y-111422619D01*
X145149583Y-111422619D02*
X145161488Y-111398810D01*
X145161488Y-111398810D02*
X145161488Y-111351191D01*
X145161488Y-111351191D02*
X145173392Y-111327381D01*
X145173392Y-111327381D02*
X145185297Y-111315476D01*
X145185297Y-111315476D02*
X145209107Y-111303572D01*
X145209107Y-111303572D02*
X145256726Y-111303572D01*
X145256726Y-111303572D02*
X145280535Y-111315476D01*
X145280535Y-111315476D02*
X145292440Y-111327381D01*
X145292440Y-111327381D02*
X145304345Y-111351191D01*
X145304345Y-111351191D02*
X145304345Y-111398810D01*
X145304345Y-111398810D02*
X145292440Y-111422619D01*
X145292440Y-111422619D02*
X145280535Y-111434524D01*
X145280535Y-111434524D02*
X145256726Y-111446429D01*
X145256726Y-111446429D02*
X145209107Y-111446429D01*
X145209107Y-111446429D02*
X145185297Y-111434524D01*
X145185297Y-111434524D02*
X145173392Y-111422619D01*
X145173392Y-111422619D02*
X145161488Y-111398810D01*
D17*
%TO.C,C21*%
X117730000Y-99418733D02*
X117730000Y-99711267D01*
X116710000Y-99418733D02*
X116710000Y-99711267D01*
%TO.C,C20*%
X122705000Y-96243733D02*
X122705000Y-96536267D01*
X121685000Y-96243733D02*
X121685000Y-96536267D01*
%TO.C,F1*%
X118292936Y-95605000D02*
X119497064Y-95605000D01*
X118292936Y-97425000D02*
X119497064Y-97425000D01*
%TO.C,FB1*%
X121660000Y-99780580D02*
X121660000Y-99499420D01*
X122680000Y-99780580D02*
X122680000Y-99499420D01*
%TO.C,R6*%
X161587258Y-100572500D02*
X161112742Y-100572500D01*
X161587258Y-99527500D02*
X161112742Y-99527500D01*
%TO.C,C22*%
X145020000Y-81743733D02*
X145020000Y-82036267D01*
X144000000Y-81743733D02*
X144000000Y-82036267D01*
%TO.C,C25*%
X135480000Y-101023733D02*
X135480000Y-101316267D01*
X134460000Y-101023733D02*
X134460000Y-101316267D01*
%TO.C,R15*%
X123522500Y-76327742D02*
X123522500Y-76802258D01*
X122477500Y-76327742D02*
X122477500Y-76802258D01*
D18*
%TO.C,U1*%
X123360000Y-106215000D02*
X123360000Y-112435000D01*
X116700000Y-106215000D02*
X123360000Y-106215000D01*
X116700000Y-112435000D02*
X116700000Y-106215000D01*
D11*
X117830000Y-102035000D02*
G75*
G03*
X117830000Y-102035000I-100000J0D01*
G01*
D17*
%TO.C,R9*%
X161112742Y-101077500D02*
X161587258Y-101077500D01*
X161112742Y-102122500D02*
X161587258Y-102122500D01*
%TO.C,C11*%
X157940000Y-116896267D02*
X157940000Y-116603733D01*
X158960000Y-116896267D02*
X158960000Y-116603733D01*
%TO.C,R4*%
X154122500Y-115062742D02*
X154122500Y-115537258D01*
X153077500Y-115062742D02*
X153077500Y-115537258D01*
%TO.C,C12*%
X152166233Y-117365000D02*
X152458767Y-117365000D01*
X152166233Y-118385000D02*
X152458767Y-118385000D01*
%TO.C,U6*%
X140047973Y-102300707D02*
X142247973Y-102300707D01*
X140047973Y-102300707D02*
X137847973Y-102300707D01*
X140047973Y-97080707D02*
X143647973Y-97080707D01*
X140047973Y-97080707D02*
X137847973Y-97080707D01*
%TO.C,R14*%
X130967500Y-78352258D02*
X130967500Y-77877742D01*
X132012500Y-78352258D02*
X132012500Y-77877742D01*
%TO.C,C24*%
X136650000Y-82056233D02*
X136650000Y-82348767D01*
X135630000Y-82056233D02*
X135630000Y-82348767D01*
%TO.C,U5*%
X131540000Y-84990000D02*
X133490000Y-84990000D01*
X131540000Y-84990000D02*
X129590000Y-84990000D01*
X131540000Y-79870000D02*
X134990000Y-79870000D01*
X131540000Y-79870000D02*
X129590000Y-79870000D01*
%TO.C,C26*%
X134460000Y-97896267D02*
X134460000Y-97603733D01*
X135480000Y-97896267D02*
X135480000Y-97603733D01*
%TO.C,U4*%
X149210000Y-85360000D02*
X151160000Y-85360000D01*
X149210000Y-85360000D02*
X147260000Y-85360000D01*
X149210000Y-80240000D02*
X152660000Y-80240000D01*
X149210000Y-80240000D02*
X147260000Y-80240000D01*
%TO.C,C6*%
X162010000Y-110089733D02*
X162010000Y-110382267D01*
X160990000Y-110089733D02*
X160990000Y-110382267D01*
%TO.C,C7*%
X149866233Y-114290000D02*
X150158767Y-114290000D01*
X149866233Y-115310000D02*
X150158767Y-115310000D01*
%TO.C,C2*%
X145041233Y-109190000D02*
X145333767Y-109190000D01*
X145041233Y-110210000D02*
X145333767Y-110210000D01*
%TO.C,C1*%
X160496267Y-113260000D02*
X160203733Y-113260000D01*
X160496267Y-112240000D02*
X160203733Y-112240000D01*
%TO.C,C10*%
X157410000Y-97891233D02*
X157410000Y-98183767D01*
X156390000Y-97891233D02*
X156390000Y-98183767D01*
%TO.C,R3*%
X162527500Y-109912258D02*
X162527500Y-109437742D01*
X163572500Y-109912258D02*
X163572500Y-109437742D01*
%TO.C,U2*%
X148830707Y-111709293D02*
X149780707Y-111709293D01*
X158100707Y-111709293D02*
X158100707Y-113049293D01*
X159050707Y-111709293D02*
X158100707Y-111709293D01*
X148830707Y-110759293D02*
X148830707Y-111709293D01*
X159050707Y-110759293D02*
X159050707Y-111709293D01*
X148830707Y-102439293D02*
X148830707Y-101489293D01*
X159050707Y-102439293D02*
X159050707Y-101489293D01*
X148830707Y-101489293D02*
X149780707Y-101489293D01*
X159050707Y-101489293D02*
X158100707Y-101489293D01*
%TO.C,C5*%
X149866233Y-115840000D02*
X150158767Y-115840000D01*
X149866233Y-116860000D02*
X150158767Y-116860000D01*
%TO.C,C4*%
X159010000Y-97916233D02*
X159010000Y-98208767D01*
X157990000Y-97916233D02*
X157990000Y-98208767D01*
%TO.C,C9*%
X145200000Y-101481233D02*
X145200000Y-101773767D01*
X144180000Y-101481233D02*
X144180000Y-101773767D01*
%TO.C,C3*%
X146700000Y-101436233D02*
X146700000Y-101728767D01*
X145680000Y-101436233D02*
X145680000Y-101728767D01*
%TO.C,C8*%
X145066233Y-110790000D02*
X145358767Y-110790000D01*
X145066233Y-111810000D02*
X145358767Y-111810000D01*
%TD*%
%LPC*%
D19*
%TO.C,U3*%
X126223000Y-108022000D03*
X126223000Y-106822000D03*
X126223000Y-105622000D03*
X126223000Y-104422000D03*
X126223000Y-103222000D03*
X127423000Y-108022000D03*
X127423000Y-106822000D03*
X127423000Y-105622000D03*
X127423000Y-104422000D03*
X127423000Y-103222000D03*
X128623000Y-108022000D03*
X128623000Y-106822000D03*
X128623000Y-105622000D03*
X128623000Y-104422000D03*
X128623000Y-103222000D03*
X129823000Y-108022000D03*
X129823000Y-106822000D03*
X129823000Y-105622000D03*
X129823000Y-104422000D03*
X129823000Y-103222000D03*
X131023000Y-108022000D03*
X131023000Y-106822000D03*
X131023000Y-105622000D03*
X131023000Y-104422000D03*
X131023000Y-103222000D03*
%TD*%
D20*
%TO.C,U15*%
X156697360Y-80500000D03*
D21*
X156697360Y-80500000D03*
%TD*%
D20*
%TO.C,U13*%
X123400000Y-80500000D03*
D21*
X123400000Y-80500000D03*
%TD*%
D22*
%TO.C,U9*%
X136870000Y-76950000D03*
%TD*%
%TO.C,U10*%
X142950000Y-77300000D03*
%TD*%
%TO.C,J4*%
X143850000Y-72620000D03*
X154850000Y-72620000D03*
D23*
X146850000Y-77620000D03*
X151850000Y-77620000D03*
%TD*%
D22*
%TO.C,U12*%
X156220000Y-76950000D03*
%TD*%
D24*
%TO.C,H2*%
X118170000Y-116680000D03*
%TD*%
D22*
%TO.C,U8*%
X126080000Y-76950000D03*
%TD*%
D20*
%TO.C,U14*%
X140048680Y-80500000D03*
D21*
X140048680Y-80500000D03*
%TD*%
D24*
%TO.C,H1*%
X118170000Y-82680001D03*
%TD*%
%TO.C,H3*%
X161927359Y-82680001D03*
%TD*%
%TO.C,H4*%
X161927359Y-116680000D03*
%TD*%
D22*
%TO.C,U11*%
X139360000Y-76700000D03*
%TD*%
%TO.C,J9*%
X156720000Y-74860000D03*
%TD*%
%TO.C,J12*%
X154980000Y-74800000D03*
%TD*%
D25*
%TO.C,J6*%
X162229999Y-91399999D03*
D26*
X162229999Y-93399999D03*
X162229999Y-95399999D03*
X162229999Y-97399999D03*
%TD*%
D22*
%TO.C,J15*%
X151180000Y-72320000D03*
%TD*%
%TO.C,J10*%
X149470000Y-72350000D03*
%TD*%
%TO.C,J13*%
X147850000Y-72360000D03*
%TD*%
%TO.C,J14*%
X129260000Y-72110000D03*
%TD*%
%TO.C,J1*%
X126000000Y-72620000D03*
X137000000Y-72620000D03*
D23*
X129000000Y-77620000D03*
X134000000Y-77620000D03*
%TD*%
D22*
%TO.C,J11*%
X127430000Y-72080000D03*
%TD*%
%TO.C,J21*%
X141580000Y-103820000D03*
%TD*%
%TO.C,J2*%
X152150000Y-96900000D03*
%TD*%
%TO.C,J20*%
X143040000Y-102930000D03*
%TD*%
%TO.C,J19*%
X145380000Y-75440000D03*
%TD*%
%TO.C,J3*%
X150550000Y-96900000D03*
%TD*%
D27*
%TO.C,C21*%
X117220000Y-98702500D03*
X117220000Y-100427500D03*
%TD*%
%TO.C,C20*%
X122195000Y-95527500D03*
X122195000Y-97252500D03*
%TD*%
D28*
%TO.C,F1*%
X117407500Y-96515000D03*
X120382500Y-96515000D03*
%TD*%
D29*
%TO.C,FB1*%
X122170000Y-100415000D03*
X122170000Y-98865000D03*
%TD*%
D30*
%TO.C,Q1*%
X120719999Y-98739999D03*
X120719999Y-100639999D03*
X118719999Y-99689999D03*
%TD*%
D31*
%TO.C,R6*%
X162175000Y-100050000D03*
X160525000Y-100050000D03*
%TD*%
D27*
%TO.C,C22*%
X144510000Y-81027500D03*
X144510000Y-82752500D03*
%TD*%
%TO.C,C25*%
X134970000Y-100307500D03*
X134970000Y-102032500D03*
%TD*%
D32*
%TO.C,R15*%
X123000000Y-75740000D03*
X123000000Y-77390000D03*
%TD*%
D33*
%TO.C,U1*%
X117749999Y-103894999D03*
X118889999Y-103894999D03*
D34*
X120029999Y-110714999D03*
D33*
X121169999Y-103894999D03*
X122309999Y-103894999D03*
%TD*%
D35*
%TO.C,R9*%
X160525000Y-101600000D03*
X162175000Y-101600000D03*
%TD*%
D36*
%TO.C,C11*%
X158450000Y-117612500D03*
X158450000Y-115887500D03*
%TD*%
D32*
%TO.C,R4*%
X153600000Y-114475000D03*
X153600000Y-116125000D03*
%TD*%
D37*
%TO.C,C12*%
X151450000Y-117875000D03*
X153175000Y-117875000D03*
%TD*%
D38*
%TO.C,U6*%
X142910473Y-97740707D03*
X142910473Y-98390707D03*
X142910473Y-99040707D03*
X142910473Y-99690707D03*
X142910473Y-100340707D03*
X142910473Y-100990707D03*
X142910473Y-101640707D03*
X137185473Y-101640707D03*
X137185473Y-100990707D03*
X137185473Y-100340707D03*
X137185473Y-99690707D03*
X137185473Y-99040707D03*
X137185473Y-98390707D03*
X137185473Y-97740707D03*
%TD*%
D39*
%TO.C,R14*%
X131490000Y-78940000D03*
X131490000Y-77290000D03*
%TD*%
D27*
%TO.C,C24*%
X136140000Y-81340000D03*
X136140000Y-83065000D03*
%TD*%
D40*
%TO.C,U5*%
X134015000Y-80525000D03*
X134015000Y-81795000D03*
X134015000Y-83065000D03*
X134015000Y-84335000D03*
X129065000Y-84335000D03*
X129065000Y-83065000D03*
X129065000Y-81795000D03*
X129065000Y-80525000D03*
%TD*%
D36*
%TO.C,C26*%
X134970000Y-98612500D03*
X134970000Y-96887500D03*
%TD*%
D41*
%TO.C,HSE1*%
X156899999Y-115389999D03*
X156899999Y-117589999D03*
X155199999Y-117589999D03*
X155199999Y-115389999D03*
%TD*%
D42*
%TO.C,U4*%
X151835000Y-80895000D03*
X151835000Y-82165000D03*
X151835000Y-83435000D03*
X151835000Y-84705000D03*
X146585000Y-84705000D03*
X146585000Y-83435000D03*
X146585000Y-82165000D03*
X146585000Y-80895000D03*
%TD*%
D43*
%TO.C,J7*%
X132650000Y-75200000D03*
%TD*%
%TO.C,J8*%
X136200000Y-79620000D03*
%TD*%
D27*
%TO.C,C6*%
X161500000Y-109373500D03*
X161500000Y-111098500D03*
%TD*%
D44*
%TO.C,TP15*%
X146110000Y-98460000D03*
%TD*%
D37*
%TO.C,C7*%
X149150000Y-114800000D03*
X150875000Y-114800000D03*
%TD*%
D45*
%TO.C,J16*%
X124248999Y-72114999D03*
X131674999Y-72114999D03*
D46*
X126711999Y-75049999D03*
X128011999Y-75049999D03*
X129211999Y-75049999D03*
%TD*%
D45*
%TO.C,J17*%
X145673999Y-72114999D03*
X153099999Y-72114999D03*
D46*
X148136999Y-75049999D03*
X149436999Y-75049999D03*
X150636999Y-75049999D03*
%TD*%
D37*
%TO.C,C2*%
X144325000Y-109700000D03*
X146050000Y-109700000D03*
%TD*%
D47*
%TO.C,C1*%
X161212500Y-112750000D03*
X159487500Y-112750000D03*
%TD*%
D27*
%TO.C,C10*%
X156900000Y-97175000D03*
X156900000Y-98900000D03*
%TD*%
D39*
%TO.C,R3*%
X163050000Y-110500000D03*
X163050000Y-108850000D03*
%TD*%
D48*
%TO.C,U2*%
X157690707Y-112274293D03*
X157190707Y-112274293D03*
X156690707Y-112274293D03*
X156190707Y-112274293D03*
X155690707Y-112274293D03*
X155190707Y-112274293D03*
X154690707Y-112274293D03*
X154190707Y-112274293D03*
X153690707Y-112274293D03*
X153190707Y-112274293D03*
X152690707Y-112274293D03*
X152190707Y-112274293D03*
X151690707Y-112274293D03*
X151190707Y-112274293D03*
X150690707Y-112274293D03*
X150190707Y-112274293D03*
D49*
X148265707Y-110349293D03*
X148265707Y-109849293D03*
X148265707Y-109349293D03*
X148265707Y-108849293D03*
X148265707Y-108349293D03*
X148265707Y-107849293D03*
X148265707Y-107349293D03*
X148265707Y-106849293D03*
X148265707Y-106349293D03*
X148265707Y-105849293D03*
X148265707Y-105349293D03*
X148265707Y-104849293D03*
X148265707Y-104349293D03*
X148265707Y-103849293D03*
X148265707Y-103349293D03*
X148265707Y-102849293D03*
D48*
X150190707Y-100924293D03*
X150690707Y-100924293D03*
X151190707Y-100924293D03*
X151690707Y-100924293D03*
X152190707Y-100924293D03*
X152690707Y-100924293D03*
X153190707Y-100924293D03*
X153690707Y-100924293D03*
X154190707Y-100924293D03*
X154690707Y-100924293D03*
X155190707Y-100924293D03*
X155690707Y-100924293D03*
X156190707Y-100924293D03*
X156690707Y-100924293D03*
X157190707Y-100924293D03*
X157690707Y-100924293D03*
D49*
X159615707Y-102849293D03*
X159615707Y-103349293D03*
X159615707Y-103849293D03*
X159615707Y-104349293D03*
X159615707Y-104849293D03*
X159615707Y-105349293D03*
X159615707Y-105849293D03*
X159615707Y-106349293D03*
X159615707Y-106849293D03*
X159615707Y-107349293D03*
X159615707Y-107849293D03*
X159615707Y-108349293D03*
X159615707Y-108849293D03*
X159615707Y-109349293D03*
X159615707Y-109849293D03*
X159615707Y-110349293D03*
%TD*%
D37*
%TO.C,C5*%
X149150000Y-116350000D03*
X150875000Y-116350000D03*
%TD*%
D27*
%TO.C,C4*%
X158500000Y-97200000D03*
X158500000Y-98925000D03*
%TD*%
D44*
%TO.C,TP14*%
X146760000Y-96940000D03*
%TD*%
D27*
%TO.C,C9*%
X144690000Y-100765000D03*
X144690000Y-102490000D03*
%TD*%
D44*
%TO.C,TP16*%
X148410000Y-98060000D03*
%TD*%
D45*
%TO.C,J18*%
X134461999Y-72114999D03*
X141887999Y-72114999D03*
D46*
X136924999Y-75049999D03*
X138224999Y-75049999D03*
X139424999Y-75049999D03*
%TD*%
D27*
%TO.C,C3*%
X146190000Y-100720000D03*
X146190000Y-102445000D03*
%TD*%
D44*
%TO.C,TP13*%
X147940000Y-101180000D03*
%TD*%
D37*
%TO.C,C8*%
X144350000Y-111300000D03*
X146075000Y-111300000D03*
%TD*%
M02*
