%TF.GenerationSoftware,KiCad,Pcbnew,(7.0.0-0)*%
%TF.CreationDate,2023-03-29T23:18:46+02:00*%
%TF.ProjectId,Nauthiluscontroller,4e617574-6869-46c7-9573-636f6e74726f,rev?*%
%TF.SameCoordinates,Original*%
%TF.FileFunction,Soldermask,Top*%
%TF.FilePolarity,Negative*%
%FSLAX46Y46*%
G04 Gerber Fmt 4.6, Leading zero omitted, Abs format (unit mm)*
G04 Created by KiCad (PCBNEW (7.0.0-0)) date 2023-03-29 23:18:46*
%MOMM*%
%LPD*%
G01*
G04 APERTURE LIST*
G04 Aperture macros list*
%AMRoundRect*
0 Rectangle with rounded corners*
0 $1 Rounding radius*
0 $2 $3 $4 $5 $6 $7 $8 $9 X,Y pos of 4 corners*
0 Add a 4 corners polygon primitive as box body*
4,1,4,$2,$3,$4,$5,$6,$7,$8,$9,$2,$3,0*
0 Add four circle primitives for the rounded corners*
1,1,$1+$1,$2,$3*
1,1,$1+$1,$4,$5*
1,1,$1+$1,$6,$7*
1,1,$1+$1,$8,$9*
0 Add four rect primitives between the rounded corners*
20,1,$1+$1,$2,$3,$4,$5,0*
20,1,$1+$1,$4,$5,$6,$7,0*
20,1,$1+$1,$6,$7,$8,$9,0*
20,1,$1+$1,$8,$9,$2,$3,0*%
G04 Aperture macros list end*
%ADD10C,0.010000*%
%ADD11RoundRect,0.200000X-0.200000X-0.275000X0.200000X-0.275000X0.200000X0.275000X-0.200000X0.275000X0*%
%ADD12RoundRect,0.249997X1.100003X-0.412503X1.100003X0.412503X-1.100003X0.412503X-1.100003X-0.412503X0*%
%ADD13RoundRect,0.250000X0.475000X-0.337500X0.475000X0.337500X-0.475000X0.337500X-0.475000X-0.337500X0*%
%ADD14RoundRect,0.237500X-0.300000X-0.237500X0.300000X-0.237500X0.300000X0.237500X-0.300000X0.237500X0*%
%ADD15RoundRect,0.237500X0.300000X0.237500X-0.300000X0.237500X-0.300000X-0.237500X0.300000X-0.237500X0*%
%ADD16RoundRect,0.249997X0.412503X0.650003X-0.412503X0.650003X-0.412503X-0.650003X0.412503X-0.650003X0*%
%ADD17RoundRect,0.249997X0.650003X-0.412503X0.650003X0.412503X-0.650003X0.412503X-0.650003X-0.412503X0*%
%ADD18RoundRect,0.237500X0.237500X-0.300000X0.237500X0.300000X-0.237500X0.300000X-0.237500X-0.300000X0*%
%ADD19R,0.300000X1.500000*%
%ADD20R,1.500000X0.300000*%
%ADD21C,0.600000*%
%ADD22RoundRect,0.200000X0.275000X-0.200000X0.275000X0.200000X-0.275000X0.200000X-0.275000X-0.200000X0*%
%ADD23RoundRect,0.200000X-0.275000X0.200000X-0.275000X-0.200000X0.275000X-0.200000X0.275000X0.200000X0*%
%ADD24C,2.600000*%
%ADD25C,3.800000*%
%ADD26C,1.000000*%
%ADD27RoundRect,0.237500X0.237500X-0.287500X0.237500X0.287500X-0.237500X0.287500X-0.237500X-0.287500X0*%
%ADD28RoundRect,0.237500X-0.287500X-0.237500X0.287500X-0.237500X0.287500X0.237500X-0.287500X0.237500X0*%
%ADD29RoundRect,0.237500X0.287500X0.237500X-0.287500X0.237500X-0.287500X-0.237500X0.287500X-0.237500X0*%
%ADD30C,3.000000*%
%ADD31C,4.000000*%
%ADD32RoundRect,0.250000X-0.250000X-0.475000X0.250000X-0.475000X0.250000X0.475000X-0.250000X0.475000X0*%
%ADD33C,0.800000*%
%ADD34RoundRect,0.250000X0.250000X0.475000X-0.250000X0.475000X-0.250000X-0.475000X0.250000X-0.475000X0*%
%ADD35R,0.800000X0.600000*%
%ADD36R,0.900000X3.200000*%
%ADD37R,1.350000X1.350000*%
%ADD38O,1.350000X1.350000*%
%ADD39RoundRect,0.237500X-0.237500X0.300000X-0.237500X-0.300000X0.237500X-0.300000X0.237500X0.300000X0*%
%ADD40C,1.500000*%
%ADD41C,0.500000*%
%ADD42R,0.700000X0.700000*%
G04 APERTURE END LIST*
%TO.C,U3*%
G36*
X131208000Y-108207000D02*
G01*
X126038000Y-108207000D01*
X126038000Y-103037000D01*
X131208000Y-103037000D01*
X131208000Y-108207000D01*
G37*
D10*
X131208000Y-108207000D02*
X126038000Y-108207000D01*
X126038000Y-103037000D01*
X131208000Y-103037000D01*
X131208000Y-108207000D01*
%TO.C,Q2*%
G36*
X122100000Y-84115000D02*
G01*
X121600000Y-84115000D01*
X121600000Y-83015000D01*
X122100000Y-83015000D01*
X122100000Y-84115000D01*
G37*
X122100000Y-84115000D02*
X121600000Y-84115000D01*
X121600000Y-83015000D01*
X122100000Y-83015000D01*
X122100000Y-84115000D01*
G36*
X123370000Y-83515000D02*
G01*
X124140000Y-83515000D01*
X124140000Y-83015000D01*
X124640000Y-83015000D01*
X124640000Y-83515000D01*
X125410000Y-83515000D01*
X125410000Y-83015000D01*
X125910000Y-83015000D01*
X125910000Y-83515000D01*
X126070000Y-83515000D01*
X126070000Y-84115000D01*
X122870000Y-84115000D01*
X122870000Y-83015000D01*
X123370000Y-83015000D01*
X123370000Y-83515000D01*
G37*
X123370000Y-83515000D02*
X124140000Y-83515000D01*
X124140000Y-83015000D01*
X124640000Y-83015000D01*
X124640000Y-83515000D01*
X125410000Y-83515000D01*
X125410000Y-83015000D01*
X125910000Y-83015000D01*
X125910000Y-83515000D01*
X126070000Y-83515000D01*
X126070000Y-84115000D01*
X122870000Y-84115000D01*
X122870000Y-83015000D01*
X123370000Y-83015000D01*
X123370000Y-83515000D01*
G36*
X125960000Y-89665000D02*
G01*
X125360000Y-89665000D01*
X125360000Y-88865000D01*
X124690000Y-88865000D01*
X124690000Y-89665000D01*
X124090000Y-89665000D01*
X124090000Y-88865000D01*
X123420000Y-88865000D01*
X123420000Y-89665000D01*
X122820000Y-89665000D01*
X122820000Y-88865000D01*
X122150000Y-88865000D01*
X122150000Y-89665000D01*
X121550000Y-89665000D01*
X121550000Y-85115000D01*
X125960000Y-85115000D01*
X125960000Y-89665000D01*
G37*
X125960000Y-89665000D02*
X125360000Y-89665000D01*
X125360000Y-88865000D01*
X124690000Y-88865000D01*
X124690000Y-89665000D01*
X124090000Y-89665000D01*
X124090000Y-88865000D01*
X123420000Y-88865000D01*
X123420000Y-89665000D01*
X122820000Y-89665000D01*
X122820000Y-88865000D01*
X122150000Y-88865000D01*
X122150000Y-89665000D01*
X121550000Y-89665000D01*
X121550000Y-85115000D01*
X125960000Y-85115000D01*
X125960000Y-89665000D01*
%TO.C,Q5*%
G36*
X131750000Y-89675000D02*
G01*
X131250000Y-89675000D01*
X131250000Y-88575000D01*
X131750000Y-88575000D01*
X131750000Y-89675000D01*
G37*
X131750000Y-89675000D02*
X131250000Y-89675000D01*
X131250000Y-88575000D01*
X131750000Y-88575000D01*
X131750000Y-89675000D01*
G36*
X130480000Y-89675000D02*
G01*
X129980000Y-89675000D01*
X129980000Y-89175000D01*
X129210000Y-89175000D01*
X129210000Y-89675000D01*
X128710000Y-89675000D01*
X128710000Y-89175000D01*
X127940000Y-89175000D01*
X127940000Y-89675000D01*
X127440000Y-89675000D01*
X127440000Y-89175000D01*
X127280000Y-89175000D01*
X127280000Y-88575000D01*
X130480000Y-88575000D01*
X130480000Y-89675000D01*
G37*
X130480000Y-89675000D02*
X129980000Y-89675000D01*
X129980000Y-89175000D01*
X129210000Y-89175000D01*
X129210000Y-89675000D01*
X128710000Y-89675000D01*
X128710000Y-89175000D01*
X127940000Y-89175000D01*
X127940000Y-89675000D01*
X127440000Y-89675000D01*
X127440000Y-89175000D01*
X127280000Y-89175000D01*
X127280000Y-88575000D01*
X130480000Y-88575000D01*
X130480000Y-89675000D01*
G36*
X127990000Y-83825000D02*
G01*
X128660000Y-83825000D01*
X128660000Y-83025000D01*
X129260000Y-83025000D01*
X129260000Y-83825000D01*
X129930000Y-83825000D01*
X129930000Y-83025000D01*
X130530000Y-83025000D01*
X130530000Y-83825000D01*
X131200000Y-83825000D01*
X131200000Y-83025000D01*
X131800000Y-83025000D01*
X131800000Y-87575000D01*
X127390000Y-87575000D01*
X127390000Y-83025000D01*
X127990000Y-83025000D01*
X127990000Y-83825000D01*
G37*
X127990000Y-83825000D02*
X128660000Y-83825000D01*
X128660000Y-83025000D01*
X129260000Y-83025000D01*
X129260000Y-83825000D01*
X129930000Y-83825000D01*
X129930000Y-83025000D01*
X130530000Y-83025000D01*
X130530000Y-83825000D01*
X131200000Y-83825000D01*
X131200000Y-83025000D01*
X131800000Y-83025000D01*
X131800000Y-87575000D01*
X127390000Y-87575000D01*
X127390000Y-83025000D01*
X127990000Y-83025000D01*
X127990000Y-83825000D01*
%TO.C,Q3*%
G36*
X139310000Y-84145000D02*
G01*
X138810000Y-84145000D01*
X138810000Y-83045000D01*
X139310000Y-83045000D01*
X139310000Y-84145000D01*
G37*
X139310000Y-84145000D02*
X138810000Y-84145000D01*
X138810000Y-83045000D01*
X139310000Y-83045000D01*
X139310000Y-84145000D01*
G36*
X140580000Y-83545000D02*
G01*
X141350000Y-83545000D01*
X141350000Y-83045000D01*
X141850000Y-83045000D01*
X141850000Y-83545000D01*
X142620000Y-83545000D01*
X142620000Y-83045000D01*
X143120000Y-83045000D01*
X143120000Y-83545000D01*
X143280000Y-83545000D01*
X143280000Y-84145000D01*
X140080000Y-84145000D01*
X140080000Y-83045000D01*
X140580000Y-83045000D01*
X140580000Y-83545000D01*
G37*
X140580000Y-83545000D02*
X141350000Y-83545000D01*
X141350000Y-83045000D01*
X141850000Y-83045000D01*
X141850000Y-83545000D01*
X142620000Y-83545000D01*
X142620000Y-83045000D01*
X143120000Y-83045000D01*
X143120000Y-83545000D01*
X143280000Y-83545000D01*
X143280000Y-84145000D01*
X140080000Y-84145000D01*
X140080000Y-83045000D01*
X140580000Y-83045000D01*
X140580000Y-83545000D01*
G36*
X143170000Y-89695000D02*
G01*
X142570000Y-89695000D01*
X142570000Y-88895000D01*
X141900000Y-88895000D01*
X141900000Y-89695000D01*
X141300000Y-89695000D01*
X141300000Y-88895000D01*
X140630000Y-88895000D01*
X140630000Y-89695000D01*
X140030000Y-89695000D01*
X140030000Y-88895000D01*
X139360000Y-88895000D01*
X139360000Y-89695000D01*
X138760000Y-89695000D01*
X138760000Y-85145000D01*
X143170000Y-85145000D01*
X143170000Y-89695000D01*
G37*
X143170000Y-89695000D02*
X142570000Y-89695000D01*
X142570000Y-88895000D01*
X141900000Y-88895000D01*
X141900000Y-89695000D01*
X141300000Y-89695000D01*
X141300000Y-88895000D01*
X140630000Y-88895000D01*
X140630000Y-89695000D01*
X140030000Y-89695000D01*
X140030000Y-88895000D01*
X139360000Y-88895000D01*
X139360000Y-89695000D01*
X138760000Y-89695000D01*
X138760000Y-85145000D01*
X143170000Y-85145000D01*
X143170000Y-89695000D01*
%TO.C,Q6*%
G36*
X137480000Y-89675000D02*
G01*
X136980000Y-89675000D01*
X136980000Y-88575000D01*
X137480000Y-88575000D01*
X137480000Y-89675000D01*
G37*
X137480000Y-89675000D02*
X136980000Y-89675000D01*
X136980000Y-88575000D01*
X137480000Y-88575000D01*
X137480000Y-89675000D01*
G36*
X136210000Y-89675000D02*
G01*
X135710000Y-89675000D01*
X135710000Y-89175000D01*
X134940000Y-89175000D01*
X134940000Y-89675000D01*
X134440000Y-89675000D01*
X134440000Y-89175000D01*
X133670000Y-89175000D01*
X133670000Y-89675000D01*
X133170000Y-89675000D01*
X133170000Y-89175000D01*
X133010000Y-89175000D01*
X133010000Y-88575000D01*
X136210000Y-88575000D01*
X136210000Y-89675000D01*
G37*
X136210000Y-89675000D02*
X135710000Y-89675000D01*
X135710000Y-89175000D01*
X134940000Y-89175000D01*
X134940000Y-89675000D01*
X134440000Y-89675000D01*
X134440000Y-89175000D01*
X133670000Y-89175000D01*
X133670000Y-89675000D01*
X133170000Y-89675000D01*
X133170000Y-89175000D01*
X133010000Y-89175000D01*
X133010000Y-88575000D01*
X136210000Y-88575000D01*
X136210000Y-89675000D01*
G36*
X133720000Y-83825000D02*
G01*
X134390000Y-83825000D01*
X134390000Y-83025000D01*
X134990000Y-83025000D01*
X134990000Y-83825000D01*
X135660000Y-83825000D01*
X135660000Y-83025000D01*
X136260000Y-83025000D01*
X136260000Y-83825000D01*
X136930000Y-83825000D01*
X136930000Y-83025000D01*
X137530000Y-83025000D01*
X137530000Y-87575000D01*
X133120000Y-87575000D01*
X133120000Y-83025000D01*
X133720000Y-83025000D01*
X133720000Y-83825000D01*
G37*
X133720000Y-83825000D02*
X134390000Y-83825000D01*
X134390000Y-83025000D01*
X134990000Y-83025000D01*
X134990000Y-83825000D01*
X135660000Y-83825000D01*
X135660000Y-83025000D01*
X136260000Y-83025000D01*
X136260000Y-83825000D01*
X136930000Y-83825000D01*
X136930000Y-83025000D01*
X137530000Y-83025000D01*
X137530000Y-87575000D01*
X133120000Y-87575000D01*
X133120000Y-83025000D01*
X133720000Y-83025000D01*
X133720000Y-83825000D01*
%TO.C,Q4*%
G36*
X154540000Y-84155000D02*
G01*
X154040000Y-84155000D01*
X154040000Y-83055000D01*
X154540000Y-83055000D01*
X154540000Y-84155000D01*
G37*
X154540000Y-84155000D02*
X154040000Y-84155000D01*
X154040000Y-83055000D01*
X154540000Y-83055000D01*
X154540000Y-84155000D01*
G36*
X155810000Y-83555000D02*
G01*
X156580000Y-83555000D01*
X156580000Y-83055000D01*
X157080000Y-83055000D01*
X157080000Y-83555000D01*
X157850000Y-83555000D01*
X157850000Y-83055000D01*
X158350000Y-83055000D01*
X158350000Y-83555000D01*
X158510000Y-83555000D01*
X158510000Y-84155000D01*
X155310000Y-84155000D01*
X155310000Y-83055000D01*
X155810000Y-83055000D01*
X155810000Y-83555000D01*
G37*
X155810000Y-83555000D02*
X156580000Y-83555000D01*
X156580000Y-83055000D01*
X157080000Y-83055000D01*
X157080000Y-83555000D01*
X157850000Y-83555000D01*
X157850000Y-83055000D01*
X158350000Y-83055000D01*
X158350000Y-83555000D01*
X158510000Y-83555000D01*
X158510000Y-84155000D01*
X155310000Y-84155000D01*
X155310000Y-83055000D01*
X155810000Y-83055000D01*
X155810000Y-83555000D01*
G36*
X158400000Y-89705000D02*
G01*
X157800000Y-89705000D01*
X157800000Y-88905000D01*
X157130000Y-88905000D01*
X157130000Y-89705000D01*
X156530000Y-89705000D01*
X156530000Y-88905000D01*
X155860000Y-88905000D01*
X155860000Y-89705000D01*
X155260000Y-89705000D01*
X155260000Y-88905000D01*
X154590000Y-88905000D01*
X154590000Y-89705000D01*
X153990000Y-89705000D01*
X153990000Y-85155000D01*
X158400000Y-85155000D01*
X158400000Y-89705000D01*
G37*
X158400000Y-89705000D02*
X157800000Y-89705000D01*
X157800000Y-88905000D01*
X157130000Y-88905000D01*
X157130000Y-89705000D01*
X156530000Y-89705000D01*
X156530000Y-88905000D01*
X155860000Y-88905000D01*
X155860000Y-89705000D01*
X155260000Y-89705000D01*
X155260000Y-88905000D01*
X154590000Y-88905000D01*
X154590000Y-89705000D01*
X153990000Y-89705000D01*
X153990000Y-85155000D01*
X158400000Y-85155000D01*
X158400000Y-89705000D01*
%TO.C,Q7*%
G36*
X152600000Y-89725000D02*
G01*
X152100000Y-89725000D01*
X152100000Y-88625000D01*
X152600000Y-88625000D01*
X152600000Y-89725000D01*
G37*
X152600000Y-89725000D02*
X152100000Y-89725000D01*
X152100000Y-88625000D01*
X152600000Y-88625000D01*
X152600000Y-89725000D01*
G36*
X151330000Y-89725000D02*
G01*
X150830000Y-89725000D01*
X150830000Y-89225000D01*
X150060000Y-89225000D01*
X150060000Y-89725000D01*
X149560000Y-89725000D01*
X149560000Y-89225000D01*
X148790000Y-89225000D01*
X148790000Y-89725000D01*
X148290000Y-89725000D01*
X148290000Y-89225000D01*
X148130000Y-89225000D01*
X148130000Y-88625000D01*
X151330000Y-88625000D01*
X151330000Y-89725000D01*
G37*
X151330000Y-89725000D02*
X150830000Y-89725000D01*
X150830000Y-89225000D01*
X150060000Y-89225000D01*
X150060000Y-89725000D01*
X149560000Y-89725000D01*
X149560000Y-89225000D01*
X148790000Y-89225000D01*
X148790000Y-89725000D01*
X148290000Y-89725000D01*
X148290000Y-89225000D01*
X148130000Y-89225000D01*
X148130000Y-88625000D01*
X151330000Y-88625000D01*
X151330000Y-89725000D01*
G36*
X148840000Y-83875000D02*
G01*
X149510000Y-83875000D01*
X149510000Y-83075000D01*
X150110000Y-83075000D01*
X150110000Y-83875000D01*
X150780000Y-83875000D01*
X150780000Y-83075000D01*
X151380000Y-83075000D01*
X151380000Y-83875000D01*
X152050000Y-83875000D01*
X152050000Y-83075000D01*
X152650000Y-83075000D01*
X152650000Y-87625000D01*
X148240000Y-87625000D01*
X148240000Y-83075000D01*
X148840000Y-83075000D01*
X148840000Y-83875000D01*
G37*
X148840000Y-83875000D02*
X149510000Y-83875000D01*
X149510000Y-83075000D01*
X150110000Y-83075000D01*
X150110000Y-83875000D01*
X150780000Y-83875000D01*
X150780000Y-83075000D01*
X151380000Y-83075000D01*
X151380000Y-83875000D01*
X152050000Y-83875000D01*
X152050000Y-83075000D01*
X152650000Y-83075000D01*
X152650000Y-87625000D01*
X148240000Y-87625000D01*
X148240000Y-83075000D01*
X148840000Y-83075000D01*
X148840000Y-83875000D01*
%TD*%
D11*
%TO.C,R8*%
X139075000Y-107450000D03*
X140725000Y-107450000D03*
%TD*%
D12*
%TO.C,C50*%
X150520000Y-112624500D03*
X150520000Y-109499500D03*
%TD*%
%TO.C,C49*%
X154120000Y-112624500D03*
X154120000Y-109499500D03*
%TD*%
%TO.C,C46*%
X154120000Y-107524500D03*
X154120000Y-104399500D03*
%TD*%
%TO.C,C45*%
X154120000Y-102462000D03*
X154120000Y-99337000D03*
%TD*%
D13*
%TO.C,C32*%
X150300000Y-94917500D03*
X150300000Y-92842500D03*
%TD*%
D14*
%TO.C,C29*%
X134875000Y-104550000D03*
X136600000Y-104550000D03*
%TD*%
D15*
%TO.C,C19*%
X121597500Y-99460000D03*
X119872500Y-99460000D03*
%TD*%
D16*
%TO.C,C18*%
X121467500Y-101430000D03*
X118342500Y-101430000D03*
%TD*%
D15*
%TO.C,C17*%
X121690000Y-103410000D03*
X119965000Y-103410000D03*
%TD*%
D17*
%TO.C,C13*%
X117800000Y-106762500D03*
X117800000Y-103637500D03*
%TD*%
D14*
%TO.C,C28*%
X134855000Y-102880000D03*
X136580000Y-102880000D03*
%TD*%
%TO.C,C14*%
X119778000Y-109247000D03*
X121503000Y-109247000D03*
%TD*%
D18*
%TO.C,C23*%
X136990000Y-109232500D03*
X136990000Y-107507500D03*
%TD*%
D14*
%TO.C,C15*%
X119778000Y-110835000D03*
X121503000Y-110835000D03*
%TD*%
D12*
%TO.C,C42*%
X150520000Y-107524500D03*
X150520000Y-104399500D03*
%TD*%
D19*
%TO.C,U3*%
X125872999Y-109821999D03*
X126372999Y-109821999D03*
X126872999Y-109821999D03*
X127372999Y-109821999D03*
X127872999Y-109821999D03*
X128372999Y-109821999D03*
X128872999Y-109821999D03*
X129372999Y-109821999D03*
X129872999Y-109821999D03*
X130372999Y-109821999D03*
X130872999Y-109821999D03*
X131372999Y-109821999D03*
D20*
X132822999Y-108371999D03*
X132822999Y-107871999D03*
X132822999Y-107371999D03*
X132822999Y-106871999D03*
X132822999Y-106371999D03*
X132822999Y-105871999D03*
X132822999Y-105371999D03*
X132822999Y-104871999D03*
X132822999Y-104371999D03*
X132822999Y-103871999D03*
X132822999Y-103371999D03*
X132822999Y-102871999D03*
D19*
X131372999Y-101421999D03*
X130872999Y-101421999D03*
X130372999Y-101421999D03*
X129872999Y-101421999D03*
X129372999Y-101421999D03*
X128872999Y-101421999D03*
X128372999Y-101421999D03*
X127872999Y-101421999D03*
X127372999Y-101421999D03*
X126872999Y-101421999D03*
X126372999Y-101421999D03*
X125872999Y-101421999D03*
D20*
X124422999Y-102871999D03*
X124422999Y-103371999D03*
X124422999Y-103871999D03*
X124422999Y-104371999D03*
X124422999Y-104871999D03*
X124422999Y-105371999D03*
X124422999Y-105871999D03*
X124422999Y-106371999D03*
X124422999Y-106871999D03*
X124422999Y-107371999D03*
X124422999Y-107871999D03*
X124422999Y-108371999D03*
D21*
X126223000Y-108022000D03*
X126223000Y-106822000D03*
X126223000Y-105622000D03*
X126223000Y-104422000D03*
X126223000Y-103222000D03*
X127423000Y-108022000D03*
X127423000Y-106822000D03*
X127423000Y-105622000D03*
X127423000Y-104422000D03*
X127423000Y-103222000D03*
X128623000Y-108022000D03*
X128623000Y-106822000D03*
X128623000Y-105622000D03*
X128623000Y-104422000D03*
X128623000Y-103222000D03*
X129823000Y-108022000D03*
X129823000Y-106822000D03*
X129823000Y-105622000D03*
X129823000Y-104422000D03*
X129823000Y-103222000D03*
X131023000Y-108022000D03*
X131023000Y-106822000D03*
X131023000Y-105622000D03*
X131023000Y-104422000D03*
X131023000Y-103222000D03*
%TD*%
D22*
%TO.C,R2*%
X125100000Y-113485000D03*
X125100000Y-111835000D03*
%TD*%
D23*
%TO.C,R10*%
X135370000Y-108560000D03*
X135370000Y-110210000D03*
%TD*%
D24*
%TO.C,U15*%
X156697360Y-80500000D03*
D25*
X156697360Y-80500000D03*
%TD*%
D11*
%TO.C,R5*%
X119930000Y-107560000D03*
X121580000Y-107560000D03*
%TD*%
D14*
%TO.C,C16*%
X120042500Y-105985000D03*
X121767500Y-105985000D03*
%TD*%
D13*
%TO.C,C30*%
X123830000Y-94917500D03*
X123830000Y-92842500D03*
%TD*%
D14*
%TO.C,C27*%
X134867500Y-101210000D03*
X136592500Y-101210000D03*
%TD*%
D22*
%TO.C,R1*%
X123500000Y-113485000D03*
X123500000Y-111835000D03*
%TD*%
D12*
%TO.C,C48*%
X161222000Y-102462000D03*
X161222000Y-99337000D03*
%TD*%
%TO.C,C43*%
X161222000Y-107524500D03*
X161222000Y-104399500D03*
%TD*%
%TO.C,C41*%
X161222000Y-112624500D03*
X161222000Y-109499500D03*
%TD*%
%TO.C,C39*%
X157662000Y-102462000D03*
X157662000Y-99337000D03*
%TD*%
D24*
%TO.C,U13*%
X123400000Y-80500000D03*
D25*
X123400000Y-80500000D03*
%TD*%
D26*
%TO.C,U9*%
X136870000Y-76950000D03*
%TD*%
%TO.C,U10*%
X142950000Y-77300000D03*
%TD*%
D12*
%TO.C,C44*%
X157650000Y-112624500D03*
X157650000Y-109499500D03*
%TD*%
D11*
%TO.C,R7*%
X120080000Y-97860000D03*
X121730000Y-97860000D03*
%TD*%
D27*
%TO.C,D2*%
X118030000Y-99185000D03*
X118030000Y-97435000D03*
%TD*%
D28*
%TO.C,D3*%
X139075000Y-109150000D03*
X140825000Y-109150000D03*
%TD*%
D29*
%TO.C,D1*%
X121515500Y-112610000D03*
X119765500Y-112610000D03*
%TD*%
D26*
%TO.C,J4*%
X143850000Y-72620000D03*
X154850000Y-72620000D03*
D30*
X146850000Y-77620000D03*
X151850000Y-77620000D03*
%TD*%
D26*
%TO.C,U12*%
X156220000Y-76950000D03*
%TD*%
D31*
%TO.C,H2*%
X118170000Y-116680000D03*
%TD*%
D26*
%TO.C,U8*%
X126080000Y-76950000D03*
%TD*%
D12*
%TO.C,C47*%
X150520000Y-102462000D03*
X150520000Y-99337000D03*
%TD*%
D32*
%TO.C,C38*%
X144750000Y-88570000D03*
X146650000Y-88570000D03*
%TD*%
D24*
%TO.C,U14*%
X140048680Y-80500000D03*
D25*
X140048680Y-80500000D03*
%TD*%
D33*
%TO.C,TP17*%
X138700000Y-98250000D03*
%TD*%
D32*
%TO.C,C33*%
X144720000Y-85640000D03*
X146620000Y-85640000D03*
%TD*%
D13*
%TO.C,C31*%
X135490000Y-94917500D03*
X135490000Y-92842500D03*
%TD*%
D31*
%TO.C,H1*%
X118170000Y-82680001D03*
%TD*%
D34*
%TO.C,C34*%
X119560000Y-89450000D03*
X117660000Y-89450000D03*
%TD*%
%TO.C,C36*%
X119550000Y-86600000D03*
X117650000Y-86600000D03*
%TD*%
D32*
%TO.C,C35*%
X160800000Y-88825000D03*
X162700000Y-88825000D03*
%TD*%
%TO.C,C37*%
X160790000Y-86530000D03*
X162690000Y-86530000D03*
%TD*%
D31*
%TO.C,H3*%
X161927359Y-82680001D03*
%TD*%
%TO.C,H4*%
X161927359Y-116680000D03*
%TD*%
D23*
%TO.C,R16*%
X155760000Y-115190000D03*
X155760000Y-116840000D03*
%TD*%
D35*
%TO.C,SW1*%
X154401039Y-115979999D03*
X147198959Y-115979999D03*
%TD*%
D36*
%TO.C,R11*%
X131609999Y-93879999D03*
X126109999Y-93879999D03*
%TD*%
%TO.C,R12*%
X142979999Y-93879999D03*
X137479999Y-93879999D03*
%TD*%
%TO.C,R13*%
X157879999Y-93879999D03*
X152379999Y-93879999D03*
%TD*%
D26*
%TO.C,U11*%
X139360000Y-76700000D03*
%TD*%
D12*
%TO.C,C40*%
X157650000Y-107524500D03*
X157650000Y-104399500D03*
%TD*%
D26*
%TO.C,J9*%
X156720000Y-74860000D03*
%TD*%
%TO.C,J12*%
X154980000Y-74800000D03*
%TD*%
D37*
%TO.C,J6*%
X162229999Y-91399999D03*
D38*
X162229999Y-93399999D03*
X162229999Y-95399999D03*
X162229999Y-97399999D03*
%TD*%
D39*
%TO.C,C51*%
X157350000Y-115160000D03*
X157350000Y-116885000D03*
%TD*%
D40*
%TO.C,J5*%
X145290000Y-116090000D03*
%TD*%
D41*
%TO.C,TP1*%
X128330000Y-115150000D03*
%TD*%
%TO.C,TP3*%
X138980000Y-116730000D03*
%TD*%
%TO.C,TP5*%
X131050000Y-116050000D03*
%TD*%
%TO.C,TP7*%
X134200000Y-115560000D03*
%TD*%
%TO.C,TP9*%
X137500000Y-114610000D03*
%TD*%
%TO.C,TP11*%
X132450000Y-114050000D03*
%TD*%
%TO.C,TP10*%
X128550000Y-116700000D03*
%TD*%
%TO.C,TP12*%
X129500000Y-111780000D03*
%TD*%
%TO.C,TP2*%
X140250000Y-111650000D03*
%TD*%
%TO.C,TP4*%
X135851000Y-112970511D03*
%TD*%
%TO.C,TP6*%
X138700000Y-111000000D03*
%TD*%
%TO.C,TP8*%
X132060000Y-111260000D03*
%TD*%
D26*
%TO.C,J15*%
X151180000Y-72320000D03*
%TD*%
%TO.C,J10*%
X149470000Y-72350000D03*
%TD*%
%TO.C,J13*%
X147850000Y-72360000D03*
%TD*%
%TO.C,J14*%
X129260000Y-72110000D03*
%TD*%
%TO.C,J1*%
X126000000Y-72620000D03*
X137000000Y-72620000D03*
D30*
X129000000Y-77620000D03*
X134000000Y-77620000D03*
%TD*%
D26*
%TO.C,J11*%
X127430000Y-72080000D03*
%TD*%
D41*
%TO.C,TP18*%
X134870000Y-106890000D03*
%TD*%
%TO.C,TP20*%
X136790000Y-106380000D03*
%TD*%
D26*
%TO.C,J21*%
X141580000Y-103820000D03*
%TD*%
%TO.C,J2*%
X152150000Y-96900000D03*
%TD*%
D39*
%TO.C,C52*%
X123020000Y-116135000D03*
X123020000Y-117860000D03*
%TD*%
D26*
%TO.C,J20*%
X143040000Y-102930000D03*
%TD*%
D41*
%TO.C,TP19*%
X138570000Y-105880000D03*
%TD*%
D26*
%TO.C,J19*%
X145380000Y-75440000D03*
%TD*%
D42*
%TO.C,D4*%
X124599999Y-116409999D03*
X124599999Y-117509999D03*
X126429999Y-117509999D03*
X126429999Y-116409999D03*
%TD*%
D26*
%TO.C,J3*%
X150550000Y-96900000D03*
%TD*%
M02*
