M48
INCH
T1C0.0079
T2C0.0118
T3C0.0118
T4C0.0157
T5C0.0197
T6C0.0295
T7C0.0315
T8C0.0669
T9C0.0866
T10C0.0984
%
G90
G05
T1
X5.2988Y-2.961
X5.3744Y-3.0732
X5.4732Y-2.8941
X5.6484Y-2.976
X5.8721Y-3.1618
X5.9083Y-3.0937
T2
X4.5925Y-3.8524
X4.5961Y-3.9118
X4.5965Y-3.8858
X4.6031Y-3.6961
X4.6043Y-3.7295
X4.6071Y-3.9953
X4.6079Y-4.1539
X4.612Y-4.0251
X4.6406Y-3.6957
X4.6421Y-3.7276
X4.6425Y-4.2437
X4.6547Y-4.1583
X4.6776Y-3.6953
X4.678Y-3.7343
X4.6791Y-4.3626
X4.7024Y-3.978
X4.7094Y-3.376
X4.7094Y-3.4075
X4.7094Y-3.439
X4.7094Y-3.4705
X4.7094Y-3.502
X4.7094Y-3.5335
X4.7094Y-3.565
X4.7122Y-3.7362
X4.7122Y-3.9476
X4.7228Y-4.5106
X4.7295Y-3.8898
X4.7409Y-3.376
X4.7409Y-3.4075
X4.7409Y-3.439
X4.7409Y-3.4705
X4.7409Y-3.502
X4.7409Y-3.5335
X4.7409Y-3.565
X4.75Y-4.3283
X4.7524Y-3.6878
X4.7724Y-3.376
X4.7724Y-3.4075
X4.7724Y-3.439
X4.7724Y-3.4705
X4.7724Y-3.502
X4.7724Y-3.5335
X4.7724Y-3.565
X4.8039Y-3.376
X4.8039Y-3.4075
X4.8039Y-3.439
X4.8039Y-3.4705
X4.8039Y-3.502
X4.8039Y-3.5335
X4.8039Y-3.565
X4.8063Y-4.6386
X4.8094Y-3.7031
X4.8213Y-4.2378
X4.8291Y-3.6512
X4.8354Y-3.376
X4.8354Y-3.4075
X4.8354Y-3.439
X4.8354Y-3.4705
X4.8354Y-3.502
X4.8354Y-3.5335
X4.8354Y-3.565
X4.8425Y-4.5323
X4.8669Y-3.376
X4.8669Y-3.4075
X4.8669Y-3.439
X4.8669Y-3.4705
X4.8669Y-3.502
X4.8669Y-3.5335
X4.8669Y-3.565
X4.874Y-4.3417
X4.8984Y-3.376
X4.8984Y-3.4075
X4.8984Y-3.439
X4.8984Y-3.4705
X4.8984Y-3.502
X4.8984Y-3.5335
X4.8984Y-3.565
X4.9248Y-4.4953
X4.9252Y-4.403
X4.9291Y-2.9106
X4.9299Y-3.376
X4.9299Y-3.4075
X4.9299Y-3.439
X4.9299Y-3.4705
X4.9299Y-3.502
X4.9299Y-3.5335
X4.9299Y-3.565
X4.9926Y-4.557
X5.013Y-4.6264
X5.062Y-2.9091
X5.0785Y-3.7432
X5.098Y-4.4004
X5.1268Y-3.6268
X5.1268Y-3.6583
X5.1268Y-3.6898
X5.1268Y-3.7213
X5.1268Y-3.7528
X5.15Y-3.4697
X5.1583Y-3.6268
X5.1583Y-3.6583
X5.1583Y-3.6898
X5.1583Y-3.7213
X5.1583Y-3.7528
X5.1898Y-3.6268
X5.1898Y-3.6583
X5.1898Y-3.6898
X5.1898Y-3.7213
X5.1898Y-3.7528
X5.1988Y-4.3803
X5.2213Y-3.6268
X5.2213Y-3.6583
X5.2213Y-3.6898
X5.2213Y-3.7213
X5.2213Y-3.7528
X5.2249Y-3.2169
X5.2327Y-3.8724
X5.2376Y-3.9864
X5.2528Y-3.6268
X5.2528Y-3.6583
X5.2528Y-3.6898
X5.2528Y-3.7213
X5.2528Y-3.7528
X5.2528Y-4.339
X5.2697Y-3.9681
X5.2701Y-3.8724
X5.2795Y-2.9384
X5.2871Y-4.4307
X5.2894Y-4.2598
X5.3197Y-3.6984
X5.3343Y-3.6228
X5.3406Y-4.4909
X5.3437Y-3.8057
X5.3461Y-4.2095
X5.3484Y-4.4477
X5.35Y-3.7012
X5.3697Y-3.6524
X5.3814Y-3.7947
X5.3933Y-4.3339
X5.413Y-3.7756
X5.4205Y-4.1898
X5.4323Y-4.0807
X5.435Y-4.2677
X5.4537Y-4.0207
X5.4537Y-4.4163
X5.4606Y-3.8681
X5.4606Y-4.3701
X5.4672Y-3.8106
X5.4717Y-4.5957
X5.4793Y-4.0482
X5.4823Y-4.1909
X5.4862Y-4.5272
X5.4886Y-3.3528
X5.4886Y-3.3843
X5.4886Y-3.4157
X5.4886Y-3.4472
X5.4886Y-3.4787
X5.4886Y-3.5102
X5.4886Y-3.5417
X5.4889Y-3.7835
X5.5105Y-3.9728
X5.5201Y-3.3528
X5.5201Y-3.3843
X5.5201Y-3.4157
X5.5201Y-3.4472
X5.5201Y-3.4787
X5.5201Y-3.5102
X5.5201Y-3.5417
X5.5213Y-4.0787
X5.5325Y-3.8725
X5.5398Y-4.4335
X5.5516Y-3.3528
X5.5516Y-3.3843
X5.5516Y-3.4157
X5.5516Y-3.4472
X5.5516Y-3.4787
X5.5516Y-3.5102
X5.5516Y-3.5417
X5.5528Y-4.4705
X5.5587Y-3.6339
X5.5587Y-3.6654
X5.5587Y-3.6969
X5.5587Y-3.7283
X5.5587Y-3.7598
X5.5622Y-4.126
X5.5669Y-4.5146
X5.5807Y-4.5472
X5.5831Y-3.3528
X5.5831Y-3.3843
X5.5831Y-3.4157
X5.5831Y-3.4472
X5.5831Y-3.4787
X5.5831Y-3.5102
X5.5831Y-3.5417
X5.5902Y-3.6339
X5.5902Y-3.6654
X5.5902Y-3.6969
X5.5902Y-3.7283
X5.5902Y-3.7598
X5.5935Y-4.3238
X5.6146Y-3.3528
X5.6146Y-3.3843
X5.6146Y-3.4157
X5.6146Y-3.4787
X5.6146Y-3.5102
X5.615Y-3.5402
X5.6161Y-3.4472
X5.6217Y-3.6339
X5.6217Y-3.6654
X5.6217Y-3.6969
X5.6217Y-3.7283
X5.6217Y-3.7598
X5.6453Y-3.4469
X5.6457Y-4.437
X5.6461Y-3.3528
X5.6461Y-3.3843
X5.6461Y-3.4157
X5.6461Y-3.4787
X5.6461Y-3.5102
X5.6465Y-3.5402
X5.6516Y-4.3484
X5.6531Y-3.6339
X5.6531Y-3.6654
X5.6531Y-3.6969
X5.6531Y-3.7283
X5.6531Y-3.7598
X5.662Y-4.5249
X5.6776Y-3.3843
X5.6776Y-3.4157
X5.6776Y-3.4472
X5.6776Y-3.4787
X5.6776Y-3.5102
X5.6776Y-3.5417
X5.6846Y-3.6339
X5.6846Y-3.6654
X5.6846Y-3.6969
X5.6846Y-3.7283
X5.6846Y-3.7598
X5.7091Y-3.3843
X5.7091Y-3.4157
X5.7091Y-3.4472
X5.7091Y-3.4787
X5.7091Y-3.5102
X5.7091Y-3.5417
X5.7146Y-4.3504
X5.7217Y-3.2559
X5.7271Y-4.0003
X5.7551Y-3.9684
X5.7879Y-4.3784
X5.789Y-4.3445
X5.7953Y-4.5906
X5.8258Y-4.5295
X5.8287Y-4.5846
X5.8303Y-3.4695
X5.8551Y-4.4382
X5.8701Y-3.9248
X5.8844Y-3.6293
X5.8898Y-3.8047
X5.8937Y-4.1102
X5.8988Y-4.0583
X5.9011Y-4.5217
X5.9012Y-4.1949
X5.9166Y-3.7595
X5.9169Y-4.2819
X5.9197Y-3.6146
X5.926Y-4.2332
X5.9291Y-4.6378
X5.94Y-3.1247
X5.9409Y-4.1102
X5.9547Y-3.6909
X5.9555Y-4.1933
X5.9555Y-4.3075
X5.9568Y-3.7369
X5.9618Y-3.8941
X5.9634Y-4.0386
X5.978Y-4.6016
X5.9781Y-4.5563
X5.9964Y-4.2736
X5.9965Y-3.9244
X5.9969Y-3.8929
X6.0059Y-4.3661
X6.0098Y-4.5571
X6.0098Y-4.5925
X6.0394Y-4.311
X6.0413Y-4.1917
X6.0413Y-4.3681
X6.0433Y-4.1083
X6.0453Y-4.0339
X6.0722Y-4.5361
X6.0819Y-3.348
X6.0819Y-3.3795
X6.0819Y-3.411
X6.0819Y-3.4425
X6.0819Y-3.474
X6.0819Y-3.5055
X6.0819Y-3.537
X6.0906Y-4.1083
X6.0906Y-4.311
X6.0925Y-4.3701
X6.0937Y-4.1937
X6.1004Y-4.0354
X6.1134Y-3.348
X6.1134Y-3.3795
X6.1134Y-3.411
X6.1134Y-3.4425
X6.1134Y-3.474
X6.1134Y-3.5055
X6.1134Y-3.537
X6.1339Y-3.811
X6.1362Y-4.2039
X6.137Y-4.1417
X6.1382Y-4.0945
X6.1382Y-4.239
X6.1386Y-4.2906
X6.1398Y-4.3213
X6.1449Y-3.348
X6.1449Y-3.3795
X6.1449Y-3.411
X6.1449Y-3.4425
X6.1449Y-3.474
X6.1449Y-3.5055
X6.1449Y-3.537
X6.1673Y-4.0492
X6.1764Y-3.348
X6.1764Y-3.3795
X6.1764Y-3.411
X6.1764Y-3.4425
X6.1764Y-3.474
X6.1764Y-3.5055
X6.1764Y-3.537
X6.1772Y-4.6295
X6.1787Y-3.6339
X6.1787Y-3.6654
X6.1787Y-3.6969
X6.1787Y-3.7283
X6.1787Y-3.7598
X6.1988Y-4.3622
X6.2079Y-3.348
X6.2079Y-3.3795
X6.2079Y-3.411
X6.2079Y-3.4425
X6.2079Y-3.474
X6.2079Y-3.5055
X6.2079Y-3.537
X6.2091Y-3.6961
X6.2102Y-3.6339
X6.2102Y-3.6654
X6.2102Y-3.7283
X6.2114Y-3.7594
X6.2244Y-4.0492
X6.2343Y-4.372
X6.2382Y-4.6014
X6.2394Y-3.348
X6.2394Y-3.3795
X6.2394Y-3.411
X6.2394Y-3.4425
X6.2394Y-3.474
X6.2394Y-3.5055
X6.2394Y-3.537
X6.2417Y-3.6339
X6.2417Y-3.6654
X6.2417Y-3.6969
X6.2417Y-3.7283
X6.2417Y-3.7598
X6.2697Y-4.3799
X6.2709Y-3.348
X6.2709Y-3.3795
X6.2709Y-3.411
X6.2709Y-3.4425
X6.2709Y-3.474
X6.2709Y-3.5055
X6.2709Y-3.537
X6.2724Y-3.6972
X6.2732Y-3.6339
X6.2732Y-3.6654
X6.2732Y-3.7283
X6.2732Y-3.7606
X6.2815Y-3.8701
X6.2992Y-3.8386
X6.3024Y-3.3795
X6.3024Y-3.411
X6.3024Y-3.4425
X6.3024Y-3.474
X6.3024Y-3.5055
X6.3024Y-3.537
X6.3047Y-3.6339
X6.3047Y-3.6654
X6.3047Y-3.6969
X6.3047Y-3.7283
X6.3047Y-3.7598
X6.3209Y-3.9705
X6.3209Y-4.4882
X6.3346Y-4.185
X6.337Y-3.4484
X6.3386Y-4.0453
X6.3473Y-4.1102
X6.3473Y-4.434
X6.3799Y-4.0984
X6.3878Y-4.0492
X6.4114Y-4.23
X6.4114Y-4.3504
T3
X4.9694Y-4.0639
X4.9694Y-4.1111
X4.9694Y-4.1583
X4.9694Y-4.2056
X4.9694Y-4.2528
X5.0167Y-4.0639
X5.0167Y-4.1111
X5.0167Y-4.1583
X5.0167Y-4.2056
X5.0167Y-4.2528
X5.0639Y-4.0639
X5.0639Y-4.1111
X5.0639Y-4.1583
X5.0639Y-4.2056
X5.0639Y-4.2528
X5.1111Y-4.0639
X5.1111Y-4.1111
X5.1111Y-4.1583
X5.1111Y-4.2056
X5.1111Y-4.2528
X5.1584Y-4.0639
X5.1584Y-4.1111
X5.1584Y-4.1583
X5.1584Y-4.2056
X5.1584Y-4.2528
T4
X4.8744Y-3.774
T5
X4.5957Y-3.5185
X4.5972Y-3.4035
X4.6016Y-4.4937
X4.7701Y-4.524
X4.8772Y-4.302
X4.8917Y-3.9386
X4.9142Y-4.3339
X5.0609Y-3.8533
X5.1354Y-2.9728
X5.2181Y-4.3181
X5.7441Y-3.5689
X5.7689Y-3.7197
X5.7803Y-3.4232
X6.3972Y-3.5264
X6.4232Y-4.4882
X6.433Y-3.3606
T6
X4.9638Y-3.0295
X5.0169Y-2.8378
X5.089Y-2.839
X5.3886Y-3.0295
X5.4866Y-3.0197
X5.574Y-4.0874
X5.628Y-3.0433
X5.6315Y-4.0524
X5.7236Y-2.9701
X5.8209Y-2.8488
X5.8846Y-2.8484
X5.9272Y-3.815
X5.952Y-2.8472
X5.9902Y-3.815
X6.1016Y-2.9449
X6.1504Y-3.0295
X6.1701Y-2.9472
T7
X6.387Y-3.5984
X6.387Y-3.6772
X6.387Y-3.7559
X6.387Y-3.8346
T8
X5.0787Y-3.0559
X5.2756Y-3.0559
X5.7815Y-3.0559
X5.9783Y-3.0559
T9
X4.8583Y-3.1693
X5.5137Y-3.1693
X6.1692Y-3.1693
T10
X4.6524Y-3.2551
X4.6524Y-4.5937
X6.3751Y-3.2551
X6.3751Y-4.5937
T0
M30
